<?xml version="1.0" encoding="utf-8"?>
<!-- Generator: Adobe Illustrator 23.0.0, SVG Export Plug-In . SVG Version: 6.00 Build 0)  -->
<svg version="1.1" id="Layer_1" xmlns="http://www.w3.org/2000/svg" xmlns:xlink="http://www.w3.org/1999/xlink" x="0px" y="0px"
	 viewBox="0 0 646.9 588" style="enable-background:new 0 0 646.9 588;" xml:space="preserve">
<style type="text/css">
	.st0{fill:#E6007E;}
	.st1{fill:#D41116;}
	.st2{fill:none;stroke:#010202;stroke-miterlimit:10;}
	.st3{fill:#51AE32;}
	.st4{fill:#010202;}
</style>
<g id="Disco_frente">
	<g>
		<path class="st0" d="M99,481.5c-49.3-49.2-76.4-114.6-76.4-184.1S49.7,162.4,99,113.2C148.2,64.1,213.7,37,283.4,37
			s135.1,27.1,184.4,76.3s76.4,114.6,76.4,184.1S517,432.3,467.7,481.5S353,557.7,283.4,557.7S148.2,530.6,99,481.5z M23.6,297.3
			c0,143,116.5,259.4,259.8,259.4s259.8-116.4,259.8-259.4S426.6,37.9,283.4,37.9S23.6,154.3,23.6,297.3z"/>
		<path class="st0" d="M282.9,350.3c-6.7,0-13.4-1.3-19.8-3.9c-12.8-5.3-22.9-15.3-28.2-28.1s-5.4-27-0.1-39.8l0.5,0.2l-0.5-0.2
			c5.3-12.8,15.3-22.9,28.1-28.2c12.8-5.3,27-5.4,39.8-0.1c26.5,10.9,39.2,41.4,28.3,67.9c-5.3,12.8-15.3,22.9-28.1,28.2
			C296.5,349,289.7,350.3,282.9,350.3z M235.8,278.9c-5.2,12.6-5.1,26.5,0.1,39c5.2,12.6,15.1,22.3,27.7,27.5
			c12.6,5.2,26.5,5.1,39-0.1c12.6-5.2,22.3-15.1,27.5-27.7c10.7-26-1.8-55.9-27.8-66.6c-12.6-5.2-26.5-5.1-39,0.1
			C250.7,256.5,241,266.3,235.8,278.9L235.8,278.9z"/>
		<path class="st0" d="M283.4,385.3c-48,0-87-39-87-87c0-48,39-87,87-87s87,39,87,87C370.4,346.2,331.4,385.3,283.4,385.3z
			 M283.4,212.2c-47.4,0-86,38.6-86,86c0,47.4,38.6,86,86,86s86-38.6,86-86C369.4,250.8,330.8,212.2,283.4,212.2z"/>
	</g>
	<g>
		<path class="st0" d="M274,229c0-4.9,4-8.9,8.9-8.9s8.9,4,8.9,8.9s-4,8.9-8.9,8.9S274,233.9,274,229z M275,229
			c0,4.4,3.5,7.9,7.9,7.9s7.9-3.6,7.9-7.9s-3.5-7.9-7.9-7.9S275,224.6,275,229z"/>
		<path class="st0" d="M214.3,263.4c0-4.9,4-8.9,8.9-8.9s8.9,4,8.9,8.9s-4,8.9-8.9,8.9S214.3,268.3,214.3,263.4z M215.3,263.4
			c0,4.4,3.5,7.9,7.9,7.9s7.9-3.5,7.9-7.9s-3.5-7.9-7.9-7.9C218.8,255.5,215.3,259,215.3,263.4z"/>
		<path class="st0" d="M214.3,332.6c0-4.9,4-8.9,8.9-8.9s8.9,4,8.9,8.9s-4,8.9-8.9,8.9S214.3,337.5,214.3,332.6z M215.3,332.6
			c0,4.4,3.5,7.9,7.9,7.9s7.9-3.5,7.9-7.9s-3.5-7.9-7.9-7.9C218.8,324.7,215.3,328.2,215.3,332.6z"/>
		<path class="st0" d="M274.3,367.3c0-4.9,4-8.9,8.9-8.9s8.9,4,8.9,8.9s-4,8.9-8.9,8.9S274.3,372.2,274.3,367.3z M275.3,367.3
			c0,4.4,3.5,7.9,7.9,7.9s7.9-3.5,7.9-7.9s-3.5-7.9-7.9-7.9S275.3,362.9,275.3,367.3z"/>
		<path class="st0" d="M334.1,332.4c0-4.9,4-8.9,8.9-8.9s8.9,4,8.9,8.9s-4,8.9-8.9,8.9S334.1,337.3,334.1,332.4z M335.1,332.4
			c0,4.4,3.5,7.9,7.9,7.9s7.9-3.5,7.9-7.9s-3.5-7.9-7.9-7.9S335.1,328,335.1,332.4z"/>
		<path class="st0" d="M334.4,263.7c0-4.9,4-8.9,8.9-8.9s8.9,4,8.9,8.9s-4,8.9-8.9,8.9S334.4,268.6,334.4,263.7z M335.4,263.7
			c0,4.4,3.5,7.9,7.9,7.9s7.9-3.5,7.9-7.9c0-4.4-3.5-7.9-7.9-7.9S335.4,259.3,335.4,263.7z"/>
	</g>
	<path class="st0" d="M124.4,273.5c0.1,0.3,0.1,0.5,0.2,0.7c0.3,1.1,5.7,15,9,23.4v0.4c0,0.3,0,0.6,0,1c0,31.8,9.8,62.1,28.4,87.8
		c0.5,2.8,1.4,5.4,2.1,7.7l0.4,1.3c0.4,1.2,0.8,2.8,1.2,4.4c1.9,6.9,4.2,15.4,7.5,18.1c2.1,1.7,5.4,2.8,8.8,3.9c3.4,1.1,7,2.2,9.3,4
		c2.4,1.8,4.5,4.9,6.5,7.6c2,2.8,3.7,5.1,5.4,6.1c2.9,1.6,5.5,1.7,7.1,1.8c0.3,0,0.5,0,0.8,0c0,0,0.1,0,0.2,0c1.9,0,14.6-0.8,22-1.3
		c16.1,5.7,33.1,8.7,50.3,8.7c17,0,33.7-2.8,49.6-8.4c7.4,0.5,20,1.3,21.9,1.3c0.1,0,0.2,0,0.2,0c0.2,0,0.5,0,0.8,0
		c1.6,0,4.2-0.1,7.1-1.8c1.7-1,3.4-3.4,5.4-6.1c1.9-2.7,4.1-5.8,6.5-7.6c2.3-1.8,5.9-2.9,9.3-4c3.5-1.1,6.8-2.2,8.8-3.9
		c3.4-2.8,5.7-11.3,7.5-18.1c0.4-1.6,0.8-3.1,1.2-4.4l0.4-1.3c0.6-1.9,1.2-4,1.8-6.2c19.3-26,29.6-56.9,29.6-89.4
		c0-1.7,0-3.5-0.1-5.4c4.9-12.4,7.4-19.1,7.6-19.9c0-0.2,0.1-0.5,0.2-0.7c0.4-1.5,1.2-4.1,0.5-7.3c-0.4-1.9-2.2-4.3-4.2-7
		c-2-2.6-4.3-5.6-5.3-8.5c-1-2.8-1-6.5-1-10.1c0-3.6,0-7.1-1-9.6c-1.6-4.1-9-8.8-15-12.7c-1.4-0.9-2.7-1.8-3.8-2.5l-1.1-0.8
		c-1.5-1.1-3.2-2.2-5.1-3.4c-9.4-13-21-24.5-34-33.9c-0.1-0.1-0.3-0.2-0.4-0.4c-0.4-0.3-0.8-0.6-1.2-0.8
		c-11.8-8.3-24.8-15-38.5-19.5c-6-4.9-20.1-16.3-21.1-16.9c-0.2-0.1-0.4-0.3-0.7-0.4c-1.3-0.9-3.5-2.3-6.8-2.6
		c-1.9-0.2-4.8,0.8-7.9,1.9c-3.1,1.1-6.7,2.4-9.7,2.5c-3,0.1-6.5-1-9.9-2.1c-3.5-1.1-6.8-2.1-9.5-1.9c-4.4,0.3-11.2,5.9-16.6,10.5
		c-1.3,1.1-2.5,2.1-3.5,2.9l-1.1,0.9c-1.7,1.3-3.5,2.7-5.4,4.4c-15,4.6-29.1,11.7-41.9,20.8c-0.4,0.2-0.7,0.5-1.1,0.7
		c-0.2,0.1-0.3,0.3-0.5,0.4c-12.6,9.2-23.9,20.3-33.2,33c-2.5,1.4-4.9,3-7,4.4l-1.1,0.8c-1.1,0.7-2.4,1.6-3.8,2.5
		c-6,3.8-13.4,8.6-15,12.7c-1,2.5-1,5.9-1,9.6c0,3.6,0,7.3-1,10.1c-1,2.8-3.3,5.8-5.3,8.5c-2,2.7-3.8,5-4.2,7
		C123.3,269.4,124,272,124.4,273.5z M196,178.6c0.6-0.4,1.2-0.8,1.7-1.3c1.6-0.9,3.3-1.4,5.1-1.4c3.3,0,5.9,1.6,5.9,1.6l36.9,24.1
		c0,0,2.8,2.1,3.2,7.4c0.4,5-3.3,8.9-3.7,9.4c-0.7,0.4-6.1,3.3-11.3,6.7c-5.6,3.6-14.1,11.2-14.2,11.3c0,0-2.8,2.2-8.1,2.1
		c-5.2-0.2-8.1-5.7-8.1-5.8l-11.9-43.5C191.5,189,190.6,183.1,196,178.6z M329,156.3l3.1,2.5c0,0,5.1,6.2,3.8,12
		c-0.1,0.4-0.2,0.7-0.3,1c-1.5,4.9-5.5,7.4-12.4,11.8l-1.2,0.8c-8,5.1-30.8,18.6-31,18.7c-0.1,0.1-2.3,1.9-6.3,1.9
		c-1.9,0-3.8-0.4-5.9-1.2l-39.4-23.5c-0.1,0-6.3-4-6.6-11.5c-0.2-4,2-7.9,6.8-12.3c1.8-1.6,3.7-3.1,5.4-4.4l1.1-0.9
		c1-0.8,2.3-1.8,3.5-2.9c5.1-4.2,12-10,16-10.3c2.5-0.2,5.7,0.8,9.1,1.9c3.5,1.1,7.2,2.2,10.3,2.1c3.1-0.1,6.8-1.4,10-2.5
		c3-1,5.7-2,7.5-1.9c3,0.3,5,1.6,6.4,2.5c0.3,0.2,0.5,0.3,0.7,0.4C310.3,141.1,319.9,148.8,329,156.3z M375.2,189.1l-11.9,43.5l0,0
		c0,0-2.9,5.5-8,5.7c-5.3,0.2-8.1-2.1-8.2-2.1c-0.1-0.1-8.5-7.6-14.2-11.3c-5.3-3.4-10.7-6.3-11.3-6.7c-0.5-0.5-4.2-4.4-3.7-9.4
		c0.5-5.3,3.2-7.4,3.2-7.5l36.9-24.1c0,0,2.6-1.7,6-1.7c1.8,0,3.6,0.5,5.2,1.4c0.5,0.4,1,0.7,1.5,1.1
		C376.2,182.7,375.3,188.8,375.2,189.1z M440.1,273.5c-0.1,0.4-1.2,3.5-7.6,19.8c-1.6,4.1-2.8,7.2-2.8,7.2l0,0c0,0-4.4,6.8-10.3,7.3
		c-1.1,0.1-2.1,0-3-0.1c-2.9-0.5-5.5-2.1-8.7-4.5c-1.3-1-2.7-2.2-4.3-3.6l-1.1-0.9c-7.3-6.1-27-23.7-27.2-23.9
		c-0.3-0.2-5-3.2-4.4-11.4l10.5-44.7c0,0,0.2-0.7,0.7-1.8c1-2.3,3.4-6.2,8.3-8c0.8-0.3,1.7-0.5,2.7-0.6c0.3,0,0.6,0,0.9,0
		c3.1,0,6.6,1.2,11,3.8c1.8,1.1,3.6,2.3,5.1,3.4l1.1,0.8c1.1,0.7,2.4,1.6,3.8,2.5c5.5,3.6,13.1,8.4,14.6,12.2
		c0.9,2.3,0.9,5.7,0.9,9.2c0,3.7,0,7.5,1.1,10.4c1.1,3,3.4,6,5.4,8.7c1.9,2.5,3.7,4.9,4,6.6c0.6,3,0,5.3-0.5,6.8
		C440.3,273,440.2,273.3,440.1,273.5z M425.4,344c-2.5,7.1-9.6,7.9-9.7,7.9l-45,2c-0.6-0.1-6.3-1.2-7.9-5.9c-1.8-5-0.5-8.4-0.5-8.4
		c0-0.1,4.7-10.5,6.4-16.9c1.6-6.1,2.7-12.1,2.9-12.9c0.3-0.6,2.9-5.3,7.8-6.4c1.1-0.3,2.2-0.4,3.3-0.4c3.1,0,4.8,1.2,4.9,1.2
		l34.2,27.7C421.8,332.2,427.8,337,425.4,344z M355,440.9c-1.8,0-13.5-0.8-21-1.3l-0.9-0.1c-3.9-0.3-6.8-0.5-6.8-0.5
		c0,0-7.8-2.1-10-7.6c-2.2-5.3-0.4-9.7,3-17.8l0.5-1.3c3.6-8.8,14.4-32.9,14.5-33.2c0.1-0.3,1.6-5.8,9.5-7.6l45.8-3.5
		c0,0,0.1,0,0.3,0c1.7,0,7.7,0.4,11.7,5.6c2.5,3.2,3,7.8,1.4,14.5c-0.5,2.2-1.2,4.4-1.8,6.3l-0.4,1.3c-0.4,1.3-0.8,2.8-1.2,4.4
		c-1.7,6.4-4.1,15.1-7.2,17.6c-1.9,1.6-5.1,2.6-8.5,3.7c-3.5,1.1-7.1,2.3-9.6,4.2c-2.5,1.9-4.7,5-6.7,7.8c-1.8,2.5-3.5,5-5,5.8
		c-2.7,1.5-5,1.6-6.6,1.6c-0.3,0-0.6,0-0.8,0C355.2,440.9,355.1,440.9,355,440.9z M282.9,447.4c-7.4,0-10-7.4-10.1-7.4l-15.5-41.3
		c0,0-0.9-3.4,1.8-7.9c2.6-4.3,7.9-5.2,8.5-5.3c0.7,0.1,6.8,1,13.1,1.3c1,0,2,0.1,3.3,0.1c6.5,0,14.8-0.8,14.8-0.8
		c0.7,0,4,0.1,7.8,3.1c4.1,3.2,3.1,9.4,3.1,9.4l-16.1,42.1c-0.1,0.2-3,6.6-10.6,6.7L282.9,447.4z M162.9,386.5
		c-1.1-5.8-0.6-10.1,1.7-13c4-5.2,10-5.6,11.7-5.6c0.2,0,0.3,0,0.4,0l45.8,3.6c7.9,1.9,9.4,7.3,9.4,7.5c0.1,0.3,10.9,24.5,14.5,33.3
		l0.6,1.3c3.3,8,5.2,12.5,3,17.8c-2.3,5.5-10.1,7.6-10.1,7.6l-6.5,0.4c-7.4,0.5-20.2,1.3-22.1,1.3c-0.1,0-0.1,0-0.1,0
		c-0.2,0-0.5,0-0.8,0c-1.6,0-4-0.1-6.6-1.6c-1.5-0.9-3.2-3.3-5-5.8c-2-2.8-4.2-5.9-6.7-7.8c-2.5-1.9-6.1-3.1-9.6-4.2
		c-3.4-1.1-6.6-2.1-8.5-3.7c-3.1-2.6-5.5-11.3-7.2-17.6c-0.4-1.6-0.9-3.2-1.2-4.4l-0.4-1.3C164.3,391.8,163.4,389.2,162.9,386.5z
		 M145.6,331.8l34.3-27.8c0,0,1.7-1.2,4.8-1.2c1,0,2.1,0.1,3.3,0.4c4.9,1.1,7.5,5.9,7.8,6.4c0.1,0.7,1.2,6.8,2.9,12.9
		c1.7,6.5,6.3,16.8,6.4,17c0,0,1.3,3.4-0.5,8.4c-1.7,4.7-7.4,5.8-7.9,5.9l-45.1-2c-0.3,0-7.2-0.8-9.7-7.9
		C139.3,336.8,145.6,331.8,145.6,331.8z M134.6,300.1l0.5,1.2c0.2,0.4,4.7,7.4,11.1,7.9c0.4,0,0.8,0,1.2,0c0,0,0,0,0,0l0,0
		c0.1,0,0.1,0,0.2,0c1.9,0,3.7-0.5,5.4-1.3c0,0,0,0,0,0c0.3-0.1,0.5-0.3,0.8-0.4c0,0,0.1,0,0.1,0c0.3-0.1,0.5-0.3,0.8-0.5
		c0,0,0.1,0,0.1-0.1c0.3-0.2,0.5-0.3,0.8-0.5c0,0,0.1-0.1,0.2-0.1c0.3-0.2,0.5-0.4,0.8-0.5c0.1,0,0.1-0.1,0.2-0.1
		c0.3-0.2,0.5-0.4,0.8-0.6c0.1-0.1,0.1-0.1,0.2-0.2c0.3-0.2,0.5-0.4,0.8-0.6c0.1-0.1,0.2-0.1,0.3-0.2c0.3-0.2,0.5-0.4,0.8-0.6
		c0.1-0.1,0.2-0.2,0.4-0.3c0.2-0.2,0.5-0.4,0.7-0.6c0.3-0.3,0.6-0.5,0.9-0.8c0,0,0.1-0.1,0.2-0.1c0.4-0.3,0.8-0.7,1.2-1l1.1-0.9
		c7.3-6.1,27-23.7,27.2-23.9c0.2-0.1,5.4-3.4,4.7-12.2l-10.5-44.8c-0.1-0.3-2-7.7-9.6-10.5c-0.4-0.2-0.9-0.3-1.4-0.4
		c-0.2,0-0.3-0.1-0.5-0.1c-0.3-0.1-0.6-0.1-0.9-0.1c-0.2,0-0.4,0-0.6,0c-0.3,0-0.6,0-0.9,0c-0.2,0-0.4,0-0.6,0
		c-0.3,0-0.6,0.1-0.9,0.1c-0.2,0-0.4,0.1-0.7,0.1c-0.3,0.1-0.6,0.1-1,0.2c-0.2,0.1-0.4,0.1-0.7,0.2c-0.4,0.1-0.7,0.2-1.1,0.4
		c-0.2,0.1-0.4,0.1-0.6,0.2c-0.5,0.2-1,0.4-1.5,0.6c-0.1,0-0.2,0.1-0.3,0.1c0,0,0,0,0,0c8-10.7,17.5-20.2,28-28.4
		c-2.4,4-1.8,7.9-1.8,8.1l11.9,43.6c0.2,0.3,3.2,6.2,9,6.4c0.2,0,0.4,0,0.6,0c5.3,0,8.1-2.2,8.2-2.3c0.1-0.1,8.5-7.6,14.1-11.2
		c5.6-3.6,11.3-6.6,11.3-6.7l0.1-0.1c0.2-0.2,4.6-4.4,4.1-10.2c-0.5-5.8-3.5-8.1-3.6-8.2l-36.9-24.1c-0.1-0.1-2.8-1.8-6.4-1.8
		c-0.6,0-1.2,0.1-1.8,0.1c11.3-7.5,23.5-13.5,36.3-17.7c0,0,0,0-0.1,0.1c-0.4,0.4-0.8,0.9-1.2,1.3c-0.1,0.1-0.1,0.1-0.2,0.2
		c-0.4,0.4-0.7,0.9-1,1.3c0,0.1-0.1,0.1-0.1,0.2c-0.3,0.4-0.6,0.9-0.9,1.3c0,0,0,0.1-0.1,0.1c-0.3,0.4-0.5,0.9-0.7,1.3
		c0,0,0,0.1,0,0.1c-0.2,0.4-0.4,0.9-0.5,1.3c0,0.1,0,0.1-0.1,0.2c-0.1,0.4-0.3,0.8-0.3,1.2c0,0.1,0,0.1,0,0.2
		c-0.1,0.4-0.2,0.8-0.2,1.3c0,0.1,0,0.1,0,0.2c0,0.4,0,0.9,0,1.3c0.4,8.1,6.8,12.1,7.1,12.3l39.5,23.5c2.2,0.9,4.3,1.3,6.3,1.3l0,0
		c3.5,0,5.7-1.3,6.5-1.9c0.2-0.1,0.4-0.3,0.4-0.3c0.1-0.1,7.3-4.4,15.1-9c0.9-0.5,1.7-1,2.6-1.6c1.7-1,3.4-2.1,5.1-3.1
		c3.3-2,6.2-3.8,8.2-5.1l1.2-0.8c7.3-4.6,11.8-7.4,13.1-13.4c0.1-0.4,0.1-0.7,0.2-1.1c0-0.1,0-0.3,0-0.4c0-0.3,0-0.5,0-0.7
		c0-0.1,0-0.3,0-0.4c0-0.2,0-0.4,0-0.7c0-0.1,0-0.3,0-0.4c0-0.2-0.1-0.4-0.1-0.6c0-0.1,0-0.3-0.1-0.4c0-0.2-0.1-0.4-0.2-0.6
		c0-0.1-0.1-0.3-0.1-0.4c-0.1-0.2-0.1-0.5-0.2-0.7c0-0.1-0.1-0.2-0.1-0.3c-0.1-0.3-0.2-0.6-0.4-0.9c0,0,0,0,0-0.1
		c-0.1-0.3-0.3-0.6-0.4-0.8c0-0.1-0.1-0.2-0.1-0.3c-0.1-0.2-0.2-0.4-0.3-0.5c-0.1-0.1-0.1-0.2-0.2-0.3c-0.1-0.2-0.2-0.3-0.3-0.4
		c-0.1-0.1-0.1-0.2-0.2-0.3c-0.1-0.1-0.2-0.3-0.3-0.4c0-0.1-0.1-0.2-0.2-0.3c-0.1-0.1-0.2-0.2-0.2-0.4c0-0.1-0.1-0.1-0.1-0.2
		c-0.1-0.1-0.2-0.2-0.2-0.3c0,0-0.1-0.1-0.1-0.1c-0.1-0.1-0.2-0.3-0.3-0.4c11.5,4.1,22.5,9.6,32.7,16.4c-0.6-0.1-1.2-0.1-1.8-0.1
		c-3.7,0-6.4,1.8-6.5,1.8l-36.9,24.1c-0.2,0.1-3.2,2.4-3.7,8.2c-0.5,5.8,3.9,10,4.1,10.2l0.1,0.1c0.1,0,5.8,3.1,11.3,6.7
		c5.5,3.6,14,11.1,14,11.2c0.1,0.1,2.9,2.3,8.2,2.3l0,0c0.2,0,0.4,0,0.6,0c5.8-0.2,8.8-6.1,9-6.3l12-43.7c0-0.1,0.7-4.2-1.7-8.3
		c10.8,8.3,20.5,18.1,28.7,29c-0.3-0.1-0.6-0.3-0.8-0.4c-0.1-0.1-0.3-0.1-0.4-0.2c-0.5-0.2-0.9-0.4-1.4-0.6c-0.1,0-0.2-0.1-0.3-0.1
		c-0.4-0.1-0.7-0.3-1-0.4c-0.2-0.1-0.3-0.1-0.5-0.1c-0.3-0.1-0.6-0.2-0.8-0.3c-0.2-0.1-0.3-0.1-0.5-0.1c-0.3-0.1-0.5-0.1-0.8-0.2
		c-0.2,0-0.3-0.1-0.5-0.1c-0.3-0.1-0.5-0.1-0.8-0.1c-0.1,0-0.3,0-0.4-0.1c-0.4,0-0.8-0.1-1.2-0.1c-1.4,0-2.7,0.2-3.9,0.7
		c-7.6,2.8-9.5,10.2-9.6,10.5l-10.5,44.8c-0.7,8.9,4.5,12.2,4.8,12.4c0.1,0.1,19.9,17.7,27.2,23.9l1.1,0.9c0.4,0.4,0.8,0.7,1.2,1
		c0.1,0,0.1,0.1,0.2,0.1c0.3,0.3,0.6,0.5,0.9,0.8c0.1,0.1,0.3,0.2,0.4,0.3c0.2,0.2,0.5,0.4,0.7,0.6c0.2,0.1,0.3,0.2,0.4,0.4
		c0.2,0.2,0.4,0.3,0.6,0.5c0.2,0.1,0.3,0.2,0.5,0.4c0.2,0.1,0.4,0.3,0.5,0.4c0.2,0.1,0.3,0.2,0.5,0.4s0.3,0.2,0.5,0.4
		c0.2,0.1,0.3,0.2,0.5,0.3c0.2,0.1,0.3,0.2,0.5,0.3c0.2,0.1,0.3,0.2,0.5,0.3c0.1,0.1,0.3,0.2,0.4,0.3c0.2,0.1,0.3,0.2,0.5,0.3
		c0.1,0.1,0.3,0.1,0.4,0.2c0.2,0.1,0.4,0.2,0.5,0.3c0.1,0.1,0.2,0.1,0.4,0.2c0.2,0.1,0.4,0.2,0.6,0.3c0.1,0,0.2,0.1,0.3,0.1
		c0.2,0.1,0.4,0.1,0.6,0.2c0.1,0,0.2,0,0.3,0.1c0.2,0.1,0.5,0.1,0.7,0.2c0,0,0.1,0,0.1,0c0.8,0.2,1.6,0.3,2.4,0.3c0.1,0,0.3,0,0.4,0
		c0,0,0,0,0,0c0.4,0,0.8,0,1.2,0c2.4-0.2,4.5-1.3,6.3-2.6c2.9-2.2,4.7-5,4.8-5.2c0,0,0,0,0,0c0,0,0,0,0,0c0-0.1,0.1-0.2,0.2-0.5
		c0,0,0-0.1,0-0.1c0-0.1,0-0.1,0.1-0.2c0.3-0.6,0.6-1.6,1.1-2.8c0.2-0.4,0.3-0.8,0.5-1.3c0,1,0,2,0,3c0,14-1.9,27.8-5.7,41
		c-0.4-5.3-4.7-8.8-4.8-8.8l-34.2-27.7c-0.1-0.1-2-1.4-5.5-1.4c-1.1,0-2.3,0.1-3.5,0.4c-5.7,1.3-8.3,6.8-8.5,7l0,0.1
		c0,0.1-1.1,6.4-2.9,12.8c-1.7,6.4-6.3,16.7-6.3,16.8c-0.1,0.2-1.4,3.8,0.5,9.1c2,5.5,8.5,6.5,8.8,6.6l0,0h0l45.1-2
		c0.1,0,5.3-0.6,8.7-5c-4.7,13.5-11.3,26.3-19.9,38.1c0-0.1,0-0.1,0-0.2c0-0.1,0-0.2,0-0.3c0-0.2,0.1-0.4,0.1-0.6c0-0.1,0-0.2,0-0.3
		c0-0.2,0.1-0.5,0.1-0.7c0-0.1,0-0.2,0-0.2c0-0.3,0.1-0.6,0.1-0.9c0-0.1,0-0.1,0-0.2c0-0.2,0-0.5,0-0.7c0-0.1,0-0.2,0-0.3
		c0-0.2,0-0.4,0-0.6c0-0.1,0-0.2,0-0.4c0-0.2,0-0.4,0-0.6c0-0.1,0-0.2,0-0.4c0-0.2,0-0.4-0.1-0.6c0-0.1,0-0.2,0-0.3
		c0-0.3-0.1-0.6-0.2-0.9c0,0,0-0.1,0-0.1c-0.1-0.3-0.1-0.5-0.2-0.8c0-0.1-0.1-0.2-0.1-0.3c-0.1-0.2-0.1-0.4-0.2-0.6
		c0-0.1-0.1-0.2-0.1-0.3c-0.1-0.2-0.2-0.4-0.3-0.6c0-0.1-0.1-0.2-0.2-0.3c-0.1-0.2-0.2-0.4-0.3-0.6c0-0.1-0.1-0.2-0.2-0.3
		c-0.2-0.3-0.4-0.5-0.6-0.8c-4.3-5.5-10.6-5.9-12.5-5.9c-0.3,0-0.4,0-0.4,0l-45.8,3.6c-8.7,2-10.3,8-10.3,8.3c0,0,0,0.1-0.1,0.3
		c-1.3,2.8-11,24.6-14.4,32.8l-0.5,1.3c-3.3,8-5.3,12.8-3,18.5c2.5,6,10.5,8.1,10.8,8.2c0,0,0,0,0.1,0h0c0.4,0,1.8,0.1,3.8,0.3
		c0.2,0,0.3,0,0.5,0c-14.3,4.8-29.3,7.3-44.5,7.5c6-1.5,8.5-6.9,8.5-6.9l16.1-42.2c0.1-0.4,1.1-6.9-3.5-10.5
		c-4.1-3.2-7.7-3.3-8.3-3.3h-0.2c-0.1,0-8.3,0.8-14.8,0.8c-1.2,0-2.3,0-3.2-0.1c-6.6-0.4-13-1.3-13.1-1.3l-0.1,0l-0.1,0
		c-0.3,0-6.3,0.8-9.3,5.8c-3,5-2,8.6-1.9,8.8l15.5,41.2c0,0.1,2.2,6,8,7.7c-15.1-0.4-29.9-3-44.1-7.8l4.2-0.3
		c0.4-0.1,8.4-2.3,10.9-8.2c2.1-5,0.8-9.3-1.8-15.7c-0.4-0.9-0.8-1.9-1.2-2.9l-0.5-1.3c-3.4-8.2-13.1-30-14.4-32.9
		c-0.1-0.2-0.1-0.3-0.1-0.3c0-0.2-1.6-6.2-10.2-8.2l-45.9-3.6c0,0-0.1,0-0.4,0c-1.8,0-8.2,0.4-12.5,5.9c-0.3,0.4-0.6,0.8-0.8,1.2
		c-0.1,0.1-0.1,0.3-0.2,0.4c-0.1,0.3-0.3,0.6-0.4,0.9c-0.1,0.2-0.1,0.4-0.2,0.6c-0.1,0.3-0.2,0.6-0.3,0.9c-0.1,0.2-0.1,0.4-0.2,0.6
		c-0.1,0.3-0.1,0.6-0.2,0.9c0,0.2-0.1,0.4-0.1,0.7c0,0.3-0.1,0.7-0.1,1c0,0.2,0,0.5,0,0.7c0,0.4,0,0.8,0,1.2c0,0.2,0,0.4,0,0.6
		c0,0.5,0.1,1.1,0.2,1.7c0,0.1,0,0.2,0,0.3c0,0,0,0,0,0c-8-11.4-14.3-23.8-18.8-36.7c3.4,4.4,8.5,5,8.6,5l45.2,2l0,0
		c0.3,0,6.8-1.1,8.8-6.6c1.9-5.4,0.5-9,0.5-9.1c-0.1-0.1-4.6-10.4-6.4-16.8c-1.7-6.4-2.8-12.8-2.9-12.8l0-0.1
		c-0.1-0.2-2.8-5.7-8.5-7c-1.2-0.3-2.4-0.4-3.5-0.4c-3.5,0-5.4,1.3-5.4,1.4L145,331c0,0-4.4,3.5-4.8,8.8
		C136.6,327,134.7,313.7,134.6,300.1z M124.9,266.4c0.4-1.7,2.1-4.1,4-6.6c2-2.7,4.3-5.8,5.4-8.7c1.1-2.9,1.1-6.8,1.1-10.4
		c0-3.6,0-6.9,0.9-9.2c1.5-3.8,9.1-8.6,14.6-12.2c1.4-0.9,2.8-1.8,3.8-2.5l1.1-0.8c2.1-1.4,4.4-3.1,7-4.4c0.6-0.3,1.1-0.6,1.7-0.8
		c0.1-0.1,0.3-0.1,0.4-0.2c0.5-0.2,1-0.4,1.5-0.6c0,0,0,0,0.1,0c0.5-0.2,1-0.4,1.5-0.5c0.1,0,0.3-0.1,0.4-0.1
		c0.4-0.1,0.8-0.2,1.2-0.3c0.1,0,0.2,0,0.2-0.1c0.4-0.1,0.9-0.1,1.3-0.1c0.1,0,0.3,0,0.4,0c0.4,0,0.7,0,1,0c0.1,0,0.2,0,0.3,0
		c0.4,0,0.8,0.1,1.2,0.2c0.1,0,0.2,0.1,0.3,0.1c0.4,0.1,0.8,0.2,1.2,0.3c7,2.6,8.9,9.7,8.9,9.8l10.5,44.7c0,0.3,0,0.6,0,0.9
		c0.2,7.3-4.1,10.2-4.3,10.4c0,0,0,0,0,0c-0.2,0.1-6.4,5.7-13.1,11.6c-0.1,0.1-0.2,0.2-0.3,0.3c-1.5,1.3-3,2.6-4.4,3.9
		c-0.8,0.6-1.5,1.3-2.2,1.9c-2.9,2.5-5.5,4.8-7.3,6.3l-1.1,0.9c-1.1,1-2.2,1.8-3.1,2.6c0,0,0,0-0.1,0c-0.3,0.2-0.5,0.4-0.8,0.6
		c-0.1,0.1-0.1,0.1-0.2,0.2c-0.2,0.2-0.5,0.4-0.7,0.5c-0.1,0.1-0.2,0.1-0.3,0.2c-0.2,0.2-0.4,0.3-0.6,0.5c-0.1,0.1-0.2,0.1-0.3,0.2
		c-0.2,0.1-0.4,0.3-0.6,0.4c-0.1,0.1-0.2,0.1-0.3,0.2c-0.2,0.1-0.4,0.2-0.5,0.4c-0.1,0.1-0.2,0.1-0.4,0.2c-0.2,0.1-0.4,0.2-0.5,0.3
		c-0.1,0.1-0.3,0.1-0.4,0.2c-0.2,0.1-0.3,0.2-0.5,0.3c-0.1,0.1-0.3,0.1-0.4,0.2c-0.1,0.1-0.3,0.1-0.5,0.2s-0.3,0.1-0.5,0.2
		c-0.1,0-0.3,0.1-0.4,0.1c-0.2,0.1-0.4,0.1-0.6,0.2c-0.1,0-0.2,0.1-0.3,0.1c-0.3,0.1-0.5,0.1-0.8,0.2c-0.1,0-0.1,0-0.2,0
		c-0.3,0-0.6,0.1-1,0.1c0,0-0.1,0-0.1,0c-0.3,0-0.6,0-0.9,0c-0.4,0-0.7,0-1.1,0c-5.9-0.5-10.3-7.3-10.3-7.4l-1.4-3.6
		c-0.3-0.8-0.6-1.5-0.9-2.3l0-0.1c-4.9-12.5-7.9-20.2-8-20.9c0-0.2-0.1-0.5-0.2-0.8C124.9,271.7,124.3,269.4,124.9,266.4z"/>
	<g id="Capa_4">
		<g>
			<path class="st1" d="M189.8,152c0-7-5.7-12.8-12.8-12.8s-12.8,5.7-12.8,12.8s5.7,12.8,12.8,12.8S189.8,159,189.8,152z M188.8,152
				c0,6.5-5.3,11.8-11.8,11.8s-11.8-5.3-11.8-11.8s5.3-11.8,11.8-11.8C183.6,140.3,188.8,145.5,188.8,152z"/>
			<path class="st1" d="M186.5,151.8c0-5.2-4.2-9.4-9.4-9.4s-9.4,4.2-9.4,9.4s4.2,9.4,9.4,9.4S186.5,156.9,186.5,151.8z
				 M185.5,151.8c0,4.6-3.8,8.4-8.4,8.4s-8.4-3.8-8.4-8.4s3.8-8.4,8.4-8.4S185.5,147.1,185.5,151.8z"/>
			<path class="st1" d="M185,151.8c0-4.3-3.5-7.9-7.9-7.9s-7.9,3.5-7.9,7.9s3.5,7.9,7.9,7.9S185,156.1,185,151.8z M184,151.8
				c0,3.8-3.1,6.9-6.9,6.9c-3.8,0-6.9-3.1-6.9-6.9s3.1-6.9,6.9-6.9C180.9,144.9,184,148,184,151.8z"/>
			<path class="st1" d="M181.8,152c0-2.6-2.1-4.8-4.8-4.8s-4.8,2.1-4.8,4.8s2.1,4.8,4.8,4.8S181.8,154.6,181.8,152z M180.8,152
				c0,2.1-1.7,3.8-3.8,3.8s-3.8-1.7-3.8-3.8s1.7-3.8,3.8-3.8S180.8,149.9,180.8,152z"/>
			<path class="st1" d="M124.2,242.7c0-7-5.7-12.8-12.8-12.8s-12.8,5.7-12.8,12.8s5.7,12.8,12.8,12.8S124.2,249.7,124.2,242.7z
				 M123.2,242.7c0,6.5-5.3,11.8-11.8,11.8s-11.8-5.3-11.8-11.8s5.3-11.8,11.8-11.8C117.9,230.9,123.2,236.2,123.2,242.7z"/>
			<path class="st1" d="M120.8,242.4c0-5.2-4.2-9.4-9.4-9.4s-9.4,4.2-9.4,9.4s4.2,9.4,9.4,9.4C116.6,251.8,120.8,247.6,120.8,242.4z
				 M119.8,242.4c0,4.6-3.8,8.4-8.4,8.4s-8.4-3.8-8.4-8.4c0-4.6,3.8-8.4,8.4-8.4C116,234,119.8,237.8,119.8,242.4z"/>
			<path class="st1" d="M119.2,242.4c0-4.3-3.5-7.9-7.9-7.9c-4.3,0-7.9,3.5-7.9,7.9s3.5,7.9,7.9,7.9
				C115.7,250.3,119.2,246.8,119.2,242.4z M118.2,242.4c0,3.8-3.1,6.9-6.9,6.9c-3.8,0-6.9-3.1-6.9-6.9s3.1-6.9,6.9-6.9
				S118.2,238.6,118.2,242.4z"/>
			<path class="st1" d="M116.2,242.7c0-2.6-2.1-4.8-4.8-4.8s-4.8,2.1-4.8,4.8s2.1,4.8,4.8,4.8C114,247.4,116.2,245.3,116.2,242.7z
				 M115.2,242.7c0,2.1-1.7,3.8-3.8,3.8s-3.8-1.7-3.8-3.8s1.7-3.8,3.8-3.8C113.5,238.9,115.2,240.6,115.2,242.7z"/>
			<path class="st1" d="M111.4,341.3c-7,0-12.8,5.7-12.8,12.8s5.7,12.8,12.8,12.8s12.8-5.7,12.8-12.8S118.4,341.3,111.4,341.3z
				 M111.4,342.3c6.5,0,11.8,5.3,11.8,11.8s-5.3,11.8-11.8,11.8s-11.8-5.3-11.8-11.8S104.9,342.3,111.4,342.3z"/>
			<path class="st1" d="M111.4,344.4c-5.2,0-9.4,4.2-9.4,9.4s4.2,9.4,9.4,9.4s9.4-4.2,9.4-9.4S116.6,344.4,111.4,344.4z
				 M111.4,345.4c4.6,0,8.4,3.8,8.4,8.4s-3.8,8.4-8.4,8.4s-8.4-3.8-8.4-8.4S106.8,345.4,111.4,345.4z"/>
			<path class="st1" d="M111.4,345.9c-4.3,0-7.9,3.5-7.9,7.9s3.5,7.9,7.9,7.9c4.3,0,7.9-3.5,7.9-7.9S115.8,345.9,111.4,345.9z
				 M111.4,346.9c3.8,0,6.9,3.1,6.9,6.9s-3.1,6.9-6.9,6.9c-3.8,0-6.9-3.1-6.9-6.9S107.6,346.9,111.4,346.9z"/>
			<path class="st1" d="M111.4,349.3c-2.6,0-4.8,2.1-4.8,4.8s2.1,4.8,4.8,4.8s4.8-2.1,4.8-4.8S114,349.3,111.4,349.3z M111.4,350.3
				c2.1,0,3.8,1.7,3.8,3.8s-1.7,3.8-3.8,3.8s-3.8-1.7-3.8-3.8S109.4,350.3,111.4,350.3z"/>
			<path class="st1" d="M164.3,444c0,7,5.7,12.8,12.8,12.8s12.8-5.7,12.8-12.8s-5.7-12.8-12.8-12.8S164.3,437,164.3,444z M165.3,444
				c0-6.5,5.3-11.8,11.8-11.8s11.8,5.3,11.8,11.8s-5.3,11.8-11.8,11.8S165.3,450.5,165.3,444z"/>
			<path class="st1" d="M167.7,443.8c0,5.2,4.2,9.4,9.4,9.4s9.4-4.2,9.4-9.4s-4.2-9.4-9.4-9.4C171.9,434.4,167.7,438.6,167.7,443.8z
				 M168.7,443.8c0-4.6,3.8-8.4,8.4-8.4s8.4,3.8,8.4,8.4s-3.8,8.4-8.4,8.4S168.7,448.4,168.7,443.8z"/>
			<path class="st1" d="M169.2,443.8c0,4.3,3.5,7.9,7.9,7.9s7.9-3.5,7.9-7.9s-3.5-7.9-7.9-7.9S169.2,439.4,169.2,443.8z
				 M170.2,443.8c0-3.8,3.1-6.9,6.9-6.9c3.8,0,6.9,3.1,6.9,6.9s-3.1,6.9-6.9,6.9S170.2,447.5,170.2,443.8z"/>
			<path class="st1" d="M172.3,444c0,2.6,2.1,4.8,4.8,4.8s4.8-2.1,4.8-4.8s-2.1-4.8-4.8-4.8S172.3,441.4,172.3,444z M173.3,444
				c0-2.1,1.7-3.8,3.8-3.8s3.8,1.7,3.8,3.8s-1.7,3.8-3.8,3.8S173.3,446.1,173.3,444z"/>
			<path class="st1" d="M270.7,479c0,7,5.7,12.8,12.8,12.8s12.8-5.7,12.8-12.8s-5.7-12.8-12.8-12.8C276.4,466.3,270.7,472,270.7,479
				z M271.7,479c0-6.5,5.3-11.8,11.8-11.8s11.8,5.3,11.8,11.8s-5.3,11.8-11.8,11.8C276.9,490.8,271.7,485.5,271.7,479z"/>
			<path class="st1" d="M274,478.8c0,5.2,4.2,9.4,9.4,9.4s9.4-4.2,9.4-9.4s-4.2-9.4-9.4-9.4C278.2,469.4,274,473.6,274,478.8z
				 M275,478.8c0-4.6,3.8-8.4,8.4-8.4s8.4,3.8,8.4,8.4s-3.8,8.4-8.4,8.4S275,483.4,275,478.8z"/>
			<path class="st1" d="M275.5,478.8c0,4.3,3.5,7.9,7.9,7.9c4.3,0,7.9-3.5,7.9-7.9s-3.5-7.9-7.9-7.9
				C279.1,470.9,275.5,474.4,275.5,478.8z M276.5,478.8c0-3.8,3.1-6.9,6.9-6.9c3.8,0,6.9,3.1,6.9,6.9s-3.1,6.9-6.9,6.9
				S276.5,482.5,276.5,478.8z"/>
			<path class="st1" d="M278.7,479c0,2.6,2.1,4.8,4.8,4.8s4.8-2.1,4.8-4.8s-2.1-4.8-4.8-4.8S278.7,476.4,278.7,479z M279.7,479
				c0-2.1,1.7-3.8,3.8-3.8s3.8,1.7,3.8,3.8s-1.7,3.8-3.8,3.8C281.4,482.8,279.7,481.1,279.7,479z"/>
			<path class="st1" d="M377.1,444.2c0,7,5.7,12.8,12.8,12.8s12.8-5.7,12.8-12.8s-5.7-12.8-12.8-12.8S377.1,437.1,377.1,444.2z
				 M378.1,444.2c0-6.5,5.3-11.8,11.8-11.8s11.8,5.3,11.8,11.8s-5.3,11.8-11.8,11.8S378.1,450.6,378.1,444.2z"/>
			<path class="st1" d="M380.5,443.9c0,5.2,4.2,9.4,9.4,9.4s9.4-4.2,9.4-9.4s-4.2-9.4-9.4-9.4C384.7,434.5,380.5,438.8,380.5,443.9z
				 M381.5,443.9c0-4.6,3.8-8.4,8.4-8.4s8.4,3.8,8.4,8.4s-3.8,8.4-8.4,8.4C385.3,452.3,381.5,448.5,381.5,443.9z"/>
			<path class="st1" d="M381.9,443.9c0,4.3,3.5,7.9,7.9,7.9c4.3,0,7.9-3.5,7.9-7.9s-3.5-7.9-7.9-7.9S381.9,439.6,381.9,443.9z
				 M382.9,443.9c0-3.8,3.1-6.9,6.9-6.9c3.8,0,6.9,3.1,6.9,6.9s-3.1,6.9-6.9,6.9C386,450.8,382.9,447.7,382.9,443.9z"/>
			<path class="st1" d="M385.1,444.2c0,2.6,2.1,4.8,4.8,4.8s4.8-2.1,4.8-4.8s-2.1-4.8-4.8-4.8C387.3,439.4,385.1,441.5,385.1,444.2z
				 M386.1,444.2c0-2.1,1.7-3.8,3.8-3.8s3.8,1.7,3.8,3.8s-1.7,3.8-3.8,3.8S386.1,446.2,386.1,444.2z"/>
			<path class="st1" d="M454.5,366.7c7,0,12.8-5.7,12.8-12.8s-5.7-12.8-12.8-12.8s-12.8,5.7-12.8,12.8S447.5,366.7,454.5,366.7z
				 M442.8,354c0-6.5,5.3-11.8,11.8-11.8s11.8,5.3,11.8,11.8s-5.3,11.8-11.8,11.8S442.8,360.5,442.8,354z"/>
			<path class="st1" d="M445.1,353.7c0,5.2,4.2,9.4,9.4,9.4s9.4-4.2,9.4-9.4s-4.2-9.4-9.4-9.4S445.1,348.6,445.1,353.7z
				 M446.1,353.7c0-4.6,3.8-8.4,8.4-8.4s8.4,3.8,8.4,8.4s-3.8,8.4-8.4,8.4C449.9,362.1,446.1,358.4,446.1,353.7z"/>
			<path class="st1" d="M446.6,353.7c0,4.3,3.5,7.9,7.9,7.9c4.3,0,7.9-3.5,7.9-7.9c0-4.3-3.5-7.9-7.9-7.9
				C450.2,345.9,446.6,349.4,446.6,353.7z M447.6,353.7c0-3.8,3.1-6.9,6.9-6.9c3.8,0,6.9,3.1,6.9,6.9c0,3.8-3.1,6.9-6.9,6.9
				C450.7,360.6,447.6,357.5,447.6,353.7z"/>
			<path class="st1" d="M449.8,354c0,2.6,2.1,4.8,4.8,4.8s4.8-2.1,4.8-4.8s-2.1-4.8-4.8-4.8S449.8,351.4,449.8,354z M450.8,354
				c0-2.1,1.7-3.8,3.8-3.8s3.8,1.7,3.8,3.8s-1.7,3.8-3.8,3.8S450.8,356,450.8,354z"/>
			<path class="st1" d="M454.8,255.4c7,0,12.8-5.7,12.8-12.8s-5.7-12.8-12.8-12.8s-12.8,5.7-12.8,12.8S447.7,255.4,454.8,255.4z
				 M454.8,254.4c-6.5,0-11.8-5.3-11.8-11.8s5.3-11.8,11.8-11.8s11.8,5.3,11.8,11.8S461.2,254.4,454.8,254.4z"/>
			<path class="st1" d="M454.8,251.8c5.2,0,9.4-4.2,9.4-9.4s-4.2-9.4-9.4-9.4s-9.4,4.2-9.4,9.4C445.4,247.6,449.6,251.8,454.8,251.8
				z M454.8,250.8c-4.6,0-8.4-3.8-8.4-8.4c0-4.6,3.8-8.4,8.4-8.4s8.4,3.8,8.4,8.4C463.1,247,459.4,250.8,454.8,250.8z"/>
			<path class="st1" d="M454.8,250.3c4.3,0,7.9-3.5,7.9-7.9s-3.5-7.9-7.9-7.9c-4.3,0-7.9,3.5-7.9,7.9S450.4,250.3,454.8,250.3z
				 M454.8,249.3c-3.8,0-6.9-3.1-6.9-6.9s3.1-6.9,6.9-6.9c3.8,0,6.9,3.1,6.9,6.9S458.5,249.3,454.8,249.3z"/>
			<path class="st1" d="M454.8,247.4c2.6,0,4.8-2.1,4.8-4.8s-2.1-4.8-4.8-4.8s-4.8,2.1-4.8,4.8S452.1,247.4,454.8,247.4z
				 M454.8,246.4c-2.1,0-3.8-1.7-3.8-3.8s1.7-3.8,3.8-3.8s3.8,1.7,3.8,3.8C458.5,244.7,456.8,246.4,454.8,246.4z"/>
			<path class="st1" d="M402.3,152.1c0-7-5.7-12.8-12.8-12.8s-12.8,5.7-12.8,12.8s5.7,12.8,12.8,12.8S402.3,159.2,402.3,152.1z
				 M401.3,152.1c0,6.5-5.3,11.8-11.8,11.8s-11.8-5.3-11.8-11.8s5.3-11.8,11.8-11.8C396,140.4,401.3,145.7,401.3,152.1z"/>
			<path class="st1" d="M398.9,151.9c0-5.2-4.2-9.4-9.4-9.4s-9.4,4.2-9.4,9.4s4.2,9.4,9.4,9.4C394.7,161.3,398.9,157.1,398.9,151.9z
				 M397.9,151.9c0,4.6-3.8,8.4-8.4,8.4s-8.4-3.8-8.4-8.4c0-4.6,3.8-8.4,8.4-8.4C394.2,143.5,397.9,147.3,397.9,151.9z"/>
			<path class="st1" d="M397.4,151.9c0-4.3-3.5-7.9-7.9-7.9c-4.3,0-7.9,3.5-7.9,7.9s3.5,7.9,7.9,7.9
				C393.9,159.8,397.4,156.2,397.4,151.9z M396.4,151.9c0,3.8-3.1,6.9-6.9,6.9c-3.8,0-6.9-3.1-6.9-6.9s3.1-6.9,6.9-6.9
				C393.3,145,396.4,148.1,396.4,151.9z"/>
			<path class="st1" d="M394.3,152.1c0-2.6-2.1-4.8-4.8-4.8s-4.8,2.1-4.8,4.8s2.1,4.8,4.8,4.8C392.2,156.9,394.3,154.8,394.3,152.1z
				 M393.3,152.1c0,2.1-1.7,3.8-3.8,3.8s-3.8-1.7-3.8-3.8s1.7-3.8,3.8-3.8S393.3,150.1,393.3,152.1z"/>
			<path class="st1" d="M296.2,117.8c0-7-5.7-12.8-12.8-12.8s-12.8,5.7-12.8,12.8s5.7,12.8,12.8,12.8S296.2,124.8,296.2,117.8z
				 M295.2,117.8c0,6.5-5.3,11.8-11.8,11.8s-11.8-5.3-11.8-11.8s5.3-11.8,11.8-11.8S295.2,111.3,295.2,117.8z"/>
			<path class="st1" d="M292.8,117.5c0-5.2-4.2-9.4-9.4-9.4s-9.4,4.2-9.4,9.4s4.2,9.4,9.4,9.4C288.6,126.9,292.8,122.7,292.8,117.5z
				 M291.8,117.5c0,4.6-3.8,8.4-8.4,8.4s-8.4-3.8-8.4-8.4s3.8-8.4,8.4-8.4C288,109.1,291.8,112.9,291.8,117.5z"/>
			<path class="st1" d="M291.3,117.5c0-4.3-3.5-7.9-7.9-7.9s-7.9,3.5-7.9,7.9s3.5,7.9,7.9,7.9S291.3,121.8,291.3,117.5z
				 M290.3,117.5c0,3.8-3.1,6.9-6.9,6.9s-6.9-3.1-6.9-6.9s3.1-6.9,6.9-6.9S290.3,113.7,290.3,117.5z"/>
			<path class="st1" d="M288.2,117.8c0-2.6-2.1-4.8-4.8-4.8s-4.8,2.1-4.8,4.8s2.1,4.8,4.8,4.8S288.2,120.4,288.2,117.8z
				 M287.2,117.8c0,2.1-1.7,3.8-3.8,3.8s-3.8-1.7-3.8-3.8s1.7-3.8,3.8-3.8S287.2,115.7,287.2,117.8z"/>
			<path class="st1" d="M85.3,328.6c2,4.4,7,8.2,13.5,6.1c4.1-1.4,6.2-1.8,7-2l2.2,7c-6.4,1.6-11.1,7.3-11.1,14.1
				c0,8,6.5,14.6,14.6,14.6c2.2,0,4.3-0.5,6.1-1.4l2.4,7.1c-0.7,0.4-2.6,1.2-6.8,2.5c-6.5,2.1-8.3,8.1-7.3,12.8
				c1.7,8,23.4,37.5,30.3,45.6c3.6,4.3,7.5,5.4,10.5,5.4c2.8,0,4.9-1,5.5-1.5c1.1-0.9,5.8-6.7,7.1-8.3l6.2,4.5
				c-1.8,2.4-2.8,5.4-2.8,8.6c0,8,6.5,14.6,14.6,14.6c4.8,0,9.1-2.4,11.8-6l6.5,4.7c-1.1,1.7-5.2,8-5.7,9.3c-0.6,1.4-1.3,9.8,8.7,14
				c9.4,3.9,42.2,14.8,51.7,14.8c0.3,0,0.6,0,0.9,0c4.8-0.5,10-4.1,10-10.9c0-4.3,0.2-6.4,0.3-7.2l7.7,0.1c-0.1,0.6-0.1,1.1-0.1,1.7
				c0,8,6.5,14.6,14.6,14.6c8,0,14.6-6.5,14.6-14.6c0-0.6,0-1.1-0.1-1.7l7.6-0.1c0.1,0.8,0.3,2.9,0.3,7.2c0,6.8,5.1,10.4,10,10.9
				c0.3,0,0.6,0,0.9,0c9.5,0,42.3-10.9,51.7-14.8c10-4.1,9.2-12.6,8.7-14c-0.5-1.3-4.6-7.6-5.7-9.3l6.6-4.8c2.6,3.8,7,6.2,11.9,6.2
				c8,0,14.6-6.5,14.6-14.6c0-3.3-1.1-6.3-3-8.8l6.1-4.5c1.3,1.6,6,7.4,7.1,8.3c0.5,0.5,2.7,1.5,5.5,1.5c3,0,6.9-1.2,10.5-5.4
				c6.8-8,28.5-37.6,30.3-45.6c1-4.7-0.8-10.8-7.3-12.8c-4.1-1.3-6.1-2.2-6.8-2.5l2.3-6.8c1.7,0.7,3.5,1.1,5.4,1.1
				c8,0,14.6-6.5,14.6-14.6c0-6.6-4.4-12.1-10.3-13.9l2.3-7.1c0.8,0.1,2.8,0.6,7,2c6.4,2.1,11.5-1.6,13.5-6.1
				c3.3-7.5,3.1-44.1,2.3-54.6c-0.8-10.8-9.1-12.7-10.6-12.6c-1.4,0.1-8.7,2-10.6,2.5l-2.5-7.8c5.4-2.1,9.3-7.4,9.3-13.6
				c0-8-6.5-14.6-14.6-14.6c-1.4,0-2.8,0.2-4.1,0.6l-2.5-7.4c1.9-0.7,8.9-3.5,10.1-4.2c1.3-0.8,6.8-7.2,1.1-16.4
				c-5.5-9-27-38.7-34.1-42.8c-4.2-2.4-10.5-2.5-14.5,3c-2.5,3.5-3.9,5.1-4.5,5.7l-6.1-4.5c2.4-2.6,3.9-6.1,3.9-9.9
				c0-8-6.5-14.6-14.6-14.6c-5.2,0-9.8,2.8-12.4,6.9l-5.8-4.2c0.4-0.7,1.4-2.5,4-6c4-5.5,2-11.4-1.7-14.7c-6.1-5.4-41-16.6-51.3-19
				c-10.5-2.5-14.9,4.8-15.2,6.2c-0.3,1.3-0.8,8.9-0.9,10.9l-8.3,0c0-8-6.6-14.5-14.6-14.5s-14.5,6.5-14.6,14.5l-8.4,0
				c-0.1-2-0.5-9.5-0.9-10.9c-0.4-1.4-4.7-8.7-15.2-6.2c-10.3,2.5-45.2,13.6-51.3,19c-3.6,3.2-5.7,9.2-1.7,14.7c2.6,3.5,3.6,5.3,4,6
				l-5.9,4.2c-2.5-4.2-7.2-7.1-12.5-7.1c-8,0-14.6,6.5-14.6,14.6c0,3.9,1.5,7.4,4,10l-6.1,4.5c-0.5-0.6-2-2.1-4.5-5.7
				c-4-5.5-10.3-5.4-14.5-3c-7.1,4.1-28.5,33.8-34.1,42.8c-5.7,9.2-0.1,15.6,1.1,16.4c1.2,0.8,8.2,3.5,10.1,4.2l-2.5,7.6
				c-1.5-0.5-3-0.8-4.7-0.8c-8,0-14.6,6.5-14.6,14.6c0,6.4,4.1,11.8,9.8,13.7l-2.5,7.6c-1.9-0.5-9.2-2.4-10.6-2.5
				c-1.5-0.1-9.8,1.8-10.6,12.6C82.2,284.5,82,321.2,85.3,328.6z M111.4,229c7.5,0,13.6,6.1,13.6,13.6s-6.1,13.6-13.6,13.6
				s-13.6-6.1-13.6-13.6C97.9,235.1,103.9,229,111.4,229z M109.4,332.4c2-0.5,8.5-2.5,11.1-6.3c3-4.5,4.5-8,1-17.9
				c-3.3-9.3-13.7-39.8-14.6-42.3l3-8.9c0.5,0,1,0.1,1.4,0.1c8,0,14.6-6.5,14.6-14.6c0-5.2-2.7-9.7-6.8-12.3l2.8-9.1
				c2.2-1.5,28.6-20,36.7-25.6c8.6-5.9,9.4-9.6,9.7-15c0.2-4.6-3.9-10.1-5.2-11.6l6.5-4.5l0,0c2.2,1.3,4.7,2.1,7.4,2.1
				c8,0,14.6-6.5,14.6-14.6c0-1.3-0.2-2.6-0.5-3.8l5.8-4.4c1.1,1.7,5,7.4,9.4,8.6c1.8,0.5,3.5,0.9,5.2,0.9c3.2,0,6.7-1.3,12.1-5.4
				c7.8-6,33.7-25.3,35.8-26.9l9.8,0.1c1.5,6.4,7.3,11.3,14.2,11.3c6.9,0,12.7-4.8,14.2-11.3v0.1l9.7-0.2
				c2.1,1.6,27.9,20.9,35.8,26.9c5.4,4.1,8.9,5.4,12.1,5.4c1.7,0,3.4-0.4,5.2-0.9c4.5-1.2,8.3-6.9,9.4-8.6l5.7,4.4
				c-0.4,1.3-0.6,2.6-0.6,4c0,8,6.5,14.6,14.6,14.6c2.8,0,5.3-0.8,7.5-2.1l6.5,4.4c-1.3,1.6-5.5,7-5.2,11.6c0.3,5.4,1.1,9.1,9.7,15
				c8.1,5.6,34.5,24.1,36.7,25.6l2.7,8.8c-4.3,2.5-7.3,7.2-7.3,12.6c0,8,6.5,14.6,14.6,14.6c0.7,0,1.3-0.1,2-0.1l3,9
				c-0.9,2.5-11.3,33-14.6,42.3c-3.5,9.9-1.9,13.3,1,17.9c2.5,3.9,9.1,5.8,11.1,6.3l-2.4,6.9c-0.1,0-0.2,0-0.3,0
				c-8,0-14.6,6.5-14.6,14.6c0,4.7,2.2,8.9,5.7,11.5l-2,6.9c-1.9-0.8-8.4-3-12.7-1.4c-5,1.9-8.3,3.8-11.3,13.8
				c-2.8,9.5-12.3,40.3-13.1,42.8l-7.4,5.3c-2.5-2-5.7-3.3-9.2-3.3c-8,0-14.6,6.5-14.6,14.6c0,2,0.4,3.8,1.1,5.5l-0.1-0.2l-7.7,5.8
				c-2.7,0-34.9-0.5-44.8-0.7c-10.5-0.2-13.3,2.3-16.6,6.5c-2.9,3.6-2.7,10.5-2.5,12.5l-7.8-0.2c-2.2-5.3-7.4-9-13.4-9
				c-6,0-11.2,3.7-13.4,9l-7.9,0.2c0.1-2,0.3-8.9-2.5-12.5c-3.4-4.2-6.2-6.8-16.6-6.5c-9.9,0.2-42.1,0.7-44.8,0.7l-7.6-5.7
				c0.7-1.7,1.1-3.6,1.1-5.5c0-8-6.5-14.6-14.6-14.6c-3.6,0-6.9,1.3-9.4,3.5l-7.5-5.3c-0.8-2.5-10.3-33.4-13.1-42.8
				c-3-10-6.3-11.9-11.3-13.8c-4.3-1.6-10.8,0.7-12.7,1.4l-2.2-7.4c3.1-2.7,5-6.6,5-11c0-7.9-6.3-14.3-14.1-14.5L109.4,332.4z
				 M167.3,162.6c0.5,0.4,1,0.9,1.5,1.2l-7.1,4.9l0.4,0.4c0.1,0.1,5.6,6.4,5.4,11.3c-0.3,5.1-0.9,8.5-9.3,14.3
				c-8.4,5.8-36.6,25.5-36.8,25.7l-0.1,0.1l-2.9,9.2c-0.4-0.2-0.9-0.4-1.3-0.6l2.8-8.5l-0.5-0.2c-2.5-1-9.3-3.6-10.3-4.3
				c-1.1-0.7-6.1-6.5-0.8-15.1c5.3-8.6,26.9-38.5,33.7-42.4c3.8-2.2,9.6-2.3,13.1,2.7c3.5,4.9,4.9,6.1,4.9,6.1l0.3,0.3L167.3,162.6z
				 M190.6,151.9c0,7.5-6.1,13.6-13.6,13.6s-13.6-6.1-13.6-13.6s6.1-13.6,13.6-13.6C184.6,138.3,190.6,144.4,190.6,151.9z
				 M268.9,118.5c0,0.5,0.1,0.9,0.2,1.4l-10-0.1l-0.1,0.1c-0.3,0.2-27.8,20.8-35.9,27c-8.1,6.2-11.5,5.7-16.4,4.3
				c-4.8-1.3-9.1-8.5-9.1-8.6l-0.3-0.5l-6.4,4.9c-0.2-0.6-0.5-1.2-0.8-1.8l6.6-4.7l-0.2-0.4c0-0.1-0.8-1.8-4.3-6.6
				c-3.7-5-1.8-10.4,1.5-13.3c5.8-5.2,41-16.4,50.8-18.8c9.7-2.3,13.7,4.2,14,5.5c0.3,1.2,0.7,8.4,0.8,11.2l0,0.5L268.9,118.5z
				 M297,117.6c0,7.5-6.1,13.6-13.6,13.6s-13.6-6.1-13.6-13.6s6.1-13.6,13.6-13.6S297,110.2,297,117.6z M376.7,145.2
				c-0.3,0.6-0.5,1.1-0.8,1.7l-6.3-4.9l-0.3,0.5c0,0.1-4.4,7.3-9.1,8.6c-4.9,1.3-8.3,1.8-16.4-4.3c-8.1-6.2-35.6-26.8-35.9-27
				l-0.1-0.1l-9.9,0.2c0.1-0.5,0.1-0.9,0.2-1.4l9.3,0l0-0.5c0.1-2.7,0.5-10,0.8-11.2c0.3-1.3,4.3-7.8,14-5.5
				c9.9,2.4,45,13.6,50.8,18.8c3.3,2.9,5.2,8.4,1.5,13.3c-3.5,4.8-4.3,6.5-4.3,6.6l-0.2,0.4L376.7,145.2z M403.1,152
				c0,7.5-6.1,13.6-13.6,13.6S376,159.5,376,152c0-1.5,0.3-3,0.8-4.4l0,0l0,0c1.8-5.3,6.9-9.2,12.8-9.2
				C397,138.5,403.1,144.5,403.1,152z M449.7,228.9c-0.4,0.2-0.9,0.4-1.3,0.6l-2.8-8.9l-0.1-0.1c-0.3-0.2-28.4-19.9-36.8-25.7
				c-8.4-5.8-9-9.2-9.3-14.3c-0.3-4.9,5.3-11.3,5.3-11.3l0.4-0.4l-7.1-4.9c0.5-0.4,1-0.8,1.5-1.2l6.9,5.1l0.3-0.3
				c0.1-0.1,1.4-1.3,4.9-6.1c3.6-5,9.3-4.9,13.1-2.7c6.8,3.9,28.4,33.8,33.7,42.4c5.3,8.5,0.3,14.3-0.8,15.1
				c-1,0.7-7.8,3.3-10.3,4.3l-0.4,0.2L449.7,228.9z M454.8,256.1c-7.5,0-13.6-6.1-13.6-13.6s6.1-13.6,13.6-13.6s13.6,6.1,13.6,13.6
				S462.2,256.1,454.8,256.1z M457.8,339.7c-0.6-0.1-1.2-0.3-1.9-0.3l2.7-7.7l-0.5-0.1c-0.1,0-8.3-1.9-11-6c-2.8-4.3-4.3-7.4-0.9-17
				c3.4-9.6,14.5-42.1,14.6-42.5l0.1-0.2l-3.1-9.1c0.5-0.1,0.9-0.2,1.4-0.4l2.8,8.7l0.5-0.1c2.6-0.7,9.7-2.5,10.9-2.6
				c1.3-0.1,8.8,1.7,9.5,11.7c0.8,10.1,0.9,47-2.3,54.2c-1.8,4-6.4,7.5-12.2,5.5c-5.7-1.9-7.5-2-7.6-2.1l-0.4,0L457.8,339.7z
				 M454.5,367.4c-2.9,0-5.5-0.9-7.7-2.4l0,0l-0.1,0c-3.5-2.5-5.8-6.5-5.8-11.1c0-7.5,6.1-13.6,13.6-13.6s13.6,6.1,13.6,13.6
				C468.1,361.3,462,367.4,454.5,367.4z M400.8,434.5c-0.3-0.4-0.6-0.7-1-1l7.5-5.3l0-0.2c0.1-0.3,10.2-33.2,13.1-43
				c2.9-9.8,6-11.4,10.7-13.2c4.6-1.8,12.3,1.6,12.4,1.6l0.5,0.2l2.3-7.6c0.5,0.4,1.1,0.6,1.7,0.9l-2.6,7.7l0.3,0.2
				c0.1,0,1.7,1,7.3,2.8c5.9,1.9,7.5,7.4,6.6,11.7c-1.7,7.7-23.5,37.4-30,45.1c-6.5,7.6-13.5,4.7-14.6,3.9c-1-0.8-5.6-6.4-7.3-8.5
				l-0.3-0.4L400.8,434.5z M376.3,444c0-7.5,6.1-13.6,13.6-13.6s13.6,6.1,13.6,13.6s-6.1,13.6-13.6,13.6S376.3,451.5,376.3,444z
				 M297.7,476.2c-0.1-0.6-0.3-1.3-0.5-1.9l8.5,0.2l0-0.6c0-0.1-0.8-8.5,2.3-12.3c3.2-4,5.7-6.4,15.8-6.1
				c10.2,0.2,44.6,0.7,44.9,0.7h0.2l7.8-5.9c0.2,0.5,0.5,1,0.8,1.4l-0.1-0.1l-7.4,5.4l0.3,0.4c1.5,2.3,5.4,8.4,5.9,9.5
				c0.5,1.2,1.1,8.9-8.1,12.7c-9.4,3.9-44.4,15.5-52.2,14.7c-4.4-0.5-9.1-3.7-9.1-9.9c0-6-0.4-7.8-0.4-7.9l-0.1-0.4L297.7,476.2z
				 M269.9,478.9c0-7.5,6.1-13.6,13.6-13.6s13.6,6.1,13.6,13.6s-6.1,13.6-13.6,13.6C275.9,492.4,269.9,486.4,269.9,478.9z
				 M189.4,451.6c0.3-0.4,0.5-0.8,0.7-1.2l7.7,5.8h0.2c0.3,0,34.7-0.5,44.9-0.7c10.2-0.2,12.7,2.2,15.8,6.1
				c3.1,3.8,2.3,12.2,2.3,12.3l-0.1,0.6l8.6-0.2c-0.2,0.6-0.4,1.2-0.5,1.9l-8.6-0.1l-0.1,0.4c0,0.1-0.4,1.9-0.4,7.9
				c0,6.2-4.7,9.5-9.1,9.9c-7.8,0.8-42.8-10.8-52.2-14.7c-9.3-3.8-8.6-11.4-8.1-12.7c0.5-1.1,4.4-7.3,5.9-9.5l0.3-0.4L189.4,451.6z
				 M163.5,443.9c0-7.5,6.1-13.6,13.6-13.6s13.6,6.1,13.6,13.6s-6.1,13.6-13.6,13.6S163.5,451.4,163.5,443.9z M118.5,366.6
				c0.6-0.3,1.1-0.7,1.6-1.1l2.4,8.1l0.5-0.2c0.1,0,7.8-3.4,12.4-1.6c4.8,1.8,7.8,3.4,10.7,13.2c2.9,9.8,13,42.6,13.1,43l0,0.2
				l7.5,5.3c-0.3,0.3-0.7,0.7-1,1l-7-5.1l-0.3,0.4c-1.7,2.1-6.3,7.7-7.3,8.5c-1,0.9-8.1,3.8-14.6-3.9c-6.6-7.7-28.4-37.5-30-45.1
				c-0.9-4.3,0.8-9.8,6.6-11.7c5.7-1.8,7.3-2.8,7.4-2.8l0.3-0.2L118.5,366.6z M111.4,340.3c7.5,0,13.6,6.1,13.6,13.6
				s-6.1,13.6-13.6,13.6s-13.6-6.1-13.6-13.6S103.9,340.3,111.4,340.3z M84,274.1c0.8-10,8.2-11.8,9.5-11.7
				c1.2,0.1,8.3,1.9,10.9,2.6l0.5,0.1l2.7-8.6c0.5,0.1,0.9,0.2,1.4,0.3l-3.1,9l0.1,0.2c0.1,0.3,11.2,32.8,14.6,42.5
				c3.4,9.6,1.9,12.7-0.9,17c-2.7,4.1-10.9,6-11,6l-0.5,0.1l2.7,7.7c-0.6,0-1.3,0.1-1.9,0.2l-2.5-7.9l-0.4,0c-0.1,0-1.9,0.2-7.6,2.1
				c-5.9,1.9-10.4-1.5-12.2-5.5C83.1,321.1,83.2,284.2,84,274.1z"/>
		</g>
		<path class="st2" d="M-22.4,560.8"/>
		<path class="st2" d="M-16.3,557.1"/>
	</g>
	<path class="st3" d="M282.3,368.2l0-1c0.7,0,1.3,0,2,0l0,1c-0.3,0-0.7,0-1,0C283,368.2,282.7,368.2,282.3,368.2z M286.3,367.2
		c0.7,0,1.3-0.1,2-0.1l0.1,1c-0.7,0-1.3,0.1-2,0.1L286.3,367.2z M278.3,368l0.1-1c0.7,0,1.3,0.1,2,0.1l0,1
		C279.6,368.1,279,368.1,278.3,368z M290.3,366.9c0.7-0.1,1.3-0.1,2-0.2l0.1,1c-0.7,0.1-1.3,0.2-2,0.2L290.3,366.9z M274.3,367.6
		l0.1-1c0.7,0.1,1.3,0.2,2,0.2l-0.1,1C275.6,367.8,275,367.7,274.3,367.6z M294.2,366.4c0.7-0.1,1.3-0.2,2-0.3l0.2,1
		c-0.7,0.1-1.3,0.2-2,0.3L294.2,366.4z M270.3,367l0.2-1c0.7,0.1,1.3,0.2,2,0.3l-0.2,1C271.6,367.3,271,367.1,270.3,367z
		 M298.1,365.6c0.7-0.1,1.3-0.3,1.9-0.5l0.2,1c-0.7,0.2-1.3,0.3-2,0.5L298.1,365.6z M266.4,366.1l0.2-1c0.6,0.2,1.3,0.3,1.9,0.5
		l-0.2,1C267.7,366.5,267,366.3,266.4,366.1z M302,364.7c0.6-0.2,1.3-0.4,1.9-0.6l0.3,1c-0.6,0.2-1.3,0.4-1.9,0.6L302,364.7z
		 M262.5,365.1l0.3-1c0.6,0.2,1.3,0.4,1.9,0.6l-0.3,1C263.8,365.5,263.1,365.3,262.5,365.1z M305.8,363.5c0.6-0.2,1.3-0.4,1.9-0.7
		l0.3,0.9c-0.6,0.2-1.3,0.5-1.9,0.7L305.8,363.5z M258.7,363.8l0.3-0.9c0.6,0.2,1.2,0.5,1.9,0.7l-0.3,1
		C259.9,364.2,259.3,364,258.7,363.8z M309.5,362.1c0.6-0.3,1.2-0.5,1.8-0.8l0.4,0.9c-0.6,0.3-1.2,0.5-1.9,0.8L309.5,362.1z
		 M254.9,362.2l0.4-0.9c0.6,0.3,1.2,0.5,1.8,0.8l-0.4,0.9C256.2,362.8,255.6,362.5,254.9,362.2z M313.2,360.5
		c0.6-0.3,1.2-0.6,1.8-0.9l0.5,0.9c-0.6,0.3-1.2,0.6-1.8,0.9L313.2,360.5z M251.3,360.5l0.5-0.9c0.6,0.3,1.2,0.6,1.8,0.9l-0.4,0.9
		C252.5,361.1,251.9,360.8,251.3,360.5z M316.7,358.6c0.6-0.3,1.2-0.6,1.7-1l0.5,0.9c-0.6,0.3-1.2,0.7-1.8,1L316.7,358.6z
		 M247.8,358.5l0.5-0.9c0.6,0.3,1.1,0.7,1.7,1l-0.5,0.9C249,359.2,248.4,358.9,247.8,358.5z M244.4,356.4l0.6-0.8
		c0.5,0.4,1.1,0.7,1.7,1.1l-0.5,0.9C245.5,357.1,244.9,356.8,244.4,356.4z M320.1,356.6c0.6-0.4,1.1-0.7,1.7-1.1l0.6,0.8
		c-0.6,0.4-1.1,0.7-1.7,1.1L320.1,356.6z M241.1,354l0.6-0.8c0.5,0.4,1.1,0.8,1.6,1.2l-0.6,0.8C242.2,354.8,241.6,354.4,241.1,354z
		 M323.4,354.4c0.5-0.4,1.1-0.8,1.6-1.2l0.6,0.8c-0.5,0.4-1.1,0.8-1.6,1.2L323.4,354.4z M238,351.5l0.7-0.8c0.5,0.4,1,0.9,1.5,1.3
		l-0.6,0.8C239,352.4,238.5,352,238,351.5z M326.6,352c0.5-0.4,1-0.8,1.5-1.3l0.7,0.8c-0.5,0.4-1,0.9-1.5,1.3L326.6,352z M235,348.8
		l0.7-0.7c0.5,0.5,1,0.9,1.5,1.4l-0.7,0.7C236,349.7,235.5,349.3,235,348.8z M329.6,349.4c0.5-0.4,1-0.9,1.5-1.4l0.7,0.7
		c-0.5,0.5-1,0.9-1.5,1.4L329.6,349.4z M232.1,345.9l0.7-0.7c0.5,0.5,0.9,1,1.4,1.4l-0.7,0.7C233.1,346.9,232.6,346.4,232.1,345.9z
		 M332.5,346.7c0.5-0.5,0.9-1,1.4-1.4l0.7,0.7c-0.5,0.5-0.9,1-1.4,1.5L332.5,346.7z M229.5,342.9l0.8-0.6c0.4,0.5,0.9,1,1.3,1.5
		l-0.8,0.7C230.3,343.9,229.9,343.4,229.5,342.9z M335.2,343.8c0.4-0.5,0.9-1,1.3-1.5l0.8,0.6c-0.4,0.5-0.9,1-1.3,1.5L335.2,343.8z
		 M227,339.7l0.8-0.6c0.4,0.5,0.8,1.1,1.2,1.6l-0.8,0.6C227.8,340.8,227.4,340.3,227,339.7z M337.8,340.7c0.4-0.5,0.8-1,1.2-1.6
		l0.8,0.6c-0.4,0.5-0.8,1.1-1.2,1.6L337.8,340.7z M224.7,336.4l0.8-0.5c0.4,0.6,0.7,1.1,1.1,1.6l-0.8,0.6
		C225.4,337.5,225.1,337,224.7,336.4z M340.1,337.5c0.4-0.5,0.8-1.1,1.1-1.6l0.8,0.5c-0.4,0.6-0.7,1.1-1.1,1.7L340.1,337.5z
		 M222.6,333l0.9-0.5c0.3,0.6,0.7,1.1,1,1.7l-0.8,0.5C223.3,334.1,222.9,333.5,222.6,333z M342.3,334.2c0.3-0.6,0.7-1.1,1-1.7
		l0.9,0.5c-0.3,0.6-0.7,1.2-1,1.7L342.3,334.2z M344.3,330.7c0.3-0.6,0.6-1.2,0.9-1.8l0.9,0.5c-0.3,0.6-0.6,1.2-0.9,1.8L344.3,330.7
		z M220.7,329.4l0.9-0.5c0.3,0.6,0.6,1.2,0.9,1.8l-0.9,0.5C221.3,330.6,221,330,220.7,329.4z M346,327.2c0.3-0.6,0.5-1.2,0.8-1.8
		l0.9,0.4c-0.3,0.6-0.5,1.2-0.8,1.8L346,327.2z M219,325.7l0.9-0.4c0.3,0.6,0.5,1.2,0.8,1.8l-0.9,0.4
		C219.5,327,219.2,326.4,219,325.7z M347.6,323.5c0.2-0.6,0.5-1.2,0.7-1.9l0.9,0.3c-0.2,0.6-0.5,1.3-0.7,1.9L347.6,323.5z
		 M217.5,322l0.9-0.3c0.2,0.6,0.5,1.3,0.7,1.9l-0.9,0.4C218,323.2,217.7,322.6,217.5,322z M348.9,319.8c0.2-0.6,0.4-1.3,0.6-1.9
		l1,0.3c-0.2,0.6-0.4,1.3-0.6,1.9L348.9,319.8z M216.2,318.1l1-0.3c0.2,0.6,0.4,1.3,0.6,1.9l-1,0.3
		C216.6,319.4,216.4,318.8,216.2,318.1z M350.1,316c0.2-0.6,0.3-1.3,0.5-1.9l1,0.2c-0.2,0.7-0.3,1.3-0.5,2L350.1,316z M215.2,314.2
		l1-0.2c0.2,0.6,0.3,1.3,0.5,1.9l-1,0.3C215.5,315.5,215.4,314.9,215.2,314.2z M351,312.1c0.1-0.6,0.3-1.3,0.4-2l1,0.2
		c-0.1,0.7-0.2,1.3-0.4,2L351,312.1z M214.4,310.3l1-0.2c0.1,0.6,0.2,1.3,0.4,2l-1,0.2C214.6,311.6,214.5,310.9,214.4,310.3z
		 M351.7,308.2c0.1-0.6,0.2-1.3,0.3-2l1,0.1c-0.1,0.7-0.2,1.3-0.3,2L351.7,308.2z M213.8,306.3l1-0.1c0.1,0.7,0.2,1.3,0.3,2l-1,0.1
		C214,307.6,213.9,307,213.8,306.3z M352.1,304.3c0.1-0.7,0.1-1.3,0.1-2l1,0.1c0,0.7-0.1,1.3-0.2,2L352.1,304.3z M213.5,302.3l1-0.1
		c0,0.7,0.1,1.3,0.1,2l-1,0.1C213.6,303.6,213.5,302.9,213.5,302.3z M352.3,300.3c0-0.7,0-1.3,0-2h1c0,0.7,0,1.4,0,2L352.3,300.3z
		 M213.4,298.2v-0.1h1v0.1c0,0.7,0,1.3,0,2l-1,0C213.4,299.6,213.4,298.9,213.4,298.2z M352.3,294.3l1-0.1c0,0.7,0.1,1.3,0.1,2l-1,0
		C352.3,295.6,352.3,295,352.3,294.3z M213.4,296.1c0-0.7,0-1.4,0.1-2l1,0.1c0,0.7-0.1,1.3-0.1,2L213.4,296.1z M351.9,290.4l1-0.1
		c0.1,0.7,0.1,1.3,0.2,2l-1,0.1C352.1,291.7,352,291,351.9,290.4z M213.6,292.1c0.1-0.7,0.1-1.3,0.2-2l1,0.1c-0.1,0.7-0.1,1.3-0.2,2
		L213.6,292.1z M351.4,286.4l1-0.2c0.1,0.7,0.2,1.3,0.3,2l-1,0.1C351.6,287.7,351.5,287.1,351.4,286.4z M214.1,288.1
		c0.1-0.7,0.2-1.3,0.3-2l1,0.2c-0.1,0.6-0.2,1.3-0.3,2L214.1,288.1z M350.6,282.5l1-0.2c0.2,0.6,0.3,1.3,0.4,2l-1,0.2
		C350.9,283.8,350.7,283.2,350.6,282.5z M214.8,284.1c0.1-0.7,0.3-1.3,0.4-2l1,0.2c-0.2,0.6-0.3,1.3-0.4,1.9L214.8,284.1z
		 M349.6,278.7l1-0.3c0.2,0.6,0.4,1.3,0.5,1.9l-1,0.3C349.9,280,349.7,279.3,349.6,278.7z M215.7,280.2c0.2-0.6,0.4-1.3,0.5-1.9
		l1,0.3c-0.2,0.6-0.4,1.3-0.5,1.9L215.7,280.2z M348.3,274.9l0.9-0.3c0.2,0.6,0.5,1.3,0.7,1.9l-1,0.3
		C348.8,276.1,348.5,275.5,348.3,274.9z M216.9,276.3c0.2-0.6,0.4-1.3,0.7-1.9l0.9,0.3c-0.2,0.6-0.4,1.3-0.7,1.9L216.9,276.3z
		 M346.9,271.2l0.9-0.4c0.3,0.6,0.5,1.2,0.8,1.9l-0.9,0.4C347.4,272.4,347.1,271.8,346.9,271.2z M218.3,272.5
		c0.3-0.6,0.5-1.2,0.8-1.9l0.9,0.4c-0.3,0.6-0.5,1.2-0.8,1.8L218.3,272.5z M345.2,267.6l0.9-0.5c0.3,0.6,0.6,1.2,0.9,1.8l-0.9,0.4
		C345.8,268.8,345.5,268.1,345.2,267.6z M219.8,268.8c0.3-0.6,0.6-1.2,0.9-1.8l0.9,0.5c-0.3,0.6-0.6,1.2-0.9,1.8L219.8,268.8z
		 M343.3,264l0.9-0.5c0.3,0.6,0.7,1.2,1,1.8l-0.9,0.5C344,265.2,343.7,264.6,343.3,264z M221.6,265.2c0.3-0.6,0.6-1.2,1-1.8l0.9,0.5
		c-0.3,0.6-0.7,1.1-1,1.7L221.6,265.2z M341.2,260.6l0.8-0.5c0.4,0.6,0.7,1.1,1.1,1.7l-0.8,0.5C342,261.8,341.6,261.2,341.2,260.6z
		 M223.6,261.7c0.3-0.6,0.7-1.1,1.1-1.7l0.8,0.5c-0.4,0.5-0.7,1.1-1.1,1.7L223.6,261.7z M339,257.4l0.8-0.6c0.4,0.5,0.8,1.1,1.2,1.6
		l-0.8,0.6C339.8,258.5,339.4,257.9,339,257.4z M225.8,258.3c0.4-0.5,0.8-1.1,1.2-1.6l0.8,0.6c-0.4,0.5-0.8,1.1-1.2,1.6L225.8,258.3
		z M336.5,254.2l0.8-0.6c0.4,0.5,0.8,1,1.3,1.6l-0.8,0.6C337.4,255.3,337,254.8,336.5,254.2z M228.2,255.1c0.4-0.5,0.8-1.1,1.3-1.6
		l0.8,0.6c-0.4,0.5-0.8,1-1.3,1.6L228.2,255.1z M333.9,251.3l0.7-0.7c0.5,0.5,0.9,1,1.3,1.5l-0.8,0.7
		C334.8,252.2,334.4,251.7,333.9,251.3z M230.8,252c0.4-0.5,0.9-1,1.3-1.5l0.7,0.7c-0.5,0.5-0.9,1-1.3,1.5L230.8,252z M331.1,248.4
		l0.7-0.7c0.5,0.5,1,0.9,1.4,1.4l-0.7,0.7C332.1,249.3,331.6,248.9,331.1,248.4z M233.6,249.1c0.5-0.5,1-0.9,1.4-1.4l0.7,0.7
		c-0.5,0.5-1,0.9-1.4,1.4L233.6,249.1z M328.2,245.8l0.7-0.8c0.5,0.4,1,0.9,1.5,1.3l-0.7,0.7C329.2,246.6,328.7,246.2,328.2,245.8z
		 M236.5,246.3c0.5-0.4,1-0.9,1.5-1.3l0.7,0.8c-0.5,0.4-1,0.9-1.5,1.3L236.5,246.3z M325.1,243.3l0.6-0.8c0.5,0.4,1.1,0.8,1.6,1.2
		l-0.6,0.8C326.1,244.1,325.6,243.7,325.1,243.3z M239.5,243.6c0.5-0.4,1-0.8,1.6-1.2l0.6,0.8c-0.5,0.4-1,0.8-1.6,1.2L239.5,243.6z
		 M321.8,240.9l0.6-0.8c0.6,0.4,1.1,0.8,1.7,1.1l-0.6,0.8C322.9,241.7,322.4,241.3,321.8,240.9z M242.8,241.2
		c0.5-0.4,1.1-0.8,1.7-1.1l0.6,0.8c-0.5,0.4-1.1,0.8-1.6,1.1L242.8,241.2z M318.5,238.8l0.5-0.9c0.6,0.3,1.2,0.7,1.7,1.1l-0.5,0.9
		C319.6,239.5,319.1,239.2,318.5,238.8z M246.1,238.9c0.6-0.4,1.1-0.7,1.7-1.1l0.5,0.9c-0.6,0.3-1.1,0.7-1.7,1L246.1,238.9z
		 M315,236.9l0.5-0.9c0.6,0.3,1.2,0.6,1.8,0.9l-0.5,0.9C316.2,237.5,315.6,237.2,315,236.9z M249.6,236.9c0.6-0.3,1.2-0.6,1.8-0.9
		l0.5,0.9c-0.6,0.3-1.2,0.6-1.8,0.9L249.6,236.9z M311.4,235.2l0.4-0.9c0.6,0.3,1.2,0.6,1.8,0.9l-0.4,0.9
		C312.7,235.7,312.1,235.4,311.4,235.2z M253.2,235.1c0.6-0.3,1.2-0.6,1.8-0.9l0.4,0.9c-0.6,0.3-1.2,0.6-1.8,0.8L253.2,235.1z
		 M307.8,233.7l0.3-0.9c0.6,0.2,1.3,0.5,1.9,0.7l-0.4,0.9C309,234.1,308.4,233.9,307.8,233.7z M256.9,233.4c0.6-0.3,1.3-0.5,1.9-0.7
		l0.3,0.9c-0.6,0.2-1.2,0.5-1.9,0.7L256.9,233.4z M304,232.4l0.3-0.9c0.6,0.2,1.3,0.4,1.9,0.6l-0.3,0.9
		C305.3,232.8,304.7,232.6,304,232.4z M260.7,232c0.6-0.2,1.3-0.4,1.9-0.6l0.3,1c-0.6,0.2-1.3,0.4-1.9,0.6L260.7,232z M300.2,231.3
		l0.2-1c0.7,0.2,1.3,0.3,2,0.5l-0.3,1C301.5,231.6,300.8,231.5,300.2,231.3z M264.5,230.8c0.7-0.2,1.3-0.4,2-0.5l0.2,1
		c-0.6,0.2-1.3,0.3-1.9,0.5L264.5,230.8z M296.3,230.4l0.2-1c0.7,0.1,1.3,0.3,2,0.4l-0.2,1C297.6,230.7,297,230.6,296.3,230.4z
		 M268.5,229.8c0.7-0.1,1.3-0.3,2-0.4l0.2,1c-0.7,0.1-1.3,0.3-2,0.4L268.5,229.8z M292.4,229.8l0.1-1c0.7,0.1,1.3,0.2,2,0.3l-0.2,1
		C293.7,230,293,229.9,292.4,229.8z M272.4,229.1c0.7-0.1,1.3-0.2,2-0.3l0.1,1c-0.7,0.1-1.3,0.2-2,0.3L272.4,229.1z M288.4,229.4
		l0.1-1c0.7,0.1,1.3,0.1,2,0.2l-0.1,1C289.8,229.5,289.1,229.5,288.4,229.4z M276.4,228.6c0.7-0.1,1.3-0.1,2-0.2l0.1,1
		c-0.7,0.1-1.3,0.1-2,0.2L276.4,228.6z M284.5,229.2l0-1c0.7,0,1.3,0,2,0.1l0,1C285.8,229.3,285.1,229.3,284.5,229.2z M280.4,228.3
		c0.7,0,1.3-0.1,2-0.1l0,1c-0.7,0-1.3,0-2,0.1L280.4,228.3z"/>
	<path class="st0" d="M282.9,350.3c-6.7,0-13.4-1.3-19.8-3.9c-12.8-5.3-22.9-15.3-28.2-28.1s-5.4-27-0.1-39.8l0.5,0.2l-0.5-0.2
		c5.3-12.8,15.3-22.9,28.1-28.2c12.8-5.3,27-5.4,39.8-0.1c26.5,10.9,39.2,41.4,28.3,67.9c-5.3,12.8-15.3,22.9-28.1,28.2
		C296.5,349,289.7,350.3,282.9,350.3z M235.8,278.9c-5.2,12.6-5.1,26.5,0.1,39c5.2,12.6,15.1,22.3,27.7,27.5
		c12.6,5.2,26.5,5.1,39-0.1c12.6-5.2,22.3-15.1,27.5-27.7c10.7-26-1.8-55.9-27.8-66.6c-12.6-5.2-26.5-5.1-39,0.1
		C250.7,256.5,241,266.3,235.8,278.9L235.8,278.9z"/>
</g>
<g id="C">
	<g>
		<rect x="274.2" y="235.3" width="1" height="1"/>
		<rect x="274.2" y="265" width="1" height="1.9"/>
		<rect x="274.2" y="261.2" width="1" height="1.9"/>
		<rect x="274.2" y="257.3" width="1" height="1.9"/>
		<rect x="274.2" y="268.8" width="1" height="1.9"/>
		<rect x="274.2" y="272.7" width="1" height="1.9"/>
		<rect x="274.2" y="253.5" width="1" height="1.9"/>
		<rect x="274.2" y="238.2" width="1" height="1.9"/>
		<rect x="274.2" y="249.7" width="1" height="1.9"/>
		<rect x="274.2" y="242" width="1" height="1.9"/>
		<rect x="274.2" y="245.8" width="1" height="1.9"/>
		<rect x="274.2" y="276.5" width="1" height="1"/>
	</g>
	<g>
		<rect x="290.8" y="235.2" width="1" height="1"/>
		<rect x="290.8" y="257.3" width="1" height="1.9"/>
		<rect x="290.8" y="265" width="1" height="1.9"/>
		<rect x="290.8" y="261.1" width="1" height="1.9"/>
		<rect x="290.8" y="268.8" width="1" height="1.9"/>
		<rect x="290.8" y="272.6" width="1" height="1.9"/>
		<rect x="290.8" y="245.8" width="1" height="1.9"/>
		<rect x="290.8" y="238.1" width="1" height="1.9"/>
		<rect x="290.8" y="253.5" width="1" height="1.9"/>
		<rect x="290.8" y="242" width="1" height="1.9"/>
		<rect x="290.8" y="249.6" width="1" height="1.9"/>
		<rect x="290.8" y="276.5" width="1" height="1"/>
	</g>
	<polygon class="st4" points="277.9,274.9 282.6,271.6 282.6,274.6 283.6,274.6 283.6,271.8 288.3,275 283.6,278.4 283.6,275.4 
		282.6,275.4 282.6,278.3 	"/>
</g>
<g id="D_1_">
	<g id="Capa_5">
		<rect x="341.4" y="35" class="st0" width="281.5" height="1"/>
		<rect x="341.4" y="558.3" class="st0" width="281.5" height="1"/>
		<polygon class="st3" points="612.6,41 609.6,41 613,36.3 616.3,41 613.4,41 613.4,553.3 616.4,553.3 613.1,557.9 609.7,553.3 
			612.6,553.3 		"/>
	</g>
</g>
</svg>
