<?xml version="1.0" encoding="utf-8"?>
<!-- Generator: Adobe Illustrator 23.0.0, SVG Export Plug-In . SVG Version: 6.00 Build 0)  -->
<svg version="1.1" id="Layer_1" xmlns="http://www.w3.org/2000/svg" xmlns:xlink="http://www.w3.org/1999/xlink" x="0px" y="0px"
	 viewBox="0 0 336.3 544.7" style="enable-background:new 0 0 336.3 544.7;" xml:space="preserve">
<style type="text/css">
	.st0{fill:#51AE32;}
	.st1{fill:#D41116;}
	.st2{fill:#010202;}
</style>
<g>
	<g id="Disco_lado">
		<polygon class="st0" points="304.5,445.6 304.5,445.6 304.5,445.7 		"/>
		<path class="st0" d="M304.5,87.8L304.5,87.8L304.5,87.8z"/>
		<path class="st0" d="M311.6,441.9v-7.4H308v-10.2l-17.5-69.7l1.2-170.5l15.8-70.3l-0.1-9.7h4.1v-7.4h-0.4V84h0.4v-7.4h-4.2
			L307,11.2h-11v0.5l0.4,67.8h-2.2v2.7v0.6h-2.1v6.8v1.5v6.8h2.1v0.6v2.7h2.2l0.1,11.5L280.8,183l-1.3,173v0.1l17.5,69.7v11.8h-2.8
			v2.7v0.6h-2.1v6.8v1.5v6.8h2.1v0.6v2.7h2.8v69.8h11V462h3.6v-7.4h-0.4v-12.7H311.6z M308.1,437.9l2,3H309l-0.9-1.9V437.9z
			 M309.9,454.6v-1.3h-0.4v-10h0.4V442h0.7v12.7h-0.7V454.6z M310.2,455.6l-2,3v-1.1l0.9-1.9H310.2z M308.6,442.2h-0.5v-1.1
			L308.6,442.2z M300.7,508.7l-2.6-2.9v-9.1l9,8.7v3.2L300.7,508.7L300.7,508.7z M299.3,508.7H298v-1.4L299.3,508.7z M298,509.7h9
			v10.8h-9V509.7z M307,521.4v2.1l-2.4-2.1H307z M298,495.3v-9.5l9,8.7v9.6L298,495.3z M298,484.4v-9.3l9,8.7v9.2L298,484.4z
			 M300.4,451.9h0.4l-2.8,4.8v-1.4L300.4,451.9z M298,453.5v-1.1l0.3-0.5h0.1h0.7L298,453.5z M301.7,451.9h1.2l-2.6,5h-1.1l2.8-4.8
			L301.7,451.9z M299.1,439.7h1.1l2.6,5h-1.2l0,0l0.2-0.1L299.1,439.7z M298,441.2v-1.4l2.8,4.8h-0.4L298,441.2z M299.2,444.6h-0.8
			l-0.3-0.5V443L299.2,444.6z M301.4,439.7h0.7l2.1,3.7h-0.7v0.2L301.4,439.7z M303.2,439.7h0.8l2,3.7h-0.7L303.2,439.7z
			 M304.2,453.1l-2.1,3.7h-0.7l2.1-4v0.2L304.2,453.1L304.2,453.1z M305.1,456.8l1.8-3.4l0.1,0.1v3.3H305.1z M307,457.8v3.7
			l-4.2-3.7H307z M304,456.8h-0.8l2.1-3.7h0.7L304,456.8z M301.3,457.8l5.7,5v9.2l-9-8.6v-5.6H301.3z M307,473.5v9l-9-8.7v-8.9
			L307,473.5z M307,452.1h-2.2h-0.1l0,0h-0.3v-0.3h2.6V452.1z M305.5,450.9h-1l0,0l0,0v-1.8l0,0v-0.8v-0.8l0,0v-1.8l0,0l0,0h1V450.9
			z M304.5,444.6v-0.3h0.3l0,0h0.1h2.2v0.3H304.5z M307,443l-1.8-3.4h1.9L307,443L307,443z M303.2,438.3l3.9-3.4v3.4H303.2z
			 M301.7,438.3H298v-7l0.1,0.1l5.5-6.2h3.4v8.3L301.7,438.3z M298,425.5l-0.1-0.3h4.3L298,430V425.5z M281.5,218.5v-4.2l4.9-4.6
			l0,0h4.1v4.4l-4.5,4.5L281.5,218.5L281.5,218.5z M290.6,215.5v3h-3.1L290.6,215.5z M290.7,191.8h-4.9l4.9-4.8V191.8z M290.7,192.8
			l-0.1,15.9h-9l0.1-15.9H290.7z M281.6,209.7h3.4l-3.4,3.2V209.7z M281.5,219.5h9l-0.7,99.6h-9L281.5,219.5z M289.7,328.4h-1.9
			l1.9-2.3V328.4z M289.8,320.2v4.4l-3.2,3.9h-5.8v-3.3l5.8-5H289.8z M285,320.2l-4.3,3.7v-3.7H285z M280.6,346.5l7-0.1l-7.1,6.9
			L280.6,346.5z M280.6,345.5l0.1-16.1h9l-0.1,16L280.6,345.5z M291.1,360.9h-5.4l4.3-4.6L291.1,360.9z M290.8,184v1.5l-6.3,6.2
			l0.1,0.1h-2.9l0.1-7.1l0,0l6.8-7.3l0,0h3.7L290.8,184z M301.6,93.9h1.3l-2.6,5h-1.1l2.8-4.8L301.6,93.9z M304.2,95.2l-2.1,3.7
			h-0.7l2.1-4v0.2h0.7V95.2z M299.1,81.8h1.1l2.6,5h-1.3l0.3-0.2L299.1,81.8z M297.3,79.6v-2.9l4.3,4.1h-3.8v-1.2H297.3z
			 M301.4,81.8h0.7l2.1,3.7h-0.7v0.2L301.4,81.8z M304.5,92.9v-1.8l0,0v-0.8v-0.8l0,0v-1.8l0,0v-0.1v-1.2h0.3l0,0h0.1h0.6v7.8h-0.6
			h-0.1l0,0h-0.3V92.9L304.5,92.9L304.5,92.9z M305.3,95.2h0.7l-1.8,3.3l-0.4,0.4h-0.6L305.3,95.2z M305.3,85.5l-2.1-3.7h0.8l2,3.7
			H305.3z M302.8,99.9l-5.3,5.2v-4h0.3v-1.2H302.8z M297.9,98.9h-1l0,0l3.5-5h0.4L297.9,98.9z M297.5,112.7v-6.2l6.7-6.5h2.3v8.1
			l-5.8,5.5h-3.4L297.5,112.7z M306.5,109.4v4.1h-4.3L306.5,109.4z M307.3,98.9h-2.1l2.1-2l-0.7-0.7l0,0l0.4-0.7l0.8,0.8h0.8
			L307.3,98.9z M308.2,85.3h0.4v10h-0.4l-1.1-1.1h-0.8v-7.8h0.8l0,0L308.2,85.3z M309.5,95.4v-10h0.4l0,0V84h0.7v12.7h-0.7v-1.3
			C309.9,95.4,309.5,95.4,309.5,95.4z M310.2,97.7l-2,3v-1.1l0,0l0.9-1.9H310.2z M310.6,103.1h-0.8l0.8-1.2V103.1z M310.6,100.2
			l-2,2.9h-0.5v-1l0.2,0.1l2.3-3.4V100.2z M310.6,77.6v1.2l-0.8-1.2H310.6z M308.1,77.6h0.5l2,2.9v1.4l-2.3-3.4l-0.2,0.1V77.6z
			 M308.1,80l2,3H309l-0.9-1.9V80z M307.3,81.8l1.3,2.6h-0.8l-0.8,0.8l-1.8-3.4H307.3z M306.4,80.8H303l-5.7-5.5v-9.6l9.1,8.9l0,0
			V80.8z M306.4,73.1l-9.1-8.9v-8.6l9.1,9l0,0V73.1z M306.3,63.2l-9.1-9v-9.6l9.1,9V63.2z M306.3,52.2l-9-8.9l0,0V33.1l9.1,9
			L306.3,52.2z M306,12.2l0.2,28.5l-9-8.9l-0.1,0.1L297,12.3L306,12.2z M297.9,81.8l2.9,5h-0.4l-3.5-5H297.9z M296.8,80.6v1l-0.7-1
			H296.8z M295.3,81.2L295.3,81.2l3.9,5.5h-0.8l-3.1-4.7V81.2z M295.3,83.9L295.3,83.9L295.3,83.9l1.9,2.9h-0.6l-2.4-2.9H295.3z
			 M293.2,84.3l2,2.4h-2V84.3z M293.2,91.1L293.2,91.1v-1.5l0,0v-1.9l10.3,0.1v1.8l0,0v1.5l0,0v1.8L293.2,93V91.1z M293.2,94h2
			l-2,2.4V94z M294.1,96.9L294.1,96.9l2.4-2.9h0.6l-1.9,2.9l0,0H294.1z M295.3,98.7l3.1-4.7h0.9l-3.9,5.5L295.3,98.7L295.3,98.7z
			 M296.1,100.1l0.7-1v1H296.1z M297.1,114.5L297.1,114.5h9.2l-13.9,61.9h-9.2L297.1,114.5z M283.1,177.4h4.2l-5.4,5.9v-0.4
			L283.1,177.4z M280.6,354.7L280.6,354.7l8.5-8.3h0.5l-0.1,8.3v0.1l0.1,0.5l-5.4,5.8h-2.5l-1.3-5.2L280.6,354.7z M282.1,362
			l9.3-0.1l15.6,62.3h-9.3L282.1,362z M297,439.7v0.2l-0.1-0.2H297z M296.8,438.5v1l-0.7-1H296.8z M295.3,439.1l1.8,2.5v1l-1.8-2.7
			V439.1z M295.3,441.7L295.3,441.7L295.3,441.7l1.8,2.7v0.2h-0.5l-2.4-2.9L295.3,441.7L295.3,441.7z M293.2,442.2l2,2.4h-2V442.2z
			 M293.2,451.9h2l-2,2.4V451.9z M296.8,458h-0.7l0.7-1V458z M297,456.8h-0.1l0.1-0.2V456.8z M297,454.9l-1.8,2.5v-0.8l1.8-2.7
			V454.9z M297,452.1l-1.8,2.7l0,0h-1.1l0,0l2.4-2.9h0.5V452.1z M297,450.9h-3.8V449l0,0v-1.5l0,0v-1.9h3.8l0,0h1.1h5.3v1.8l0,0v1.5
			l0,0v1.8h-5.1L297,450.9L297,450.9z M298,525.6l2.1,2.2H298V525.6z M301.5,527.7l-3.5-3.6v-2.7h5.3l-0.1,0.1l3.8,3.4v2.8H301.5z
			 M306.3,450.9v-5.3h1.8v-2.3l0.1-0.1h0.4v10h-0.4l-0.1-0.1v-2.3L306.3,450.9L306.3,450.9z M308,454.2h0.5l-0.5,1.1V454.2z
			 M310.6,461h-0.8l0.8-1.2V461z M310.6,458.1l-2,2.9h-0.5v-1l0.2,0.1l2.3-3.4V458.1z M310.6,439.8l-2.3-3.4l-0.2,0.1v-1h0.5l2,2.9
			V439.8z M310.6,436.7l-0.8-1.2h0.8V436.7z"/>
	</g>
	<g id="A">
		<rect x="9.7" y="200.7" class="st0" width="311.2" height="1"/>
		<rect x="9.7" y="338.7" class="st0" width="311.2" height="1"/>
		<polygon class="st1" points="32.8,207.2 29.7,207.2 33.1,202.5 36.4,207.2 33.4,207.2 33.4,331.2 36.4,331.2 33.1,335.9 
			29.7,331.2 32.8,331.2 		"/>
	</g>
	<g id="B">
		<rect x="206.2" y="218.2" class="st0" width="66.7" height="1"/>
		<rect x="206.2" y="318.7" class="st0" width="66.7" height="1"/>
		<polygon class="st1" points="214.2,225.6 211.2,225.6 214.5,220.9 217.8,225.6 214.9,225.6 214.9,312.4 217.9,312.4 214.6,317.1 
			211.2,312.4 214.2,312.4 		"/>
	</g>
	<g id="E_1_">
		<rect x="296.1" y="529.7" class="st2" width="1" height="11"/>
		<rect x="308" y="529.8" class="st2" width="1" height="11"/>
		<polygon class="st2" points="297.4,536.6 302.1,533.3 302.1,536.3 303.1,536.3 303.1,533.4 307.8,536.7 303.2,540.1 303.1,537.1 
			302.1,537.1 302.1,540 		"/>
	</g>
</g>
</svg>
