<?xml version="1.0" encoding="utf-8"?>
<!-- Generator: Adobe Illustrator 23.0.0, SVG Export Plug-In . SVG Version: 6.00 Build 0)  -->
<svg version="1.1" xmlns="http://www.w3.org/2000/svg" xmlns:xlink="http://www.w3.org/1999/xlink" x="0px" y="0px"
	 viewBox="0 0 237.33 85.8" style="enable-background:new 0 0 237.33 85.8;" xml:space="preserve">
<style type="text/css">
	.st0{fill:#E30613;}
</style>
<g id="Perno_frente">
	<path class="st0" d="M167.38,48.28c-12.06,0-21.87-9.81-21.87-21.87c0-12.06,9.81-21.87,21.87-21.87
		c12.06,0,21.87,9.81,21.87,21.87C189.25,38.47,179.44,48.28,167.38,48.28z M167.38,6.25c-11.12,0-20.16,9.04-20.16,20.16
		c0,11.12,9.04,20.16,20.16,20.16c11.12,0,20.16-9.04,20.16-20.16C187.54,15.29,178.5,6.25,167.38,6.25z"/>
</g>
<g id="F">
	
		<rect x="175.29" y="48.05" transform="matrix(1 -1.688969e-03 1.688969e-03 1 -0.0823 0.3417)" class="st0" width="53.98" height="1.71"/>
	<rect x="174.75" y="2.78" class="st0" width="53.33" height="1.71"/>
	<polygon class="st0" points="216.19,37.93 216.19,14.18 221.19,14.18 215.42,5.41 209.32,14.18 214.43,14.18 214.43,37.93 
		209.4,37.93 215.5,46.69 221.27,37.93 	"/>
</g>
<g id="Layer_3">
	<path class="st0" d="M127.55,48.03H19V4.08h108.56V48.03z M20.71,46.32h105.13V5.79H20.71V46.32z"/>
</g>
<g id="E">
	<polygon class="st0" points="126.98,75.48 118.21,69.71 118.21,74.61 28.44,74.61 28.44,69.77 19.67,75.55 28.44,81.64 
		28.44,76.38 118.21,76.38 118.21,81.58 	"/>
	<rect x="17.09" y="53.04" class="st0" width="1.71" height="27.32"/>
	<rect x="127.74" y="52.79" class="st0" width="1.71" height="27.7"/>
</g>
</svg>
