<?xml version="1.0" encoding="utf-8"?>
<!-- Generator: Adobe Illustrator 23.0.0, SVG Export Plug-In . SVG Version: 6.00 Build 0)  -->
<svg version="1.1" xmlns="http://www.w3.org/2000/svg" xmlns:xlink="http://www.w3.org/1999/xlink" x="0px" y="0px"
	 viewBox="0 0 219 206.67" style="enable-background:new 0 0 219 206.67;" xml:space="preserve">
<style type="text/css">
	.st0{fill:#E30613;}
</style>
<g id="piston-lado">
	<path class="st0" d="M160.17,124.54l0-76.57c-0.01-0.15-0.1-1.5-1.07-2.28c-0.12-0.1-0.3-0.21-0.52-0.33
		c0.75-0.71,1.48-2,1.48-4.35c0-2.54-0.88-3.79-1.71-4.39c0.83-1.01,1.87-2.82,1.87-5.6c0-4.31-2.31-5.69-2.92-5.98
		c-0.93-0.73-9.23-6.88-31.45-10.02c-10.22-1.45-39.23-1.25-43.02-1.22c-3.79-0.03-32.81-0.22-43.02,1.22
		C17.59,18.16,9.28,24.3,8.36,25.03c-0.61,0.29-2.92,1.67-2.92,5.98c0,2.78,1.04,4.6,1.87,5.6c-0.83,0.61-1.71,1.85-1.71,4.39
		c0,2.35,0.74,3.64,1.48,4.35c-0.22,0.12-0.41,0.24-0.52,0.33c-0.97,0.78-1.06,2.13-1.07,2.28v76.55h0v25.51l6.75,14.38v30.32
		c0,0.27,0.13,1.09,1.29,2.83c1.37,2.05,4.37,2.19,4.53,2.2l129.6,0c0.1-0.01,2.55-0.28,4.15-2.61c1.5-2.19,1.74-4.37,1.75-4.55
		v-27.73l6.56-14.6l0.13-25.72H160.17z M40.05,16.71c9.69-1.37,37.55-1.25,42.41-1.21v0.01c0.02,0,0.15,0,0.37,0
		c0.22,0,0.35,0,0.37,0V15.5c4.86-0.04,32.72-0.16,42.41,1.21c15.85,2.24,24.51,6.09,28.31,8.21H83.03h-0.4H11.74
		C15.53,22.79,24.2,18.95,40.05,16.71z M7.15,31.01c0-3.12,1.42-4.15,1.85-4.39h73.63h0.4h73.63c0.43,0.24,1.85,1.27,1.85,4.39
		c0,3.01-1.44,4.56-1.96,5.02H83.08h-0.51H9.11C8.58,35.57,7.15,34.02,7.15,31.01z M158.35,41.01c0,3.12-1.53,3.48-1.44,3.48H83.06
		H82.6H8.75c0.08,0-1.44-0.35-1.44-3.48c0-2.83,1.29-3.22,1.51-3.26h73.76h0.51h73.76C157.06,37.79,158.35,38.18,158.35,41.01z
		 M151.85,164.5l0,28c0,0.02-0.22,1.86-1.46,3.67c-1.14,1.66-2.84,1.87-2.82,1.87l-129.48,0c-0.02,0-2.26-0.12-3.14-1.44
		c-0.87-1.3-0.99-1.88-1-1.88v-30.51L7.2,149.83v-25.24h0V48.01c0.01-0.14,0.12-0.74,0.43-0.99c0.16-0.13,0.91-0.51,1.58-0.83H82.6
		h0.46h73.39c0.67,0.31,1.41,0.7,1.58,0.83c0.32,0.25,0.42,0.85,0.43,0.99v76.58h0.08l-0.05,25.14L151.85,164.5z"/>
	<g>
		<rect x="8.56" y="77.32" class="st0" width="1.71" height="1.71"/>
		<path class="st0" d="M45.47,79.03h-3.52v-1.71h3.52V79.03z M38.43,79.03h-3.52v-1.71h3.52V79.03z M31.39,79.03h-3.52v-1.71h3.52
			V79.03z M24.35,79.03h-3.52v-1.71h3.52V79.03z M17.31,79.03h-3.52v-1.71h3.52V79.03z"/>
		<polygon class="st0" points="51.56,79.89 49.85,79.89 49.85,79.03 48.99,79.03 48.99,77.32 51.56,77.32 		"/>
		<path class="st0" d="M51.56,126h-1.71v-3.29h1.71V126z M51.56,119.41h-1.71v-3.29h1.71V119.41z M51.56,112.83h-1.71v-3.3h1.71
			V112.83z M51.56,106.24h-1.71v-3.29h1.71V106.24z M51.56,99.65h-1.71v-3.29h1.71V99.65z M51.56,93.06h-1.71v-3.29h1.71V93.06z
			 M51.56,86.47h-1.71v-3.29h1.71V86.47z"/>
		<path class="st0" d="M51.56,131.89l-0.88-0.03c-0.01,0-0.63-0.02-1.68-0.02l0.01-1.71c0.32,0,0.61,0,0.85,0.01v-0.84h1.71V131.89z
			"/>
		<path class="st0" d="M13.2,141.26l-0.84-1.49c0.84-0.48,1.79-1,2.8-1.53l0.81,1.51C14.97,140.28,14.04,140.79,13.2,141.26z
			 M18.76,138.3l-0.77-1.53c0.93-0.47,1.9-0.94,2.88-1.39l0.72,1.55C20.63,137.37,19.68,137.83,18.76,138.3z M24.46,135.65
			l-0.66-1.58c1.01-0.42,2.02-0.82,3-1.16l0.57,1.61C26.42,134.86,25.44,135.24,24.46,135.65z M30.32,133.62l-0.42-1.66
			c0.97-0.25,2.04-0.47,3.16-0.67l0.3,1.69C32.28,133.18,31.26,133.39,30.32,133.62z M36.46,132.53l-0.21-1.7
			c1.07-0.13,2.14-0.24,3.19-0.33l0.14,1.7C38.55,132.29,37.5,132.4,36.46,132.53z M42.71,131.99l-0.09-1.71
			c1.14-0.06,2.22-0.1,3.19-0.12l0.04,1.71C44.9,131.9,43.84,131.93,42.71,131.99z"/>
		<path class="st0" d="M9.02,143.71l-0.9-1.45c0,0,0.54-0.34,1.48-0.89l0.87,1.47C9.55,143.38,9.02,143.71,9.02,143.71z"/>
	</g>
	<path class="st0" d="M50.49,119.67h-3.42v-1.71h3.42V119.67z M43.64,119.67h-3.42v-1.71h3.42V119.67z M36.8,119.67h-3.42v-1.71
		h3.42V119.67z M29.95,119.67h-3.42v-1.71h3.42V119.67z M23.11,119.67h-3.42v-1.71h3.42V119.67z M16.26,119.67h-3.42v-1.71h3.42
		V119.67z M9.42,119.67H8.35v-1.71h1.07V119.67z"/>
	<g>
		<rect x="154.87" y="77.32" class="st0" width="1.71" height="1.71"/>
		<path class="st0" d="M151.35,79.03h-3.52v-1.71h3.52V79.03z M144.31,79.03h-3.52v-1.71h3.52V79.03z M137.28,79.03h-3.52v-1.71
			h3.52V79.03z M130.24,79.03h-3.52v-1.71h3.52V79.03z M123.2,79.03h-3.52v-1.71h3.52V79.03z"/>
		<polygon class="st0" points="115.3,79.89 113.59,79.89 113.59,77.32 116.16,77.32 116.16,79.03 115.3,79.03 		"/>
		<path class="st0" d="M115.3,126h-1.71v-3.29h1.71V126z M115.3,119.41h-1.71v-3.29h1.71V119.41z M115.3,112.83h-1.71v-3.3h1.71
			V112.83z M115.3,106.24h-1.71v-3.29h1.71V106.24z M115.3,99.65h-1.71v-3.29h1.71V99.65z M115.3,93.06h-1.71v-3.29h1.71V93.06z
			 M115.3,86.47h-1.71v-3.29h1.71V86.47z"/>
		<path class="st0" d="M113.59,131.89v-2.59h1.71v0.84c0.24,0,0.52,0,0.85-0.01l0.01,1.71c-1.06,0-1.68,0.02-1.68,0.02
			L113.59,131.89z"/>
		<path class="st0" d="M151.95,141.26c-0.84-0.47-1.77-0.98-2.76-1.52l0.8-1.51c1.01,0.54,1.95,1.06,2.8,1.53L151.95,141.26z
			 M146.39,138.3c-0.92-0.46-1.87-0.92-2.83-1.37l0.72-1.55c0.98,0.45,1.94,0.92,2.88,1.39L146.39,138.3z M140.69,135.65
			c-0.98-0.41-1.96-0.79-2.91-1.13l0.57-1.61c0.98,0.35,1.99,0.74,3,1.16L140.69,135.65z M134.83,133.62
			c-0.93-0.23-1.96-0.45-3.04-0.64l0.3-1.69c1.12,0.2,2.19,0.42,3.16,0.67L134.83,133.62z M128.69,132.53
			c-1.05-0.13-2.1-0.24-3.12-0.32l0.14-1.7c1.05,0.09,2.12,0.2,3.19,0.33L128.69,132.53z M122.44,131.99
			c-1.13-0.06-2.19-0.1-3.15-0.12l0.04-1.71c0.97,0.02,2.05,0.06,3.19,0.12L122.44,131.99z"/>
		<path class="st0" d="M156.13,143.71c0,0-0.53-0.33-1.45-0.87l0.87-1.47c0.94,0.55,1.48,0.89,1.48,0.89L156.13,143.71z"/>
	</g>
	<path class="st0" d="M156.8,119.67h-1.07v-1.71h1.07V119.67z M152.31,119.67h-3.42v-1.71h3.42V119.67z M145.46,119.67h-3.42v-1.71
		h3.42V119.67z M138.62,119.67h-3.42v-1.71h3.42V119.67z M131.77,119.67h-3.42v-1.71h3.42V119.67z M124.93,119.67h-3.42v-1.71h3.42
		V119.67z M118.08,119.67h-3.42v-1.71h3.42V119.67z"/>
	<rect x="82.02" y="3.56" class="st0" width="1.67" height="201.98"/>
</g>
<g id="D">
	
		<rect x="186.84" y="-15.33" transform="matrix(2.278697e-03 -1 1 2.278697e-03 174.3523 200.5845)" class="st0" width="1.71" height="56.5"/>
	<rect x="158.67" y="199.76" class="st0" width="56.66" height="1.71"/>
	<polygon class="st0" points="202.51,24.63 197.49,24.63 203.26,15.86 209.36,24.63 204.28,24.63 204.28,188.83 209.57,188.83 
		203.47,197.6 197.7,188.83 202.51,188.83 	"/>
</g>
</svg>
