<?xml version="1.0" encoding="utf-8"?>
<!-- Generator: Adobe Illustrator 23.0.0, SVG Export Plug-In . SVG Version: 6.00 Build 0)  -->
<svg version="1.1" xmlns="http://www.w3.org/2000/svg" xmlns:xlink="http://www.w3.org/1999/xlink" x="0px" y="0px"
	 viewBox="0 0 364.33 238" style="enable-background:new 0 0 364.33 238;" xml:space="preserve">
<style type="text/css">
	.st0{fill:#E30613;}
</style>
<g id="Piston-Frente">
	<path class="st0" d="M264.16,39.02c-0.12-0.1-0.3-0.21-0.52-0.33c0.75-0.71,1.48-2,1.48-4.35c0-2.54-0.88-3.79-1.71-4.39
		c0.83-1.01,1.87-2.82,1.87-5.6c0-4.31-2.31-5.69-2.92-5.98c-0.93-0.73-9.23-6.88-31.45-10.02c-10.22-1.45-39.23-1.25-43.02-1.22
		c-3.79-0.03-32.81-0.22-43.02,1.22c-22.22,3.15-30.52,9.29-31.45,10.02c-0.61,0.29-2.92,1.67-2.92,5.98c0,2.78,1.04,4.6,1.87,5.6
		c-0.83,0.61-1.71,1.85-1.71,4.39c0,2.35,0.74,3.64,1.48,4.35c-0.22,0.12-0.41,0.24-0.52,0.33c-0.97,0.78-1.06,2.13-1.07,2.28
		l0,154.8h18.72l0.19-0.1c0.12-0.07,3.09-1.68,7.76-6.35c5.21-5.21,6.56-7.92,6.62-8.04l0.09-0.18V145.3
		c-0.04-0.26-0.44-2.49,1.17-4.1c1.29-1.29,3.92-1.49,4.78-1.46h37.84h0.35h37.84c0.87-0.03,3.49,0.17,4.78,1.46
		c1.62,1.62,1.21,3.84,1.17,4.1v36.13l0.09,0.18c0.05,0.11,1.41,2.83,6.62,8.04c4.67,4.67,7.63,6.29,7.76,6.35l0.19,0.1h18.72
		l0-154.8C265.22,41.15,265.13,39.8,264.16,39.02z M145.11,10.04c9.69-1.37,37.55-1.25,42.41-1.21v0.01c0.02,0,0.15,0,0.37,0
		c0.22,0,0.35,0,0.37,0V8.83c4.86-0.04,32.72-0.16,42.41,1.21c15.85,2.24,24.51,6.09,28.31,8.21h-70.89h-0.4H116.8
		C120.59,16.13,129.26,12.28,145.11,10.04z M112.21,24.34c0-3.12,1.42-4.15,1.85-4.39h73.63h0.4h73.63
		c0.43,0.24,1.85,1.27,1.85,4.39c0,3.01-1.44,4.56-1.96,5.02h-73.47h-0.51h-73.47C113.64,28.9,112.21,27.35,112.21,24.34z
		 M263.41,34.34c0,3.12-1.53,3.48-1.44,3.48h-73.85h-0.46h-73.85c0.08,0-1.44-0.35-1.44-3.48c0-2.83,1.29-3.22,1.51-3.26h73.76h0.51
		h73.76C262.12,31.13,263.41,31.51,263.41,34.34z M263.51,194.39h-16.56c-0.69-0.41-3.34-2.11-7.18-5.95
		c-4.27-4.27-5.84-6.79-6.2-7.42l-0.02-35.55c0.03-0.13,0.62-3.2-1.66-5.48c-2.07-2.07-5.89-1.96-6.02-1.96h-37.81h-0.35h-37.81
		c-0.14,0-3.95-0.11-6.02,1.96c-2.28,2.28-1.69,5.35-1.66,5.48l-0.02,35.55c-0.36,0.63-1.93,3.15-6.2,7.42
		c-3.84,3.84-6.49,5.54-7.18,5.95h-16.56V41.35c0.01-0.14,0.12-0.74,0.43-0.99c0.16-0.13,0.91-0.51,1.58-0.83h73.39h0.46h73.39
		c0.67,0.31,1.41,0.7,1.58,0.83c0.32,0.25,0.42,0.85,0.43,0.99V194.39z"/>
	<path class="st0" d="M188.22,115.57c-12.38,0-22.46-10.08-22.46-22.46c0-12.38,10.08-22.46,22.46-22.46
		c12.38,0,22.46,10.08,22.46,22.46C210.68,105.5,200.6,115.57,188.22,115.57z M188.22,72.36c-11.44,0-20.75,9.31-20.75,20.75
		c0,11.44,9.31,20.75,20.75,20.75s20.75-9.31,20.75-20.75C208.97,81.67,199.66,72.36,188.22,72.36z"/>
	<g>
		<path class="st0" d="M188.4,121.77h-1v-2h1V121.77z M188.4,117.77h-1v-2h1V117.77z M188.4,113.77h-1v-2h1V113.77z M188.4,109.77
			h-1v-2h1V109.77z M188.4,105.77h-1v-2h1V105.77z M188.4,101.77h-1v-2h1V101.77z M188.4,97.77h-1v-2h1V97.77z M188.4,93.77h-1v-2h1
			V93.77z M188.4,89.77h-1v-2h1V89.77z M188.4,85.77h-1v-2h1V85.77z M188.4,81.77h-1v-2h1V81.77z M188.4,77.77h-1v-2h1V77.77z
			 M188.4,73.77h-1v-2h1V73.77z M188.4,69.77h-1v-2h1V69.77z M188.4,65.77h-1V65.3h1V65.77z"/>
	</g>
</g>
<g id="A">
	<rect x="6.66" y="5.55" class="st0" width="132.5" height="1.71"/>
	<rect x="6.95" y="91.89" class="st0" width="67.54" height="1.71"/>
	<polygon class="st0" points="20.09,82.41 20.09,16.74 25.17,16.74 19.07,7.97 13.3,16.74 18.32,16.74 18.32,82.41 13.51,82.41 
		19.29,91.18 25.38,82.41 	"/>
	<path class="st0" d="M187.4,93.6h-3.42v-1.71h3.42V93.6z M180.56,93.6h-3.42v-1.71h3.42V93.6z M173.71,93.6h-3.42v-1.71h3.42V93.6z
		 M166.87,93.6h-3.42v-1.71h3.42V93.6z M160.02,93.6h-3.42v-1.71h3.42V93.6z M153.18,93.6h-3.42v-1.71h3.42V93.6z M146.33,93.6
		h-3.42v-1.71h3.42V93.6z M139.49,93.6h-3.42v-1.71h3.42V93.6z M132.64,93.6h-3.42v-1.71h3.42V93.6z M125.8,93.6h-3.42v-1.71h3.42
		V93.6z M118.95,93.6h-3.42v-1.71h3.42V93.6z M112.11,93.6h-3.42v-1.71h3.42V93.6z M105.26,93.6h-3.42v-1.71h3.42V93.6z M98.42,93.6
		H95v-1.71h3.42V93.6z M91.57,93.6h-3.42v-1.71h3.42V93.6z M84.73,93.6h-3.42v-1.71h3.42V93.6z M77.88,93.6h-3.42v-1.71h3.42V93.6z
		 M71.04,93.6h-3.42v-1.71h3.42V93.6z M64.19,93.6h-2.14v-1.71h2.14V93.6z"/>
</g>
<g id="B">
	<polygon class="st0" points="349.76,29.33 354.78,29.33 349.01,20.56 342.91,29.33 347.99,29.33 347.99,82.38 342.7,82.38 
		348.79,91.15 354.57,82.38 349.76,82.38 	"/>
	<rect x="266.85" y="17.82" class="st0" width="92.52" height="1.71"/>
	<rect x="267.53" y="91.91" class="st0" width="92.52" height="1.71"/>
	<path class="st0" d="M261.67,92.77"/>
	<g>
		<path class="st0" d="M261.67,93.63h-3.42v-1.71h3.42V93.63z M254.82,93.63h-3.42v-1.71h3.42V93.63z M247.98,93.63h-3.42v-1.71
			h3.42V93.63z M241.13,93.63h-3.42v-1.71h3.42V93.63z M234.29,93.63h-3.42v-1.71h3.42V93.63z M227.44,93.63h-3.42v-1.71h3.42V93.63
			z M220.6,93.63h-3.42v-1.71h3.42V93.63z M213.75,93.63h-3.42v-1.71h3.42V93.63z M206.91,93.63h-3.42v-1.71h3.42V93.63z
			 M200.06,93.63h-3.42v-1.71h3.42V93.63z M193.22,93.63h-3.42v-1.71h3.42V93.63z"/>
	</g>
</g>
<g id="C">
	<rect x="108.89" y="197.9" class="st0" width="1.71" height="34.04"/>
	<rect x="265.36" y="197.89" class="st0" width="1.71" height="34.04"/>
	<polygon class="st0" points="264.4,220.09 255.95,214.23 255.95,219.31 120.72,219.31 120.72,214.25 112.27,220.11 120.72,226.1 
		120.72,220.97 255.95,220.97 255.95,226.08 	"/>
</g>
</svg>
