<?xml version="1.0" encoding="utf-8"?>
<!-- Generator: Adobe Illustrator 23.0.0, SVG Export Plug-In . SVG Version: 6.00 Build 0)  -->
<svg version="1.1" xmlns="http://www.w3.org/2000/svg" xmlns:xlink="http://www.w3.org/1999/xlink" x="0px" y="0px"
	 viewBox="0 0 521 299" style="enable-background:new 0 0 521 299;" xml:space="preserve">
<style type="text/css">
	.st0{fill:#E30613;}
	.st1{fill:#E83C3F;}
	.st2{fill:#32A936;}
	.st3{fill:#D41116;}
	.st4{fill:#50B15E;}
</style>
<g id="Corona">
	<path class="st0" d="M380.89,289.33c-0.69,0-1.31-0.38-1.62-1l-3.82-7.63c-0.61-1.21-1.78-1.94-3.13-1.94
		c-1.36,0-2.53,0.72-3.13,1.94l-3.82,7.63c-0.31,0.62-0.93,1-1.62,1c-0.78,0-1.45-0.47-1.71-1.21l-2.85-8.04
		c-0.5-1.42-1.8-2.33-3.32-2.33c-1.19,0-2.25,0.57-2.91,1.56l-4.73,7.11c-0.34,0.51-0.89,0.81-1.5,0.81c-0.86,0-1.59-0.58-1.78-1.42
		l-1.84-8.33c-0.36-1.62-1.77-2.75-3.44-2.75c-1.02,0-1.96,0.43-2.64,1.22l-5.56,6.47c-0.35,0.41-0.84,0.63-1.37,0.63
		c-0.95,0-1.73-0.71-1.81-1.64l-0.8-8.5c-0.2-2.07-1.95-3.18-3.51-3.18c-0.87,0-1.68,0.32-2.33,0.92l-6.32,5.74
		c-0.71,0.64-1.87,0.59-2.53-0.08c-0.34-0.35-0.52-0.82-0.5-1.31l0.25-8.53c0.03-0.96-0.32-1.86-0.97-2.53
		c-1.17-1.21-3.15-1.43-4.55-0.44l-6.97,4.92c-0.76,0.53-1.83,0.38-2.43-0.31c-0.35-0.4-0.49-0.92-0.41-1.45l1.29-8.43
		c0.16-1.03-0.12-2.02-0.79-2.8c-1.06-1.23-2.86-1.6-4.33-0.82l-7.53,4.03c-0.78,0.42-1.78,0.19-2.31-0.51
		c-0.34-0.45-0.45-1.03-0.29-1.58l2.32-8.21c0.3-1.07,0.09-2.18-0.57-3.05c-0.93-1.23-2.6-1.73-4.07-1.17l-7.96,3.07
		c-0.79,0.31-1.7,0.01-2.17-0.69c-0.34-0.51-0.4-1.13-0.15-1.7l3.31-7.86c0.46-1.1,0.35-2.3-0.3-3.29
		c-0.82-1.24-2.32-1.83-3.78-1.47l-8.28,2.07c-0.78,0.2-1.61-0.16-2.01-0.86c-0.33-0.56-0.33-1.24,0-1.81l4.25-7.4
		c0.63-1.1,0.63-2.4,0-3.5c-0.71-1.23-2.01-1.91-3.46-1.73l-8.47,1.03c-0.79,0.1-1.5-0.3-1.84-0.99c-0.31-0.62-0.24-1.34,0.17-1.9
		l5.13-6.82c0.82-1.08,0.94-2.46,0.34-3.67c-0.6-1.21-1.78-1.94-3.13-1.94l-8.53-0.01c-0.74,0-1.38-0.42-1.67-1.11
		c-0.29-0.68-0.15-1.44,0.37-1.97l5.93-6.14c0.94-0.97,1.24-2.32,0.78-3.6c-0.45-1.28-1.52-2.14-2.87-2.31l-8.47-1.06
		c-0.73-0.09-1.32-0.59-1.52-1.3c-0.2-0.71,0.03-1.44,0.61-1.91l6.46-5.22c1.09-0.88,1.56-2.22,1.26-3.59
		c-0.3-1.37-1.29-2.39-2.65-2.73l-8.05-2.04c-0.72-0.18-1.23-0.75-1.35-1.48c-0.11-0.73,0.21-1.43,0.83-1.82l7.25-4.51
		c1.15-0.71,1.76-1.95,1.64-3.3c-0.13-1.35-0.95-2.45-2.22-2.94l-7.95-3.1c-0.69-0.27-1.13-0.89-1.15-1.63
		c-0.02-0.74,0.38-1.39,1.05-1.7l7.75-3.58c1.23-0.57,1.99-1.72,2.03-3.07c0.04-1.36-0.65-2.55-1.84-3.19l-7.51-4.05
		c-0.65-0.35-1.01-1.03-0.94-1.76c0.07-0.74,0.55-1.33,1.25-1.56l8.13-2.6c1.29-0.41,2.19-1.46,2.39-2.8
		c0.21-1.34-0.33-2.61-1.43-3.39l-6.96-4.94c-0.6-0.43-0.88-1.14-0.72-1.87c0.16-0.72,0.71-1.26,1.43-1.39l8.39-1.58
		c1.33-0.25,2.35-1.18,2.72-2.48c0.37-1.3,0-2.63-1.01-3.54l-6.3-5.76c-0.55-0.5-0.73-1.24-0.49-1.94c0.25-0.7,0.86-1.16,1.59-1.21
		l8.52-0.54c1.35-0.09,2.48-0.88,3.01-2.13c0.53-1.25,0.32-2.61-0.56-3.64l-5.54-6.49c-0.46-0.54-0.57-1.29-0.27-1.93
		c0.3-0.65,0.93-1.05,1.64-1.05l0.12,0l8.52,0.51c1.39,0.08,2.64-0.62,3.3-1.84c0.62-1.15,0.56-2.49-0.16-3.59l-4.7-7.12
		c-0.37-0.57-0.41-1.26-0.09-1.85c0.37-0.69,1.12-1.08,1.93-0.93l8.39,1.55c1.44,0.27,2.85-0.37,3.62-1.61
		c0.65-1.05,0.71-2.29,0.16-3.4l-3.79-7.65c-0.28-0.57-0.25-1.22,0.08-1.76c0.44-0.7,1.29-1.03,2.09-0.78l8.14,2.57
		c1.46,0.46,3.05-0.09,3.92-1.33c0.66-0.93,0.82-2.09,0.44-3.17l-2.82-8.05c-0.2-0.56-0.11-1.16,0.23-1.64
		c0.5-0.7,1.45-0.97,2.24-0.61l7.76,3.55c1.46,0.67,3.21,0.23,4.2-1c0.67-0.83,0.91-1.87,0.68-2.93l-1.81-8.34
		c-0.12-0.54,0.01-1.09,0.35-1.52c0.56-0.69,1.6-0.89,2.37-0.41l7.26,4.48c1.44,0.89,3.33,0.59,4.44-0.63
		c0.66-0.72,0.98-1.67,0.88-2.67l-0.77-8.5c-0.05-0.52,0.12-1.01,0.46-1.38c0.63-0.69,1.74-0.79,2.48-0.2l6.66,5.34
		c0.63,0.51,1.39,0.78,2.17,0.78c1.68,0,3.45-1.27,3.52-3.4l0.28-8.53c0.03-0.99,0.83-1.76,1.82-1.76c0.49,0,0.94,0.2,1.29,0.55
		l5.95,6.12c0.67,0.69,1.55,1.06,2.49,1.06c1.5,0,3.18-1.02,3.48-2.96l1.32-8.43c0.14-0.89,0.9-1.53,1.8-1.53
		c0.57,0,1.09,0.26,1.44,0.72l5.15,6.8c0.67,0.88,1.68,1.39,2.78,1.39c1.32,0,2.88-0.79,3.38-2.54l2.35-8.2
		c0.23-0.79,0.93-1.31,1.75-1.31c0.65,0,1.24,0.34,1.56,0.9l4.28,7.38c0.63,1.09,1.77,1.75,3.03,1.75c1.43,0,2.67-0.82,3.23-2.13
		l3.34-7.85c0.29-0.68,0.93-1.1,1.67-1.1c0.74,0,1.38,0.42,1.67,1.1l3.34,7.85c0.56,1.32,1.8,2.13,3.23,2.13
		c1.26,0,2.39-0.65,3.03-1.75l4.28-7.38c0.33-0.57,0.91-0.9,1.56-0.9c0.82,0,1.52,0.53,1.75,1.31l2.35,8.2
		c0.5,1.75,2.06,2.54,3.39,2.54c1.09,0,2.11-0.51,2.78-1.39l5.16-6.8c0.35-0.46,0.87-0.72,1.44-0.72c0.9,0,1.66,0.65,1.8,1.53
		l1.32,8.43c0.31,1.95,1.98,2.96,3.48,2.96c0.94,0,1.82-0.38,2.49-1.06l5.95-6.12c0.35-0.36,0.8-0.55,1.29-0.55
		c0.99,0,1.79,0.77,1.82,1.76l0.28,8.53c0.07,2.13,1.84,3.4,3.52,3.4c0.79,0,1.54-0.27,2.17-0.78l6.66-5.34
		c0.74-0.59,1.85-0.49,2.48,0.2c0.34,0.38,0.51,0.87,0.46,1.38l-0.77,8.5c-0.09,1,0.22,1.94,0.89,2.67c1.12,1.22,3,1.52,4.44,0.63
		l7.26-4.48c0.77-0.47,1.81-0.28,2.37,0.41c0.34,0.42,0.47,0.98,0.35,1.52l-1.81,8.34c-0.23,1.06,0.01,2.1,0.68,2.93
		c0.99,1.23,2.74,1.67,4.2,1l7.76-3.55c0.79-0.36,1.74-0.09,2.24,0.61c0.34,0.48,0.42,1.08,0.23,1.64l-2.82,8.05
		c-0.38,1.09-0.22,2.24,0.44,3.17c0.88,1.24,2.46,1.79,3.92,1.33l8.14-2.57c0.79-0.25,1.66,0.07,2.09,0.78
		c0.33,0.53,0.36,1.19,0.08,1.76l-3.79,7.65c-0.55,1.11-0.49,2.35,0.16,3.4c0.77,1.23,2.18,1.87,3.62,1.61l8.39-1.55
		c0.81-0.15,1.56,0.24,1.93,0.93c0.32,0.6,0.29,1.29-0.09,1.85l-4.7,7.12c-0.72,1.09-0.78,2.44-0.16,3.59
		c0.66,1.22,1.91,1.93,3.3,1.84l8.63-0.51c0.71,0,1.34,0.4,1.64,1.05c0.3,0.65,0.2,1.39-0.27,1.94l-5.54,6.49
		c-0.88,1.03-1.09,2.39-0.56,3.64c0.53,1.25,1.65,2.05,3.01,2.13l8.52,0.54c0.74,0.05,1.35,0.51,1.6,1.21
		c0.25,0.7,0.06,1.44-0.49,1.94l-6.3,5.76c-1,0.92-1.38,2.24-1.01,3.54c0.37,1.3,1.39,2.23,2.72,2.48l8.39,1.58
		c0.73,0.14,1.28,0.67,1.43,1.39c0.16,0.72-0.12,1.44-0.72,1.87l-6.96,4.94c-1.11,0.79-1.64,2.05-1.43,3.39
		c0.21,1.34,1.1,2.39,2.4,2.8l8.13,2.6c0.7,0.23,1.18,0.82,1.25,1.56c0.07,0.74-0.29,1.41-0.94,1.76l-7.51,4.05
		c-1.19,0.64-1.88,1.84-1.84,3.19c0.04,1.36,0.8,2.5,2.03,3.07l7.75,3.58c0.67,0.31,1.07,0.96,1.05,1.7
		c-0.02,0.74-0.47,1.36-1.15,1.63l-7.95,3.1c-1.26,0.49-2.09,1.59-2.22,2.94c-0.13,1.35,0.49,2.58,1.64,3.3l7.25,4.51
		c0.63,0.39,0.95,1.09,0.84,1.82c-0.11,0.73-0.63,1.3-1.35,1.48l-8.27,2.1c-1.32,0.33-2.27,1.32-2.56,2.65
		c-0.29,1.32,0.17,2.62,1.22,3.47l6.64,5.36c0.58,0.46,0.81,1.2,0.6,1.91c-0.2,0.71-0.78,1.21-1.52,1.3l-8.47,1.06
		c-1.35,0.17-2.42,1.03-2.87,2.31c-0.45,1.28-0.16,2.63,0.79,3.6l5.93,6.14c0.51,0.53,0.65,1.29,0.37,1.97
		c-0.29,0.68-0.93,1.11-1.67,1.11l-8.53,0.01c-1.36,0-2.53,0.73-3.13,1.94c-0.6,1.21-0.48,2.59,0.34,3.67l5.13,6.82
		c0.42,0.55,0.48,1.28,0.17,1.9c-0.34,0.69-1.05,1.09-1.84,0.99l-8.47-1.03c-1.44-0.18-2.75,0.5-3.46,1.73
		c-0.63,1.09-0.63,2.4,0,3.5l4.25,7.4c0.33,0.57,0.33,1.24,0,1.81c-0.4,0.69-1.22,1.05-2.01,0.86l-8.28-2.07
		c-1.45-0.36-2.95,0.23-3.78,1.47c-0.66,0.99-0.77,2.19-0.3,3.29l3.31,7.86c0.24,0.57,0.18,1.19-0.16,1.7
		c-0.47,0.7-1.37,1-2.17,0.69l-7.96-3.07c-1.47-0.56-3.13-0.07-4.07,1.17c-0.66,0.88-0.87,1.99-0.57,3.05l2.32,8.21
		c0.16,0.55,0.05,1.13-0.29,1.58c-0.53,0.7-1.52,0.93-2.31,0.51l-7.52-4.03c-1.46-0.78-3.27-0.41-4.33,0.82
		c-0.67,0.78-0.95,1.77-0.79,2.8l1.3,8.43c0.08,0.53-0.06,1.05-0.41,1.45c-0.59,0.69-1.67,0.84-2.43,0.31l-6.97-4.92
		c-1.41-0.99-3.38-0.77-4.55,0.43c-0.65,0.67-1,1.57-0.97,2.53l0.25,8.53c0.01,0.5-0.16,0.96-0.5,1.31
		c-0.66,0.67-1.82,0.73-2.53,0.08l-6.32-5.74c-0.66-0.6-1.47-0.92-2.33-0.92c-1.56,0-3.31,1.11-3.51,3.18l-0.8,8.5
		c-0.09,0.94-0.87,1.64-1.81,1.64c-0.53,0-1.01-0.22-1.37-0.63l-5.56-6.47c-0.68-0.79-1.62-1.22-2.64-1.22
		c-1.67,0-3.08,1.13-3.44,2.75l-1.84,8.33c-0.19,0.84-0.92,1.42-1.78,1.42c-0.61,0-1.16-0.3-1.5-0.81l-4.73-7.11
		c-0.66-0.99-1.72-1.56-2.91-1.56c-1.51,0-2.81,0.92-3.31,2.33l-2.85,8.04C382.34,288.86,381.67,289.33,380.89,289.33z
		 M372.32,277.76c1.72,0,3.26,0.95,4.03,2.49l3.82,7.63c0.14,0.28,0.41,0.45,0.72,0.45c0.28,0,0.63-0.14,0.77-0.54l2.85-8.04
		c0.65-1.82,2.32-3,4.26-3c1.53,0,2.89,0.73,3.74,2.01l4.73,7.11c0.21,0.32,0.51,0.36,0.67,0.36c0.33,0,0.7-0.2,0.8-0.64l1.84-8.33
		c0.46-2.08,2.28-3.54,4.42-3.54c1.32,0,2.52,0.56,3.4,1.57l5.56,6.47c0.2,0.24,0.44,0.29,0.61,0.29c0.37,0,0.77-0.25,0.82-0.74
		l0.8-8.5c0.22-2.33,2.16-4.09,4.51-4.09c1.12,0,2.16,0.41,3.01,1.18l6.32,5.74c0.2,0.18,0.4,0.21,0.54,0.21
		c0.22,0,0.44-0.09,0.6-0.25c0.11-0.11,0.23-0.3,0.22-0.58l-0.25-8.53c-0.04-1.23,0.41-2.39,1.25-3.26c1.5-1.54,4.05-1.82,5.84-0.55
		l6.97,4.92c0.35,0.25,0.82,0.17,1.09-0.14c0.11-0.13,0.23-0.34,0.18-0.65l-1.3-8.44c-0.2-1.32,0.16-2.6,1.02-3.6
		c1.36-1.58,3.69-2.05,5.56-1.05l7.53,4.03c0.36,0.19,0.8,0.08,1.04-0.23c0.09-0.12,0.22-0.37,0.13-0.71l-2.32-8.21
		c-0.39-1.37-0.12-2.8,0.73-3.93c1.19-1.58,3.35-2.22,5.22-1.5l7.96,3.07c0.37,0.14,0.76,0,0.97-0.31c0.09-0.13,0.21-0.41,0.07-0.76
		l-3.31-7.86c-0.6-1.42-0.45-2.96,0.39-4.23c1.05-1.58,2.99-2.35,4.85-1.89l8.28,2.07c0.35,0.09,0.72-0.07,0.9-0.39
		c0.15-0.26,0.15-0.55,0-0.81l-4.25-7.4c-0.81-1.41-0.81-3.09,0-4.5c0.91-1.58,2.59-2.45,4.45-2.22l8.47,1.03
		c0.36,0.04,0.67-0.13,0.83-0.45c0.14-0.28,0.11-0.6-0.08-0.85l-5.13-6.82c-1.03-1.37-1.2-3.18-0.43-4.72
		c0.77-1.54,2.31-2.49,4.02-2.5l8.53-0.01c0.34,0,0.62-0.19,0.75-0.5c0.13-0.31,0.07-0.64-0.16-0.88l-5.93-6.14
		c-1.19-1.23-1.58-3.01-1.01-4.63c0.57-1.62,1.98-2.76,3.69-2.97l8.47-1.06c0.33-0.04,0.59-0.26,0.68-0.58
		c0.09-0.32-0.01-0.64-0.27-0.85l-6.64-5.36c-1.33-1.08-1.94-2.79-1.57-4.47c0.37-1.68,1.63-2.98,3.29-3.4l8.27-2.1
		c0.33-0.08,0.55-0.33,0.6-0.66c0.05-0.33-0.09-0.64-0.38-0.82l-7.25-4.5c-1.46-0.91-2.27-2.53-2.11-4.24
		c0.16-1.71,1.25-3.16,2.85-3.78l7.95-3.1c0.31-0.12,0.51-0.4,0.52-0.73c0.01-0.34-0.17-0.62-0.47-0.76l-7.75-3.58
		c-1.56-0.72-2.56-2.23-2.61-3.95c-0.05-1.72,0.85-3.29,2.36-4.1l7.51-4.05c0.3-0.16,0.45-0.46,0.42-0.79
		c-0.03-0.34-0.24-0.6-0.56-0.7l-8.13-2.6c-1.64-0.52-2.82-1.9-3.08-3.6c-0.26-1.7,0.44-3.37,1.84-4.36l6.96-4.94
		c0.28-0.19,0.4-0.51,0.32-0.84c-0.07-0.33-0.31-0.56-0.64-0.62l-8.39-1.58c-1.69-0.32-3.03-1.54-3.5-3.19
		c-0.47-1.65,0.03-3.4,1.29-4.56l6.3-5.76c0.25-0.23,0.33-0.55,0.22-0.87c-0.11-0.32-0.38-0.52-0.72-0.54l-8.52-0.54
		c-1.71-0.11-3.19-1.16-3.86-2.74c-0.67-1.58-0.39-3.37,0.72-4.68l5.54-6.49c0.21-0.25,0.26-0.57,0.12-0.87
		c-0.14-0.3-0.41-0.47-0.73-0.47l-8.57,0.51c-1.83,0.11-3.39-0.79-4.24-2.36c-0.8-1.48-0.72-3.21,0.21-4.61l4.7-7.12
		c0.24-0.37,0.11-0.7,0.04-0.83c-0.17-0.31-0.5-0.49-0.87-0.42l-8.39,1.55c-1.84,0.34-3.67-0.48-4.65-2.06
		c-0.82-1.33-0.9-2.96-0.2-4.37l3.79-7.65c0.13-0.26,0.12-0.54-0.03-0.78c-0.2-0.32-0.58-0.47-0.94-0.35l-8.14,2.57
		c-1.87,0.59-3.92-0.12-5.04-1.7c-0.85-1.2-1.06-2.69-0.57-4.08l2.82-8.05c0.12-0.35-0.01-0.61-0.1-0.73
		c-0.23-0.32-0.64-0.44-1.01-0.27l-7.76,3.55c-1.86,0.85-4.13,0.29-5.4-1.28c-0.85-1.06-1.17-2.43-0.88-3.77l1.81-8.34
		c0.05-0.25,0-0.49-0.15-0.68c-0.25-0.31-0.71-0.41-1.07-0.19l-7.26,4.48c-1.83,1.13-4.28,0.75-5.71-0.81
		c-0.85-0.93-1.26-2.15-1.14-3.43l0.77-8.5c0.03-0.3-0.09-0.5-0.2-0.62c-0.28-0.3-0.78-0.36-1.12-0.09l-6.66,5.34
		c-0.81,0.65-1.78,1-2.8,1c-2.15,0-4.43-1.63-4.52-4.36l-0.28-8.53c-0.02-0.49-0.43-0.79-0.82-0.79c-0.15,0-0.37,0.04-0.57,0.25
		l-5.95,6.12c-0.86,0.88-2,1.37-3.21,1.37c-2.24,0-4.13-1.6-4.47-3.81l-1.32-8.43c-0.07-0.47-0.47-0.69-0.81-0.69
		c-0.15,0-0.43,0.04-0.64,0.32l-5.16,6.8c-0.86,1.13-2.16,1.78-3.57,1.78c-2.04,0-3.79-1.31-4.35-3.27l-2.35-8.2
		c-0.13-0.44-0.5-0.59-0.79-0.59c-0.29,0-0.55,0.15-0.7,0.41l-4.28,7.38c-0.82,1.41-2.27,2.25-3.89,2.25
		c-1.84,0-3.43-1.05-4.15-2.74l-3.34-7.85c-0.26-0.62-1.23-0.62-1.5,0l-3.34,7.85c-0.72,1.69-2.31,2.74-4.15,2.74l0,0
		c-1.62,0-3.08-0.84-3.89-2.25l-4.28-7.38c-0.15-0.26-0.4-0.41-0.7-0.41c-0.29,0-0.66,0.15-0.79,0.59l-2.35,8.2
		c-0.56,1.95-2.31,3.27-4.35,3.27c-1.41,0-2.71-0.65-3.57-1.78l-5.15-6.8c-0.21-0.28-0.49-0.32-0.64-0.32
		c-0.34,0-0.74,0.22-0.81,0.69l-1.32,8.43c-0.35,2.21-2.23,3.81-4.47,3.81c-1.21,0-2.35-0.49-3.21-1.37l-5.95-6.12
		c-0.2-0.21-0.42-0.25-0.57-0.25c-0.39,0-0.81,0.29-0.82,0.79l-0.28,8.53c-0.09,2.73-2.37,4.36-4.52,4.36c-1.02,0-1.99-0.34-2.8-1
		l-6.66-5.34c-0.34-0.27-0.83-0.22-1.12,0.09c-0.11,0.12-0.23,0.32-0.2,0.62l0.77,8.5c0.12,1.28-0.29,2.5-1.14,3.43
		c-1.42,1.56-3.88,1.94-5.71,0.81l-7.26-4.48c-0.36-0.22-0.81-0.13-1.07,0.19c-0.15,0.19-0.21,0.43-0.15,0.68l1.81,8.34
		c0.29,1.34-0.03,2.71-0.88,3.77c-1.27,1.58-3.53,2.14-5.39,1.28l-7.76-3.55c-0.37-0.17-0.78-0.04-1.01,0.27
		c-0.09,0.13-0.22,0.39-0.1,0.73l2.82,8.05c0.49,1.4,0.28,2.89-0.57,4.08c-1.12,1.58-3.17,2.29-5.04,1.7l-8.14-2.57
		c-0.37-0.12-0.74,0.03-0.94,0.35c-0.15,0.24-0.16,0.53-0.03,0.79l3.79,7.65c0.7,1.41,0.62,3.04-0.2,4.37
		c-0.98,1.58-2.81,2.4-4.65,2.06l-8.39-1.55c-0.36-0.07-0.7,0.1-0.87,0.42c-0.07,0.13-0.2,0.46,0.04,0.83l4.7,7.12
		c0.93,1.41,1.01,3.13,0.21,4.61c-0.85,1.57-2.44,2.48-4.24,2.36l-8.52-0.51c0,0,0,0-0.01,0c-0.37,0-0.65,0.18-0.78,0.47
		c-0.14,0.29-0.09,0.62,0.12,0.87l5.54,6.49c1.11,1.31,1.39,3.1,0.72,4.68c-0.67,1.58-2.15,2.63-3.86,2.74l-8.52,0.54
		c-0.34,0.02-0.6,0.22-0.71,0.54c-0.11,0.32-0.03,0.64,0.22,0.87l6.3,5.76c1.27,1.16,1.76,2.9,1.29,4.56
		c-0.47,1.65-1.81,2.88-3.5,3.19l-8.39,1.58c-0.33,0.06-0.57,0.3-0.64,0.62c-0.07,0.33,0.05,0.64,0.32,0.84l6.96,4.94
		c1.4,0.99,2.11,2.67,1.84,4.36c-0.26,1.7-1.44,3.08-3.08,3.6l-8.13,2.6c-0.32,0.1-0.53,0.36-0.56,0.7
		c-0.03,0.33,0.13,0.63,0.42,0.79l7.51,4.05c1.51,0.81,2.42,2.39,2.37,4.1c-0.05,1.72-1.05,3.23-2.61,3.95l-7.75,3.58
		c-0.31,0.14-0.48,0.43-0.47,0.76c0.01,0.34,0.2,0.61,0.52,0.73l7.95,3.1c1.6,0.62,2.69,2.07,2.85,3.78
		c0.16,1.71-0.65,3.34-2.11,4.24l-7.25,4.51c-0.29,0.18-0.43,0.48-0.37,0.82c0.05,0.33,0.28,0.58,0.6,0.66l8.05,2.04
		c1.71,0.43,3,1.77,3.38,3.49c0.38,1.72-0.24,3.47-1.61,4.58l-6.46,5.22c-0.26,0.21-0.36,0.53-0.27,0.85
		c0.09,0.32,0.35,0.54,0.68,0.58l8.47,1.06c1.7,0.21,3.12,1.35,3.69,2.97c0.57,1.62,0.18,3.39-1.01,4.63l-5.93,6.14
		c-0.23,0.24-0.3,0.57-0.16,0.88c0.13,0.31,0.41,0.5,0.75,0.5l8.53,0.01c1.72,0,3.26,0.96,4.02,2.5c0.77,1.54,0.6,3.34-0.43,4.72
		l-5.13,6.82c-0.19,0.25-0.22,0.57-0.08,0.85c0.16,0.32,0.47,0.49,0.83,0.45l8.47-1.03c1.86-0.23,3.54,0.64,4.45,2.22
		c0.81,1.4,0.81,3.09,0,4.5l-4.25,7.4c-0.15,0.26-0.15,0.55,0,0.81c0.18,0.32,0.54,0.47,0.9,0.38l8.28-2.07
		c1.86-0.46,3.8,0.3,4.85,1.89c0.85,1.27,0.99,2.82,0.39,4.23l-3.31,7.86c-0.15,0.35-0.02,0.63,0.07,0.76
		c0.21,0.32,0.61,0.45,0.97,0.31l7.96-3.07c1.87-0.72,4.03-0.08,5.22,1.5c0.85,1.13,1.12,2.56,0.73,3.93l-2.32,8.21
		c-0.1,0.34,0.04,0.59,0.13,0.71c0.24,0.32,0.67,0.42,1.04,0.23l7.53-4.03c1.86-1,4.2-0.53,5.56,1.05c0.86,1,1.22,2.28,1.02,3.6
		l-1.3,8.44c-0.05,0.31,0.07,0.52,0.18,0.65c0.27,0.31,0.75,0.39,1.09,0.14l6.97-4.92c1.8-1.27,4.35-0.99,5.85,0.55
		c0.84,0.87,1.29,2.03,1.25,3.26l-0.25,8.53c-0.01,0.29,0.12,0.48,0.22,0.58c0.16,0.16,0.38,0.25,0.6,0.25
		c0.14,0,0.34-0.04,0.54-0.21l6.32-5.74c0.85-0.77,1.89-1.18,3.01-1.18c2.35,0,4.29,1.76,4.5,4.09l0.8,8.5
		c0.05,0.48,0.45,0.74,0.82,0.74c0.17,0,0.41-0.05,0.61-0.29l5.56-6.47c0.87-1.01,2.08-1.57,3.4-1.57c2.14,0,3.96,1.45,4.42,3.54
		l1.84,8.33c0.1,0.44,0.47,0.64,0.8,0.64c0.16,0,0.46-0.05,0.67-0.36l4.73-7.11c0.85-1.28,2.21-2.01,3.74-2.01
		c1.94,0,3.61,1.18,4.26,3l2.85,8.04c0.14,0.4,0.49,0.54,0.77,0.54c0.31,0,0.58-0.17,0.72-0.45l3.82-7.63
		C369.06,278.72,370.61,277.76,372.32,277.76z"/>
	<path class="st1" d="M371.46,215.74c-37.12,0-67.32-30.2-67.32-67.32c0-37.12,30.2-67.32,67.32-67.32
		c37.12,0,67.32,30.2,67.32,67.32C438.78,185.54,408.58,215.74,371.46,215.74z M371.46,82.12c-36.56,0-66.3,29.74-66.3,66.3
		c0,36.56,29.74,66.29,66.3,66.29c36.55,0,66.29-29.74,66.29-66.29C437.75,111.86,408.01,82.12,371.46,82.12z"/>
	<g>
		<path class="st0" d="M472.89,192.57c-3.77,0-6.44-1.94-7.17-2.53c-1.55-1.26-11.63-13.58-14.48-18.82
			c-1.9-3.48-1.11-7.84-0.21-12.9c0.52-2.88,1.11-6.15,1.26-9.64c0.23-5.4-0.82-10.59-1.67-14.76c-0.65-3.22-1.13-5.54-0.77-6.85
			c0.77-2.86,3.76-6.43,3.89-6.58c0.25-0.41,7.06-11.36,11.8-14.35c1.8-1.14,3.79-1.74,5.76-1.74c3.91,0,7.49,2.33,10.11,6.57
			c4.46,7.23,7.2,30.54,7.41,33.42c0.27,3.67-0.76,16.12-1.8,27.81c-1.12,12.51-7.66,19.32-11.95,20.16
			C474.35,192.49,473.61,192.57,472.89,192.57z M471.3,105.39c-1.78,0-3.59,0.55-5.23,1.59c-4.54,2.87-11.46,13.98-11.53,14.09
			c-0.07,0.09-3.01,3.6-3.73,6.25c-0.29,1.08,0.18,3.43,0.79,6.39c0.81,4,1.93,9.48,1.69,15c-0.15,3.56-0.75,6.86-1.27,9.78
			c-0.91,5.06-1.63,9.07,0.1,12.24c2.87,5.25,12.97,17.49,14.24,18.52c0.66,0.54,3.09,2.3,6.53,2.3c0.66,0,1.33-0.07,1.99-0.2
			c3.87-0.76,10.08-7.41,11.14-19.27c1.04-11.65,2.06-24.05,1.8-27.65c-0.31-4.24-3.18-26.34-7.27-32.97
			C478.13,107.56,474.84,105.39,471.3,105.39z"/>
		<path class="st0" d="M431.33,90.39c-3.96,0-7.41-2.76-11.42-5.96c-2.29-1.83-4.88-3.9-7.88-5.69c-4.64-2.77-9.71-4.31-13.78-5.55
			c-3.14-0.96-5.41-1.65-6.4-2.58c-2.15-2.04-3.86-6.37-3.93-6.55c-0.24-0.41-6.63-11.62-7.01-17.21c-0.2-2.94,0.68-5.67,2.47-7.71
			c2.08-2.36,5.3-3.73,9.32-3.95c8.47-0.49,30.37,8.23,32.92,9.38c3.37,1.51,13.82,8.34,23.61,14.81
			c10.47,6.93,13.35,15.92,12.05,20.1c-1.48,4.74-5.34,6.65-6.49,7.12c-1.84,0.76-17.48,3.77-23.44,3.79H431.33z M393.43,36.17
			c-0.23,0-0.45,0.01-0.66,0.02c-3.75,0.21-6.73,1.46-8.63,3.62c-1.62,1.83-2.41,4.31-2.22,6.98c0.37,5.36,6.85,16.73,6.91,16.84
			c0.05,0.11,1.73,4.36,3.72,6.25c0.81,0.77,3.1,1.47,6,2.35c3.91,1.19,9.26,2.82,14,5.65c3.05,1.83,5.68,3.92,7.99,5.77
			c4.02,3.21,7.19,5.74,10.79,5.74v0.5l0.03-0.5c5.99-0.02,21.56-3.09,23.06-3.71c1.05-0.43,4.56-2.17,5.91-6.49
			c1.17-3.76-1.72-12.39-11.65-18.97c-9.18-6.08-20.14-13.24-23.46-14.74C422.76,44.37,402.21,36.17,393.43,36.17z"/>
		<path class="st0" d="M311.67,90.5c-6.29,0-21.35-2.56-23.1-3.23c-1.16-0.44-5.06-2.26-6.65-6.97c-1.4-4.14,1.27-13.2,11.57-20.38
			c9.63-6.71,19.92-13.78,23.25-15.37c2.56-1.23,24.2-10.46,32.69-10.16c4.02,0.13,7.28,1.42,9.41,3.73
			c1.84,1.99,2.79,4.71,2.65,7.65c-0.25,5.6-6.37,16.95-6.63,17.44c-0.04,0.12-1.64,4.48-3.75,6.57c-0.96,0.96-3.21,1.7-6.33,2.73
			c-4.04,1.34-9.07,3-13.64,5.88c-2.95,1.86-5.5,4-7.75,5.88c-3.93,3.3-7.33,6.15-11.3,6.23L311.67,90.5z M349.02,35.39
			c-8.57,0-29.37,8.87-31.86,10.07c-3.26,1.56-13.51,8.6-23.11,15.29c-9.77,6.81-12.45,15.5-11.19,19.24
			c1.45,4.29,5.01,5.95,6.07,6.35c1.42,0.55,16.41,3.17,22.74,3.17l0.4,0c3.62-0.07,6.73-2.69,10.68-5.99
			c2.27-1.9,4.84-4.06,7.85-5.96c4.67-2.95,9.98-4.7,13.86-5.98c2.88-0.95,5.15-1.7,5.94-2.49c1.94-1.94,3.53-6.23,3.54-6.27
			c0.09-0.18,6.3-11.7,6.54-17.07c0.12-2.67-0.73-5.13-2.39-6.92c-1.95-2.11-4.96-3.29-8.71-3.41
			C349.26,35.39,349.14,35.39,349.02,35.39z"/>
		<path class="st0" d="M348.47,262c-8.69,0-29.78-9.16-32.31-10.39c-3.31-1.61-13.55-8.76-23.14-15.54
			c-10.25-7.25-12.85-16.33-11.42-20.46c1.62-4.69,5.54-6.48,6.7-6.92c1.76-0.66,17.57-3.22,23.54-3.06
			c3.97,0.11,7.34,2.98,11.25,6.31c2.23,1.9,4.76,4.05,7.7,5.93c4.55,2.91,9.57,4.61,13.6,5.97c3.11,1.05,5.36,1.81,6.31,2.78
			c2.09,2.11,3.66,6.48,3.73,6.67c0.23,0.42,6.27,11.81,6.48,17.41c0.11,2.94-0.85,5.65-2.71,7.63c-2.15,2.29-5.42,3.56-9.44,3.66
			L348.47,262z M311.25,206.63c-6.57,0-21.19,2.48-22.6,3.01c-1.06,0.4-4.63,2.03-6.11,6.31c-1.29,3.73,1.34,12.44,11.06,19.32
			c9.55,6.75,19.75,13.87,23,15.45c2.5,1.22,23.36,10.29,31.87,10.29l0.28,0c3.75-0.1,6.77-1.25,8.74-3.35
			c1.67-1.78,2.54-4.23,2.44-6.91c-0.2-5.37-6.33-16.93-6.39-17.05c-0.04-0.11-1.6-4.41-3.53-6.37c-0.79-0.8-3.05-1.56-5.92-2.53
			c-3.87-1.31-9.17-3.1-13.82-6.08c-3-1.92-5.56-4.1-7.81-6.01c-3.92-3.33-7.02-5.97-10.63-6.07
			C311.64,206.63,311.45,206.63,311.25,206.63z"/>
		<path class="st0" d="M270.5,191.93c-0.7,0-1.4-0.07-2.1-0.2c-4.3-0.81-10.89-7.57-12.1-20.07c-1.13-11.68-2.25-24.12-2.01-27.8
			c0.19-2.88,2.76-26.21,7.16-33.47c2.6-4.29,6.19-6.65,10.13-6.65c1.94,0,3.91,0.59,5.7,1.7c4.76,2.96,11.66,13.86,11.95,14.32
			c0.08,0.09,3.1,3.63,3.89,6.49c0.36,1.31-0.09,3.64-0.72,6.86c-0.82,4.18-1.83,9.38-1.56,14.77c0.18,3.49,0.79,6.75,1.33,9.63
			c0.95,5.04,1.76,9.4-0.11,12.9c-2.81,5.25-12.8,17.65-14.34,18.92C277,189.95,274.32,191.93,270.5,191.93z M271.58,104.75
			c-3.57,0-6.87,2.19-9.27,6.17c-4.03,6.65-6.74,28.78-7.02,33.02c-0.24,3.6,0.88,15.99,2.01,27.63
			c1.15,11.85,7.41,18.45,11.29,19.18c0.64,0.12,1.28,0.18,1.92,0.18c3.48,0,5.93-1.8,6.59-2.35c1.25-1.04,11.27-13.35,14.09-18.63
			c1.71-3.19,0.96-7.18,0.01-12.24c-0.55-2.91-1.17-6.21-1.35-9.77c-0.28-5.52,0.79-11.01,1.58-15.02c0.58-2.97,1.04-5.32,0.74-6.4
			c-0.74-2.64-3.7-6.13-3.73-6.16c-0.11-0.17-7.11-11.23-11.68-14.06C275.13,105.28,273.34,104.75,271.58,104.75z"/>
		<path class="st0" d="M393.68,261.77c-0.17,0-0.33,0-0.49-0.01c-4.02-0.16-7.27-1.47-9.39-3.8c-1.83-2-2.75-4.73-2.6-7.66
			c0.29-5.6,6.49-16.91,6.75-17.39c0.04-0.12,1.68-4.47,3.79-6.55c0.97-0.95,3.23-1.68,6.35-2.69c4.05-1.31,9.09-2.93,13.68-5.78
			c2.97-1.84,5.53-3.96,7.79-5.83c3.96-3.27,7.37-6.09,11.34-6.14l0.26,0c6.05,0,21.48,2.71,23.24,3.4c1.16,0.45,5.05,2.3,6.6,7.01
			c1.37,4.15-1.36,13.19-11.71,20.3c-9.68,6.64-20.02,13.64-23.36,15.2C423.45,253.02,402.49,261.77,393.68,261.77z M431.18,206.93
			l-0.25,0c-3.62,0.05-6.75,2.64-10.72,5.91c-2.29,1.89-4.87,4.03-7.9,5.9c-4.7,2.91-10.02,4.63-13.9,5.88
			c-2.88,0.93-5.16,1.66-5.96,2.45c-1.96,1.93-3.57,6.21-3.59,6.25c-0.09,0.18-6.39,11.65-6.66,17.02
			c-0.14,2.67,0.69,5.13,2.34,6.94c1.94,2.12,4.94,3.32,8.69,3.47c8.3,0.34,29.77-8.64,32.29-9.83c3.27-1.54,13.57-8.51,23.22-15.12
			c9.82-6.74,12.57-15.41,11.33-19.16c-1.42-4.3-4.97-5.98-6.02-6.39C452.59,209.68,437.46,206.93,431.18,206.93z"/>
	</g>
	<g>
		<path class="st0" d="M371.48,72.11c-4.22,0-7.66-3.43-7.66-7.66c0-4.22,3.44-7.65,7.66-7.65c4.22,0,7.65,3.43,7.65,7.65
			C379.13,68.67,375.7,72.11,371.48,72.11z M371.48,57.86c-3.64,0-6.59,2.96-6.59,6.59c0,3.63,2.96,6.59,6.59,6.59
			c3.63,0,6.59-2.96,6.59-6.59C378.07,60.82,375.11,57.86,371.48,57.86z"/>
		<path class="st0" d="M371.7,240.05c-4.22,0-7.66-3.43-7.66-7.65c0-4.22,3.43-7.66,7.66-7.66c4.22,0,7.65,3.43,7.65,7.66
			C379.35,236.61,375.92,240.05,371.7,240.05z M371.7,225.8c-3.64,0-6.59,2.96-6.59,6.59c0,3.63,2.96,6.59,6.59,6.59
			c3.63,0,6.59-2.96,6.59-6.59C378.29,228.76,375.33,225.8,371.7,225.8z"/>
		<path class="st0" d="M444.2,197.75c-4.22,0-7.65-3.44-7.65-7.65c0-4.22,3.43-7.66,7.65-7.66c4.22,0,7.66,3.43,7.66,7.66
			C451.85,194.31,448.42,197.75,444.2,197.75z M444.2,183.5c-3.63,0-6.59,2.96-6.59,6.59c0,3.63,2.96,6.59,6.59,6.59
			c3.63,0,6.59-2.96,6.59-6.59C450.79,186.46,447.83,183.5,444.2,183.5z"/>
		<path class="st0" d="M444.96,115.22c-4.22,0-7.66-3.43-7.66-7.66c0-4.22,3.44-7.65,7.66-7.65s7.65,3.43,7.65,7.65
			C452.62,111.78,449.19,115.22,444.96,115.22z M444.96,100.97c-3.63,0-6.59,2.96-6.59,6.59c0,3.63,2.96,6.59,6.59,6.59
			c3.63,0,6.59-2.96,6.59-6.59C451.55,103.93,448.6,100.97,444.96,100.97z"/>
		<path class="st0" d="M298.7,114.51c-4.22,0-7.65-3.43-7.65-7.65c0-4.22,3.43-7.65,7.65-7.65c4.22,0,7.65,3.43,7.65,7.65
			C306.35,111.07,302.92,114.51,298.7,114.51z M298.7,100.26c-3.63,0-6.59,2.96-6.59,6.59c0,3.63,2.96,6.59,6.59,6.59
			c3.63,0,6.59-2.96,6.59-6.59C305.29,103.22,302.33,100.26,298.7,100.26z"/>
		<path class="st0" d="M299.32,198.64c-4.22,0-7.65-3.43-7.65-7.65c0-4.22,3.43-7.66,7.65-7.66c4.22,0,7.65,3.43,7.65,7.66
			C306.98,195.21,303.54,198.64,299.32,198.64z M299.32,184.4c-3.63,0-6.59,2.96-6.59,6.59c0,3.63,2.96,6.59,6.59,6.59
			c3.63,0,6.59-2.96,6.59-6.59C305.91,187.36,302.95,184.4,299.32,184.4z"/>
	</g>
</g>
<g id="corna_lado">
	<g>
		<path class="st2" d="M123.3,18.47v33.02l2.25,2.11v28.69h-5.57l-0.04,0.04l-0.04-0.04h-1.67h-0.5h-9.28V53.59l2.25-2.11V18.47
			l-2.57-3.94l3.06-7.02h5.92h0.13h5.57l3.06,7.02L123.3,18.47z M122.3,51.93v-3.85L111.71,37.5v5.89l12.84,12.88v-2.24L122.3,51.93
			z M122.3,19.05h-6.04L122.3,25V19.05z M122.3,26.43l-7.49-7.38h-3.11v2.41l10.59,10.58V26.43z M122.38,61.13h2.17v-3.42
			l-12.84-12.88v5.98L122.38,61.13z M122.05,62.22l-0.07-0.07h-3.8v7.98h6.38v-7.98h-2.44L122.05,62.22z M109.46,75.13l7.72-4.78
			v-8.57l-7.72-4.68V75.13z M124.55,71.16h-6.74l-0.25,0.15l6.98,6.6V71.16z M122.3,40.92l-10.59-10.58v5.73l10.59,10.58V40.92z
			 M122.3,33.46l-10.59-10.58v6.03l10.59,10.58V33.46z M124.55,79.31l-7.88-7.45l-3.38,2.09l7.03,7.31h4.22V79.31z M118.24,81.26
			h0.68l-6.51-6.77l-2.86,1.77l-0.1-0.17v1.24l3.38,3.93h4.91H118.24z M111.5,81.26l-2.04-2.38v2.38H111.5z M109.46,54.04v1.87
			l8.59,5.21h2.87l-9.37-9.05L109.46,54.04z M122.17,8.52h-4.93h-0.13h-5.27l-2.57,5.9l2.35,3.6h10.77l2.35-3.6L122.17,8.52z"/>
		<path class="st2" d="M123.3,278.37v-33.02l2.25-2.11V215.2v-0.66V82.14h-1.13v132.4h-4.43l-0.04-0.04l-0.04,0.04h-1.67h-0.5h-8.14
			V81.46h-1.13v133.09h-0.01v28.69l2.25,2.11v33.02l-2.57,3.94l3.06,7.02h5.92h0.13h5.57l3.06-7.02L123.3,278.37z M124.55,242.79
			l-2.25,2.11v3.85l-10.59,10.58v-5.89l12.84-12.88V242.79z M114.81,277.79h-3.11v-2.41l10.59-10.58v5.61L114.81,277.79z
			 M122.3,271.83v5.96h-6.04L122.3,271.83z M111.7,273.95v-6.03l10.59-10.58v6.03L111.7,273.95z M111.7,266.49v-5.73l10.59-10.58
			v5.73L111.7,266.49z M124.55,239.12L111.7,252v-5.98l10.67-10.31h2.17V239.12z M124.55,234.68h-2.44l-0.06-0.07l-0.07,0.07h-3.8
			v-7.98h6.38V234.68z M124.55,225.68h-6.74l-0.25-0.15l6.98-6.6V225.68z M120.32,215.57h4.22v1.96l-7.88,7.45l-3.38-2.09
			L120.32,215.57z M109.45,221.7l7.72,4.78v8.57l-7.72,4.68V221.7z M117.73,215.57h0.5h0.68l-6.51,6.77l-2.86-1.77l-0.1,0.17v-1.24
			l3.38-3.93H117.73z M111.5,215.57l-2.04,2.38v-2.38h0.14H111.5z M109.45,242.79v-1.87l8.59-5.21h2.87l-9.37,9.05L109.45,242.79z
			 M122.16,288.31h-4.93h-0.13h-5.27l-2.57-5.9l2.35-3.6h10.77l2.35,3.6L122.16,288.31z"/>
	</g>
</g>
<g id="A">
	<path class="st1" d="M371.47,232.74h-0.03c-0.7,0-1.4-0.01-2.1-0.03l0.03-1.06c0.69,0.02,1.38,0.02,2.08,0.02L371.47,232.74z
		 M373.6,232.71l-0.03-1.06c0.7-0.02,1.41-0.04,2.11-0.08l0.05,1.07C375.03,232.67,374.32,232.69,373.6,232.71z M367.2,232.64
		c-0.71-0.04-1.42-0.08-2.13-0.13l0.08-1.06c0.7,0.05,1.4,0.1,2.1,0.13L367.2,232.64z M377.87,232.5l-0.08-1.06
		c0.7-0.05,1.41-0.12,2.1-0.18l0.11,1.06C379.29,232.38,378.58,232.44,377.87,232.5z M362.94,232.32c-0.71-0.07-1.42-0.15-2.12-0.24
		l0.13-1.06c0.69,0.09,1.39,0.17,2.1,0.24L362.94,232.32z M382.12,232.07l-0.13-1.06c0.7-0.09,1.39-0.18,2.09-0.29l0.16,1.05
		C383.53,231.88,382.83,231.98,382.12,232.07z M358.7,231.78c-0.71-0.11-1.41-0.22-2.11-0.35l0.19-1.05
		c0.69,0.12,1.38,0.24,2.08,0.34L358.7,231.78z M386.34,231.43l-0.19-1.05c0.69-0.12,1.38-0.26,2.07-0.4l0.22,1.04
		C387.74,231.16,387.05,231.3,386.34,231.43z M354.49,231.04c-0.7-0.14-1.39-0.29-2.09-0.45l0.24-1.04
		c0.68,0.16,1.37,0.31,2.06,0.45L354.49,231.04z M390.53,230.57l-0.24-1.04c0.68-0.16,1.37-0.33,2.05-0.5l0.27,1.03
		C391.92,230.24,391.22,230.41,390.53,230.57z M350.33,230.08c-0.69-0.18-1.38-0.37-2.06-0.56l0.29-1.03
		c0.68,0.19,1.35,0.38,2.04,0.55L350.33,230.08z M394.67,229.5l-0.29-1.02c0.68-0.19,1.35-0.4,2.02-0.61l0.32,1.02
		C396.03,229.1,395.35,229.3,394.67,229.5z M346.22,228.91c-0.68-0.21-1.36-0.44-2.04-0.67l0.34-1.01c0.67,0.23,1.34,0.44,2.01,0.66
		L346.22,228.91z M398.74,228.22l-0.35-1.01c0.67-0.23,1.33-0.46,1.99-0.71l0.37,1C400.08,227.75,399.42,227.99,398.74,228.22z
		 M342.16,227.52c-0.67-0.25-1.34-0.51-2-0.77l0.4-0.99c0.65,0.26,1.31,0.51,1.97,0.76L342.16,227.52z M402.75,226.74l-0.4-0.99
		c0.65-0.26,1.3-0.53,1.94-0.81l0.42,0.98C404.06,226.2,403.4,226.47,402.75,226.74z M338.18,225.93c-0.66-0.28-1.31-0.57-1.96-0.87
		l0.44-0.96c0.64,0.29,1.28,0.58,1.93,0.86L338.18,225.93z M406.66,225.05l-0.44-0.96c0.64-0.29,1.27-0.6,1.9-0.91l0.47,0.96
		C407.94,224.45,407.3,224.76,406.66,225.05z M334.29,224.14c-0.64-0.32-1.28-0.64-1.91-0.97l0.49-0.94
		c0.62,0.33,1.25,0.64,1.88,0.95L334.29,224.14z M410.48,223.17l-0.49-0.94c0.62-0.33,1.24-0.66,1.85-1l0.52,0.93
		C411.74,222.51,411.11,222.84,410.48,223.17z M330.5,222.16c-0.62-0.35-1.24-0.7-1.86-1.06l0.54-0.92
		c0.61,0.36,1.22,0.71,1.83,1.05L330.5,222.16z M414.21,221.1l-0.54-0.92c0.6-0.36,1.2-0.72,1.8-1.09l0.57,0.9
		C415.43,220.38,414.82,220.74,414.21,221.1z M326.82,219.98c-0.61-0.38-1.2-0.76-1.8-1.16l0.59-0.89c0.59,0.39,1.18,0.77,1.78,1.14
		L326.82,219.98z M417.82,218.84l-0.59-0.89c0.59-0.39,1.17-0.78,1.74-1.18l0.61,0.87C419,218.05,418.42,218.45,417.82,218.84z
		 M323.25,217.62c-0.58-0.41-1.16-0.82-1.74-1.24l0.63-0.86c0.57,0.42,1.14,0.83,1.72,1.23L323.25,217.62z M421.32,216.41
		l-0.63-0.86c0.57-0.42,1.13-0.84,1.68-1.27l0.65,0.84C422.46,215.56,421.9,215.98,421.32,216.41z M319.8,215.09
		c-0.56-0.44-1.12-0.88-1.67-1.33l0.67-0.82c0.54,0.44,1.1,0.88,1.65,1.31L319.8,215.09z M424.7,213.79l-0.68-0.83
		c0.55-0.44,1.08-0.89,1.62-1.35l0.69,0.81C425.79,212.89,425.25,213.34,424.7,213.79z M316.49,212.39
		c-0.54-0.46-1.08-0.94-1.6-1.41l0.71-0.79c0.52,0.47,1.05,0.94,1.58,1.4L316.49,212.39z M427.94,211.01l-0.72-0.79
		c0.52-0.47,1.04-0.95,1.55-1.43l0.73,0.78C428.99,210.05,428.46,210.53,427.94,211.01z M313.32,209.52
		c-0.52-0.49-1.03-0.99-1.53-1.49l0.75-0.75c0.5,0.5,1,0.99,1.51,1.48L313.32,209.52z M431.03,208.07l-0.75-0.75
		c0.5-0.5,0.99-1,1.47-1.51l0.77,0.74C432.03,207.06,431.54,207.57,431.03,208.07z M310.3,206.5c-0.49-0.52-0.97-1.04-1.45-1.57
		l0.79-0.71c0.47,0.52,0.95,1.04,1.43,1.54L310.3,206.5z M433.98,204.98l-0.79-0.72c0.47-0.52,0.94-1.05,1.4-1.58l0.81,0.7
		C434.93,203.91,434.46,204.45,433.98,204.98z M307.44,203.33c-0.46-0.54-0.92-1.08-1.37-1.63l0.82-0.67
		c0.44,0.54,0.9,1.08,1.35,1.62L307.44,203.33z M436.77,201.74l-0.83-0.68c0.45-0.54,0.88-1.09,1.31-1.65l0.84,0.65
		C437.66,200.63,437.21,201.19,436.77,201.74z M304.74,200.03c-0.43-0.56-0.86-1.13-1.28-1.71l0.86-0.63
		c0.42,0.57,0.84,1.13,1.27,1.68L304.74,200.03z M439.39,198.36l-0.86-0.63c0.42-0.57,0.83-1.14,1.23-1.72l0.87,0.61
		C440.22,197.21,439.81,197.79,439.39,198.36z M302.21,196.59c-0.41-0.58-0.81-1.17-1.2-1.76l0.89-0.59
		c0.39,0.58,0.78,1.17,1.18,1.74L302.21,196.59z M441.83,194.85l-0.89-0.59c0.39-0.59,0.77-1.18,1.14-1.77l0.9,0.56
		C442.61,193.66,442.23,194.26,441.83,194.85z M299.86,193.03c-0.38-0.6-0.75-1.21-1.11-1.82l0.92-0.54c0.36,0.6,0.72,1.21,1.09,1.8
		L299.86,193.03z M444.1,191.23l-0.92-0.54c0.36-0.61,0.71-1.22,1.05-1.83l0.93,0.52C444.82,189.99,444.46,190.61,444.1,191.23z
		 M297.7,189.36c-0.34-0.62-0.68-1.25-1.01-1.87l0.94-0.5c0.33,0.62,0.66,1.24,1,1.85L297.7,189.36z M446.18,187.49l-0.95-0.5
		c0.33-0.63,0.65-1.25,0.96-1.88l0.96,0.47C446.84,186.22,446.51,186.86,446.18,187.49z M295.72,185.59
		c-0.31-0.64-0.62-1.28-0.92-1.92l0.97-0.45c0.29,0.64,0.6,1.27,0.9,1.9L295.72,185.59z M448.07,183.65l-0.97-0.45
		c0.29-0.64,0.58-1.28,0.86-1.93l0.98,0.42C448.66,182.34,448.37,183,448.07,183.65z M293.94,181.72c-0.28-0.65-0.55-1.3-0.82-1.97
		l0.99-0.39c0.26,0.65,0.53,1.3,0.81,1.94L293.94,181.72z M449.76,179.71l-0.99-0.4c0.26-0.65,0.52-1.31,0.76-1.97l1,0.37
		C450.29,178.38,450.03,179.05,449.76,179.71z M292.35,177.76c-0.25-0.67-0.49-1.34-0.72-2.01l1.01-0.35
		c0.23,0.67,0.46,1.33,0.71,1.99L292.35,177.76z M451.25,175.69l-1.01-0.35c0.23-0.67,0.45-1.34,0.66-2.01l1.02,0.32
		C451.71,174.34,451.49,175.02,451.25,175.69z M290.97,173.72c-0.21-0.68-0.42-1.36-0.61-2.05l1.02-0.29
		c0.19,0.68,0.4,1.35,0.61,2.02L290.97,173.72z M452.53,171.61l-1.02-0.29c0.19-0.67,0.38-1.35,0.55-2.04l1.03,0.27
		C452.92,170.24,452.73,170.92,452.53,171.61z M289.79,169.61c-0.18-0.69-0.35-1.38-0.51-2.08l1.04-0.24
		c0.16,0.69,0.33,1.37,0.5,2.05L289.79,169.61z M453.6,167.47l-1.04-0.24c0.16-0.69,0.31-1.37,0.45-2.06l1.04,0.21
		C453.91,166.08,453.76,166.78,453.6,167.47z M288.82,165.45c-0.14-0.7-0.28-1.4-0.4-2.1l1.05-0.19c0.13,0.69,0.26,1.38,0.4,2.07
		L288.82,165.45z M454.46,163.29l-1.05-0.19c0.12-0.69,0.24-1.38,0.34-2.08l1.05,0.16C454.7,161.88,454.58,162.59,454.46,163.29z
		 M288.07,161.24c-0.11-0.7-0.21-1.41-0.3-2.11l1.06-0.14c0.09,0.7,0.19,1.4,0.29,2.09L288.07,161.24z M455.1,159.06l-1.06-0.13
		c0.09-0.7,0.17-1.4,0.24-2.1l1.06,0.11C455.27,157.65,455.19,158.35,455.1,159.06z M287.54,157c-0.07-0.71-0.13-1.42-0.19-2.13
		l1.06-0.08c0.05,0.7,0.12,1.4,0.19,2.1L287.54,157z M455.52,154.81l-1.06-0.08c0.05-0.7,0.1-1.4,0.13-2.11l1.06,0.05
		C455.62,153.39,455.58,154.1,455.52,154.81z M287.21,152.75c-0.04-0.71-0.06-1.42-0.08-2.13l1.07-0.03
		c0.02,0.71,0.04,1.41,0.08,2.11L287.21,152.75z M455.74,150.55l-1.06-0.03c0.02-0.7,0.02-1.4,0.02-2.11v-0.13h1.07v0.13
		C455.76,149.12,455.75,149.84,455.74,150.55z M287.1,148.47v-0.07c0-0.69,0.01-1.38,0.02-2.07l1.07,0.03
		c-0.02,0.68-0.02,1.36-0.02,2.04L287.1,148.47z M454.67,146.17c-0.02-0.7-0.05-1.41-0.08-2.11l1.07-0.05
		c0.04,0.71,0.06,1.42,0.08,2.13L454.67,146.17z M288.27,144.26l-1.06-0.05c0.04-0.71,0.08-1.42,0.13-2.13l1.06,0.08
		C288.35,142.85,288.3,143.55,288.27,144.26z M454.45,141.96c-0.05-0.7-0.12-1.4-0.18-2.1l1.06-0.11c0.07,0.71,0.14,1.42,0.19,2.13
		L454.45,141.96z M288.58,140.05l-1.06-0.1c0.07-0.71,0.15-1.42,0.24-2.12l1.06,0.13C288.73,138.65,288.65,139.35,288.58,140.05z
		 M454.03,137.76c-0.09-0.7-0.19-1.39-0.29-2.09l1.05-0.16c0.11,0.7,0.21,1.41,0.3,2.12L454.03,137.76z M289.11,135.87l-1.05-0.16
		c0.11-0.71,0.22-1.41,0.35-2.11l1.05,0.19C289.32,134.47,289.21,135.17,289.11,135.87z M453.38,133.59
		c-0.13-0.69-0.26-1.38-0.4-2.07l1.04-0.22c0.14,0.7,0.28,1.4,0.41,2.1L453.38,133.59z M289.84,131.71l-1.04-0.21
		c0.14-0.7,0.29-1.39,0.45-2.09l1.04,0.24C290.13,130.34,289.98,131.02,289.84,131.71z M452.53,129.46
		c-0.16-0.69-0.33-1.37-0.5-2.05l1.03-0.27c0.18,0.69,0.35,1.38,0.51,2.07L452.53,129.46z M290.79,127.6l-1.03-0.27
		c0.18-0.69,0.36-1.38,0.56-2.06l1.03,0.29C291.15,126.24,290.96,126.92,290.79,127.6z M451.47,125.38c-0.2-0.68-0.4-1.35-0.61-2.02
		l1.02-0.32c0.21,0.68,0.42,1.36,0.61,2.04L451.47,125.38z M291.94,123.54l-1.02-0.32c0.21-0.68,0.44-1.36,0.66-2.04l1.01,0.34
		C292.37,122.2,292.15,122.87,291.94,123.54z M450.21,121.36c-0.23-0.67-0.46-1.33-0.71-1.99l1-0.37c0.25,0.67,0.49,1.34,0.72,2.01
		L450.21,121.36z M293.31,119.54l-1-0.37c0.25-0.67,0.5-1.34,0.77-2l0.99,0.39C293.81,118.22,293.55,118.88,293.31,119.54z
		 M448.74,117.4c-0.26-0.65-0.53-1.3-0.81-1.94l0.98-0.42c0.28,0.65,0.55,1.31,0.82,1.97L448.74,117.4z M294.88,115.61l-0.98-0.42
		c0.28-0.66,0.57-1.31,0.87-1.96l0.97,0.44C295.44,114.32,295.15,114.96,294.88,115.61z M447.07,113.54
		c-0.29-0.64-0.59-1.27-0.91-1.9l0.96-0.47c0.31,0.64,0.62,1.28,0.92,1.92L447.07,113.54z M296.64,111.77l-0.96-0.47
		c0.31-0.64,0.64-1.28,0.97-1.91l0.94,0.49C297.27,110.51,296.95,111.13,296.64,111.77z M445.21,109.77c-0.33-0.62-0.66-1.24-1-1.85
		l0.93-0.52c0.34,0.62,0.68,1.25,1.01,1.87L445.21,109.77z M298.6,108.02l-0.93-0.52c0.35-0.62,0.7-1.24,1.06-1.86l0.92,0.54
		C299.29,106.79,298.94,107.41,298.6,108.02z M443.16,106.09c-0.36-0.6-0.72-1.2-1.09-1.8l0.9-0.56c0.38,0.6,0.75,1.21,1.11,1.82
		L443.16,106.09z M300.75,104.38l-0.9-0.56c0.38-0.61,0.76-1.2,1.16-1.8l0.89,0.58C301.5,103.19,301.12,103.79,300.75,104.38z
		 M440.93,102.52c-0.39-0.59-0.78-1.17-1.18-1.74l0.87-0.61c0.41,0.58,0.81,1.17,1.2,1.76L440.93,102.52z M303.07,100.86l-0.87-0.61
		c0.41-0.59,0.82-1.17,1.24-1.74l0.86,0.63C303.88,99.71,303.47,100.28,303.07,100.86z M438.52,99.07
		c-0.42-0.57-0.84-1.13-1.27-1.68l0.84-0.65c0.44,0.56,0.87,1.13,1.29,1.7L438.52,99.07z M305.57,97.46l-0.84-0.65
		c0.44-0.56,0.88-1.12,1.33-1.67l0.83,0.67C306.44,96.35,306,96.9,305.57,97.46z M435.93,95.74c-0.44-0.54-0.9-1.08-1.35-1.62
		l0.81-0.69c0.46,0.54,0.92,1.08,1.37,1.64L435.93,95.74z M308.24,94.19l-0.81-0.69c0.46-0.54,0.94-1.07,1.41-1.6l0.79,0.71
		C309.16,93.13,308.7,93.65,308.24,94.19z M433.18,92.55c-0.47-0.52-0.95-1.04-1.43-1.55l0.77-0.73c0.49,0.52,0.98,1.04,1.45,1.57
		L433.18,92.55z M311.07,91.06l-0.77-0.73c0.49-0.52,0.99-1.03,1.49-1.53l0.75,0.75C312.04,90.04,311.55,90.55,311.07,91.06z
		 M430.28,89.49c-0.5-0.5-1-0.99-1.51-1.47l0.73-0.77c0.52,0.49,1.03,0.99,1.53,1.49L430.28,89.49z M314.05,88.07l-0.73-0.77
		c0.52-0.49,1.04-0.97,1.57-1.45l0.71,0.79C315.08,87.11,314.56,87.59,314.05,88.07z M427.21,86.59c-0.52-0.47-1.05-0.94-1.58-1.39
		l0.7-0.81c0.54,0.46,1.07,0.93,1.6,1.41L427.21,86.59z M317.18,85.25l-0.69-0.81c0.54-0.46,1.08-0.92,1.64-1.37l0.67,0.82
		C318.25,84.34,317.71,84.79,317.18,85.25z M424.01,83.84c-0.54-0.44-1.1-0.88-1.65-1.31l0.65-0.84c0.56,0.44,1.12,0.88,1.67,1.33
		L424.01,83.84z M320.44,82.58l-0.65-0.84c0.56-0.44,1.13-0.87,1.7-1.29l0.63,0.86C321.56,81.72,321,82.15,320.44,82.58z
		 M420.68,81.26c-0.57-0.42-1.14-0.83-1.72-1.23l0.61-0.87c0.59,0.41,1.17,0.82,1.74,1.24L420.68,81.26z M323.83,80.08l-0.61-0.87
		c0.58-0.41,1.17-0.81,1.76-1.2l0.59,0.89C324.99,79.28,324.41,79.68,323.83,80.08z M417.21,78.84c-0.59-0.39-1.18-0.77-1.78-1.14
		l0.57-0.9c0.6,0.38,1.21,0.76,1.8,1.15L417.21,78.84z M327.35,77.76l-0.56-0.9c0.6-0.38,1.21-0.75,1.82-1.11l0.54,0.92
		C328.54,77.02,327.94,77.39,327.35,77.76z M413.63,76.61c-0.61-0.36-1.22-0.71-1.83-1.05l0.52-0.93c0.62,0.35,1.24,0.7,1.86,1.06
		L413.63,76.61z M330.97,75.62l-0.52-0.93c0.62-0.35,1.25-0.68,1.87-1.01l0.5,0.94C332.2,74.94,331.58,75.28,330.97,75.62z
		 M409.93,74.56c-0.62-0.33-1.25-0.64-1.89-0.95l0.47-0.96c0.64,0.31,1.28,0.64,1.91,0.97L409.93,74.56z M334.7,73.66l-0.47-0.96
		c0.64-0.31,1.28-0.62,1.92-0.92l0.45,0.97C335.96,73.05,335.33,73.35,334.7,73.66z M406.13,72.7c-0.64-0.29-1.29-0.58-1.93-0.86
		l0.42-0.98c0.66,0.28,1.31,0.57,1.96,0.87L406.13,72.7z M338.52,71.9l-0.42-0.98c0.65-0.28,1.31-0.55,1.97-0.82l0.4,0.99
		C339.81,71.36,339.16,71.63,338.52,71.9z M402.25,71.03c-0.66-0.26-1.31-0.51-1.97-0.76l0.37-1c0.67,0.25,1.34,0.5,2,0.77
		L402.25,71.03z M342.42,70.34l-0.37-1c0.67-0.25,1.34-0.49,2.01-0.72l0.35,1.01C343.74,69.86,343.08,70.09,342.42,70.34z
		 M398.28,69.57c-0.67-0.23-1.34-0.45-2.01-0.66l0.32-1.02c0.68,0.21,1.36,0.44,2.04,0.67L398.28,69.57z M346.41,68.97l-0.32-1.02
		c0.68-0.21,1.36-0.42,2.04-0.61l0.29,1.02C347.76,68.55,347.08,68.76,346.41,68.97z M394.25,68.31c-0.68-0.19-1.36-0.37-2.04-0.55
		l0.26-1.03c0.69,0.18,1.38,0.36,2.06,0.56L394.25,68.31z M350.47,67.8l-0.27-1.03c0.69-0.18,1.38-0.35,2.08-0.51l0.24,1.04
		C351.83,67.46,351.15,67.63,350.47,67.8z M390.16,67.26c-0.68-0.16-1.37-0.31-2.06-0.45l0.21-1.04c0.7,0.14,1.4,0.29,2.09,0.45
		L390.16,67.26z M354.58,66.85l-0.21-1.04c0.7-0.14,1.39-0.28,2.1-0.4l0.19,1.05C355.96,66.58,355.27,66.71,354.58,66.85z
		 M386.03,66.42c-0.69-0.12-1.38-0.23-2.08-0.34l0.16-1.05c0.71,0.11,1.41,0.22,2.11,0.35L386.03,66.42z M358.73,66.11l-0.16-1.05
		c0.7-0.11,1.41-0.21,2.12-0.3l0.13,1.06C360.12,65.9,359.42,66,358.73,66.11z M381.86,65.79c-0.7-0.09-1.4-0.17-2.1-0.23l0.11-1.06
		c0.71,0.07,1.42,0.15,2.12,0.24L381.86,65.79z M362.91,65.57l-0.11-1.06c0.71-0.07,1.42-0.13,2.13-0.19l0.08,1.06
		C364.31,65.44,363.61,65.5,362.91,65.57z M377.66,65.37c-0.7-0.05-1.4-0.09-2.1-0.13l0.05-1.06c0.71,0.04,1.42,0.08,2.13,0.13
		L377.66,65.37z M367.12,65.25l-0.05-1.06c0.71-0.04,1.42-0.06,2.13-0.08l0.03,1.07C368.52,65.19,367.82,65.22,367.12,65.25z
		 M373.45,65.17c-0.67-0.02-1.34-0.02-2.01-0.02l-0.1-1.06h0.1c0.68,0,1.36,0.01,2.04,0.02L373.45,65.17z"/>
</g>
<g id="B">
	<g>
		<rect x="6.5" y="65.67" class="st3" width="97.88" height="0.88"/>
		<rect x="6.5" y="229.88" class="st3" width="97.88" height="0.88"/>
		<polygon class="st3" points="10.92,223.83 14.24,228.5 17.6,223.86 14.63,223.84 14.63,71.92 17.65,71.91 14.28,67.27 
			10.96,71.94 13.72,71.93 13.72,223.84 		"/>
		<rect x="130.83" y="81.33" class="st3" width="88.54" height="0.88"/>
		<rect x="130.83" y="214.04" class="st3" width="88.54" height="0.88"/>
		<polygon class="st3" points="208.4,206.95 211.76,211.59 215.08,206.92 212.1,206.93 212.1,87.76 215.12,87.77 211.8,83.1 
			208.44,87.74 211.31,87.75 211.31,206.94 		"/>
	</g>
</g>
<g id="C">
	<g>
		<rect x="378.13" y="67.75" class="st4" width="1" height="1"/>
		<rect x="378.13" y="105.6" class="st4" width="1" height="1.94"/>
		<rect x="378.13" y="101.72" class="st4" width="1" height="1.94"/>
		<rect x="378.13" y="109.48" class="st4" width="1" height="1.94"/>
		<rect x="378.13" y="117.24" class="st4" width="1" height="1.94"/>
		<rect x="378.13" y="121.12" class="st4" width="1" height="1.94"/>
		<rect x="378.13" y="97.84" class="st4" width="1" height="1.94"/>
		<rect x="378.13" y="113.36" class="st4" width="1" height="1.94"/>
		<rect x="378.13" y="74.57" class="st4" width="1" height="1.94"/>
		<rect x="378.13" y="78.45" class="st4" width="1" height="1.94"/>
		<rect x="378.13" y="70.69" class="st4" width="1" height="1.94"/>
		<rect x="378.13" y="93.97" class="st4" width="1" height="1.94"/>
		<rect x="378.13" y="86.21" class="st4" width="1" height="1.94"/>
		<rect x="378.13" y="82.33" class="st4" width="1" height="1.94"/>
		<rect x="378.13" y="90.09" class="st4" width="1" height="1.94"/>
		<rect x="378.13" y="125" class="st4" width="1" height="1"/>
		<rect x="364.13" y="67" class="st4" width="1" height="1"/>
		<rect x="364.13" y="108.73" class="st4" width="1" height="1.94"/>
		<rect x="364.13" y="104.85" class="st4" width="1" height="1.94"/>
		<rect x="364.13" y="100.97" class="st4" width="1" height="1.94"/>
		<rect x="364.13" y="97.09" class="st4" width="1" height="1.94"/>
		<rect x="364.13" y="93.22" class="st4" width="1" height="1.94"/>
		<rect x="364.13" y="120.37" class="st4" width="1" height="1.94"/>
		<rect x="364.13" y="112.61" class="st4" width="1" height="1.94"/>
		<rect x="364.13" y="116.49" class="st4" width="1" height="1.94"/>
		<rect x="364.13" y="73.82" class="st4" width="1" height="1.94"/>
		<rect x="364.13" y="77.7" class="st4" width="1" height="1.94"/>
		<rect x="364.13" y="69.94" class="st4" width="1" height="1.94"/>
		<rect x="364.13" y="85.46" class="st4" width="1" height="1.94"/>
		<rect x="364.13" y="81.58" class="st4" width="1" height="1.94"/>
		<rect x="364.13" y="89.34" class="st4" width="1" height="1.94"/>
		<rect x="364.13" y="124.25" class="st4" width="1" height="1"/>
		<polygon class="st4" points="372.79,122.5 370.07,122.5 370.08,119.61 365.41,122.94 370.06,126.3 370.07,123.56 372.79,123.56 
			372.8,126.32 377.45,122.96 372.78,119.63 		"/>
	</g>
</g>
</svg>
