<?xml version="1.0" encoding="utf-8"?>
<!-- Generator: Adobe Illustrator 23.0.0, SVG Export Plug-In . SVG Version: 6.00 Build 0)  -->
<svg version="1.1" xmlns="http://www.w3.org/2000/svg" xmlns:xlink="http://www.w3.org/1999/xlink" x="0px" y="0px"
	 viewBox="0 0 521 299" style="enable-background:new 0 0 521 299;" xml:space="preserve">
<style type="text/css">
	.st0{fill:#E30613;}
	.st1{fill:#E83C3F;}
	.st2{fill:#32A936;}
	.st3{fill:#D41116;}
	.st4{fill:#50B15E;}
</style>
<g id="Corona">
	<g>
		<path class="st0" d="M512.3,151.2l-7.7-3.6c-1.2-0.6-2-1.7-2-3.1c0-1.4,0.6-2.5,1.8-3.2l7.5-4c0.7-0.4,1-1,0.9-1.8
			c-0.1-0.7-0.5-1.3-1.3-1.6l-8.1-2.6c-1.3-0.4-2.2-1.5-2.4-2.8c-0.2-1.3,0.3-2.6,1.4-3.4l7-4.9c0.6-0.4,0.9-1.1,0.7-1.9
			c-0.2-0.7-0.7-1.3-1.4-1.4l-8.4-1.6c-1.3-0.3-2.3-1.2-2.7-2.5s0-2.6,1-3.5l6.3-5.8c0.5-0.5,0.7-1.2,0.5-1.9
			c-0.2-0.7-0.9-1.2-1.6-1.2l-8.5-0.5c-1.4-0.1-2.5-0.9-3-2.1c-0.5-1.2-0.3-2.6,0.6-3.6l5.5-6.5c0.5-0.5,0.6-1.3,0.3-1.9
			c-0.3-0.6-0.9-1.1-1.6-1.1l-8.6,0.5c-1.4,0.1-2.6-0.6-3.3-1.8c-0.6-1.2-0.6-2.5,0.2-3.6l4.7-7.1c0.4-0.6,0.4-1.3,0.1-1.9
			c-0.4-0.7-1.1-1.1-1.9-0.9l-8.4,1.6c-1.4,0.3-2.9-0.4-3.6-1.6c-0.7-1-0.7-2.3-0.2-3.4l3.8-7.6c0.3-0.6,0.3-1.2-0.1-1.8
			c-0.4-0.7-1.3-1-2.1-0.8l-8.1,2.6c-1.5,0.5-3-0.1-3.9-1.3c-0.7-0.9-0.8-2.1-0.4-3.2l2.8-8.1c0.2-0.6,0.1-1.2-0.2-1.6
			c-0.5-0.7-1.4-1-2.2-0.6l-7.8,3.6c-1.5,0.7-3.2,0.2-4.2-1c-0.7-0.8-0.9-1.9-0.7-2.9l1.8-8.3c0.1-0.5,0-1.1-0.4-1.5
			c-0.6-0.7-1.6-0.9-2.4-0.4l-7.3,4.5c-1.4,0.9-3.3,0.6-4.4-0.6c-0.7-0.7-1-1.7-0.9-2.7L440,26c0-0.5-0.1-1-0.5-1.4
			c-0.6-0.7-1.7-0.8-2.5-0.2l-6.7,5.3c-0.6,0.5-1.4,0.8-2.2,0.8c-1.7,0-3.5-1.3-3.5-3.4l-0.3-8.5c0-1-0.8-1.8-1.8-1.8
			c-0.5,0-0.9,0.2-1.3,0.6l-6,6.1c-0.7,0.7-1.6,1.1-2.5,1.1c-1.5,0-3.2-1-3.5-3l-1.3-8.4c-0.1-0.9-0.9-1.5-1.8-1.5
			c-0.6,0-1.1,0.3-1.4,0.7l-5.2,6.8c-0.7,0.9-1.7,1.4-2.8,1.4c-1.3,0-2.9-0.8-3.4-2.5l-2.3-8.2c-0.2-0.8-0.9-1.3-1.7-1.3
			c-0.7,0-1.2,0.3-1.6,0.9l-4.3,7.4c-0.6,1.1-1.8,1.7-3,1.7c-1.4,0-2.7-0.8-3.2-2.1L374,8.6c-0.3-0.7-0.9-1.1-1.7-1.1
			c-0.7,0-1.4,0.4-1.7,1.1l-3.3,7.9c-0.6,1.3-1.8,2.1-3.2,2.1c-1.3,0-2.4-0.7-3-1.7l-4.3-7.4c-0.3-0.6-0.9-0.9-1.6-0.9
			c-0.8,0-1.5,0.5-1.7,1.3l-2.3,8.2c-0.5,1.8-2.1,2.5-3.4,2.5c-1.1,0-2.1-0.5-2.8-1.4l-5.2-6.8c-0.3-0.5-0.9-0.7-1.4-0.7
			c-0.9,0-1.7,0.6-1.8,1.5l-1.3,8.4c-0.3,1.9-2,3-3.5,3c-0.9,0-1.8-0.4-2.5-1.1l-6-6.1c-0.3-0.4-0.8-0.6-1.3-0.6
			c-1,0-1.8,0.8-1.8,1.8l-0.3,8.5c-0.1,2.1-1.8,3.4-3.5,3.4c-0.8,0-1.5-0.3-2.2-0.8l-6.7-5.3c-0.7-0.6-1.9-0.5-2.5,0.2
			c-0.3,0.4-0.5,0.9-0.5,1.4l0.8,8.5c0.1,1-0.2,1.9-0.9,2.7c-1.1,1.2-3,1.5-4.4,0.6l-7.3-4.5c-0.8-0.5-1.8-0.3-2.4,0.4
			c-0.3,0.4-0.5,1-0.4,1.5l1.8,8.3c0.2,1.1,0,2.1-0.7,2.9c-1,1.2-2.7,1.7-4.2,1l-7.8-3.6c-0.8-0.4-1.7-0.1-2.2,0.6
			c-0.3,0.5-0.4,1.1-0.2,1.6l2.8,8.1c0.4,1.1,0.2,2.2-0.4,3.2c-0.9,1.2-2.5,1.8-3.9,1.3l-8.1-2.6c-0.8-0.3-1.7,0.1-2.1,0.8
			c-0.3,0.5-0.4,1.2-0.1,1.8l3.8,7.6c0.6,1.1,0.5,2.3-0.2,3.4c-0.8,1.2-2.2,1.9-3.6,1.6l-8.4-1.6c-0.8-0.2-1.6,0.2-1.9,0.9
			c-0.3,0.6-0.3,1.3,0.1,1.9l4.7,7.1c0.7,1.1,0.8,2.4,0.2,3.6c-0.7,1.2-1.9,1.9-3.3,1.8l-8.5-0.5l-0.1,0c-0.7,0-1.3,0.4-1.6,1.1
			c-0.3,0.6-0.2,1.4,0.3,1.9l5.5,6.5c0.9,1,1.1,2.4,0.6,3.6c-0.5,1.2-1.7,2-3,2.1l-8.5,0.5c-0.7,0-1.3,0.5-1.6,1.2
			c-0.2,0.7-0.1,1.4,0.5,1.9l6.3,5.8c1,0.9,1.4,2.2,1,3.5c-0.4,1.3-1.4,2.2-2.7,2.5L236,117c-0.7,0.1-1.3,0.7-1.4,1.4
			c-0.2,0.7,0.1,1.4,0.7,1.9l7,4.9c1.1,0.8,1.6,2.1,1.4,3.4c-0.2,1.3-1.1,2.4-2.4,2.8l-8.1,2.6c-0.7,0.2-1.2,0.8-1.3,1.6
			c-0.1,0.7,0.3,1.4,0.9,1.8l7.5,4c1.2,0.6,1.9,1.8,1.8,3.2c0,1.4-0.8,2.5-2,3.1l-7.7,3.6c-0.7,0.3-1.1,1-1.1,1.7
			c0,0.7,0.5,1.4,1.2,1.6l8,3.1c1.3,0.5,2.1,1.6,2.2,2.9c0.1,1.3-0.5,2.6-1.6,3.3l-7.2,4.5c-0.6,0.4-0.9,1.1-0.8,1.8
			c0.1,0.7,0.6,1.3,1.3,1.5l8.1,2c1.4,0.3,2.3,1.4,2.6,2.7c0.3,1.4-0.2,2.7-1.3,3.6l-6.5,5.2c-0.6,0.5-0.8,1.2-0.6,1.9
			c0.2,0.7,0.8,1.2,1.5,1.3l8.5,1.1c1.3,0.2,2.4,1,2.9,2.3c0.5,1.3,0.2,2.6-0.8,3.6l-5.9,6.1c-0.5,0.5-0.7,1.3-0.4,2
			c0.3,0.7,0.9,1.1,1.7,1.1l8.5,0c1.4,0,2.5,0.7,3.1,1.9c0.6,1.2,0.5,2.6-0.3,3.7l-5.1,6.8c-0.4,0.6-0.5,1.3-0.2,1.9
			c0.3,0.7,1.1,1.1,1.8,1l8.5-1c1.4-0.2,2.7,0.5,3.5,1.7c0.6,1.1,0.6,2.4,0,3.5l-4.3,7.4c-0.3,0.6-0.3,1.2,0,1.8
			c0.4,0.7,1.2,1.1,2,0.9l8.3-2.1c1.5-0.4,3,0.2,3.8,1.5c0.7,1,0.8,2.2,0.3,3.3l-3.3,7.9c-0.2,0.6-0.2,1.2,0.2,1.7
			c0.5,0.7,1.4,1,2.2,0.7l8-3.1c1.5-0.6,3.1-0.1,4.1,1.2c0.7,0.9,0.9,2,0.6,3.1l-2.3,8.2c-0.2,0.6,0,1.1,0.3,1.6
			c0.5,0.7,1.5,0.9,2.3,0.5l7.5-4c1.5-0.8,3.3-0.4,4.3,0.8c0.7,0.8,0.9,1.8,0.8,2.8l-1.3,8.4c-0.1,0.5,0.1,1,0.4,1.5
			c0.6,0.7,1.7,0.8,2.4,0.3l7-4.9c1.4-1,3.4-0.8,4.6,0.4c0.7,0.7,1,1.6,1,2.5l-0.2,8.5c0,0.5,0.2,1,0.5,1.3c0.7,0.7,1.8,0.7,2.5,0.1
			l6.3-5.7c0.7-0.6,1.5-0.9,2.3-0.9c1.6,0,3.3,1.1,3.5,3.2l0.8,8.5c0.1,0.9,0.9,1.6,1.8,1.6c0.5,0,1-0.2,1.4-0.6l5.6-6.5
			c0.7-0.8,1.6-1.2,2.6-1.2c1.7,0,3.1,1.1,3.4,2.8l1.8,8.3c0.2,0.8,0.9,1.4,1.8,1.4c0.6,0,1.2-0.3,1.5-0.8l4.7-7.1
			c0.7-1,1.7-1.6,2.9-1.6c1.5,0,2.8,0.9,3.3,2.3l2.8,8c0.3,0.7,0.9,1.2,1.7,1.2c0.7,0,1.3-0.4,1.6-1l3.8-7.6
			c0.6-1.2,1.8-1.9,3.1-1.9c1.4,0,2.5,0.7,3.1,1.9l3.8,7.6c0.3,0.6,0.9,1,1.6,1c0.8,0,1.5-0.5,1.7-1.2l2.9-8
			c0.5-1.4,1.8-2.3,3.3-2.3c1.2,0,2.2,0.6,2.9,1.6l4.7,7.1c0.3,0.5,0.9,0.8,1.5,0.8c0.9,0,1.6-0.6,1.8-1.4l1.8-8.3
			c0.4-1.6,1.8-2.8,3.4-2.8c1,0,2,0.4,2.6,1.2l5.6,6.5c0.4,0.4,0.8,0.6,1.4,0.6c0.9,0,1.7-0.7,1.8-1.6l0.8-8.5
			c0.2-2.1,2-3.2,3.5-3.2c0.9,0,1.7,0.3,2.3,0.9l6.3,5.7c0.7,0.6,1.9,0.6,2.5-0.1c0.3-0.3,0.5-0.8,0.5-1.3l-0.2-8.5
			c0-1,0.3-1.9,1-2.5c1.2-1.2,3.1-1.4,4.6-0.4l7,4.9c0.8,0.5,1.8,0.4,2.4-0.3c0.3-0.4,0.5-0.9,0.4-1.4l-1.3-8.4
			c-0.2-1,0.1-2,0.8-2.8c1.1-1.2,2.9-1.6,4.3-0.8l7.5,4c0.8,0.4,1.8,0.2,2.3-0.5c0.3-0.5,0.4-1,0.3-1.6l-2.3-8.2
			c-0.3-1.1-0.1-2.2,0.6-3.1c0.9-1.2,2.6-1.7,4.1-1.2l8,3.1c0.8,0.3,1.7,0,2.2-0.7c0.3-0.5,0.4-1.1,0.2-1.7l-3.3-7.9
			c-0.5-1.1-0.4-2.3,0.3-3.3c0.8-1.2,2.3-1.8,3.8-1.5l8.3,2.1c0.8,0.2,1.6-0.2,2-0.9c0.3-0.6,0.3-1.2,0-1.8l-4.3-7.4
			c-0.6-1.1-0.6-2.4,0-3.5c0.7-1.2,2-1.9,3.5-1.7l8.5,1c0.8,0.1,1.5-0.3,1.8-1c0.3-0.6,0.2-1.3-0.2-1.9l-5.1-6.8
			c-0.8-1.1-0.9-2.5-0.3-3.7c0.6-1.2,1.8-1.9,3.1-1.9l8.5,0c0.7,0,1.4-0.4,1.7-1.1c0.3-0.7,0.1-1.4-0.4-2l-5.9-6.1
			c-0.9-1-1.2-2.3-0.8-3.6c0.5-1.3,1.5-2.1,2.9-2.3l8.5-1.1c0.7-0.1,1.3-0.6,1.5-1.3c0.2-0.7,0-1.4-0.6-1.9l-6.6-5.4
			c-1.1-0.9-1.5-2.2-1.2-3.5c0.3-1.3,1.2-2.3,2.6-2.6l8.3-2.1c0.7-0.2,1.2-0.7,1.3-1.5c0.1-0.7-0.2-1.4-0.8-1.8l-7.2-4.5
			c-1.2-0.7-1.8-1.9-1.6-3.3c0.1-1.3,1-2.4,2.2-2.9l8-3.1c0.7-0.3,1.1-0.9,1.2-1.6C513.3,152.1,512.9,151.5,512.3,151.2z
			 M511.8,153.6l-8,3.1c-1.6,0.6-2.7,2.1-2.9,3.8c-0.2,1.7,0.6,3.3,2.1,4.2l7.2,4.5c0.3,0.2,0.4,0.5,0.4,0.8
			c-0.1,0.3-0.3,0.6-0.6,0.7l-8.3,2.1c-1.7,0.4-2.9,1.7-3.3,3.4c-0.4,1.7,0.2,3.4,1.6,4.5l6.6,5.4c0.3,0.2,0.4,0.5,0.3,0.9
			c-0.1,0.3-0.3,0.5-0.7,0.6l-8.5,1.1c-1.7,0.2-3.1,1.4-3.7,3c-0.6,1.6-0.2,3.4,1,4.6l5.9,6.1c0.2,0.2,0.3,0.6,0.2,0.9
			c-0.1,0.3-0.4,0.5-0.7,0.5l-8.5,0c-1.7,0-3.3,1-4,2.5c-0.8,1.5-0.6,3.3,0.4,4.7l5.1,6.8c0.2,0.3,0.2,0.6,0.1,0.8
			c-0.2,0.3-0.5,0.5-0.8,0.4l-8.5-1c-1.9-0.2-3.5,0.6-4.4,2.2c-0.8,1.4-0.8,3.1,0,4.5l4.3,7.4c0.1,0.3,0.1,0.6,0,0.8
			c-0.2,0.3-0.5,0.5-0.9,0.4l-8.3-2.1c-1.9-0.5-3.8,0.3-4.9,1.9c-0.8,1.3-1,2.8-0.4,4.2l3.3,7.9c0.1,0.3,0,0.6-0.1,0.8
			c-0.2,0.3-0.6,0.5-1,0.3l-8-3.1c-1.9-0.7-4-0.1-5.2,1.5c-0.9,1.1-1.1,2.6-0.7,3.9l2.3,8.2c0.1,0.3,0,0.6-0.1,0.7
			c-0.2,0.3-0.7,0.4-1,0.2l-7.5-4c-1.9-1-4.2-0.5-5.6,1.1c-0.9,1-1.2,2.3-1,3.6l1.3,8.4c0,0.3-0.1,0.5-0.2,0.6
			c-0.3,0.3-0.7,0.4-1.1,0.1l-7-4.9c-1.8-1.3-4.3-1-5.8,0.6c-0.8,0.9-1.3,2-1.3,3.3l0.2,8.5c0,0.3-0.1,0.5-0.2,0.6
			c-0.2,0.2-0.4,0.3-0.6,0.3c-0.1,0-0.3,0-0.5-0.2l-6.3-5.7c-0.8-0.8-1.9-1.2-3-1.2c-2.3,0-4.3,1.8-4.5,4.1l-0.8,8.5
			c0,0.5-0.4,0.7-0.8,0.7c-0.2,0-0.4,0-0.6-0.3l-5.6-6.5c-0.9-1-2.1-1.6-3.4-1.6c-2.1,0-4,1.5-4.4,3.5l-1.8,8.3
			c-0.1,0.4-0.5,0.6-0.8,0.6c-0.2,0-0.5,0-0.7-0.4l-4.7-7.1c-0.8-1.3-2.2-2-3.7-2c-1.9,0-3.6,1.2-4.3,3l-2.9,8
			c-0.1,0.4-0.5,0.5-0.8,0.5c-0.3,0-0.6-0.2-0.7-0.4l-3.8-7.6c-0.8-1.5-2.3-2.5-4-2.5c-1.7,0-3.3,1-4,2.5l-3.8,7.6
			c-0.1,0.3-0.4,0.4-0.7,0.4c-0.3,0-0.6-0.1-0.8-0.5l-2.8-8c-0.6-1.8-2.3-3-4.3-3c-1.5,0-2.9,0.7-3.7,2l-4.7,7.1
			c-0.2,0.3-0.5,0.4-0.7,0.4c-0.3,0-0.7-0.2-0.8-0.6l-1.8-8.3c-0.5-2.1-2.3-3.5-4.4-3.5c-1.3,0-2.5,0.6-3.4,1.6l-5.6,6.5
			c-0.2,0.2-0.4,0.3-0.6,0.3c-0.4,0-0.8-0.3-0.8-0.7l-0.8-8.5c-0.2-2.3-2.2-4.1-4.5-4.1c-1.1,0-2.2,0.4-3,1.2l-6.3,5.7
			c-0.2,0.2-0.4,0.2-0.5,0.2c-0.2,0-0.4-0.1-0.6-0.3c-0.1-0.1-0.2-0.3-0.2-0.6l0.2-8.5c0-1.2-0.4-2.4-1.3-3.3
			c-1.5-1.5-4.1-1.8-5.8-0.6l-7,4.9c-0.3,0.2-0.8,0.2-1.1-0.1c-0.1-0.1-0.2-0.3-0.2-0.6l1.3-8.4c0.2-1.3-0.2-2.6-1-3.6
			c-1.4-1.6-3.7-2-5.6-1.1l-7.5,4c-0.4,0.2-0.8,0.1-1-0.2c-0.1-0.1-0.2-0.4-0.1-0.7l2.3-8.2c0.4-1.4,0.1-2.8-0.7-3.9
			c-1.2-1.6-3.4-2.2-5.2-1.5l-8,3.1c-0.4,0.1-0.8,0-1-0.3c-0.1-0.1-0.2-0.4-0.1-0.8l3.3-7.9c0.6-1.4,0.5-3-0.4-4.2
			c-1.1-1.6-3-2.4-4.9-1.9l-8.3,2.1c-0.4,0.1-0.7-0.1-0.9-0.4c-0.1-0.3-0.1-0.6,0-0.8l4.3-7.4c0.8-1.4,0.8-3.1,0-4.5
			c-0.9-1.6-2.6-2.4-4.4-2.2l-8.5,1c-0.4,0-0.7-0.1-0.8-0.4c-0.1-0.3-0.1-0.6,0.1-0.8l5.1-6.8c1-1.4,1.2-3.2,0.4-4.7
			c-0.8-1.5-2.3-2.5-4-2.5l-8.5,0c-0.3,0-0.6-0.2-0.7-0.5c-0.1-0.3-0.1-0.6,0.2-0.9l5.9-6.1c1.2-1.2,1.6-3,1-4.6
			c-0.6-1.6-2-2.8-3.7-3l-8.5-1.1c-0.3,0-0.6-0.3-0.7-0.6c-0.1-0.3,0-0.6,0.3-0.9l6.5-5.2c1.4-1.1,2-2.9,1.6-4.6
			c-0.4-1.7-1.7-3.1-3.4-3.5l-8.1-2c-0.3-0.1-0.6-0.3-0.6-0.7c-0.1-0.3,0.1-0.6,0.4-0.8l7.2-4.5c1.5-0.9,2.3-2.5,2.1-4.2
			c-0.2-1.7-1.3-3.2-2.9-3.8l-8-3.1c-0.3-0.1-0.5-0.4-0.5-0.7c0-0.3,0.2-0.6,0.5-0.8l7.7-3.6c1.6-0.7,2.6-2.2,2.6-4
			c0.1-1.7-0.9-3.3-2.4-4.1l-7.5-4c-0.3-0.2-0.5-0.5-0.4-0.8c0-0.3,0.2-0.6,0.6-0.7l8.1-2.6c1.6-0.5,2.8-1.9,3.1-3.6
			c0.3-1.7-0.4-3.4-1.8-4.4l-7-4.9c-0.3-0.2-0.4-0.5-0.3-0.8c0.1-0.3,0.3-0.6,0.6-0.6l8.4-1.6c1.7-0.3,3-1.5,3.5-3.2
			c0.5-1.7,0-3.4-1.3-4.6l-6.3-5.8c-0.2-0.2-0.3-0.6-0.2-0.9c0.1-0.3,0.4-0.5,0.7-0.5l8.5-0.5c1.7-0.1,3.2-1.2,3.9-2.7
			c0.7-1.6,0.4-3.4-0.7-4.7l-5.5-6.5c-0.2-0.2-0.3-0.6-0.1-0.9c0.1-0.3,0.4-0.5,0.8-0.5c0,0,0,0,0,0l8.5,0.5
			c1.8,0.1,3.4-0.8,4.2-2.4c0.8-1.5,0.7-3.2-0.2-4.6l-4.7-7.1c-0.2-0.4-0.1-0.7,0-0.8c0.2-0.3,0.5-0.5,0.9-0.4l8.4,1.6
			c1.8,0.3,3.7-0.5,4.7-2.1c0.8-1.3,0.9-3,0.2-4.4l-3.8-7.6c-0.1-0.3-0.1-0.5,0-0.8c0.2-0.3,0.6-0.5,0.9-0.4l8.1,2.6
			c1.9,0.6,3.9-0.1,5-1.7c0.9-1.2,1.1-2.7,0.6-4.1l-2.8-8.1c-0.1-0.3,0-0.6,0.1-0.7c0.2-0.3,0.6-0.4,1-0.3l7.8,3.6
			c1.9,0.9,4.1,0.3,5.4-1.3c0.9-1.1,1.2-2.4,0.9-3.8l-1.8-8.3c-0.1-0.2,0-0.5,0.2-0.7c0.3-0.3,0.7-0.4,1.1-0.2l7.3,4.5
			c1.8,1.1,4.3,0.8,5.7-0.8c0.9-0.9,1.3-2.2,1.1-3.4l-0.8-8.5c0-0.3,0.1-0.5,0.2-0.6c0.3-0.3,0.8-0.4,1.1-0.1l6.7,5.3
			c0.8,0.7,1.8,1,2.8,1c2.2,0,4.4-1.6,4.5-4.4l0.3-8.5c0-0.5,0.4-0.8,0.8-0.8c0.2,0,0.4,0,0.6,0.2l6,6.1c0.9,0.9,2,1.4,3.2,1.4
			c2.2,0,4.1-1.6,4.5-3.8l1.3-8.4c0.1-0.5,0.5-0.7,0.8-0.7c0.1,0,0.4,0,0.6,0.3l5.2,6.8c0.9,1.1,2.2,1.8,3.6,1.8
			c2,0,3.8-1.3,4.3-3.3l2.3-8.2c0.1-0.4,0.5-0.6,0.8-0.6c0.3,0,0.5,0.1,0.7,0.4l4.3,7.4c0.8,1.4,2.3,2.2,3.9,2.2
			c1.8,0,3.4-1.1,4.2-2.7l3.3-7.9c0.3-0.6,1.2-0.6,1.5,0l3.3,7.9c0.7,1.7,2.3,2.7,4.2,2.7c1.6,0,3.1-0.8,3.9-2.2l4.3-7.4
			c0.1-0.3,0.4-0.4,0.7-0.4c0.3,0,0.7,0.2,0.8,0.6l2.3,8.2c0.6,2,2.3,3.3,4.3,3.3c1.4,0,2.7-0.7,3.6-1.8l5.2-6.8
			c0.2-0.3,0.5-0.3,0.6-0.3c0.3,0,0.7,0.2,0.8,0.7l1.3,8.4c0.3,2.2,2.2,3.8,4.5,3.8c1.2,0,2.3-0.5,3.2-1.4l6-6.1
			c0.2-0.2,0.4-0.2,0.6-0.2c0.4,0,0.8,0.3,0.8,0.8l0.3,8.5c0.1,2.7,2.4,4.4,4.5,4.4c1,0,2-0.3,2.8-1l6.7-5.3
			c0.3-0.3,0.8-0.2,1.1,0.1c0.1,0.1,0.2,0.3,0.2,0.6l-0.8,8.5c-0.1,1.3,0.3,2.5,1.1,3.4c1.4,1.6,3.9,1.9,5.7,0.8l7.3-4.5
			c0.4-0.2,0.8-0.1,1.1,0.2c0.2,0.2,0.2,0.4,0.2,0.7l-1.8,8.3c-0.3,1.3,0,2.7,0.9,3.8c1.3,1.6,3.5,2.1,5.4,1.3l7.8-3.6
			c0.4-0.2,0.8,0,1,0.3c0.1,0.1,0.2,0.4,0.1,0.7l-2.8,8.1c-0.5,1.4-0.3,2.9,0.6,4.1c1.1,1.6,3.2,2.3,5,1.7l8.1-2.6
			c0.4-0.1,0.7,0,0.9,0.4c0.1,0.2,0.2,0.5,0,0.8l-3.8,7.6c-0.7,1.4-0.6,3,0.2,4.4c1,1.6,2.8,2.4,4.7,2.1l8.4-1.6
			c0.4-0.1,0.7,0.1,0.9,0.4c0.1,0.1,0.2,0.5,0,0.8l-4.7,7.1c-0.9,1.4-1,3.1-0.2,4.6c0.8,1.6,2.4,2.5,4.2,2.4l8.6-0.5
			c0.3,0,0.6,0.2,0.7,0.5c0.1,0.3,0.1,0.6-0.1,0.9l-5.5,6.5c-1.1,1.3-1.4,3.1-0.7,4.7c0.7,1.6,2.1,2.6,3.9,2.7l8.5,0.5
			c0.3,0,0.6,0.2,0.7,0.5c0.1,0.3,0,0.6-0.2,0.9l-6.3,5.8c-1.3,1.2-1.8,2.9-1.3,4.6c0.5,1.7,1.8,2.9,3.5,3.2l8.4,1.6
			c0.3,0.1,0.6,0.3,0.6,0.6c0.1,0.3,0,0.6-0.3,0.8l-7,4.9c-1.4,1-2.1,2.7-1.8,4.4c0.3,1.7,1.4,3.1,3.1,3.6l8.1,2.6
			c0.3,0.1,0.5,0.4,0.6,0.7c0,0.3-0.1,0.6-0.4,0.8l-7.5,4c-1.5,0.8-2.4,2.4-2.4,4.1c0.1,1.7,1.1,3.2,2.6,3.9l7.7,3.6
			c0.3,0.1,0.5,0.4,0.5,0.8C512.3,153.2,512.1,153.5,511.8,153.6z"/>
	</g>
	<path class="st1" d="M371.5,215.7c-37.1,0-67.3-30.2-67.3-67.3c0-37.1,30.2-67.3,67.3-67.3c37.1,0,67.3,30.2,67.3,67.3
		C438.8,185.5,408.6,215.7,371.5,215.7z M371.5,82.1c-36.6,0-66.3,29.7-66.3,66.3c0,36.6,29.7,66.3,66.3,66.3
		c36.6,0,66.3-29.7,66.3-66.3C437.8,111.9,408,82.1,371.5,82.1z"/>
	<g>
		<path class="st0" d="M472.9,192.6c-3.8,0-6.4-1.9-7.2-2.5c-1.5-1.3-11.6-13.6-14.5-18.8c-1.9-3.5-1.1-7.8-0.2-12.9
			c0.5-2.9,1.1-6.2,1.3-9.6c0.2-5.4-0.8-10.6-1.7-14.8c-0.7-3.2-1.1-5.5-0.8-6.9c0.8-2.9,3.8-6.4,3.9-6.6
			c0.2-0.4,7.1-11.4,11.8-14.4c1.8-1.1,3.8-1.7,5.8-1.7c3.9,0,7.5,2.3,10.1,6.6c4.5,7.2,7.2,30.5,7.4,33.4
			c0.3,3.7-0.8,16.1-1.8,27.8c-1.1,12.5-7.7,19.3-11.9,20.2C474.3,192.5,473.6,192.6,472.9,192.6z M471.3,105.4
			c-1.8,0-3.6,0.5-5.2,1.6c-4.5,2.9-11.5,14-11.5,14.1c-0.1,0.1-3,3.6-3.7,6.3c-0.3,1.1,0.2,3.4,0.8,6.4c0.8,4,1.9,9.5,1.7,15
			c-0.2,3.6-0.7,6.9-1.3,9.8c-0.9,5.1-1.6,9.1,0.1,12.2c2.9,5.3,13,17.5,14.2,18.5c0.7,0.5,3.1,2.3,6.5,2.3c0.7,0,1.3-0.1,2-0.2
			c3.9-0.8,10.1-7.4,11.1-19.3c1-11.7,2.1-24.1,1.8-27.6c-0.3-4.2-3.2-26.3-7.3-33C478.1,107.6,474.8,105.4,471.3,105.4z"/>
		<path class="st0" d="M431.3,90.4c-4,0-7.4-2.8-11.4-6c-2.3-1.8-4.9-3.9-7.9-5.7c-4.6-2.8-9.7-4.3-13.8-5.6c-3.1-1-5.4-1.6-6.4-2.6
			c-2.2-2-3.9-6.4-3.9-6.5c-0.2-0.4-6.6-11.6-7-17.2c-0.2-2.9,0.7-5.7,2.5-7.7c2.1-2.4,5.3-3.7,9.3-4c8.5-0.5,30.4,8.2,32.9,9.4
			c3.4,1.5,13.8,8.3,23.6,14.8c10.5,6.9,13.4,15.9,12.1,20.1c-1.5,4.7-5.3,6.6-6.5,7.1C453,87.4,437.3,90.4,431.3,90.4L431.3,90.4z
			 M393.4,36.2c-0.2,0-0.4,0-0.7,0c-3.7,0.2-6.7,1.5-8.6,3.6c-1.6,1.8-2.4,4.3-2.2,7c0.4,5.4,6.8,16.7,6.9,16.8
			c0,0.1,1.7,4.4,3.7,6.3c0.8,0.8,3.1,1.5,6,2.3c3.9,1.2,9.3,2.8,14,5.7c3.1,1.8,5.7,3.9,8,5.8c4,3.2,7.2,5.7,10.8,5.7v0.5l0-0.5
			c6,0,21.6-3.1,23.1-3.7c1-0.4,4.6-2.2,5.9-6.5c1.2-3.8-1.7-12.4-11.6-19c-9.2-6.1-20.1-13.2-23.5-14.7
			C422.8,44.4,402.2,36.2,393.4,36.2z"/>
		<path class="st0" d="M311.7,90.5c-6.3,0-21.4-2.6-23.1-3.2c-1.2-0.4-5.1-2.3-6.7-7c-1.4-4.1,1.3-13.2,11.6-20.4
			c9.6-6.7,19.9-13.8,23.2-15.4c2.6-1.2,24.2-10.5,32.7-10.2c4,0.1,7.3,1.4,9.4,3.7c1.8,2,2.8,4.7,2.7,7.6c-0.2,5.6-6.4,17-6.6,17.4
			c0,0.1-1.6,4.5-3.7,6.6c-1,1-3.2,1.7-6.3,2.7c-4,1.3-9.1,3-13.6,5.9c-3,1.9-5.5,4-7.7,5.9c-3.9,3.3-7.3,6.1-11.3,6.2L311.7,90.5z
			 M349,35.4c-8.6,0-29.4,8.9-31.9,10.1c-3.3,1.6-13.5,8.6-23.1,15.3c-9.8,6.8-12.5,15.5-11.2,19.2c1.5,4.3,5,5.9,6.1,6.4
			c1.4,0.5,16.4,3.2,22.7,3.2l0.4,0c3.6-0.1,6.7-2.7,10.7-6c2.3-1.9,4.8-4.1,7.9-6c4.7-2.9,10-4.7,13.9-6c2.9-1,5.1-1.7,5.9-2.5
			c1.9-1.9,3.5-6.2,3.5-6.3c0.1-0.2,6.3-11.7,6.5-17.1c0.1-2.7-0.7-5.1-2.4-6.9c-2-2.1-5-3.3-8.7-3.4
			C349.3,35.4,349.1,35.4,349,35.4z"/>
		<path class="st0" d="M348.5,262c-8.7,0-29.8-9.2-32.3-10.4c-3.3-1.6-13.6-8.8-23.1-15.5c-10.3-7.3-12.9-16.3-11.4-20.5
			c1.6-4.7,5.5-6.5,6.7-6.9c1.8-0.7,17.6-3.2,23.5-3.1c4,0.1,7.3,3,11.3,6.3c2.2,1.9,4.8,4,7.7,5.9c4.6,2.9,9.6,4.6,13.6,6
			c3.1,1.1,5.4,1.8,6.3,2.8c2.1,2.1,3.7,6.5,3.7,6.7c0.2,0.4,6.3,11.8,6.5,17.4c0.1,2.9-0.9,5.7-2.7,7.6c-2.2,2.3-5.4,3.6-9.4,3.7
			L348.5,262z M311.3,206.6c-6.6,0-21.2,2.5-22.6,3c-1.1,0.4-4.6,2-6.1,6.3c-1.3,3.7,1.3,12.4,11.1,19.3c9.6,6.8,19.8,13.9,23,15.5
			c2.5,1.2,23.4,10.3,31.9,10.3l0.3,0c3.8-0.1,6.8-1.3,8.7-3.3c1.7-1.8,2.5-4.2,2.4-6.9c-0.2-5.4-6.3-16.9-6.4-17
			c0-0.1-1.6-4.4-3.5-6.4c-0.8-0.8-3.1-1.6-5.9-2.5c-3.9-1.3-9.2-3.1-13.8-6.1c-3-1.9-5.6-4.1-7.8-6c-3.9-3.3-7-6-10.6-6.1
			C311.6,206.6,311.4,206.6,311.3,206.6z"/>
		<path class="st0" d="M270.5,191.9c-0.7,0-1.4-0.1-2.1-0.2c-4.3-0.8-10.9-7.6-12.1-20.1c-1.1-11.7-2.3-24.1-2-27.8
			c0.2-2.9,2.8-26.2,7.2-33.5c2.6-4.3,6.2-6.6,10.1-6.6c1.9,0,3.9,0.6,5.7,1.7c4.8,3,11.7,13.9,12,14.3c0.1,0.1,3.1,3.6,3.9,6.5
			c0.4,1.3-0.1,3.6-0.7,6.9c-0.8,4.2-1.8,9.4-1.6,14.8c0.2,3.5,0.8,6.8,1.3,9.6c0.9,5,1.8,9.4-0.1,12.9
			c-2.8,5.3-12.8,17.6-14.3,18.9C277,189.9,274.3,191.9,270.5,191.9z M271.6,104.7c-3.6,0-6.9,2.2-9.3,6.2c-4,6.6-6.7,28.8-7,33
			c-0.2,3.6,0.9,16,2,27.6c1.1,11.9,7.4,18.5,11.3,19.2c0.6,0.1,1.3,0.2,1.9,0.2c3.5,0,5.9-1.8,6.6-2.4c1.3-1,11.3-13.4,14.1-18.6
			c1.7-3.2,1-7.2,0-12.2c-0.5-2.9-1.2-6.2-1.3-9.8c-0.3-5.5,0.8-11,1.6-15c0.6-3,1-5.3,0.7-6.4c-0.7-2.6-3.7-6.1-3.7-6.2
			c-0.1-0.2-7.1-11.2-11.7-14.1C275.1,105.3,273.3,104.7,271.6,104.7z"/>
		<path class="st0" d="M393.7,261.8c-0.2,0-0.3,0-0.5,0c-4-0.2-7.3-1.5-9.4-3.8c-1.8-2-2.8-4.7-2.6-7.7c0.3-5.6,6.5-16.9,6.8-17.4
			c0-0.1,1.7-4.5,3.8-6.5c1-1,3.2-1.7,6.4-2.7c4.1-1.3,9.1-2.9,13.7-5.8c3-1.8,5.5-4,7.8-5.8c4-3.3,7.4-6.1,11.3-6.1l0.3,0
			c6,0,21.5,2.7,23.2,3.4c1.2,0.5,5,2.3,6.6,7c1.4,4.2-1.4,13.2-11.7,20.3c-9.7,6.6-20,13.6-23.4,15.2
			C423.4,253,402.5,261.8,393.7,261.8z M431.2,206.9l-0.2,0c-3.6,0-6.7,2.6-10.7,5.9c-2.3,1.9-4.9,4-7.9,5.9
			c-4.7,2.9-10,4.6-13.9,5.9c-2.9,0.9-5.2,1.7-6,2.4c-2,1.9-3.6,6.2-3.6,6.3c-0.1,0.2-6.4,11.7-6.7,17c-0.1,2.7,0.7,5.1,2.3,6.9
			c1.9,2.1,4.9,3.3,8.7,3.5c8.3,0.3,29.8-8.6,32.3-9.8c3.3-1.5,13.6-8.5,23.2-15.1c9.8-6.7,12.6-15.4,11.3-19.2c-1.4-4.3-5-6-6-6.4
			C452.6,209.7,437.5,206.9,431.2,206.9z"/>
	</g>
	<g>
		<path class="st0" d="M371.5,72.1c-4.2,0-7.7-3.4-7.7-7.7c0-4.2,3.4-7.7,7.7-7.7c4.2,0,7.7,3.4,7.7,7.7
			C379.1,68.7,375.7,72.1,371.5,72.1z M371.5,57.9c-3.6,0-6.6,3-6.6,6.6c0,3.6,3,6.6,6.6,6.6c3.6,0,6.6-3,6.6-6.6
			C378.1,60.8,375.1,57.9,371.5,57.9z"/>
		<path class="st0" d="M371.7,240c-4.2,0-7.7-3.4-7.7-7.7c0-4.2,3.4-7.7,7.7-7.7c4.2,0,7.7,3.4,7.7,7.7
			C379.4,236.6,375.9,240,371.7,240z M371.7,225.8c-3.6,0-6.6,3-6.6,6.6c0,3.6,3,6.6,6.6,6.6c3.6,0,6.6-3,6.6-6.6
			C378.3,228.8,375.3,225.8,371.7,225.8z"/>
		<path class="st0" d="M444.2,197.7c-4.2,0-7.7-3.4-7.7-7.7c0-4.2,3.4-7.7,7.7-7.7c4.2,0,7.7,3.4,7.7,7.7
			C451.9,194.3,448.4,197.7,444.2,197.7z M444.2,183.5c-3.6,0-6.6,3-6.6,6.6c0,3.6,3,6.6,6.6,6.6c3.6,0,6.6-3,6.6-6.6
			C450.8,186.5,447.8,183.5,444.2,183.5z"/>
		<path class="st0" d="M445,115.2c-4.2,0-7.7-3.4-7.7-7.7c0-4.2,3.4-7.7,7.7-7.7s7.7,3.4,7.7,7.7C452.6,111.8,449.2,115.2,445,115.2
			z M445,101c-3.6,0-6.6,3-6.6,6.6c0,3.6,3,6.6,6.6,6.6c3.6,0,6.6-3,6.6-6.6C451.6,103.9,448.6,101,445,101z"/>
		<path class="st0" d="M298.7,114.5c-4.2,0-7.7-3.4-7.7-7.7c0-4.2,3.4-7.7,7.7-7.7c4.2,0,7.7,3.4,7.7,7.7
			C306.4,111.1,302.9,114.5,298.7,114.5z M298.7,100.3c-3.6,0-6.6,3-6.6,6.6c0,3.6,3,6.6,6.6,6.6c3.6,0,6.6-3,6.6-6.6
			C305.3,103.2,302.3,100.3,298.7,100.3z"/>
		<path class="st0" d="M299.3,198.6c-4.2,0-7.7-3.4-7.7-7.7c0-4.2,3.4-7.7,7.7-7.7c4.2,0,7.7,3.4,7.7,7.7
			C307,195.2,303.5,198.6,299.3,198.6z M299.3,184.4c-3.6,0-6.6,3-6.6,6.6c0,3.6,3,6.6,6.6,6.6c3.6,0,6.6-3,6.6-6.6
			C305.9,187.4,303,184.4,299.3,184.4z"/>
	</g>
</g>
<g id="corna_lado">
	<g>
		<path class="st2" d="M123.3,245.3l2.3-2.1v-28v-0.7V82.3h0V53.6l-2.3-2.1v-33l2.6-3.9l-3.1-7h-5.6h-0.1h-5.9l-3.1,7l2.6,3.9v33
			l-2.3,2.1v27.9v0.8v132.3h0v28.7l2.3,2.1v33l-2.6,3.9l3.1,7h5.9h0.1h5.6l3.1-7l-2.6-3.9V245.3z M124.5,242.8l-2.3,2.1v3.8
			l-10.6,10.6v-5.9l12.8-12.9V242.8z M114.8,277.8h-3.1v-2.4l10.6-10.6v5.6L114.8,277.8z M122.3,271.8v6h-6L122.3,271.8z
			 M111.7,273.9v-6l10.6-10.6v6L111.7,273.9z M111.7,266.5v-5.7l10.6-10.6v5.7L111.7,266.5z M124.5,239.1L111.7,252v-6l10.7-10.3
			h2.2V239.1z M124.5,234.7h-2.4l-0.1-0.1l-0.1,0.1h-3.8v-8h6.4V234.7z M124.5,225.7h-6.7l-0.2-0.2l7-6.6V225.7z M124.5,217.5
			l-7.9,7.4l-3.4-2.1l7-7.3h4.2V217.5z M112.8,215.6h4.9h0.5h0.7l-6.5,6.8l-2.9-1.8l-0.1,0.2v-1.2L112.8,215.6z M109.5,217.9v-2.4
			h0.1h1.9L109.5,217.9z M117.2,226.5v8.6l-7.7,4.7v-18L117.2,226.5z M124.6,61.1h-2.2l-10.7-10.3v-6l12.8,12.9V61.1z M122.1,62.2
			L122.1,62.2l2.5-0.1v8h-6.4v-8L122.1,62.2L122.1,62.2z M124.6,71.2v6.8l-7-6.6l0.2-0.2H124.6z M124.6,79.3v2h-4.2l-7-7.3l3.4-2.1
			L124.6,79.3z M124.6,54v2.2l-12.8-12.9v-5.9l10.6,10.6v3.8L124.6,54z M122.3,26.4V32l-10.6-10.6V19h3.1L122.3,26.4z M116.3,19h6v6
			L116.3,19z M122.3,33.5v6l-10.6-10.6v-6L122.3,33.5z M122.3,40.9v5.7l-10.6-10.6v-5.7L122.3,40.9z M109.3,14.4l2.6-5.9h5.3h0.1
			h4.9l2.6,5.9l-2.3,3.6h-10.8L109.3,14.4z M109.5,54l2.1-2l9.4,9.1h-2.9l-8.6-5.2V54z M109.5,57.1l7.7,4.7v8.6l-7.7,4.8V57.1z
			 M109.5,76.1l0.1,0.2l2.9-1.8l6.5,6.8h-0.7h-0.5h-4.9l-3.4-3.9V76.1z M109.5,78.9l2,2.4h-2V78.9z M117.7,82.3h0.5h1.7l0,0l0,0h4.4
			v132.3H120l0,0l0,0h-1.7h-0.5h-8.1V82.3H117.7z M109.5,242.8v-1.9l8.6-5.2h2.9l-9.4,9.1L109.5,242.8z M124.7,282.4l-2.6,5.9h-4.9
			h-0.1h-5.3l-2.6-5.9l2.3-3.6h10.8L124.7,282.4z"/>
	</g>
</g>
<g id="A">
	<path class="st1" d="M371.5,232.7L371.5,232.7c-0.7,0-1.4,0-2.1,0l0-1.1c0.7,0,1.4,0,2.1,0L371.5,232.7z M373.6,232.7l0-1.1
		c0.7,0,1.4,0,2.1-0.1l0.1,1.1C375,232.7,374.3,232.7,373.6,232.7z M367.2,232.6c-0.7,0-1.4-0.1-2.1-0.1l0.1-1.1
		c0.7,0.1,1.4,0.1,2.1,0.1L367.2,232.6z M377.9,232.5l-0.1-1.1c0.7-0.1,1.4-0.1,2.1-0.2l0.1,1.1
		C379.3,232.4,378.6,232.4,377.9,232.5z M362.9,232.3c-0.7-0.1-1.4-0.2-2.1-0.2l0.1-1.1c0.7,0.1,1.4,0.2,2.1,0.2L362.9,232.3z
		 M382.1,232.1L382,231c0.7-0.1,1.4-0.2,2.1-0.3l0.2,1.1C383.5,231.9,382.8,232,382.1,232.1z M358.7,231.8c-0.7-0.1-1.4-0.2-2.1-0.3
		l0.2-1c0.7,0.1,1.4,0.2,2.1,0.3L358.7,231.8z M386.3,231.4l-0.2-1c0.7-0.1,1.4-0.3,2.1-0.4l0.2,1
		C387.7,231.2,387,231.3,386.3,231.4z M354.5,231c-0.7-0.1-1.4-0.3-2.1-0.5l0.2-1c0.7,0.2,1.4,0.3,2.1,0.4L354.5,231z M390.5,230.6
		l-0.2-1c0.7-0.2,1.4-0.3,2-0.5l0.3,1C391.9,230.2,391.2,230.4,390.5,230.6z M350.3,230.1c-0.7-0.2-1.4-0.4-2.1-0.6l0.3-1
		c0.7,0.2,1.4,0.4,2,0.6L350.3,230.1z M394.7,229.5l-0.3-1c0.7-0.2,1.3-0.4,2-0.6l0.3,1C396,229.1,395.3,229.3,394.7,229.5z
		 M346.2,228.9c-0.7-0.2-1.4-0.4-2-0.7l0.3-1c0.7,0.2,1.3,0.4,2,0.7L346.2,228.9z M398.7,228.2l-0.3-1c0.7-0.2,1.3-0.5,2-0.7l0.4,1
		C400.1,227.8,399.4,228,398.7,228.2z M342.2,227.5c-0.7-0.2-1.3-0.5-2-0.8l0.4-1c0.7,0.3,1.3,0.5,2,0.8L342.2,227.5z M402.7,226.7
		l-0.4-1c0.7-0.3,1.3-0.5,1.9-0.8l0.4,1C404.1,226.2,403.4,226.5,402.7,226.7z M338.2,225.9c-0.7-0.3-1.3-0.6-2-0.9l0.4-1
		c0.6,0.3,1.3,0.6,1.9,0.9L338.2,225.9z M406.7,225.1l-0.4-1c0.6-0.3,1.3-0.6,1.9-0.9l0.5,1C407.9,224.5,407.3,224.8,406.7,225.1z
		 M334.3,224.1c-0.6-0.3-1.3-0.6-1.9-1l0.5-0.9c0.6,0.3,1.3,0.6,1.9,1L334.3,224.1z M410.5,223.2l-0.5-0.9c0.6-0.3,1.2-0.7,1.8-1
		l0.5,0.9C411.7,222.5,411.1,222.8,410.5,223.2z M330.5,222.2c-0.6-0.3-1.2-0.7-1.9-1.1l0.5-0.9c0.6,0.4,1.2,0.7,1.8,1L330.5,222.2z
		 M414.2,221.1l-0.5-0.9c0.6-0.4,1.2-0.7,1.8-1.1l0.6,0.9C415.4,220.4,414.8,220.7,414.2,221.1z M326.8,220
		c-0.6-0.4-1.2-0.8-1.8-1.2l0.6-0.9c0.6,0.4,1.2,0.8,1.8,1.1L326.8,220z M417.8,218.8l-0.6-0.9c0.6-0.4,1.2-0.8,1.7-1.2l0.6,0.9
		C419,218.1,418.4,218.5,417.8,218.8z M323.2,217.6c-0.6-0.4-1.2-0.8-1.7-1.2l0.6-0.9c0.6,0.4,1.1,0.8,1.7,1.2L323.2,217.6z
		 M421.3,216.4l-0.6-0.9c0.6-0.4,1.1-0.8,1.7-1.3l0.7,0.8C422.5,215.6,421.9,216,421.3,216.4z M319.8,215.1
		c-0.6-0.4-1.1-0.9-1.7-1.3l0.7-0.8c0.5,0.4,1.1,0.9,1.7,1.3L319.8,215.1z M424.7,213.8L424,213c0.5-0.4,1.1-0.9,1.6-1.4l0.7,0.8
		C425.8,212.9,425.2,213.3,424.7,213.8z M316.5,212.4c-0.5-0.5-1.1-0.9-1.6-1.4l0.7-0.8c0.5,0.5,1,0.9,1.6,1.4L316.5,212.4z
		 M427.9,211l-0.7-0.8c0.5-0.5,1-0.9,1.5-1.4l0.7,0.8C429,210.1,428.5,210.5,427.9,211z M313.3,209.5c-0.5-0.5-1-1-1.5-1.5l0.8-0.8
		c0.5,0.5,1,1,1.5,1.5L313.3,209.5z M431,208.1l-0.8-0.8c0.5-0.5,1-1,1.5-1.5l0.8,0.7C432,207.1,431.5,207.6,431,208.1z
		 M310.3,206.5c-0.5-0.5-1-1-1.5-1.6l0.8-0.7c0.5,0.5,0.9,1,1.4,1.5L310.3,206.5z M434,205l-0.8-0.7c0.5-0.5,0.9-1,1.4-1.6l0.8,0.7
		C434.9,203.9,434.5,204.5,434,205z M307.4,203.3c-0.5-0.5-0.9-1.1-1.4-1.6l0.8-0.7c0.4,0.5,0.9,1.1,1.4,1.6L307.4,203.3z
		 M436.8,201.7l-0.8-0.7c0.4-0.5,0.9-1.1,1.3-1.6l0.8,0.7C437.7,200.6,437.2,201.2,436.8,201.7z M304.7,200
		c-0.4-0.6-0.9-1.1-1.3-1.7l0.9-0.6c0.4,0.6,0.8,1.1,1.3,1.7L304.7,200z M439.4,198.4l-0.9-0.6c0.4-0.6,0.8-1.1,1.2-1.7l0.9,0.6
		C440.2,197.2,439.8,197.8,439.4,198.4z M302.2,196.6c-0.4-0.6-0.8-1.2-1.2-1.8l0.9-0.6c0.4,0.6,0.8,1.2,1.2,1.7L302.2,196.6z
		 M441.8,194.9l-0.9-0.6c0.4-0.6,0.8-1.2,1.1-1.8l0.9,0.6C442.6,193.7,442.2,194.3,441.8,194.9z M299.9,193
		c-0.4-0.6-0.7-1.2-1.1-1.8l0.9-0.5c0.4,0.6,0.7,1.2,1.1,1.8L299.9,193z M444.1,191.2l-0.9-0.5c0.4-0.6,0.7-1.2,1.1-1.8l0.9,0.5
		C444.8,190,444.5,190.6,444.1,191.2z M297.7,189.4c-0.3-0.6-0.7-1.2-1-1.9l0.9-0.5c0.3,0.6,0.7,1.2,1,1.9L297.7,189.4z
		 M446.2,187.5l-0.9-0.5c0.3-0.6,0.6-1.3,1-1.9l1,0.5C446.8,186.2,446.5,186.9,446.2,187.5z M295.7,185.6c-0.3-0.6-0.6-1.3-0.9-1.9
		l1-0.4c0.3,0.6,0.6,1.3,0.9,1.9L295.7,185.6z M448.1,183.6l-1-0.4c0.3-0.6,0.6-1.3,0.9-1.9l1,0.4
		C448.7,182.3,448.4,183,448.1,183.6z M293.9,181.7c-0.3-0.6-0.6-1.3-0.8-2l1-0.4c0.3,0.7,0.5,1.3,0.8,1.9L293.9,181.7z
		 M449.8,179.7l-1-0.4c0.3-0.7,0.5-1.3,0.8-2l1,0.4C450.3,178.4,450,179,449.8,179.7z M292.4,177.8c-0.2-0.7-0.5-1.3-0.7-2l1-0.3
		c0.2,0.7,0.5,1.3,0.7,2L292.4,177.8z M451.3,175.7l-1-0.3c0.2-0.7,0.4-1.3,0.7-2l1,0.3C451.7,174.3,451.5,175,451.3,175.7z
		 M291,173.7c-0.2-0.7-0.4-1.4-0.6-2l1-0.3c0.2,0.7,0.4,1.4,0.6,2L291,173.7z M452.5,171.6l-1-0.3c0.2-0.7,0.4-1.4,0.6-2l1,0.3
		C452.9,170.2,452.7,170.9,452.5,171.6z M289.8,169.6c-0.2-0.7-0.3-1.4-0.5-2.1l1-0.2c0.2,0.7,0.3,1.4,0.5,2L289.8,169.6z
		 M453.6,167.5l-1-0.2c0.2-0.7,0.3-1.4,0.5-2.1l1,0.2C453.9,166.1,453.8,166.8,453.6,167.5z M288.8,165.4c-0.1-0.7-0.3-1.4-0.4-2.1
		l1-0.2c0.1,0.7,0.3,1.4,0.4,2.1L288.8,165.4z M454.5,163.3l-1-0.2c0.1-0.7,0.2-1.4,0.3-2.1l1.1,0.2
		C454.7,161.9,454.6,162.6,454.5,163.3z M288.1,161.2c-0.1-0.7-0.2-1.4-0.3-2.1l1.1-0.1c0.1,0.7,0.2,1.4,0.3,2.1L288.1,161.2z
		 M455.1,159.1l-1.1-0.1c0.1-0.7,0.2-1.4,0.2-2.1l1.1,0.1C455.3,157.6,455.2,158.4,455.1,159.1z M287.5,157
		c-0.1-0.7-0.1-1.4-0.2-2.1l1.1-0.1c0.1,0.7,0.1,1.4,0.2,2.1L287.5,157z M455.5,154.8l-1.1-0.1c0.1-0.7,0.1-1.4,0.1-2.1l1.1,0.1
		C455.6,153.4,455.6,154.1,455.5,154.8z M287.2,152.7c0-0.7-0.1-1.4-0.1-2.1l1.1,0c0,0.7,0,1.4,0.1,2.1L287.2,152.7z M455.7,150.5
		l-1.1,0c0-0.7,0-1.4,0-2.1v-0.1h1.1v0.1C455.8,149.1,455.8,149.8,455.7,150.5z M287.1,148.5L287.1,148.5c0-0.8,0-1.4,0-2.1l1.1,0
		c0,0.7,0,1.4,0,2L287.1,148.5z M454.7,146.2c0-0.7,0-1.4-0.1-2.1l1.1-0.1c0,0.7,0.1,1.4,0.1,2.1L454.7,146.2z M288.3,144.3
		l-1.1-0.1c0-0.7,0.1-1.4,0.1-2.1l1.1,0.1C288.3,142.9,288.3,143.6,288.3,144.3z M454.5,142c-0.1-0.7-0.1-1.4-0.2-2.1l1.1-0.1
		c0.1,0.7,0.1,1.4,0.2,2.1L454.5,142z M288.6,140l-1.1-0.1c0.1-0.7,0.2-1.4,0.2-2.1l1.1,0.1C288.7,138.6,288.7,139.3,288.6,140z
		 M454,137.8c-0.1-0.7-0.2-1.4-0.3-2.1l1.1-0.2c0.1,0.7,0.2,1.4,0.3,2.1L454,137.8z M289.1,135.9l-1.1-0.2c0.1-0.7,0.2-1.4,0.3-2.1
		l1,0.2C289.3,134.5,289.2,135.2,289.1,135.9z M453.4,133.6c-0.1-0.7-0.3-1.4-0.4-2.1l1-0.2c0.1,0.7,0.3,1.4,0.4,2.1L453.4,133.6z
		 M289.8,131.7l-1-0.2c0.1-0.7,0.3-1.4,0.5-2.1l1,0.2C290.1,130.3,290,131,289.8,131.7z M452.5,129.5c-0.2-0.7-0.3-1.4-0.5-2l1-0.3
		c0.2,0.7,0.3,1.4,0.5,2.1L452.5,129.5z M290.8,127.6l-1-0.3c0.2-0.7,0.4-1.4,0.6-2.1l1,0.3C291.1,126.2,291,126.9,290.8,127.6z
		 M451.5,125.4c-0.2-0.7-0.4-1.3-0.6-2l1-0.3c0.2,0.7,0.4,1.4,0.6,2L451.5,125.4z M291.9,123.5l-1-0.3c0.2-0.7,0.4-1.4,0.7-2l1,0.3
		C292.4,122.2,292.2,122.9,291.9,123.5z M450.2,121.4c-0.2-0.7-0.5-1.3-0.7-2l1-0.4c0.2,0.7,0.5,1.3,0.7,2L450.2,121.4z
		 M293.3,119.5l-1-0.4c0.2-0.7,0.5-1.3,0.8-2l1,0.4C293.8,118.2,293.6,118.9,293.3,119.5z M448.7,117.4c-0.3-0.7-0.5-1.3-0.8-1.9
		l1-0.4c0.3,0.7,0.6,1.3,0.8,2L448.7,117.4z M294.9,115.6l-1-0.4c0.3-0.7,0.6-1.3,0.9-2l1,0.4C295.4,114.3,295.2,115,294.9,115.6z
		 M447.1,113.5c-0.3-0.6-0.6-1.3-0.9-1.9l1-0.5c0.3,0.6,0.6,1.3,0.9,1.9L447.1,113.5z M296.6,111.8l-1-0.5c0.3-0.6,0.6-1.3,1-1.9
		l0.9,0.5C297.3,110.5,297,111.1,296.6,111.8z M445.2,109.8c-0.3-0.6-0.7-1.2-1-1.9l0.9-0.5c0.3,0.6,0.7,1.2,1,1.9L445.2,109.8z
		 M298.6,108l-0.9-0.5c0.3-0.6,0.7-1.2,1.1-1.9l0.9,0.5C299.3,106.8,298.9,107.4,298.6,108z M443.2,106.1c-0.4-0.6-0.7-1.2-1.1-1.8
		l0.9-0.6c0.4,0.6,0.7,1.2,1.1,1.8L443.2,106.1z M300.7,104.4l-0.9-0.6c0.4-0.6,0.8-1.2,1.2-1.8l0.9,0.6
		C301.5,103.2,301.1,103.8,300.7,104.4z M440.9,102.5c-0.4-0.6-0.8-1.2-1.2-1.7l0.9-0.6c0.4,0.6,0.8,1.2,1.2,1.8L440.9,102.5z
		 M303.1,100.9l-0.9-0.6c0.4-0.6,0.8-1.2,1.2-1.7l0.9,0.6C303.9,99.7,303.5,100.3,303.1,100.9z M438.5,99.1
		c-0.4-0.6-0.8-1.1-1.3-1.7l0.8-0.7c0.4,0.6,0.9,1.1,1.3,1.7L438.5,99.1z M305.6,97.5l-0.8-0.7c0.4-0.6,0.9-1.1,1.3-1.7l0.8,0.7
		C306.4,96.3,306,96.9,305.6,97.5z M435.9,95.7c-0.4-0.5-0.9-1.1-1.4-1.6l0.8-0.7c0.5,0.5,0.9,1.1,1.4,1.6L435.9,95.7z M308.2,94.2
		l-0.8-0.7c0.5-0.5,0.9-1.1,1.4-1.6l0.8,0.7C309.2,93.1,308.7,93.7,308.2,94.2z M433.2,92.5c-0.5-0.5-0.9-1-1.4-1.5l0.8-0.7
		c0.5,0.5,1,1,1.5,1.6L433.2,92.5z M311.1,91.1l-0.8-0.7c0.5-0.5,1-1,1.5-1.5l0.8,0.8C312,90,311.6,90.5,311.1,91.1z M430.3,89.5
		c-0.5-0.5-1-1-1.5-1.5l0.7-0.8c0.5,0.5,1,1,1.5,1.5L430.3,89.5z M314.1,88.1l-0.7-0.8c0.5-0.5,1-1,1.6-1.5l0.7,0.8
		C315.1,87.1,314.6,87.6,314.1,88.1z M427.2,86.6c-0.5-0.5-1-0.9-1.6-1.4l0.7-0.8c0.5,0.5,1.1,0.9,1.6,1.4L427.2,86.6z M317.2,85.2
		l-0.7-0.8c0.5-0.5,1.1-0.9,1.6-1.4l0.7,0.8C318.2,84.3,317.7,84.8,317.2,85.2z M424,83.8c-0.5-0.4-1.1-0.9-1.7-1.3l0.7-0.8
		c0.6,0.4,1.1,0.9,1.7,1.3L424,83.8z M320.4,82.6l-0.7-0.8c0.6-0.4,1.1-0.9,1.7-1.3l0.6,0.9C321.6,81.7,321,82.1,320.4,82.6z
		 M420.7,81.3c-0.6-0.4-1.1-0.8-1.7-1.2l0.6-0.9c0.6,0.4,1.2,0.8,1.7,1.2L420.7,81.3z M323.8,80.1l-0.6-0.9c0.6-0.4,1.2-0.8,1.8-1.2
		l0.6,0.9C325,79.3,324.4,79.7,323.8,80.1z M417.2,78.8c-0.6-0.4-1.2-0.8-1.8-1.1l0.6-0.9c0.6,0.4,1.2,0.8,1.8,1.2L417.2,78.8z
		 M327.3,77.8l-0.6-0.9c0.6-0.4,1.2-0.7,1.8-1.1l0.5,0.9C328.5,77,327.9,77.4,327.3,77.8z M413.6,76.6c-0.6-0.4-1.2-0.7-1.8-1
		l0.5-0.9c0.6,0.3,1.2,0.7,1.9,1.1L413.6,76.6z M331,75.6l-0.5-0.9c0.6-0.3,1.2-0.7,1.9-1l0.5,0.9C332.2,74.9,331.6,75.3,331,75.6z
		 M409.9,74.6c-0.6-0.3-1.3-0.6-1.9-1l0.5-1c0.6,0.3,1.3,0.6,1.9,1L409.9,74.6z M334.7,73.7l-0.5-1c0.6-0.3,1.3-0.6,1.9-0.9l0.4,1
		C336,73.1,335.3,73.4,334.7,73.7z M406.1,72.7c-0.6-0.3-1.3-0.6-1.9-0.9l0.4-1c0.7,0.3,1.3,0.6,2,0.9L406.1,72.7z M338.5,71.9
		l-0.4-1c0.7-0.3,1.3-0.6,2-0.8l0.4,1C339.8,71.4,339.2,71.6,338.5,71.9z M402.2,71c-0.7-0.3-1.3-0.5-2-0.8l0.4-1
		c0.7,0.2,1.3,0.5,2,0.8L402.2,71z M342.4,70.3l-0.4-1c0.7-0.2,1.3-0.5,2-0.7l0.3,1C343.7,69.9,343.1,70.1,342.4,70.3z M398.3,69.6
		c-0.7-0.2-1.3-0.4-2-0.7l0.3-1c0.7,0.2,1.4,0.4,2,0.7L398.3,69.6z M346.4,69l-0.3-1c0.7-0.2,1.4-0.4,2-0.6l0.3,1
		C347.8,68.6,347.1,68.8,346.4,69z M394.2,68.3c-0.7-0.2-1.4-0.4-2-0.5l0.3-1c0.7,0.2,1.4,0.4,2.1,0.6L394.2,68.3z M350.5,67.8
		l-0.3-1c0.7-0.2,1.4-0.3,2.1-0.5l0.2,1C351.8,67.5,351.1,67.6,350.5,67.8z M390.2,67.3c-0.7-0.2-1.4-0.3-2.1-0.4l0.2-1
		c0.7,0.1,1.4,0.3,2.1,0.5L390.2,67.3z M354.6,66.9l-0.2-1c0.7-0.1,1.4-0.3,2.1-0.4l0.2,1C356,66.6,355.3,66.7,354.6,66.9z
		 M386,66.4c-0.7-0.1-1.4-0.2-2.1-0.3l0.2-1.1c0.7,0.1,1.4,0.2,2.1,0.3L386,66.4z M358.7,66.1l-0.2-1.1c0.7-0.1,1.4-0.2,2.1-0.3
		l0.1,1.1C360.1,65.9,359.4,66,358.7,66.1z M381.9,65.8c-0.7-0.1-1.4-0.2-2.1-0.2l0.1-1.1c0.7,0.1,1.4,0.1,2.1,0.2L381.9,65.8z
		 M362.9,65.6l-0.1-1.1c0.7-0.1,1.4-0.1,2.1-0.2l0.1,1.1C364.3,65.4,363.6,65.5,362.9,65.6z M377.7,65.4c-0.7-0.1-1.4-0.1-2.1-0.1
		l0.1-1.1c0.7,0,1.4,0.1,2.1,0.1L377.7,65.4z M367.1,65.3l-0.1-1.1c0.7,0,1.4-0.1,2.1-0.1l0,1.1C368.5,65.2,367.8,65.2,367.1,65.3z
		 M373.4,65.2c-0.7,0-1.3,0-2,0l-0.1-1.1h0.1c0.7,0,1.4,0,2,0L373.4,65.2z"/>
</g>
<g id="B">
	<g>
		<rect x="6.5" y="65.7" class="st3" width="97.9" height="0.9"/>
		<rect x="6.5" y="229.9" class="st3" width="97.9" height="0.9"/>
		<polygon class="st3" points="10.9,223.8 14.2,228.5 17.6,223.9 14.6,223.8 14.6,71.9 17.6,71.9 14.3,67.3 11,71.9 13.7,71.9 
			13.7,223.8 		"/>
		<rect x="130.8" y="81.3" class="st3" width="88.5" height="0.9"/>
		<rect x="130.8" y="214" class="st3" width="88.5" height="0.9"/>
		<polygon class="st3" points="208.4,207 211.8,211.6 215.1,206.9 212.1,206.9 212.1,87.8 215.1,87.8 211.8,83.1 208.4,87.7 
			211.3,87.8 211.3,206.9 		"/>
	</g>
</g>
<g id="C">
	<g>
		<rect x="378.1" y="67.8" class="st4" width="1" height="1"/>
		<rect x="378.1" y="105.6" class="st4" width="1" height="1.9"/>
		<rect x="378.1" y="101.7" class="st4" width="1" height="1.9"/>
		<rect x="378.1" y="109.5" class="st4" width="1" height="1.9"/>
		<rect x="378.1" y="117.2" class="st4" width="1" height="1.9"/>
		<rect x="378.1" y="121.1" class="st4" width="1" height="1.9"/>
		<rect x="378.1" y="97.8" class="st4" width="1" height="1.9"/>
		<rect x="378.1" y="113.4" class="st4" width="1" height="1.9"/>
		<rect x="378.1" y="74.6" class="st4" width="1" height="1.9"/>
		<rect x="378.1" y="78.4" class="st4" width="1" height="1.9"/>
		<rect x="378.1" y="70.7" class="st4" width="1" height="1.9"/>
		<rect x="378.1" y="94" class="st4" width="1" height="1.9"/>
		<rect x="378.1" y="86.2" class="st4" width="1" height="1.9"/>
		<rect x="378.1" y="82.3" class="st4" width="1" height="1.9"/>
		<rect x="378.1" y="90.1" class="st4" width="1" height="1.9"/>
		<rect x="378.1" y="125" class="st4" width="1" height="1"/>
		<rect x="364.1" y="67" class="st4" width="1" height="1"/>
		<rect x="364.1" y="108.7" class="st4" width="1" height="1.9"/>
		<rect x="364.1" y="104.9" class="st4" width="1" height="1.9"/>
		<rect x="364.1" y="101" class="st4" width="1" height="1.9"/>
		<rect x="364.1" y="97.1" class="st4" width="1" height="1.9"/>
		<rect x="364.1" y="93.2" class="st4" width="1" height="1.9"/>
		<rect x="364.1" y="120.4" class="st4" width="1" height="1.9"/>
		<rect x="364.1" y="112.6" class="st4" width="1" height="1.9"/>
		<rect x="364.1" y="116.5" class="st4" width="1" height="1.9"/>
		<rect x="364.1" y="73.8" class="st4" width="1" height="1.9"/>
		<rect x="364.1" y="77.7" class="st4" width="1" height="1.9"/>
		<rect x="364.1" y="69.9" class="st4" width="1" height="1.9"/>
		<rect x="364.1" y="85.5" class="st4" width="1" height="1.9"/>
		<rect x="364.1" y="81.6" class="st4" width="1" height="1.9"/>
		<rect x="364.1" y="89.3" class="st4" width="1" height="1.9"/>
		<rect x="364.1" y="124.3" class="st4" width="1" height="1"/>
		<polygon class="st4" points="372.8,122.5 370.1,122.5 370.1,119.6 365.4,122.9 370.1,126.3 370.1,123.6 372.8,123.6 372.8,126.3 
			377.4,123 372.8,119.6 		"/>
	</g>
</g>
<g id="D">
	<rect x="143.7" y="278.8" class="st0" width="9.2" height="10.5"/>
</g>
</svg>
