<?xml version="1.0" encoding="utf-8"?>
<!-- Generator: Adobe Illustrator 23.0.0, SVG Export Plug-In . SVG Version: 6.00 Build 0)  -->
<svg version="1.1" id="Layer_1" xmlns="http://www.w3.org/2000/svg" xmlns:xlink="http://www.w3.org/1999/xlink" x="0px" y="0px"
	 viewBox="0 0 292.21 288" style="enable-background:new 0 0 292.21 288;" xml:space="preserve">
<style type="text/css">
	.st0{fill:#50B15E;}
	.st1{fill:#E30613;}
	.st2{fill:#E83C3F;}
</style>
<g id="C">
	<rect x="136.87" y="120.3" class="st0" width="1" height="1"/>
	<rect x="150.87" y="63.8" class="st0" width="1" height="1"/>
	<rect x="150.87" y="101.6" class="st0" width="1" height="1.9"/>
	<rect x="150.87" y="97.7" class="st0" width="1" height="1.9"/>
	<rect x="150.87" y="105.5" class="st0" width="1" height="1.9"/>
	<rect x="150.87" y="113.2" class="st0" width="1" height="1.9"/>
	<rect x="150.87" y="117.1" class="st0" width="1" height="1.9"/>
	<rect x="150.87" y="93.8" class="st0" width="1" height="1.9"/>
	<rect x="150.87" y="109.4" class="st0" width="1" height="1.9"/>
	<rect x="150.87" y="70.6" class="st0" width="1" height="1.9"/>
	<rect x="150.87" y="74.5" class="st0" width="1" height="1.9"/>
	<rect x="150.87" y="66.7" class="st0" width="1" height="1.9"/>
	<rect x="150.87" y="90" class="st0" width="1" height="1.9"/>
	<rect x="150.87" y="82.2" class="st0" width="1" height="1.9"/>
	<rect x="150.87" y="78.3" class="st0" width="1" height="1.9"/>
	<rect x="150.87" y="86.1" class="st0" width="1" height="1.9"/>
	<rect x="150.87" y="121" class="st0" width="1" height="1"/>
	<rect x="136.87" y="63" class="st0" width="1" height="1"/>
	<rect x="136.87" y="104.7" class="st0" width="1" height="1.9"/>
	<rect x="136.87" y="100.8" class="st0" width="1" height="1.9"/>
	<rect x="136.87" y="97" class="st0" width="1" height="1.9"/>
	<rect x="136.87" y="93.1" class="st0" width="1" height="1.9"/>
	<rect x="136.87" y="89.2" class="st0" width="1" height="1.9"/>
	<rect x="136.87" y="116.4" class="st0" width="1" height="1.9"/>
	<rect x="136.87" y="108.6" class="st0" width="1" height="1.9"/>
	<rect x="136.87" y="112.5" class="st0" width="1" height="1.9"/>
	<rect x="136.87" y="69.8" class="st0" width="1" height="1.9"/>
	<rect x="136.87" y="73.7" class="st0" width="1" height="1.9"/>
	<rect x="136.87" y="65.9" class="st0" width="1" height="1.9"/>
	<rect x="136.87" y="81.5" class="st0" width="1" height="1.9"/>
	<rect x="136.87" y="77.6" class="st0" width="1" height="1.9"/>
	<rect x="136.87" y="85.3" class="st0" width="1" height="1.9"/>
	<polygon class="st0" points="145.57,118.5 142.87,118.5 142.87,115.6 138.17,118.9 142.87,122.3 142.87,119.6 145.57,119.6 
		145.57,122.3 150.27,119 145.57,115.6 	"/>
</g>
<g id="Corona">
	<path class="st1" d="M286.2,135.83c0,0.69-0.38,1.31-1,1.62l-7.63,3.82c-1.21,0.61-1.94,1.78-1.94,3.13c0,1.36,0.72,2.53,1.94,3.13
		l7.63,3.82c0.62,0.31,1,0.93,1,1.62c0,0.78-0.47,1.45-1.21,1.71l-8.04,2.85c-1.42,0.5-2.33,1.8-2.33,3.32
		c0,1.19,0.57,2.25,1.56,2.91l7.11,4.73c0.51,0.34,0.81,0.89,0.81,1.5c0,0.86-0.58,1.59-1.42,1.78l-8.33,1.84
		c-1.62,0.36-2.75,1.77-2.75,3.44c0,1.02,0.43,1.96,1.22,2.64l6.47,5.56c0.41,0.35,0.63,0.84,0.63,1.37c0,0.95-0.71,1.73-1.64,1.81
		l-8.5,0.8c-2.07,0.2-3.18,1.95-3.18,3.51c0,0.87,0.32,1.68,0.92,2.33l5.74,6.32c0.64,0.71,0.59,1.87-0.08,2.53
		c-0.35,0.34-0.82,0.52-1.31,0.5l-8.53-0.25c-0.96-0.03-1.86,0.32-2.53,0.97c-1.21,1.17-1.43,3.15-0.44,4.55l4.92,6.97
		c0.53,0.76,0.38,1.83-0.31,2.43c-0.4,0.35-0.92,0.49-1.45,0.41l-8.43-1.29c-1.03-0.16-2.02,0.12-2.8,0.79
		c-1.23,1.06-1.6,2.86-0.82,4.33l4.03,7.53c0.42,0.78,0.19,1.78-0.51,2.31c-0.45,0.34-1.03,0.45-1.58,0.29l-8.21-2.32
		c-1.07-0.3-2.18-0.09-3.05,0.57c-1.23,0.93-1.73,2.6-1.17,4.07l3.07,7.96c0.31,0.79,0.01,1.7-0.69,2.17
		c-0.51,0.34-1.13,0.4-1.7,0.15l-7.86-3.31c-1.1-0.46-2.3-0.35-3.29,0.3c-1.24,0.82-1.83,2.32-1.47,3.78l2.07,8.28
		c0.2,0.78-0.16,1.61-0.86,2.01c-0.56,0.33-1.24,0.33-1.81,0l-7.4-4.25c-1.1-0.63-2.4-0.63-3.5,0c-1.23,0.71-1.91,2.01-1.73,3.46
		l1.03,8.47c0.1,0.79-0.3,1.5-0.99,1.84c-0.62,0.31-1.34,0.24-1.9-0.17l-6.82-5.13c-1.08-0.82-2.46-0.94-3.67-0.34
		c-1.21,0.6-1.94,1.78-1.94,3.13l-0.01,8.53c0,0.74-0.42,1.38-1.11,1.67c-0.68,0.29-1.44,0.15-1.97-0.37l-6.14-5.93
		c-0.97-0.94-2.32-1.24-3.6-0.78c-1.28,0.45-2.14,1.52-2.31,2.87l-1.06,8.47c-0.09,0.73-0.59,1.32-1.3,1.52
		c-0.71,0.2-1.44-0.03-1.91-0.61l-5.22-6.46c-0.88-1.09-2.22-1.56-3.59-1.26s-2.39,1.29-2.73,2.65l-2.04,8.05
		c-0.18,0.72-0.75,1.23-1.48,1.35c-0.73,0.11-1.43-0.21-1.82-0.83l-4.51-7.25c-0.71-1.15-1.95-1.76-3.3-1.64
		c-1.35,0.13-2.45,0.95-2.94,2.22l-3.1,7.95c-0.27,0.69-0.89,1.13-1.63,1.15s-1.39-0.38-1.7-1.05l-3.58-7.75
		c-0.57-1.23-1.72-1.99-3.07-2.03c-1.36-0.04-2.55,0.65-3.19,1.84l-4.05,7.51c-0.35,0.65-1.03,1.01-1.76,0.94
		c-0.74-0.07-1.33-0.55-1.56-1.25l-2.6-8.13c-0.41-1.29-1.46-2.19-2.8-2.39c-1.34-0.21-2.61,0.33-3.39,1.43l-4.94,6.96
		c-0.43,0.6-1.14,0.88-1.87,0.72c-0.72-0.16-1.26-0.71-1.39-1.43l-1.58-8.39c-0.25-1.33-1.18-2.35-2.48-2.72s-2.63,0-3.54,1.01
		l-5.76,6.3c-0.5,0.55-1.24,0.73-1.94,0.49c-0.7-0.25-1.16-0.86-1.21-1.59l-0.54-8.52c-0.09-1.35-0.88-2.48-2.13-3.01
		s-2.61-0.32-3.64,0.56l-6.53,5.5c-0.54,0.46-1.29,0.57-1.93,0.27c-0.65-0.3-1.05-0.93-1.05-1.64v-0.12l0.51-8.52
		c0.08-1.39-0.62-2.64-1.84-3.3c-1.15-0.62-2.49-0.56-3.59,0.16l-7.12,4.7c-0.57,0.37-1.26,0.41-1.85,0.09
		c-0.69-0.37-1.08-1.12-0.93-1.93l1.55-8.39c0.27-1.44-0.37-2.85-1.61-3.62c-1.05-0.65-2.29-0.71-3.4-0.16l-7.65,3.79
		c-0.57,0.28-1.22,0.25-1.76-0.08c-0.7-0.44-1.03-1.29-0.78-2.09l2.57-8.14c0.46-1.46-0.09-3.05-1.33-3.92
		c-0.93-0.66-2.09-0.82-3.17-0.44l-8.05,2.82c-0.56,0.2-1.16,0.11-1.64-0.23c-0.7-0.5-0.97-1.45-0.61-2.24l3.55-7.76
		c0.67-1.46,0.23-3.21-1-4.2c-0.83-0.67-1.87-0.91-2.93-0.68l-8.34,1.81c-0.54,0.12-1.09-0.01-1.52-0.35
		c-0.69-0.56-0.89-1.6-0.41-2.37l4.48-7.26c0.89-1.44,0.59-3.33-0.63-4.44c-0.72-0.66-1.67-0.98-2.67-0.88l-8.5,0.77
		c-0.52,0.05-1.01-0.12-1.38-0.46c-0.69-0.63-0.79-1.74-0.2-2.48l5.34-6.66c0.51-0.63,0.78-1.39,0.78-2.17
		c0-1.68-1.27-3.45-3.4-3.52l-8.53-0.28c-0.99-0.03-1.76-0.83-1.76-1.82c0-0.49,0.2-0.94,0.55-1.29l6.12-5.95
		c0.69-0.67,1.06-1.55,1.06-2.49c0-1.5-1.02-3.18-2.96-3.48l-8.43-1.32c-0.89-0.14-1.53-0.9-1.53-1.8c0-0.57,0.26-1.09,0.72-1.44
		l6.8-5.15c0.88-0.67,1.39-1.68,1.39-2.78c0-1.32-0.79-2.88-2.54-3.38l-8.2-2.35c-0.79-0.23-1.31-0.93-1.31-1.75
		c0-0.65,0.34-1.24,0.9-1.56l7.38-4.28c1.09-0.63,1.75-1.77,1.75-3.03c0-1.43-0.82-2.67-2.13-3.23l-7.85-3.34
		c-0.68-0.29-1.1-0.93-1.1-1.67s0.42-1.38,1.1-1.67l7.85-3.34c1.32-0.56,2.13-1.8,2.13-3.23c0-1.26-0.65-2.39-1.75-3.03l-7.38-4.28
		c-0.57-0.33-0.9-0.91-0.9-1.56c0-0.82,0.53-1.52,1.31-1.75l8.2-2.35c1.75-0.5,2.54-2.06,2.54-3.39c0-1.09-0.51-2.11-1.39-2.78
		l-6.8-5.16c-0.46-0.35-0.72-0.87-0.72-1.44c0-0.9,0.64-1.66,1.53-1.8l8.43-1.32c1.95-0.31,2.96-1.98,2.96-3.48
		c0-0.94-0.38-1.82-1.06-2.49l-6.12-5.95c-0.36-0.35-0.55-0.8-0.55-1.29c0-0.99,0.77-1.79,1.76-1.82L24,91.99
		c2.13-0.07,3.4-1.84,3.4-3.52c0-0.79-0.27-1.54-0.78-2.17l-5.34-6.66c-0.59-0.74-0.49-1.85,0.2-2.48c0.38-0.34,0.87-0.51,1.38-0.46
		l8.5,0.77c1,0.09,1.94-0.22,2.67-0.89c1.22-1.12,1.52-3,0.63-4.44l-4.48-7.26c-0.47-0.77-0.28-1.81,0.41-2.37
		c0.42-0.34,0.98-0.47,1.52-0.35l8.34,1.81c1.06,0.23,2.1-0.01,2.93-0.68c1.23-0.99,1.67-2.74,1-4.2l-3.55-7.76
		c-0.36-0.79-0.09-1.74,0.61-2.24c0.48-0.34,1.08-0.42,1.64-0.23l8.05,2.82c1.09,0.38,2.24,0.22,3.17-0.44
		c1.24-0.88,1.79-2.46,1.33-3.92l-2.57-8.14c-0.25-0.79,0.07-1.66,0.78-2.09c0.53-0.33,1.19-0.36,1.76-0.08l7.65,3.79
		c1.11,0.55,2.35,0.49,3.4-0.16c1.23-0.77,1.87-2.18,1.61-3.62l-1.55-8.39c-0.15-0.81,0.24-1.56,0.93-1.93
		c0.6-0.32,1.29-0.29,1.85,0.09l7.12,4.7c1.09,0.72,2.44,0.78,3.59,0.16c1.22-0.66,1.93-1.91,1.84-3.3l-0.51-8.63
		c0-0.71,0.4-1.34,1.05-1.64s1.39-0.2,1.94,0.27l6.49,5.54c1.03,0.88,2.39,1.09,3.64,0.56s2.05-1.65,2.13-3.01l0.54-8.52
		c0.05-0.74,0.51-1.35,1.21-1.6s1.44-0.06,1.94,0.49l5.76,6.3c0.92,1,2.24,1.38,3.54,1.01c1.3-0.37,2.23-1.39,2.48-2.72l1.58-8.39
		c0.14-0.73,0.67-1.28,1.39-1.43c0.72-0.16,1.44,0.12,1.87,0.72l4.94,6.96c0.79,1.11,2.05,1.64,3.39,1.43s2.39-1.1,2.8-2.4l2.6-8.13
		c0.23-0.7,0.82-1.18,1.56-1.25c0.74-0.07,1.41,0.29,1.76,0.94l4.05,7.51c0.64,1.19,1.84,1.88,3.19,1.84
		c1.36-0.04,2.5-0.8,3.07-2.03l3.58-7.75c0.31-0.67,0.96-1.07,1.7-1.05c0.74,0.02,1.36,0.47,1.63,1.15l3.1,7.95
		c0.49,1.26,1.59,2.09,2.94,2.22s2.58-0.49,3.3-1.64l4.51-7.25c0.39-0.63,1.09-0.95,1.82-0.84c0.73,0.11,1.3,0.63,1.48,1.35
		l2.1,8.27c0.33,1.32,1.32,2.27,2.65,2.56c1.32,0.29,2.62-0.17,3.47-1.22l5.36-6.64c0.46-0.58,1.2-0.81,1.91-0.6
		c0.71,0.2,1.21,0.78,1.3,1.52l1.06,8.47c0.17,1.35,1.03,2.42,2.31,2.87c1.28,0.45,2.63,0.16,3.6-0.79l6.14-5.93
		c0.53-0.51,1.29-0.65,1.97-0.37c0.68,0.29,1.11,0.93,1.11,1.67l0.01,8.53c0,1.36,0.73,2.53,1.94,3.13c1.21,0.6,2.59,0.48,3.67-0.34
		l6.82-5.13c0.55-0.42,1.28-0.48,1.9-0.17c0.69,0.34,1.09,1.05,0.99,1.84l-1.03,8.47c-0.18,1.44,0.5,2.75,1.73,3.46
		c1.09,0.63,2.4,0.63,3.5,0l7.4-4.25c0.57-0.33,1.24-0.33,1.81,0c0.69,0.4,1.05,1.22,0.86,2.01l-2.07,8.28
		c-0.36,1.45,0.23,2.95,1.47,3.78c0.99,0.66,2.19,0.77,3.29,0.3l7.86-3.31c0.57-0.24,1.19-0.18,1.7,0.16c0.7,0.47,1,1.37,0.69,2.17
		l-3.07,7.96c-0.56,1.47-0.07,3.13,1.17,4.07c0.88,0.66,1.99,0.87,3.05,0.57l8.21-2.32c0.55-0.16,1.13-0.05,1.58,0.29
		c0.7,0.53,0.93,1.52,0.51,2.31l-4.03,7.52c-0.78,1.46-0.41,3.27,0.82,4.33c0.78,0.67,1.77,0.95,2.8,0.79l8.43-1.3
		c0.53-0.08,1.05,0.06,1.45,0.41c0.69,0.59,0.84,1.67,0.31,2.43l-4.92,6.97c-0.99,1.41-0.77,3.38,0.43,4.55
		c0.67,0.65,1.57,1,2.53,0.97l8.53-0.25c0.5-0.01,0.96,0.16,1.31,0.5c0.67,0.66,0.73,1.82,0.08,2.53l-5.74,6.32
		c-0.6,0.66-0.92,1.47-0.92,2.33c0,1.56,1.11,3.31,3.18,3.51l8.5,0.8c0.94,0.09,1.64,0.87,1.64,1.81c0,0.53-0.22,1.01-0.63,1.37
		l-6.47,5.56c-0.79,0.68-1.22,1.62-1.22,2.64c0,1.67,1.13,3.08,2.75,3.44l8.33,1.84c0.84,0.19,1.42,0.92,1.42,1.78
		c0,0.61-0.3,1.16-0.81,1.5l-7.11,4.73c-0.99,0.66-1.56,1.72-1.56,2.91c0,1.51,0.92,2.81,2.33,3.31l8.04,2.85
		C285.72,134.38,286.2,135.05,286.2,135.83z M274.62,144.4c0-1.72,0.95-3.26,2.49-4.03l7.63-3.82c0.28-0.14,0.45-0.41,0.45-0.72
		c0-0.28-0.14-0.63-0.54-0.77l-8.04-2.85c-1.82-0.65-3-2.32-3-4.26c0-1.53,0.73-2.89,2.01-3.74l7.11-4.73
		c0.32-0.21,0.36-0.51,0.36-0.67c0-0.33-0.2-0.7-0.64-0.8l-8.33-1.84c-2.08-0.46-3.54-2.28-3.54-4.42c0-1.32,0.56-2.52,1.57-3.4
		l6.47-5.56c0.24-0.2,0.29-0.44,0.29-0.61c0-0.37-0.25-0.77-0.74-0.82l-8.5-0.8c-2.33-0.22-4.09-2.16-4.09-4.51
		c0-1.12,0.41-2.16,1.18-3.01l5.74-6.32c0.18-0.2,0.21-0.4,0.21-0.54c0-0.22-0.09-0.44-0.25-0.6c-0.11-0.11-0.3-0.23-0.58-0.22
		l-8.53,0.25c-1.23,0.04-2.39-0.41-3.26-1.25c-1.54-1.5-1.82-4.05-0.55-5.84l4.92-6.97c0.25-0.35,0.17-0.82-0.14-1.09
		c-0.13-0.11-0.34-0.23-0.65-0.18l-8.44,1.3c-1.32,0.2-2.6-0.16-3.6-1.02c-1.58-1.36-2.05-3.69-1.05-5.56l4.03-7.53
		c0.19-0.36,0.08-0.8-0.23-1.04c-0.12-0.09-0.37-0.22-0.71-0.13l-8.21,2.32c-1.37,0.39-2.8,0.12-3.93-0.73
		c-1.58-1.19-2.22-3.35-1.5-5.22l3.07-7.96c0.14-0.37,0-0.76-0.31-0.97c-0.13-0.09-0.41-0.21-0.76-0.07l-7.86,3.31
		c-1.42,0.6-2.96,0.45-4.23-0.39c-1.58-1.05-2.35-2.99-1.89-4.85l2.07-8.28c0.09-0.35-0.07-0.72-0.39-0.9
		c-0.26-0.15-0.55-0.15-0.81,0l-7.4,4.25c-1.41,0.81-3.09,0.81-4.5,0c-1.58-0.91-2.45-2.59-2.22-4.45l1.03-8.47
		c0.04-0.36-0.13-0.67-0.45-0.83c-0.28-0.14-0.6-0.11-0.85,0.08l-6.82,5.13c-1.37,1.03-3.18,1.2-4.72,0.43
		c-1.54-0.77-2.49-2.31-2.5-4.02l-0.01-8.53c0-0.34-0.19-0.62-0.5-0.75s-0.64-0.07-0.88,0.16l-6.14,5.93
		c-1.23,1.19-3.01,1.58-4.63,1.01c-1.62-0.57-2.76-1.98-2.97-3.69l-1.06-8.47c-0.04-0.33-0.26-0.59-0.58-0.68s-0.64,0.01-0.85,0.27
		l-5.36,6.66c-1.08,1.33-2.79,1.94-4.47,1.57c-1.68-0.37-2.98-1.63-3.4-3.29l-2.1-8.27c-0.08-0.33-0.33-0.55-0.66-0.6
		s-0.64,0.09-0.82,0.38l-4.5,7.25c-0.91,1.46-2.53,2.27-4.24,2.11s-3.16-1.25-3.78-2.85l-3.1-7.95c-0.12-0.31-0.4-0.51-0.73-0.52
		c-0.34-0.01-0.62,0.17-0.76,0.47l-3.58,7.75c-0.72,1.56-2.23,2.56-3.95,2.61c-1.72,0.05-3.29-0.85-4.1-2.36l-4.05-7.51
		c-0.16-0.3-0.46-0.45-0.79-0.42c-0.34,0.03-0.6,0.24-0.7,0.56l-2.6,8.13c-0.52,1.64-1.9,2.82-3.6,3.08
		c-1.7,0.26-3.37-0.44-4.36-1.84l-4.94-6.96c-0.19-0.28-0.51-0.4-0.84-0.32c-0.33,0.07-0.56,0.31-0.62,0.64l-1.58,8.39
		c-0.32,1.69-1.54,3.03-3.19,3.5s-3.4-0.03-4.56-1.29l-5.76-6.3c-0.23-0.25-0.55-0.33-0.87-0.22s-0.52,0.38-0.54,0.72l-0.54,8.52
		c-0.11,1.71-1.16,3.19-2.74,3.86c-1.58,0.67-3.37,0.39-4.68-0.72l-6.49-5.54c-0.25-0.21-0.57-0.26-0.87-0.12s-0.47,0.41-0.47,0.73
		l0.51,8.57c0.11,1.83-0.79,3.39-2.36,4.24c-1.48,0.8-3.21,0.72-4.61-0.21l-7.12-4.7c-0.37-0.24-0.7-0.11-0.83-0.04
		c-0.31,0.17-0.49,0.5-0.42,0.87l1.55,8.39c0.34,1.84-0.48,3.67-2.06,4.65c-1.33,0.82-2.96,0.9-4.37,0.2l-7.65-3.79
		c-0.26-0.13-0.54-0.12-0.78,0.03c-0.32,0.2-0.47,0.58-0.35,0.94l2.57,8.14c0.59,1.87-0.12,3.92-1.7,5.04
		c-1.2,0.85-2.69,1.06-4.08,0.57l-8.05-2.82c-0.35-0.12-0.61,0.01-0.73,0.1c-0.32,0.23-0.44,0.64-0.27,1.01l3.55,7.76
		c0.85,1.86,0.29,4.13-1.28,5.4c-1.06,0.85-2.43,1.17-3.77,0.88l-8.34-1.81c-0.25-0.05-0.49,0-0.68,0.15
		c-0.31,0.25-0.41,0.71-0.19,1.07l4.48,7.26c1.13,1.83,0.75,4.28-0.81,5.71c-0.93,0.85-2.15,1.26-3.43,1.14l-8.5-0.77
		c-0.3-0.03-0.5,0.09-0.62,0.2c-0.3,0.28-0.36,0.78-0.09,1.12l5.34,6.66c0.65,0.81,1,1.78,1,2.8c0,2.15-1.63,4.43-4.36,4.52
		l-8.53,0.28c-0.49,0.02-0.79,0.43-0.79,0.82c0,0.15,0.04,0.37,0.25,0.57l6.12,5.95c0.88,0.86,1.37,2,1.37,3.21
		c0,2.24-1.6,4.13-3.81,4.47l-8.43,1.32c-0.47,0.07-0.69,0.47-0.69,0.81c0,0.15,0.04,0.43,0.32,0.64l6.8,5.16
		c1.13,0.86,1.78,2.16,1.78,3.57c0,2.04-1.31,3.79-3.27,4.35L7,126.56c-0.44,0.13-0.59,0.5-0.59,0.79s0.15,0.55,0.41,0.7l7.38,4.28
		c1.41,0.82,2.25,2.27,2.25,3.89c0,1.84-1.05,3.43-2.74,4.15l-7.85,3.34c-0.62,0.26-0.62,1.23,0,1.5l7.85,3.34
		c1.69,0.72,2.74,2.31,2.74,4.15l0,0c0,1.62-0.84,3.08-2.25,3.89l-7.38,4.28c-0.26,0.15-0.41,0.4-0.41,0.7
		c0,0.29,0.15,0.66,0.59,0.79l8.2,2.35c1.95,0.56,3.27,2.31,3.27,4.35c0,1.41-0.65,2.71-1.78,3.57l-6.8,5.15
		c-0.28,0.21-0.32,0.49-0.32,0.64c0,0.34,0.22,0.74,0.69,0.81l8.43,1.32c2.21,0.35,3.81,2.23,3.81,4.47c0,1.21-0.49,2.35-1.37,3.21
		l-6.12,5.95c-0.21,0.2-0.25,0.42-0.25,0.57c0,0.39,0.29,0.81,0.79,0.82l8.53,0.28c2.73,0.09,4.36,2.37,4.36,4.52
		c0,1.02-0.34,1.99-1,2.8l-5.34,6.66c-0.27,0.34-0.22,0.83,0.09,1.12c0.12,0.11,0.32,0.23,0.62,0.2l8.5-0.77
		c1.28-0.12,2.5,0.29,3.43,1.14c1.56,1.42,1.94,3.88,0.81,5.71l-4.48,7.26c-0.22,0.36-0.13,0.81,0.19,1.07
		c0.19,0.15,0.43,0.21,0.68,0.15l8.34-1.81c1.34-0.29,2.71,0.03,3.77,0.88c1.58,1.27,2.14,3.53,1.28,5.4l-3.55,7.76
		c-0.17,0.37-0.04,0.78,0.27,1.01c0.13,0.09,0.39,0.22,0.73,0.1l8.05-2.82c1.4-0.49,2.89-0.28,4.08,0.57
		c1.58,1.12,2.29,3.17,1.7,5.04l-2.57,8.14c-0.12,0.37,0.03,0.74,0.35,0.94c0.24,0.15,0.53,0.16,0.79,0.03l7.65-3.79
		c1.41-0.7,3.04-0.62,4.37,0.2c1.58,0.98,2.4,2.81,2.06,4.65l-1.55,8.39c-0.07,0.36,0.1,0.7,0.42,0.87c0.13,0.07,0.46,0.2,0.83-0.04
		l7.12-4.7c1.41-0.93,3.13-1.01,4.61-0.21c1.57,0.85,2.48,2.44,2.36,4.24l-0.51,8.52c0,0,0,0,0,0.01c0,0.37,0.18,0.65,0.47,0.78
		c0.3,0.14,0.62,0.09,0.87-0.12l6.49-5.54c1.31-1.11,3.1-1.39,4.68-0.72s2.63,2.15,2.74,3.86l0.54,8.52
		c0.02,0.34,0.22,0.6,0.54,0.71s0.64,0.03,0.87-0.22l5.76-6.3c1.16-1.27,2.9-1.76,4.56-1.29c1.65,0.47,2.88,1.81,3.19,3.5l1.58,8.39
		c0.06,0.33,0.3,0.57,0.62,0.64c0.33,0.07,0.64-0.05,0.84-0.32l4.94-6.96c0.99-1.4,2.67-2.11,4.36-1.84c1.7,0.26,3.08,1.44,3.6,3.08
		l2.6,8.13c0.1,0.32,0.36,0.53,0.7,0.56c0.33,0.03,0.63-0.13,0.79-0.42l4.05-7.51c0.81-1.51,2.39-2.42,4.1-2.37
		c1.72,0.05,3.23,1.05,3.95,2.61l3.58,7.75c0.14,0.31,0.43,0.48,0.76,0.47c0.34-0.01,0.61-0.2,0.73-0.52l3.1-7.95
		c0.62-1.6,2.07-2.69,3.78-2.85c1.71-0.16,3.33,0.65,4.24,2.11l4.51,7.25c0.18,0.29,0.48,0.43,0.82,0.37
		c0.33-0.05,0.58-0.28,0.66-0.6l2.04-8.05c0.43-1.71,1.77-3,3.49-3.38s3.47,0.24,4.58,1.61l5.22,6.46c0.21,0.26,0.53,0.36,0.85,0.27
		s0.54-0.35,0.58-0.68l1.06-8.47c0.21-1.7,1.35-3.12,2.97-3.69s3.39-0.18,4.63,1.01l6.14,5.93c0.24,0.23,0.57,0.3,0.88,0.16
		c0.31-0.13,0.5-0.41,0.5-0.75l0.01-8.53c0-1.72,0.96-3.26,2.5-4.02s3.34-0.6,4.72,0.43l6.82,5.13c0.25,0.19,0.57,0.22,0.85,0.08
		c0.32-0.16,0.49-0.47,0.45-0.83l-1.03-8.47c-0.23-1.86,0.64-3.54,2.22-4.45c1.4-0.81,3.09-0.81,4.5,0l7.4,4.25
		c0.26,0.15,0.55,0.15,0.81,0c0.32-0.18,0.47-0.55,0.38-0.9l-2.07-8.28c-0.46-1.86,0.3-3.8,1.89-4.85c1.27-0.85,2.82-0.99,4.23-0.39
		l7.86,3.31c0.35,0.15,0.63,0.02,0.76-0.07c0.32-0.21,0.45-0.61,0.31-0.97l-3.07-7.96c-0.72-1.87-0.08-4.03,1.5-5.22
		c1.13-0.85,2.56-1.12,3.93-0.73l8.21,2.32c0.34,0.1,0.59-0.04,0.71-0.13c0.32-0.24,0.42-0.67,0.23-1.04l-4.03-7.53
		c-1-1.86-0.53-4.2,1.05-5.56c1-0.86,2.28-1.22,3.6-1.02l8.44,1.29c0.31,0.05,0.52-0.07,0.65-0.18c0.31-0.27,0.39-0.75,0.14-1.09
		l-4.92-6.97c-1.27-1.8-0.99-4.35,0.55-5.85c0.87-0.84,2.03-1.29,3.26-1.25l8.53,0.25c0.29,0.01,0.48-0.12,0.58-0.22
		c0.16-0.16,0.25-0.38,0.25-0.6c0-0.14-0.04-0.34-0.21-0.54l-5.74-6.32c-0.77-0.85-1.18-1.89-1.18-3.01c0-2.35,1.76-4.29,4.09-4.5
		l8.5-0.8c0.48-0.05,0.74-0.45,0.74-0.82c0-0.17-0.05-0.41-0.29-0.61l-6.47-5.56c-1.01-0.87-1.57-2.08-1.57-3.4
		c0-2.14,1.45-3.96,3.54-4.42l8.33-1.84c0.44-0.1,0.64-0.47,0.64-0.8c0-0.16-0.05-0.46-0.36-0.67l-7.11-4.73
		c-1.28-0.85-2.01-2.21-2.01-3.74c0-1.94,1.18-3.61,3-4.26l8.04-2.85c0.4-0.14,0.54-0.49,0.54-0.77c0-0.31-0.17-0.58-0.45-0.72
		l-7.63-3.82C275.58,147.66,274.62,146.11,274.62,144.4z"/>
	<path class="st2" d="M144.27,211.7c-37.1,0-67.3-30.2-67.3-67.3s30.2-67.3,67.3-67.3s67.3,30.2,67.3,67.3
		S181.37,211.7,144.27,211.7z M144.27,78.1c-36.6,0-66.3,29.7-66.3,66.3s29.7,66.3,66.3,66.3c36.5,0,66.3-29.7,66.3-66.3
		C210.57,107.9,180.77,78.1,144.27,78.1z"/>
	<g>
		<path class="st1" d="M261.57,140.4c-0.2-2.9-3-26.2-7.4-33.4c-2.6-4.2-6.2-6.6-10.1-6.6c-2,0-4,0.6-5.8,1.7
			c-4.7,3-11.5,13.9-11.8,14.3c-0.1,0.2-3.1,3.7-3.9,6.6c-0.4,1.3,0.1,3.6,0.8,6.8c0.9,4.2,1.9,9.4,1.7,14.8
			c-0.2,3.5-0.7,6.8-1.3,9.6c-0.9,5.1-1.7,9.4,0.2,12.9c2.9,5.2,12.9,17.6,14.5,18.8c0.7,0.6,3.4,2.5,7.2,2.5c0.7,0,1.5-0.1,2.2-0.2
			c4.3-0.8,10.8-7.6,12-20.2C260.87,156.5,261.87,144.1,261.57,140.4z M258.77,168.1c-1.1,11.9-7.3,18.5-11.1,19.3
			c-0.7,0.1-1.3,0.2-2,0.2c-3.4,0-5.9-1.8-6.5-2.3c-1.3-1-11.4-13.3-14.2-18.5c-1.7-3.2-1-7.2-0.1-12.2c0.5-2.9,1.1-6.2,1.3-9.8
			c0.2-5.5-0.9-11-1.7-15c-0.6-3-1.1-5.3-0.8-6.4c0.7-2.7,3.7-6.2,3.7-6.3c0.1-0.1,7-11.2,11.5-14.1c1.6-1,3.5-1.6,5.2-1.6
			c3.5,0,6.8,2.2,9.3,6.1c4.1,6.6,7,28.7,7.3,33C260.87,144,259.87,156.4,258.77,168.1z"/>
		<path class="st1" d="M164.57,66.6c1,0.9,3.3,1.6,6.4,2.6c4.1,1.2,9.1,2.8,13.8,5.5c3,1.8,5.6,3.9,7.9,5.7c4,3.2,7.5,6,11.4,6l0,0
			c6,0,21.6-3,23.4-3.8c1.2-0.5,5-2.4,6.5-7.1c1.3-4.2-1.6-13.2-12-20.1c-9.8-6.5-20.2-13.3-23.6-14.8c-2.5-1.2-24.5-9.9-32.9-9.4
			c-4,0.2-7.2,1.6-9.3,4c-1.8,2-2.7,4.8-2.5,7.7c0.4,5.6,6.8,16.8,7,17.2C160.77,60.2,162.47,64.6,164.57,66.6z M156.87,35.8
			c1.9-2.2,4.9-3.4,8.6-3.6c0.2,0,0.4,0,0.7,0c8.8,0,29.3,8.2,31.8,9.3c3.3,1.5,14.3,8.7,23.5,14.7c9.9,6.6,12.8,15.2,11.7,19
			c-1.4,4.3-4.9,6.1-5.9,6.5c-1.5,0.6-17.1,3.7-23.1,3.7v0.5v-0.5c-3.6,0-6.8-2.5-10.8-5.7c-2.3-1.8-4.9-3.9-8-5.8
			c-4.7-2.8-10.1-4.5-14-5.7c-2.9-0.9-5.2-1.6-6-2.3c-2-1.9-3.7-6.1-3.7-6.3c-0.1-0.1-6.5-11.5-6.9-16.8
			C154.47,40.1,155.27,37.6,156.87,35.8z"/>
		<path class="st1" d="M122.17,30.4c-8.5-0.3-30.1,8.9-32.7,10.2c-3.3,1.6-13.6,8.7-23.3,15.4c-10.3,7.2-13,16.2-11.6,20.4
			c1.6,4.7,5.5,6.5,6.6,7c1.8,0.7,16.8,3.2,23.1,3.2h0.4c4-0.1,7.4-2.9,11.3-6.2c2.3-1.9,4.8-4,7.8-5.9c4.6-2.9,9.6-4.5,13.6-5.9
			c3.1-1,5.4-1.8,6.3-2.7c2.1-2.1,3.7-6.4,3.8-6.6c0.3-0.5,6.4-11.8,6.6-17.4c0.1-2.9-0.8-5.7-2.7-7.7
			C129.47,31.8,126.27,30.5,122.17,30.4z M126.67,58.8c0,0-1.6,4.3-3.5,6.3c-0.8,0.8-3.1,1.5-5.9,2.5c-3.9,1.3-9.2,3-13.9,6
			c-3,1.9-5.6,4.1-7.8,6c-4,3.3-7.1,5.9-10.7,6h-0.4c-6.3,0-21.3-2.6-22.7-3.2c-1.1-0.4-4.6-2.1-6.1-6.3
			c-1.3-3.7,1.4-12.4,11.2-19.2c9.6-6.7,19.8-13.7,23.1-15.3c2.5-1.2,23.3-10.1,31.9-10.1c0.1,0,0.2,0,0.4,0
			c3.8,0.1,6.8,1.3,8.7,3.4c1.7,1.8,2.5,4.3,2.4,6.9C132.97,47.1,126.77,58.6,126.67,58.8z"/>
		<path class="st1" d="M123.47,222.6c-1-1-3.2-1.7-6.3-2.8c-4-1.4-9.1-3.1-13.6-6c-2.9-1.9-5.5-4-7.7-5.9c-3.9-3.3-7.3-6.2-11.3-6.3
			c-6-0.2-21.8,2.4-23.5,3.1c-1.2,0.4-5.1,2.2-6.7,6.9c-1.4,4.1,1.2,13.2,11.4,20.5c9.6,6.8,19.8,13.9,23.1,15.5
			c2.5,1.2,23.6,10.4,32.3,10.4h0.3c4-0.1,7.3-1.4,9.4-3.7c1.9-2,2.8-4.7,2.7-7.6c-0.2-5.6-6.3-17-6.5-17.4
			C127.17,229.1,125.57,224.7,123.47,222.6z M130.27,253.7c-2,2.1-5,3.3-8.7,3.3h-0.3c-8.5,0-29.4-9.1-31.9-10.3
			c-3.3-1.6-13.5-8.7-23-15.5c-9.7-6.9-12.4-15.6-11.1-19.3c1.5-4.3,5-5.9,6.1-6.3c1.4-0.5,16-3,22.6-3c0.2,0,0.4,0,0.6,0
			c3.6,0.1,6.7,2.7,10.6,6.1c2.3,1.9,4.8,4.1,7.8,6c4.7,3,10,4.8,13.8,6.1c2.9,1,5.1,1.7,5.9,2.5c1.9,2,3.5,6.3,3.5,6.4
			c0.1,0.1,6.2,11.7,6.4,17C132.77,249.4,131.97,251.9,130.27,253.7z"/>
		<path class="st1" d="M64.97,153.5c-0.5-2.9-1.2-6.1-1.3-9.6c-0.3-5.4,0.7-10.6,1.6-14.8c0.6-3.2,1.1-5.5,0.7-6.9
			c-0.8-2.9-3.8-6.4-3.9-6.5c-0.3-0.5-7.2-11.4-12-14.3c-1.8-1.1-3.8-1.7-5.7-1.7c-3.9,0-7.5,2.4-10.1,6.7c-4.4,7.3-7,30.6-7.2,33.5
			c-0.2,3.7,0.9,16.1,2,27.8c1.2,12.5,7.8,19.3,12.1,20.1c0.7,0.1,1.4,0.2,2.1,0.2c3.8,0,6.5-2,7.2-2.6c1.5-1.3,11.5-13.7,14.3-18.9
			C66.67,162.9,65.87,158.5,64.97,153.5z M49.87,184.6c-0.7,0.6-3.1,2.4-6.6,2.4c-0.6,0-1.3-0.1-1.9-0.2
			c-3.9-0.7-10.1-7.3-11.3-19.2c-1.1-11.6-2.3-24-2-27.6c0.3-4.2,3-26.4,7-33c2.4-4,5.7-6.2,9.3-6.2c1.8,0,3.5,0.5,5.2,1.5
			c4.6,2.8,11.6,13.9,11.7,14.1c0,0,3,3.5,3.7,6.2c0.3,1.1-0.2,3.4-0.7,6.4c-0.8,4-1.9,9.5-1.6,15c0.2,3.6,0.8,6.9,1.3,9.8
			c1,5.1,1.7,9,0,12.2C61.17,171.2,51.17,183.5,49.87,184.6z"/>
		<path class="st1" d="M227.17,205.3c-1.8-0.7-17.2-3.4-23.2-3.4h-0.3c-4,0-7.4,2.9-11.3,6.1c-2.3,1.9-4.8,4-7.8,5.8
			c-4.6,2.9-9.6,4.5-13.7,5.8c-3.1,1-5.4,1.7-6.4,2.7c-2.1,2.1-3.8,6.4-3.8,6.5c-0.3,0.5-6.5,11.8-6.8,17.4
			c-0.2,2.9,0.8,5.7,2.6,7.7c2.1,2.3,5.4,3.6,9.4,3.8c0.2,0,0.3,0,0.5,0c8.8,0,29.8-8.7,32.3-9.9c3.3-1.6,13.7-8.6,23.4-15.2
			c10.3-7.1,13.1-16.1,11.7-20.3C232.27,207.6,228.37,205.8,227.17,205.3z M221.47,231.8c-9.7,6.6-20,13.6-23.2,15.1
			c-2.5,1.2-24,10.2-32.3,9.8c-3.8-0.2-6.8-1.4-8.7-3.5c-1.7-1.8-2.5-4.3-2.3-6.9c0.3-5.4,6.6-16.8,6.7-17c0,0,1.6-4.3,3.6-6.3
			c0.8-0.8,3.1-1.5,6-2.5c3.9-1.3,9.2-3,13.9-5.9c3-1.9,5.6-4,7.9-5.9c4-3.3,7.1-5.9,10.7-5.9h0.3c6.3,0,21.4,2.8,22.9,3.3
			c1,0.4,4.6,2.1,6,6.4C234.07,216.4,231.37,225.1,221.47,231.8z"/>
	</g>
	<g>
		<path class="st1" d="M144.27,68.1c4.2,0,7.6-3.4,7.6-7.7c0-4.2-3.4-7.7-7.6-7.7s-7.7,3.4-7.7,7.7S140.07,68.1,144.27,68.1z
			 M144.27,53.9c3.6,0,6.6,3,6.6,6.6s-3,6.6-6.6,6.6s-6.6-3-6.6-6.6S140.57,53.9,144.27,53.9z"/>
		<path class="st1" d="M144.47,220.7c-4.2,0-7.7,3.4-7.7,7.7c0,4.2,3.4,7.6,7.7,7.6c4.2,0,7.7-3.4,7.7-7.6
			C152.17,224.2,148.67,220.7,144.47,220.7z M144.47,235c-3.6,0-6.6-3-6.6-6.6s2.9-6.6,6.6-6.6c3.6,0,6.6,3,6.6,6.6
			C151.07,232,148.07,235,144.47,235z"/>
		<path class="st1" d="M216.97,178.4c-4.2,0-7.6,3.4-7.6,7.7c0,4.2,3.4,7.7,7.6,7.7s7.7-3.4,7.7-7.7
			C224.67,181.9,221.17,178.4,216.97,178.4z M216.97,192.7c-3.6,0-6.6-3-6.6-6.6s3-6.6,6.6-6.6s6.6,3,6.6,6.6
			C223.57,189.7,220.57,192.7,216.97,192.7z"/>
		<path class="st1" d="M217.77,111.2c4.2,0,7.7-3.4,7.6-7.7c0-4.2-3.4-7.7-7.6-7.7s-7.7,3.4-7.7,7.7
			C210.07,107.8,213.47,111.2,217.77,111.2z M217.77,97c3.6,0,6.6,3,6.6,6.6s-3,6.6-6.6,6.6s-6.6-3-6.6-6.6S214.07,97,217.77,97z"/>
		<path class="st1" d="M71.47,110.5c4.2,0,7.7-3.4,7.7-7.7c0-4.2-3.4-7.6-7.7-7.6c-4.2,0-7.6,3.4-7.6,7.6
			C63.87,107.1,67.27,110.5,71.47,110.5z M71.47,96.3c3.6,0,6.6,3,6.6,6.6s-3,6.6-6.6,6.6s-6.6-3-6.6-6.6S67.87,96.3,71.47,96.3z"/>
		<path class="st1" d="M72.07,179.3c-4.2,0-7.6,3.4-7.6,7.7c0,4.2,3.4,7.7,7.6,7.7s7.7-3.4,7.7-7.7
			C79.77,182.8,76.27,179.3,72.07,179.3z M72.07,193.6c-3.6,0-6.6-3-6.6-6.6s3-6.6,6.6-6.6s6.6,3,6.6,6.6S75.77,193.6,72.07,193.6z"
			/>
	</g>
	<path class="st2" d="M144.27,228.7L144.27,228.7c-0.7,0-1.4,0-2.1,0v-1.1c0.7,0,1.4,0,2.1,0V228.7z M146.37,228.7v-1.1
		c0.7,0,1.4,0,2.1-0.1v1.1C147.77,228.7,147.07,228.7,146.37,228.7z M139.97,228.6c-0.7,0-1.4-0.1-2.1-0.1l0.1-1.1
		c0.7,0.1,1.4,0.1,2.1,0.1L139.97,228.6z M150.67,228.5l-0.1-1.1c0.7-0.1,1.4-0.1,2.1-0.2l0.1,1.1
		C152.07,228.4,151.37,228.4,150.67,228.5z M135.67,228.3c-0.7-0.1-1.4-0.1-2.1-0.2l0.1-1.1c0.7,0.1,1.4,0.2,2.1,0.2L135.67,228.3z
		 M154.87,228.1l-0.1-1.1c0.7-0.1,1.4-0.2,2.1-0.3l0.2,1.1C156.27,227.9,155.57,228,154.87,228.1z M131.47,227.8
		c-0.7-0.1-1.4-0.2-2.1-0.4l0.2-1.1c0.7,0.1,1.4,0.2,2.1,0.3L131.47,227.8z M159.07,227.4l-0.2-1.1c0.7-0.1,1.4-0.3,2.1-0.4l0.2,1
		C160.47,227.2,159.77,227.3,159.07,227.4z M127.27,227c-0.7-0.1-1.4-0.3-2.1-0.4l0.2-1c0.7,0.2,1.4,0.3,2.1,0.4L127.27,227z
		 M163.27,226.6l-0.2-1c0.7-0.2,1.4-0.3,2-0.5l0.3,1C164.67,226.2,163.97,226.4,163.27,226.6z M123.07,226.1
		c-0.7-0.2-1.4-0.4-2.1-0.6l0.3-1c0.7,0.2,1.4,0.4,2,0.6L123.07,226.1z M167.47,225.5l-0.3-1c0.7-0.2,1.4-0.4,2-0.6l0.3,1
		C168.77,225.1,168.17,225.3,167.47,225.5z M118.97,224.9c-0.7-0.2-1.4-0.4-2-0.7l0.3-1c0.7,0.2,1.3,0.4,2,0.7L118.97,224.9z
		 M171.47,224.2l-0.4-1c0.7-0.2,1.3-0.5,2-0.7l0.4,1C172.87,223.8,172.17,224,171.47,224.2z M114.97,223.5c-0.7-0.3-1.3-0.5-2-0.8
		l0.4-1c0.6,0.3,1.3,0.5,2,0.8L114.97,223.5z M175.57,222.7l-0.4-1c0.6-0.3,1.3-0.5,1.9-0.8l0.4,1
		C176.87,222.2,176.17,222.5,175.57,222.7z M110.97,221.9c-0.7-0.3-1.3-0.6-2-0.9l0.4-1c0.6,0.3,1.3,0.6,1.9,0.9L110.97,221.9z
		 M179.47,221.1l-0.4-1c0.6-0.3,1.3-0.6,1.9-0.9l0.5,1C180.67,220.4,180.07,220.8,179.47,221.1z M107.07,220.1
		c-0.6-0.3-1.3-0.6-1.9-1l0.5-0.9c0.6,0.3,1.3,0.6,1.9,0.9L107.07,220.1z M183.27,219.2l-0.5-0.9c0.6-0.3,1.2-0.7,1.9-1l0.5,0.9
		C184.47,218.5,183.87,218.8,183.27,219.2z M103.27,218.2c-0.6-0.4-1.2-0.7-1.9-1.1l0.5-0.9c0.6,0.4,1.2,0.7,1.8,1.1L103.27,218.2z
		 M186.97,217.1l-0.5-0.9c0.6-0.4,1.2-0.7,1.8-1.1l0.6,0.9C188.17,216.4,187.57,216.7,186.97,217.1z M99.57,216
		c-0.6-0.4-1.2-0.8-1.8-1.2l0.6-0.9c0.6,0.4,1.2,0.8,1.8,1.1L99.57,216z M190.57,214.8l-0.6-0.9c0.6-0.4,1.2-0.8,1.7-1.2l0.6,0.9
		C191.77,214.1,191.17,214.4,190.57,214.8z M96.07,213.6c-0.6-0.4-1.2-0.8-1.7-1.2l0.6-0.9c0.6,0.4,1.1,0.8,1.7,1.2L96.07,213.6z
		 M194.07,212.4l-0.6-0.9c0.6-0.4,1.1-0.8,1.7-1.3l0.6,0.8C195.27,211.6,194.67,212,194.07,212.4z M92.57,211.1
		c-0.6-0.4-1.1-0.9-1.7-1.3l0.7-0.8c0.5,0.4,1.1,0.9,1.6,1.3L92.57,211.1z M197.47,209.8l-0.7-0.8c0.5-0.4,1.1-0.9,1.6-1.4l0.7,0.8
		C198.57,208.9,198.07,209.3,197.47,209.8z M89.27,208.4c-0.5-0.5-1.1-0.9-1.6-1.4l0.7-0.8c0.5,0.5,1,0.9,1.6,1.4L89.27,208.4z
		 M200.67,207l-0.7-0.8c0.5-0.5,1-0.9,1.5-1.4l0.7,0.8C201.77,206.1,201.27,206.5,200.67,207z M86.07,205.5c-0.5-0.5-1-1-1.5-1.5
		l0.8-0.8c0.5,0.5,1,1,1.5,1.5L86.07,205.5z M203.77,204.1l-0.8-0.8c0.5-0.5,1-1,1.5-1.5l0.8,0.7
		C204.77,203.1,204.27,203.6,203.77,204.1z M83.07,202.5c-0.5-0.5-1-1-1.5-1.6l0.8-0.7c0.5,0.5,1,1,1.4,1.5L83.07,202.5z
		 M206.77,201l-0.8-0.7c0.5-0.5,0.9-1.1,1.4-1.6l0.8,0.7C207.67,199.9,207.27,200.4,206.77,201z M80.17,199.3
		c-0.5-0.5-0.9-1.1-1.4-1.6l0.8-0.7c0.4,0.5,0.9,1.1,1.4,1.6L80.17,199.3z M209.57,197.7l-0.8-0.7c0.5-0.5,0.9-1.1,1.3-1.6l0.8,0.6
		C210.47,196.6,209.97,197.2,209.57,197.7z M77.47,196c-0.4-0.6-0.9-1.1-1.3-1.7l0.9-0.6c0.4,0.6,0.8,1.1,1.3,1.7L77.47,196z
		 M212.17,194.4l-0.9-0.6c0.4-0.6,0.8-1.1,1.2-1.7l0.9,0.6C212.97,193.2,212.57,193.8,212.17,194.4z M74.97,192.6
		c-0.4-0.6-0.8-1.2-1.2-1.8l0.9-0.6c0.4,0.6,0.8,1.2,1.2,1.7L74.97,192.6z M214.57,190.9l-0.9-0.6c0.4-0.6,0.8-1.2,1.1-1.8l0.9,0.6
		C215.37,189.7,214.97,190.3,214.57,190.9z M72.67,189c-0.4-0.6-0.8-1.2-1.1-1.8l0.9-0.5c0.4,0.6,0.7,1.2,1.1,1.8L72.67,189z
		 M216.87,187.2l-0.9-0.5c0.4-0.6,0.7-1.2,1-1.8l0.9,0.5C217.57,186,217.27,186.6,216.87,187.2z M70.47,185.4
		c-0.3-0.6-0.7-1.3-1-1.9l0.9-0.5c0.3,0.6,0.7,1.2,1,1.9L70.47,185.4z M218.97,183.5l-1-0.5c0.3-0.6,0.6-1.3,1-1.9l1,0.5
		C219.57,182.2,219.27,182.9,218.97,183.5z M68.47,181.6c-0.3-0.6-0.6-1.3-0.9-1.9l1-0.4c0.3,0.6,0.6,1.3,0.9,1.9L68.47,181.6z
		 M220.87,179.6l-1-0.4c0.3-0.6,0.6-1.3,0.9-1.9l1,0.4C221.47,178.3,221.17,179,220.87,179.6z M66.67,177.7c-0.3-0.6-0.5-1.3-0.8-2
		l1-0.4c0.3,0.6,0.5,1.3,0.8,1.9L66.67,177.7z M222.57,175.7l-1-0.4c0.3-0.6,0.5-1.3,0.8-2l1,0.4
		C223.07,174.4,222.77,175.1,222.57,175.7z M65.17,173.8c-0.3-0.7-0.5-1.3-0.7-2l1-0.4c0.2,0.7,0.5,1.3,0.7,2L65.17,173.8z
		 M224.07,171.7l-1-0.4c0.2-0.7,0.5-1.3,0.7-2l1,0.3C224.47,170.3,224.27,171,224.07,171.7z M63.77,169.7c-0.2-0.7-0.4-1.4-0.6-2.1
		l1-0.3c0.2,0.7,0.4,1.4,0.6,2L63.77,169.7z M225.27,167.6l-1-0.3c0.2-0.7,0.4-1.4,0.5-2l1,0.3
		C225.67,166.2,225.47,166.9,225.27,167.6z M62.57,165.6c-0.2-0.7-0.4-1.4-0.5-2.1l1-0.2c0.2,0.7,0.3,1.4,0.5,2.1L62.57,165.6z
		 M226.37,163.5l-1-0.2c0.2-0.7,0.3-1.4,0.5-2.1l1,0.2C226.67,162.1,226.57,162.8,226.37,163.5z M61.57,161.4
		c-0.1-0.7-0.3-1.4-0.4-2.1l1-0.2c0.1,0.7,0.3,1.4,0.4,2.1L61.57,161.4z M227.27,159.3l-1-0.2c0.1-0.7,0.2-1.4,0.3-2.1l1,0.2
		C227.47,157.9,227.37,158.6,227.27,159.3z M60.87,157.2c-0.1-0.7-0.2-1.4-0.3-2.1l1.1-0.1c0.1,0.7,0.2,1.4,0.3,2.1L60.87,157.2z
		 M227.87,155.1l-1.1-0.1c0.1-0.7,0.2-1.4,0.2-2.1l1.1,0.1C228.07,153.6,227.97,154.4,227.87,155.1z M60.27,153
		c-0.1-0.7-0.1-1.4-0.2-2.1l1.1-0.1c0,0.7,0.1,1.4,0.2,2.1L60.27,153z M228.27,150.8l-1.1-0.1c0-0.7,0.1-1.4,0.1-2.1l1.1,0.1
		C228.37,149.4,228.37,150.1,228.27,150.8z M59.97,148.8c0-0.7-0.1-1.4-0.1-2.1h1.1c0,0.7,0,1.4,0.1,2.1H59.97z M228.47,146.6h-1.1
		c0-0.7,0-1.4,0-2.1v-0.1h1.1v0.1C228.57,145.1,228.57,145.8,228.47,146.6z M59.87,144.5L59.87,144.5c0-0.8,0-1.5,0-2.1h1.1
		c0,0.7,0,1.4,0,2L59.87,144.5z M227.47,142.2c0-0.7,0-1.4-0.1-2.1l1.1-0.1c0,0.7,0.1,1.4,0.1,2.1L227.47,142.2z M61.07,140.3
		l-1.1-0.1c0-0.7,0.1-1.4,0.1-2.1l1.1,0.1C61.17,138.9,61.07,139.6,61.07,140.3z M227.27,138c0-0.7-0.1-1.4-0.2-2.1l1.1-0.1
		c0.1,0.7,0.1,1.4,0.2,2.1L227.27,138z M61.37,136.1l-1.1-0.1c0.1-0.7,0.1-1.4,0.2-2.1l1.1,0.1C61.47,134.6,61.37,135.4,61.37,136.1
		z M226.77,133.8c-0.1-0.7-0.2-1.4-0.3-2.1l1-0.2c0.1,0.7,0.2,1.4,0.3,2.1L226.77,133.8z M61.87,131.9l-1-0.2
		c0.1-0.7,0.2-1.4,0.4-2.1l1,0.2C62.07,130.5,61.97,131.2,61.87,131.9z M226.17,129.6c-0.1-0.7-0.3-1.4-0.4-2.1l1-0.2
		c0.1,0.7,0.3,1.4,0.4,2.1L226.17,129.6z M62.57,127.7l-1-0.2c0.1-0.7,0.3-1.4,0.5-2.1l1,0.2C62.87,126.3,62.77,127,62.57,127.7z
		 M225.27,125.5c-0.2-0.7-0.3-1.4-0.5-2.1l1-0.3c0.2,0.7,0.4,1.4,0.5,2.1L225.27,125.5z M63.57,123.6l-1-0.3
		c0.2-0.7,0.4-1.4,0.6-2.1l1,0.3C63.87,122.2,63.77,122.9,63.57,123.6z M224.27,121.4c-0.2-0.7-0.4-1.3-0.6-2l1-0.3
		c0.2,0.7,0.4,1.4,0.6,2L224.27,121.4z M64.67,119.5l-1-0.3c0.2-0.7,0.4-1.4,0.7-2l1,0.3C65.17,118.2,64.87,118.9,64.67,119.5z
		 M222.97,117.4c-0.2-0.7-0.5-1.3-0.7-2l1-0.4c0.3,0.7,0.5,1.3,0.7,2L222.97,117.4z M66.07,115.5l-1-0.4c0.3-0.7,0.5-1.3,0.8-2
		l1,0.4C66.57,114.2,66.27,114.9,66.07,115.5z M221.47,113.4c-0.3-0.7-0.5-1.3-0.8-1.9l1-0.4c0.3,0.7,0.5,1.3,0.8,2L221.47,113.4z
		 M67.67,111.6l-1-0.4c0.3-0.7,0.6-1.3,0.9-2l1,0.4C68.17,110.3,67.87,111,67.67,111.6z M219.87,109.5c-0.3-0.6-0.6-1.3-0.9-1.9
		l1-0.5c0.3,0.6,0.6,1.3,0.9,1.9L219.87,109.5z M69.37,107.8l-1-0.5c0.3-0.6,0.6-1.3,1-1.9l0.9,0.5
		C70.07,106.5,69.77,107.1,69.37,107.8z M217.97,105.8c-0.3-0.6-0.7-1.2-1-1.8l0.9-0.5c0.3,0.6,0.7,1.3,1,1.9L217.97,105.8z
		 M71.37,104l-0.9-0.5c0.4-0.6,0.7-1.2,1.1-1.9l0.9,0.5C72.07,102.8,71.67,103.4,71.37,104z M215.97,102.1c-0.4-0.6-0.7-1.2-1.1-1.8
		l0.9-0.6c0.4,0.6,0.8,1.2,1.1,1.8L215.97,102.1z M73.57,100.4l-0.9-0.6c0.4-0.6,0.8-1.2,1.2-1.8l0.9,0.6
		C74.27,99.2,73.87,99.8,73.57,100.4z M213.67,98.5c-0.4-0.6-0.8-1.2-1.2-1.7l0.9-0.6c0.4,0.6,0.8,1.2,1.2,1.8L213.67,98.5z
		 M75.87,96.9l-0.9-0.6c0.4-0.6,0.8-1.2,1.2-1.7l0.9,0.6C76.67,95.7,76.27,96.3,75.87,96.9z M211.27,95.1c-0.4-0.6-0.8-1.1-1.3-1.7
		l0.8-0.7c0.4,0.6,0.9,1.1,1.3,1.7L211.27,95.1z M78.37,93.5l-0.8-0.7c0.4-0.6,0.9-1.1,1.3-1.7l0.8,0.7
		C79.17,92.3,78.77,92.9,78.37,93.5z M208.67,91.7c-0.4-0.5-0.9-1.1-1.4-1.6l0.8-0.7c0.5,0.5,0.9,1.1,1.4,1.6L208.67,91.7z
		 M80.97,90.2l-0.8-0.7c0.5-0.5,0.9-1.1,1.4-1.6l0.8,0.7C81.97,89.1,81.47,89.7,80.97,90.2z M205.97,88.6c-0.5-0.5-1-1-1.4-1.6
		l0.8-0.7c0.5,0.5,1,1,1.5,1.6L205.97,88.6z M83.87,87.1l-0.8-0.7c0.5-0.5,1-1,1.5-1.5l0.8,0.8C84.77,86,84.27,86.6,83.87,87.1z
		 M203.07,85.5c-0.5-0.5-1-1-1.5-1.5l0.7-0.8c0.5,0.5,1,1,1.5,1.5L203.07,85.5z M86.77,84.1l-0.7-0.8c0.5-0.5,1-1,1.6-1.4l0.7,0.8
		C87.87,83.1,87.37,83.6,86.77,84.1z M199.97,82.6c-0.5-0.5-1-0.9-1.6-1.4l0.7-0.8c0.5,0.5,1.1,0.9,1.6,1.4L199.97,82.6z
		 M89.97,81.3l-0.7-0.8c0.5-0.5,1.1-0.9,1.6-1.4l0.7,0.8C91.07,80.3,90.47,80.8,89.97,81.3z M196.77,79.8c-0.5-0.4-1.1-0.9-1.6-1.3
		l0.6-0.8c0.6,0.4,1.1,0.9,1.7,1.3L196.77,79.8z M93.17,78.6l-0.6-0.8c0.6-0.4,1.1-0.9,1.7-1.3l0.6,0.9
		C94.37,77.7,93.77,78.2,93.17,78.6z M193.47,77.3c-0.6-0.4-1.1-0.8-1.7-1.2l0.6-0.9c0.6,0.4,1.2,0.8,1.7,1.2L193.47,77.3z
		 M96.57,76.1l-0.6-0.9c0.6-0.4,1.2-0.8,1.8-1.2l0.6,0.9C97.77,75.3,97.17,75.7,96.57,76.1z M189.97,74.8c-0.6-0.4-1.2-0.8-1.8-1.1
		l0.6-0.9c0.6,0.4,1.2,0.8,1.8,1.2L189.97,74.8z M100.17,73.8l-0.6-0.9c0.6-0.4,1.2-0.8,1.8-1.1l0.5,0.9
		C101.27,73,100.67,73.4,100.17,73.8z M186.37,72.6c-0.6-0.4-1.2-0.7-1.8-1.1l0.5-0.9c0.6,0.3,1.2,0.7,1.9,1.1L186.37,72.6z
		 M103.77,71.6l-0.5-0.9c0.6-0.3,1.3-0.7,1.9-1l0.5,0.9C104.97,70.9,104.37,71.3,103.77,71.6z M182.67,70.6
		c-0.6-0.3-1.3-0.6-1.9-0.9l0.5-1c0.6,0.3,1.3,0.6,1.9,1L182.67,70.6z M107.47,69.7l-0.5-1c0.6-0.3,1.3-0.6,1.9-0.9l0.5,1
		C108.77,69.1,108.07,69.3,107.47,69.7z M178.87,68.7c-0.6-0.3-1.3-0.6-1.9-0.9l0.4-1c0.7,0.3,1.3,0.6,2,0.9L178.87,68.7z
		 M111.27,67.9l-0.4-1c0.6-0.3,1.3-0.6,2-0.8l0.4,1C112.57,67.4,111.97,67.6,111.27,67.9z M175.07,67c-0.7-0.3-1.3-0.5-2-0.8l0.4-1
		c0.7,0.3,1.3,0.5,2,0.8L175.07,67z M115.17,66.3l-0.4-1c0.7-0.3,1.3-0.5,2-0.7l0.4,1C116.47,65.9,115.87,66.1,115.17,66.3z
		 M171.07,65.6c-0.7-0.2-1.3-0.4-2-0.7l0.3-1c0.7,0.2,1.4,0.4,2,0.7L171.07,65.6z M119.17,65l-0.3-1c0.7-0.2,1.4-0.4,2-0.6l0.3,1
		C120.57,64.6,119.87,64.8,119.17,65z M167.07,64.3c-0.7-0.2-1.4-0.4-2-0.6l0.3-1c0.7,0.2,1.4,0.4,2.1,0.6L167.07,64.3z
		 M123.27,63.8l-0.3-1c0.7-0.2,1.4-0.3,2.1-0.5l0.2,1C124.57,63.5,123.87,63.6,123.27,63.8z M162.97,63.3c-0.7-0.2-1.4-0.3-2.1-0.4
		l0.2-1c0.7,0.1,1.4,0.3,2.1,0.4L162.97,63.3z M127.37,62.8l-0.2-1c0.7-0.1,1.4-0.3,2.1-0.4l0.2,1.1
		C128.77,62.6,128.07,62.7,127.37,62.8z M158.77,62.4c-0.7-0.1-1.4-0.2-2.1-0.3l0.2-1.1c0.7,0.1,1.4,0.2,2.1,0.3L158.77,62.4z
		 M131.47,62.1l-0.2-1.1c0.7-0.1,1.4-0.2,2.1-0.3l0.1,1.1C132.87,61.9,132.17,62,131.47,62.1z M154.67,61.8
		c-0.7-0.1-1.4-0.2-2.1-0.2l0.1-1.1c0.7,0.1,1.4,0.2,2.1,0.2L154.67,61.8z M135.67,61.6l-0.1-1.1c0.7-0.1,1.4-0.1,2.1-0.2l0.1,1.1
		C137.07,61.4,136.37,61.5,135.67,61.6z M150.47,61.4c-0.7-0.1-1.4-0.1-2.1-0.1v-1.1c0.7,0,1.4,0.1,2.1,0.1V61.4z M139.87,61.3v-1.1
		c0.7,0,1.4-0.1,2.1-0.1v1.1C141.27,61.2,140.57,61.2,139.87,61.3z M146.27,61.2c-0.7,0-1.3,0-2,0l-0.1-1.1h0.1c0.7,0,1.4,0,2,0
		V61.2z"/>
</g>
</svg>
