<?xml version="1.0" encoding="utf-8"?>
<!-- Generator: Adobe Illustrator 23.0.0, SVG Export Plug-In . SVG Version: 6.00 Build 0)  -->
<svg version="1.1" xmlns="http://www.w3.org/2000/svg" xmlns:xlink="http://www.w3.org/1999/xlink" x="0px" y="0px"
	 viewBox="0 0 305.6 635.2" style="enable-background:new 0 0 305.6 635.2;" xml:space="preserve">
<style type="text/css">
	.st0{fill:#E30613;}
	.st1{fill:#E83C3F;}
	.st2{fill:#32A936;}
	.st3{fill:#D41116;}
	.st4{fill:#50B15E;}
</style>
<g id="Corona">
	<g>
		<path class="st0" d="M154.7,18.3l-3.6,7.7c-0.6,1.2-1.7,2-3.1,2c-1.4,0-2.5-0.6-3.2-1.8l-4-7.5c-0.4-0.7-1-1-1.8-0.9
			c-0.7,0.1-1.3,0.5-1.6,1.3l-2.6,8.1c-0.4,1.3-1.5,2.2-2.8,2.4c-1.3,0.2-2.6-0.3-3.4-1.4l-4.9-7c-0.4-0.6-1.1-0.9-1.9-0.7
			c-0.7,0.2-1.3,0.7-1.4,1.4l-1.6,8.4c-0.3,1.3-1.2,2.3-2.5,2.7c-1.3,0.4-2.6,0-3.5-1l-5.8-6.3c-0.5-0.5-1.2-0.7-1.9-0.5
			c-0.7,0.2-1.2,0.9-1.2,1.6l-0.5,8.5c-0.1,1.4-0.9,2.5-2.1,3c-1.2,0.5-2.6,0.3-3.6-0.6l-6.5-5.5c-0.5-0.5-1.3-0.6-1.9-0.3
			c-0.7,0.3-1.1,0.9-1.1,1.6l0.5,8.6c0.1,1.4-0.6,2.6-1.8,3.3c-1.2,0.6-2.5,0.6-3.6-0.2l-7.1-4.7c-0.6-0.4-1.3-0.4-1.9-0.1
			c-0.7,0.4-1.1,1.1-0.9,1.9l1.5,8.4c0.3,1.4-0.4,2.9-1.6,3.6c-1,0.6-2.3,0.7-3.4,0.2l-7.6-3.8c-0.6-0.3-1.2-0.3-1.8,0.1
			c-0.7,0.4-1,1.3-0.8,2.1l2.6,8.1c0.5,1.5-0.1,3-1.3,3.9c-0.9,0.7-2.1,0.8-3.2,0.4l-8.1-2.8c-0.6-0.2-1.2-0.1-1.6,0.2
			c-0.7,0.5-1,1.4-0.6,2.2l3.5,7.8c0.7,1.5,0.2,3.2-1,4.2c-0.8,0.7-1.9,0.9-2.9,0.7l-8.3-1.8c-0.5-0.1-1.1,0-1.5,0.4
			c-0.7,0.6-0.9,1.6-0.4,2.4l4.5,7.3c0.9,1.4,0.6,3.3-0.6,4.4c-0.7,0.7-1.7,1-2.7,0.9l-8.5-0.8c-0.5,0-1,0.1-1.4,0.5
			c-0.7,0.6-0.8,1.7-0.2,2.5l5.3,6.7c0.5,0.6,0.8,1.4,0.8,2.2c0,1.7-1.3,3.5-3.4,3.5l-8.5,0.3c-1,0-1.8,0.8-1.8,1.8
			c0,0.5,0.2,0.9,0.6,1.3l6.1,6c0.7,0.7,1.1,1.6,1.1,2.5c0,1.5-1,3.2-3,3.5l-8.4,1.3c-0.9,0.1-1.5,0.9-1.5,1.8
			c0,0.6,0.3,1.1,0.7,1.4l6.8,5.2c0.9,0.7,1.4,1.7,1.4,2.8c0,1.3-0.8,2.9-2.5,3.4l-8.2,2.3c-0.8,0.2-1.3,0.9-1.3,1.7
			c0,0.7,0.3,1.2,0.9,1.6l7.4,4.3c1.1,0.6,1.7,1.8,1.7,3c0,1.4-0.8,2.7-2.1,3.2l-7.9,3.3c-0.7,0.3-1.1,0.9-1.1,1.7
			c0,0.7,0.4,1.4,1.1,1.7l7.9,3.3c1.3,0.6,2.1,1.8,2.1,3.2c0,1.3-0.7,2.4-1.7,3l-7.4,4.3c-0.6,0.3-0.9,0.9-0.9,1.6
			c0,0.8,0.5,1.5,1.3,1.7l8.2,2.4c1.8,0.5,2.5,2.1,2.5,3.4c0,1.1-0.5,2.1-1.4,2.8l-6.8,5.2c-0.5,0.3-0.7,0.9-0.7,1.4
			c0,0.9,0.6,1.7,1.5,1.8l8.4,1.3c1.9,0.3,3,2,3,3.5c0,0.9-0.4,1.8-1.1,2.5l-6.1,5.9c-0.4,0.3-0.6,0.8-0.6,1.3c0,1,0.8,1.8,1.8,1.8
			l8.5,0.3c2.1,0.1,3.4,1.8,3.4,3.5c0,0.8-0.3,1.5-0.8,2.2l-5.3,6.7c-0.6,0.7-0.5,1.9,0.2,2.5c0.4,0.3,0.9,0.5,1.4,0.5l8.5-0.8
			c1-0.1,1.9,0.2,2.7,0.9c1.2,1.1,1.5,3,0.6,4.4l-4.5,7.3c-0.5,0.8-0.3,1.8,0.4,2.4c0.4,0.3,1,0.5,1.5,0.4l8.3-1.8
			c1.1-0.2,2.1,0,2.9,0.7c1.2,1,1.7,2.7,1,4.2l-3.6,7.8c-0.4,0.8-0.1,1.7,0.6,2.2c0.5,0.3,1.1,0.4,1.6,0.2l8.1-2.8
			c1.1-0.4,2.2-0.2,3.2,0.4c1.2,0.9,1.8,2.5,1.3,3.9l-2.6,8.1c-0.3,0.8,0.1,1.7,0.8,2.1c0.5,0.3,1.2,0.4,1.8,0.1l7.6-3.8
			c1.1-0.5,2.3-0.5,3.4,0.2c1.2,0.8,1.9,2.2,1.6,3.6l-1.6,8.4c-0.2,0.8,0.2,1.6,0.9,1.9c0.6,0.3,1.3,0.3,1.9-0.1l7.1-4.7
			c1.1-0.7,2.4-0.8,3.6-0.2c1.2,0.7,1.9,1.9,1.8,3.3l-0.5,8.5l0,0.1c0,0.7,0.4,1.3,1.1,1.6c0.6,0.3,1.4,0.2,1.9-0.3l6.5-5.5
			c1-0.9,2.4-1.1,3.6-0.6c1.2,0.5,2,1.7,2.1,3l0.5,8.5c0,0.7,0.5,1.3,1.2,1.6c0.7,0.2,1.4,0.1,1.9-0.5l5.8-6.3c0.9-1,2.2-1.4,3.5-1
			c1.3,0.4,2.2,1.4,2.5,2.7l1.6,8.4c0.1,0.7,0.7,1.3,1.4,1.4c0.7,0.2,1.4-0.1,1.9-0.7l4.9-7c0.8-1.1,2.1-1.6,3.4-1.4
			c1.3,0.2,2.4,1.1,2.8,2.4l2.6,8.1c0.2,0.7,0.8,1.2,1.6,1.3c0.7,0.1,1.4-0.3,1.8-0.9l4.1-7.5c0.6-1.2,1.8-1.9,3.2-1.8
			c1.4,0,2.5,0.8,3.1,2l3.6,7.7c0.3,0.7,1,1.1,1.7,1.1c0.7,0,1.4-0.5,1.6-1.2l3.1-8c0.5-1.3,1.6-2.1,2.9-2.2
			c1.3-0.1,2.6,0.5,3.3,1.6l4.5,7.3c0.4,0.6,1.1,0.9,1.8,0.8c0.7-0.1,1.3-0.6,1.5-1.3l2-8.1c0.3-1.4,1.4-2.3,2.7-2.6
			c1.4-0.3,2.7,0.2,3.6,1.3l5.2,6.5c0.5,0.6,1.2,0.8,1.9,0.6c0.7-0.2,1.2-0.8,1.3-1.5l1.1-8.5c0.2-1.3,1-2.4,2.3-2.9
			c1.3-0.5,2.6-0.2,3.6,0.8l6.1,5.9c0.5,0.5,1.3,0.7,2,0.4c0.7-0.3,1.1-0.9,1.1-1.7l0-8.5c0-1.4,0.7-2.5,1.9-3.1
			c1.2-0.6,2.6-0.5,3.7,0.3l6.8,5.1c0.6,0.4,1.3,0.5,1.9,0.2c0.7-0.3,1.1-1.1,1-1.8l-1-8.5c-0.2-1.4,0.5-2.7,1.7-3.5
			c1.1-0.6,2.4-0.6,3.5,0l7.4,4.3c0.6,0.3,1.2,0.3,1.8,0c0.7-0.4,1.1-1.2,0.9-2l-2.1-8.3c-0.4-1.5,0.2-3,1.5-3.8
			c1-0.7,2.2-0.8,3.3-0.3l7.9,3.3c0.6,0.2,1.2,0.2,1.7-0.2c0.7-0.5,1-1.4,0.7-2.2l-3.1-8c-0.6-1.5-0.1-3.1,1.2-4.1
			c0.9-0.7,2-0.9,3.1-0.6l8.2,2.3c0.6,0.2,1.1,0,1.6-0.3c0.7-0.5,0.9-1.5,0.5-2.3l-4-7.5c-0.8-1.5-0.4-3.3,0.8-4.3
			c0.8-0.7,1.8-0.9,2.8-0.8l8.4,1.3c0.5,0.1,1-0.1,1.5-0.4c0.7-0.6,0.8-1.7,0.3-2.4l-4.9-7c-1-1.4-0.8-3.4,0.4-4.6
			c0.7-0.7,1.6-1,2.5-1l8.5,0.3c0.5,0,1-0.2,1.3-0.5c0.7-0.7,0.7-1.8,0.1-2.5l-5.7-6.3c-0.6-0.7-0.9-1.5-0.9-2.3
			c0-1.6,1.1-3.3,3.2-3.5l8.5-0.8c0.9-0.1,1.6-0.9,1.6-1.8c0-0.5-0.2-1-0.6-1.4l-6.5-5.6c-0.8-0.7-1.2-1.6-1.2-2.6
			c0-1.7,1.1-3.1,2.8-3.4l8.3-1.8c0.8-0.2,1.4-0.9,1.4-1.8c0-0.6-0.3-1.2-0.8-1.5l-7.1-4.7c-1-0.7-1.6-1.7-1.6-2.9
			c0-1.5,0.9-2.8,2.3-3.3l8-2.8c0.7-0.3,1.2-0.9,1.2-1.7c0-0.7-0.4-1.3-1-1.6l-7.6-3.8c-1.2-0.6-1.9-1.8-1.9-3.1
			c0-1.4,0.7-2.5,1.9-3.1l7.6-3.8c0.6-0.3,1-0.9,1-1.6c0-0.8-0.5-1.5-1.2-1.7l-8-2.9c-1.4-0.5-2.3-1.8-2.3-3.3
			c0-1.2,0.6-2.2,1.6-2.9l7.1-4.7c0.5-0.3,0.8-0.9,0.8-1.5c0-0.9-0.6-1.6-1.4-1.8l-8.3-1.8c-1.6-0.4-2.8-1.8-2.7-3.4
			c0-1,0.4-2,1.2-2.6l6.5-5.6c0.4-0.4,0.6-0.8,0.6-1.4c0-0.9-0.7-1.7-1.6-1.8l-8.5-0.8c-2.1-0.2-3.2-2-3.2-3.5
			c0-0.9,0.3-1.7,0.9-2.3l5.7-6.3c0.6-0.7,0.6-1.9-0.1-2.5c-0.3-0.3-0.8-0.5-1.3-0.5l-8.5,0.2c-1,0-1.9-0.3-2.5-1
			c-1.2-1.2-1.4-3.1-0.4-4.6l4.9-7c0.5-0.8,0.4-1.8-0.3-2.4c-0.4-0.3-0.9-0.5-1.4-0.4l-8.4,1.3c-1,0.2-2-0.1-2.8-0.8
			c-1.2-1.1-1.6-2.9-0.8-4.3l4-7.5c0.4-0.8,0.2-1.8-0.5-2.3c-0.5-0.3-1-0.4-1.6-0.3l-8.2,2.3c-1.1,0.3-2.2,0.1-3.1-0.6
			c-1.2-0.9-1.7-2.6-1.2-4.1l3.1-8c0.3-0.8,0-1.7-0.7-2.2c-0.5-0.3-1.1-0.4-1.7-0.2l-7.9,3.3c-1.1,0.5-2.3,0.4-3.3-0.3
			c-1.2-0.8-1.8-2.3-1.5-3.8l2.1-8.3c0.2-0.8-0.2-1.6-0.9-2c-0.6-0.3-1.2-0.3-1.8,0l-7.4,4.3c-1.1,0.6-2.4,0.6-3.5,0
			c-1.2-0.7-1.9-2-1.7-3.5l1-8.5c0.1-0.8-0.3-1.5-1-1.8c-0.6-0.3-1.3-0.2-1.9,0.2l-6.8,5.1c-1.1,0.8-2.5,0.9-3.7,0.3
			c-1.2-0.6-1.9-1.8-1.9-3.1l0-8.5c0-0.7-0.4-1.4-1.1-1.7c-0.7-0.3-1.4-0.1-2,0.4l-6.1,5.9c-1,0.9-2.3,1.2-3.6,0.8
			c-1.3-0.5-2.1-1.5-2.3-2.9l-1.1-8.5c-0.1-0.7-0.6-1.3-1.3-1.5c-0.7-0.2-1.4,0-1.9,0.6l-5.4,6.6c-0.9,1.1-2.2,1.5-3.5,1.2
			c-1.3-0.3-2.3-1.2-2.6-2.6l-2.1-8.3c-0.2-0.7-0.7-1.2-1.5-1.3c-0.7-0.1-1.4,0.2-1.8,0.8l-4.5,7.2c-0.7,1.2-1.9,1.8-3.3,1.6
			c-1.3-0.1-2.4-1-2.9-2.2l-3.1-8c-0.3-0.7-0.9-1.1-1.6-1.2C155.7,17.2,155,17.6,154.7,18.3z M157.1,18.7l3.1,8
			c0.6,1.6,2.1,2.7,3.8,2.9c1.7,0.2,3.3-0.6,4.2-2.1l4.5-7.2c0.2-0.3,0.5-0.4,0.8-0.4c0.3,0.1,0.6,0.3,0.7,0.6l2.1,8.3
			c0.4,1.7,1.7,2.9,3.4,3.3c1.7,0.4,3.4-0.2,4.5-1.6l5.4-6.6c0.2-0.3,0.5-0.4,0.9-0.3c0.3,0.1,0.5,0.3,0.6,0.7l1.1,8.5
			c0.2,1.7,1.3,3.1,3,3.7c1.6,0.6,3.4,0.2,4.6-1l6.1-5.9c0.2-0.2,0.6-0.3,0.9-0.2c0.3,0.1,0.5,0.4,0.5,0.7l0,8.5c0,1.7,1,3.3,2.5,4
			c1.5,0.8,3.3,0.6,4.7-0.4l6.8-5.1c0.3-0.2,0.6-0.2,0.8-0.1c0.3,0.2,0.5,0.5,0.4,0.8l-1,8.5c-0.2,1.9,0.6,3.5,2.2,4.4
			c1.4,0.8,3.1,0.8,4.5,0l7.4-4.3c0.3-0.1,0.6-0.1,0.8,0c0.3,0.2,0.5,0.5,0.4,0.9l-2.1,8.3c-0.5,1.9,0.3,3.8,1.9,4.9
			c1.3,0.8,2.8,1,4.2,0.4l7.9-3.3c0.3-0.1,0.6,0,0.8,0.1c0.3,0.2,0.5,0.6,0.3,1l-3.1,8c-0.7,1.9-0.1,4,1.5,5.2
			c1.1,0.9,2.6,1.1,3.9,0.7l8.2-2.3c0.3-0.1,0.6,0,0.7,0.1c0.3,0.2,0.4,0.7,0.2,1l-4,7.5c-1,1.9-0.5,4.2,1,5.6c1,0.9,2.3,1.2,3.6,1
			l8.4-1.3c0.3,0,0.5,0.1,0.6,0.2c0.3,0.3,0.4,0.7,0.1,1.1l-4.9,7c-1.3,1.8-1,4.3,0.6,5.8c0.9,0.8,2,1.3,3.3,1.3l8.5-0.2
			c0.3,0,0.5,0.1,0.6,0.2c0.2,0.2,0.3,0.4,0.3,0.6c0,0.1,0,0.3-0.2,0.5l-5.7,6.3c-0.8,0.8-1.2,1.9-1.2,3c0,2.3,1.8,4.3,4.1,4.5
			l8.5,0.8c0.5,0,0.7,0.4,0.7,0.8c0,0.2-0.1,0.4-0.3,0.6l-6.5,5.6c-1,0.9-1.6,2.1-1.6,3.4c0,2.1,1.5,4,3.5,4.4l8.3,1.8
			c0.4,0.1,0.6,0.5,0.6,0.8c0,0.2,0,0.5-0.4,0.7l-7.1,4.7c-1.3,0.8-2,2.2-2,3.7c0,1.9,1.2,3.6,3,4.3l8,2.9c0.4,0.1,0.5,0.5,0.5,0.8
			c0,0.3-0.2,0.6-0.4,0.7l-7.6,3.8c-1.5,0.8-2.5,2.3-2.5,4c0,1.7,1,3.3,2.5,4l7.6,3.8c0.3,0.1,0.4,0.4,0.4,0.7
			c0,0.3-0.1,0.6-0.5,0.8l-8,2.8c-1.8,0.6-3,2.3-3,4.3c0,1.5,0.7,2.9,2,3.7l7.1,4.7c0.3,0.2,0.4,0.5,0.4,0.7c0,0.3-0.2,0.7-0.6,0.8
			l-8.3,1.8c-2.1,0.5-3.5,2.3-3.5,4.4c0,1.3,0.6,2.5,1.6,3.4l6.5,5.6c0.2,0.2,0.3,0.4,0.3,0.6c0,0.4-0.3,0.8-0.7,0.8l-8.5,0.8
			c-2.3,0.2-4.1,2.2-4.1,4.5c0,1.1,0.4,2.2,1.2,3l5.7,6.3c0.2,0.2,0.2,0.4,0.2,0.5c0,0.2-0.1,0.4-0.3,0.6c-0.1,0.1-0.3,0.2-0.6,0.2
			l-8.5-0.3c-1.2,0-2.4,0.4-3.3,1.3c-1.5,1.5-1.8,4-0.6,5.8l4.9,7c0.2,0.3,0.2,0.8-0.1,1.1c-0.1,0.1-0.3,0.2-0.6,0.2l-8.4-1.3
			c-1.3-0.2-2.6,0.2-3.6,1c-1.6,1.4-2.1,3.7-1.1,5.6l4,7.5c0.2,0.4,0.1,0.8-0.2,1c-0.1,0.1-0.4,0.2-0.7,0.1L252,244
			c-1.4-0.4-2.8-0.1-3.9,0.7c-1.6,1.2-2.2,3.4-1.5,5.2l3.1,8c0.1,0.4,0,0.8-0.3,1c-0.1,0.1-0.4,0.2-0.8,0.1l-7.9-3.3
			c-1.4-0.6-3-0.5-4.2,0.4c-1.6,1.1-2.4,3-1.9,4.8l2.1,8.3c0.1,0.4-0.1,0.7-0.4,0.9c-0.3,0.1-0.6,0.1-0.8,0l-7.4-4.3
			c-1.4-0.8-3.1-0.8-4.5,0c-1.6,0.9-2.5,2.6-2.2,4.4l1,8.5c0,0.4-0.1,0.7-0.4,0.8c-0.3,0.1-0.6,0.1-0.8-0.1l-6.8-5.1
			c-1.4-1-3.2-1.2-4.7-0.4c-1.5,0.8-2.5,2.3-2.5,4l0,8.5c0,0.3-0.2,0.6-0.5,0.7c-0.3,0.1-0.6,0.1-0.9-0.2l-6.1-5.9
			c-1.2-1.2-3-1.6-4.6-1c-1.6,0.6-2.8,2-3,3.7l-1.1,8.5c0,0.3-0.3,0.6-0.6,0.7c-0.3,0.1-0.6,0-0.9-0.3l-5.2-6.5
			c-1.1-1.4-2.9-2-4.6-1.6c-1.7,0.4-3.1,1.7-3.5,3.4l-2,8c-0.1,0.3-0.3,0.6-0.7,0.6c-0.3,0.1-0.6-0.1-0.8-0.4l-4.5-7.2
			c-0.9-1.5-2.5-2.3-4.2-2.1c-1.7,0.2-3.2,1.2-3.8,2.8l-3.1,8c-0.1,0.3-0.4,0.5-0.7,0.5c-0.3,0-0.6-0.2-0.8-0.5l-3.6-7.7
			c-0.7-1.6-2.2-2.6-3.9-2.6c-1.7-0.1-3.3,0.9-4.1,2.4l-4.1,7.5c-0.2,0.3-0.5,0.5-0.8,0.4c-0.3,0-0.6-0.2-0.7-0.6l-2.6-8.1
			c-0.5-1.6-1.9-2.8-3.6-3.1c-1.7-0.3-3.4,0.4-4.4,1.8l-4.9,7c-0.2,0.3-0.5,0.4-0.8,0.3c-0.3-0.1-0.6-0.3-0.6-0.6l-1.6-8.4
			c-0.3-1.7-1.5-3-3.2-3.5c-1.7-0.5-3.4,0-4.6,1.3l-5.8,6.3c-0.2,0.2-0.6,0.3-0.9,0.2c-0.3-0.1-0.5-0.4-0.5-0.7l-0.5-8.5
			c-0.1-1.7-1.2-3.2-2.7-3.9c-1.6-0.7-3.4-0.4-4.7,0.7l-6.5,5.5c-0.2,0.2-0.6,0.3-0.9,0.1c-0.3-0.1-0.5-0.4-0.5-0.8c0,0,0,0,0,0
			l0.5-8.5c0.1-1.8-0.8-3.4-2.4-4.2c-1.5-0.8-3.2-0.7-4.6,0.2l-7.1,4.7c-0.4,0.2-0.7,0.1-0.8,0c-0.3-0.2-0.5-0.5-0.4-0.9l1.6-8.4
			c0.3-1.8-0.5-3.7-2.1-4.7c-1.3-0.8-3-0.9-4.4-0.2l-7.6,3.8c-0.3,0.1-0.5,0.1-0.8,0c-0.3-0.2-0.5-0.6-0.4-0.9l2.6-8.1
			c0.6-1.9-0.1-3.9-1.7-5c-1.2-0.9-2.7-1.1-4.1-0.6l-8.1,2.8c-0.3,0.1-0.6,0-0.7-0.1c-0.3-0.2-0.4-0.6-0.3-1l3.6-7.8
			c0.9-1.9,0.3-4.1-1.3-5.4c-1.1-0.9-2.4-1.2-3.8-0.9l-8.3,1.8c-0.2,0.1-0.5,0-0.7-0.2c-0.3-0.3-0.4-0.7-0.2-1.1l4.5-7.3
			c1.1-1.8,0.8-4.3-0.8-5.7c-0.9-0.9-2.2-1.3-3.4-1.1l-8.5,0.8c-0.3,0-0.5-0.1-0.6-0.2c-0.3-0.3-0.4-0.8-0.1-1.1l5.3-6.7
			c0.7-0.8,1-1.8,1-2.8c0-2.2-1.6-4.4-4.4-4.5l-8.5-0.3c-0.5,0-0.8-0.4-0.8-0.8c0-0.2,0-0.4,0.2-0.6l6.1-5.9c0.9-0.9,1.4-2,1.4-3.2
			c0-2.2-1.6-4.1-3.8-4.5l-8.4-1.3c-0.5-0.1-0.7-0.5-0.7-0.8c0-0.1,0-0.4,0.3-0.6l6.8-5.2c1.1-0.9,1.8-2.2,1.8-3.6
			c0-2-1.3-3.8-3.3-4.3l-8.2-2.4c-0.4-0.1-0.6-0.5-0.6-0.8c0-0.3,0.1-0.5,0.4-0.7l7.4-4.3c1.4-0.8,2.2-2.3,2.2-3.9
			c0-1.8-1-3.4-2.7-4.2l-7.9-3.3c-0.6-0.3-0.6-1.2,0-1.5l7.9-3.3c1.7-0.7,2.7-2.3,2.7-4.1c0-1.6-0.8-3.1-2.2-3.9l-7.4-4.3
			c-0.3-0.1-0.4-0.4-0.4-0.7c0-0.3,0.2-0.7,0.6-0.8l8.2-2.3c2-0.6,3.3-2.3,3.3-4.3c0-1.4-0.6-2.7-1.8-3.6l-6.8-5.2
			c-0.3-0.2-0.3-0.5-0.3-0.6c0-0.3,0.2-0.7,0.7-0.8l8.4-1.3c2.2-0.3,3.8-2.2,3.8-4.5c0-1.2-0.5-2.3-1.4-3.2l-6.1-6
			c-0.2-0.2-0.2-0.4-0.2-0.6c0-0.4,0.3-0.8,0.8-0.8l8.5-0.3c2.7-0.1,4.4-2.4,4.4-4.5c0-1-0.3-2-1-2.8l-5.3-6.7
			c-0.3-0.3-0.2-0.8,0.1-1.1c0.1-0.1,0.3-0.2,0.6-0.2l8.5,0.8c1.3,0.1,2.5-0.3,3.4-1.1c1.6-1.4,1.9-3.9,0.8-5.7l-4.5-7.3
			c-0.2-0.4-0.1-0.8,0.2-1.1c0.2-0.2,0.4-0.2,0.7-0.2l8.3,1.8c1.3,0.3,2.7,0,3.8-0.9c1.6-1.3,2.1-3.5,1.3-5.4l-3.5-7.8
			c-0.2-0.4,0-0.8,0.3-1c0.1-0.1,0.4-0.2,0.7-0.1l8.1,2.8c1.4,0.5,2.9,0.3,4.1-0.6c1.6-1.1,2.3-3.2,1.7-5l-2.6-8.1
			c-0.1-0.4,0-0.7,0.4-0.9c0.2-0.1,0.5-0.2,0.8,0l7.6,3.8c1.4,0.7,3,0.6,4.4-0.2c1.6-1,2.4-2.8,2.1-4.7l-1.5-8.4
			c-0.1-0.4,0.1-0.7,0.4-0.9c0.1-0.1,0.5-0.2,0.8,0l7.1,4.7c1.4,0.9,3.1,1,4.6,0.2c1.6-0.8,2.5-2.4,2.4-4.2l-0.5-8.6
			c0-0.3,0.2-0.6,0.5-0.7c0.3-0.1,0.6-0.1,0.9,0.1l6.5,5.5c1.3,1.1,3.1,1.4,4.7,0.7c1.6-0.7,2.6-2.1,2.7-3.9l0.5-8.5
			c0-0.3,0.2-0.6,0.5-0.7c0.3-0.1,0.6,0,0.9,0.2l5.8,6.3c1.2,1.3,2.9,1.8,4.6,1.3c1.7-0.5,2.9-1.8,3.2-3.5l1.6-8.4
			c0.1-0.3,0.3-0.6,0.6-0.6c0.3-0.1,0.6,0,0.8,0.3l4.9,7c1,1.4,2.7,2.1,4.4,1.8c1.7-0.3,3.1-1.4,3.6-3.1l2.6-8.1
			c0.1-0.3,0.4-0.5,0.7-0.6c0.3,0,0.6,0.1,0.8,0.4l4,7.5c0.8,1.5,2.4,2.4,4.1,2.4c1.7-0.1,3.2-1.1,4-2.6l3.6-7.7
			c0.1-0.3,0.4-0.5,0.8-0.5C156.7,18.2,157,18.4,157.1,18.7z"/>
	</g>
	<path class="st1" d="M219.2,159.1c0,37.1-30.2,67.3-67.4,67.3c-37.1,0-67.3-30.2-67.3-67.4c0-37.1,30.2-67.3,67.4-67.3
		C189,91.8,219.2,122,219.2,159.1z M85.6,159c0,36.6,29.7,66.3,66.3,66.3c36.6,0,66.3-29.7,66.3-66.3c0-36.6-29.7-66.3-66.3-66.3
		C115.3,92.7,85.6,122.5,85.6,159z"/>
	<g>
		<path class="st0" d="M196.1,57.7c0,3.8-1.9,6.4-2.5,7.2c-1.3,1.5-13.6,11.6-18.8,14.5c-3.5,1.9-7.8,1.1-12.9,0.2
			c-2.9-0.5-6.2-1.1-9.6-1.3c-5.4-0.2-10.6,0.8-14.8,1.7c-3.2,0.7-5.5,1.1-6.9,0.8c-2.9-0.8-6.4-3.8-6.6-3.9
			c-0.4-0.2-11.4-7.1-14.3-11.8c-1.1-1.8-1.7-3.8-1.7-5.8c0-3.9,2.3-7.5,6.6-10.1c7.2-4.5,30.5-7.2,33.4-7.4
			c3.7-0.3,16.1,0.8,27.8,1.8c12.5,1.1,19.3,7.7,20.2,12C196,56.2,196.1,56.9,196.1,57.7z M108.9,59.2c0,1.8,0.5,3.6,1.6,5.2
			c2.9,4.5,14,11.5,14.1,11.5c0.1,0.1,3.6,3,6.3,3.7c1.1,0.3,3.4-0.2,6.4-0.8c4-0.8,9.5-1.9,15-1.7c3.6,0.2,6.9,0.8,9.8,1.3
			c5.1,0.9,9.1,1.6,12.2-0.1c5.3-2.9,17.5-13,18.5-14.2c0.5-0.7,2.3-3.1,2.3-6.5c0-0.7-0.1-1.3-0.2-2c-0.8-3.9-7.4-10.1-19.3-11.2
			c-11.7-1-24.1-2.1-27.6-1.8c-4.2,0.3-26.3,3.2-33,7.2C111.1,52.4,108.9,55.7,108.9,59.2z"/>
		<path class="st0" d="M93.9,99.2c0,4-2.8,7.4-6,11.4c-1.8,2.3-3.9,4.9-5.7,7.9c-2.8,4.6-4.3,9.7-5.6,13.8c-1,3.1-1.6,5.4-2.6,6.4
			c-2,2.2-6.4,3.9-6.6,3.9c-0.4,0.2-11.6,6.6-17.2,7c-2.9,0.2-5.7-0.7-7.7-2.5c-2.4-2.1-3.7-5.3-3.9-9.3c-0.5-8.5,8.2-30.4,9.4-32.9
			c1.5-3.4,8.3-13.8,14.8-23.6c6.9-10.5,15.9-13.3,20.1-12c4.7,1.5,6.6,5.3,7.1,6.5C90.9,77.5,93.8,93.2,93.9,99.2L93.9,99.2z
			 M39.6,137c0,0.2,0,0.4,0,0.7c0.2,3.7,1.5,6.7,3.6,8.6c1.8,1.6,4.3,2.4,7,2.2c5.4-0.4,16.7-6.8,16.8-6.9c0.1,0,4.4-1.7,6.3-3.7
			c0.8-0.8,1.5-3.1,2.4-6c1.2-3.9,2.8-9.3,5.7-14c1.8-3.1,3.9-5.7,5.8-8c3.2-4,5.7-7.2,5.7-10.8l0.5,0l-0.5,0c0-6-3.1-21.6-3.7-23.1
			c-0.4-1-2.2-4.6-6.5-5.9c-3.8-1.2-12.4,1.7-19,11.6C57.6,91,50.5,101.9,49,105.2C47.9,107.7,39.6,128.3,39.6,137z"/>
		<path class="st0" d="M93.9,218.8c0,6.3-2.6,21.3-3.2,23.1c-0.4,1.2-2.3,5.1-7,6.7c-4.1,1.4-13.2-1.3-20.4-11.6
			c-6.7-9.6-13.8-19.9-15.4-23.3c-1.2-2.6-10.4-24.2-10.1-32.7c0.1-4,1.4-7.3,3.7-9.4c2-1.8,4.7-2.8,7.6-2.7
			c5.6,0.3,17,6.4,17.4,6.6c0.1,0,4.5,1.6,6.6,3.7c1,1,1.7,3.2,2.7,6.3c1.3,4,3,9.1,5.9,13.6c1.9,3,4,5.5,5.9,7.7
			c3.3,3.9,6.1,7.3,6.2,11.3L93.9,218.8z M38.8,181.4c0,8.6,8.9,29.4,10,31.9c1.6,3.3,8.6,13.5,15.3,23.1
			c6.8,9.8,15.5,12.5,19.2,11.2c4.3-1.4,5.9-5,6.4-6.1c0.5-1.4,3.2-16.4,3.2-22.7l0-0.4c-0.1-3.6-2.7-6.7-6-10.7
			c-1.9-2.3-4.1-4.8-6-7.9c-2.9-4.7-4.7-10-6-13.9c-0.9-2.9-1.7-5.1-2.5-5.9c-1.9-1.9-6.2-3.5-6.3-3.5c-0.2-0.1-11.7-6.3-17.1-6.5
			c-2.7-0.1-5.1,0.7-6.9,2.4c-2.1,2-3.3,5-3.4,8.7C38.8,181.2,38.8,181.3,38.8,181.4z"/>
		<path class="st0" d="M265.4,182.1c0,8.7-9.2,29.8-10.4,32.3c-1.6,3.3-8.8,13.5-15.5,23.1c-7.3,10.2-16.3,12.8-20.5,11.4
			c-4.7-1.6-6.5-5.5-6.9-6.7c-0.7-1.8-3.2-17.6-3-23.5c0.1-4,3-7.3,6.3-11.3c1.9-2.2,4.1-4.8,5.9-7.7c2.9-4.5,4.6-9.6,6-13.6
			c1.1-3.1,1.8-5.4,2.8-6.3c2.1-2.1,6.5-3.7,6.7-3.7c0.4-0.2,11.8-6.3,17.4-6.5c2.9-0.1,5.6,0.9,7.6,2.7c2.3,2.2,3.6,5.4,3.7,9.4
			L265.4,182.1z M210,219.3c0,6.6,2.5,21.2,3,22.6c0.4,1.1,2,4.6,6.3,6.1c3.7,1.3,12.4-1.3,19.3-11c6.8-9.5,13.9-19.7,15.5-23
			c1.2-2.5,10.3-23.4,10.3-31.9l0-0.3c-0.1-3.8-1.3-6.8-3.3-8.7c-1.8-1.7-4.2-2.5-6.9-2.4c-5.4,0.2-16.9,6.3-17.1,6.4
			c-0.1,0-4.4,1.6-6.4,3.5c-0.8,0.8-1.6,3.1-2.5,5.9c-1.3,3.9-3.1,9.2-6.1,13.8c-1.9,3-4.1,5.6-6,7.8c-3.3,3.9-6,7-6.1,10.6
			C210,218.9,210,219.1,210,219.3z"/>
		<path class="st0" d="M195.3,260c0,0.7-0.1,1.4-0.2,2.1c-0.8,4.3-7.6,10.9-20.1,12.1c-11.7,1.1-24.1,2.2-27.8,2
			c-2.9-0.2-26.2-2.8-33.5-7.2c-4.3-2.6-6.6-6.2-6.6-10.1c0-1.9,0.6-3.9,1.7-5.7c3-4.8,13.9-11.7,14.3-11.9c0.1-0.1,3.6-3.1,6.5-3.9
			c1.3-0.4,3.6,0.1,6.9,0.7c4.2,0.8,9.4,1.8,14.8,1.6c3.5-0.2,6.8-0.8,9.6-1.3c5-0.9,9.4-1.8,12.9,0.1c5.3,2.8,17.6,12.8,18.9,14.3
			C193.4,253.5,195.3,256.2,195.3,260z M108.1,258.9c0,3.6,2.2,6.9,6.2,9.3c6.6,4,28.8,6.8,33,7c3.6,0.2,16-0.9,27.6-2
			c11.9-1.1,18.5-7.4,19.2-11.3c0.1-0.6,0.2-1.3,0.2-1.9c0-3.5-1.8-5.9-2.4-6.6c-1-1.3-13.3-11.3-18.6-14.1c-3.2-1.7-7.2-1-12.2,0
			c-2.9,0.5-6.2,1.2-9.8,1.3c-5.5,0.3-11-0.8-15-1.6c-3-0.6-5.3-1-6.4-0.7c-2.6,0.7-6.1,3.7-6.2,3.7c-0.2,0.1-11.2,7.1-14.1,11.7
			C108.7,255.4,108.1,257.2,108.1,258.9z"/>
		<path class="st0" d="M265.2,136.9c0,0.2,0,0.3,0,0.5c-0.2,4-1.5,7.3-3.8,9.4c-2,1.8-4.7,2.7-7.7,2.6c-5.6-0.3-16.9-6.5-17.4-6.8
			c-0.1,0-4.5-1.7-6.5-3.8c-1-1-1.7-3.2-2.7-6.4c-1.3-4.1-2.9-9.1-5.8-13.7c-1.8-3-4-5.5-5.8-7.8c-3.3-4-6.1-7.4-6.1-11.3l0-0.3
			c0-6,2.7-21.5,3.4-23.2c0.5-1.2,2.3-5,7-6.6c4.2-1.4,13.2,1.4,20.3,11.7c6.6,9.7,13.6,20,15.2,23.4
			C256.5,107.1,265.2,128.1,265.2,136.9z M210.4,99.4l0,0.2c0,3.6,2.6,6.8,5.9,10.7c1.9,2.3,4,4.9,5.9,7.9c2.9,4.7,4.6,10,5.9,13.9
			c0.9,2.9,1.7,5.2,2.4,6c1.9,2,6.2,3.6,6.2,3.6c0.2,0.1,11.7,6.4,17,6.7c2.7,0.1,5.1-0.7,6.9-2.3c2.1-1.9,3.3-4.9,3.5-8.7
			c0.3-8.3-8.6-29.8-9.8-32.3c-1.5-3.3-8.5-13.6-15.1-23.2c-6.7-9.8-15.4-12.6-19.2-11.3c-4.3,1.4-6,5-6.4,6
			C213.2,78,210.4,93.1,210.4,99.4z"/>
	</g>
	<g>
		<path class="st0" d="M75.6,159c0,4.2-3.4,7.7-7.7,7.7c-4.2,0-7.7-3.4-7.7-7.7c0-4.2,3.4-7.7,7.7-7.6
			C72.1,151.3,75.6,154.8,75.6,159z M61.3,159c0,3.6,3,6.6,6.6,6.6c3.6,0,6.6-3,6.6-6.6c0-3.6-3-6.6-6.6-6.6
			C64.3,152.4,61.3,155.4,61.3,159z"/>
		<path class="st0" d="M243.5,158.9c0,4.2-3.4,7.7-7.7,7.7c-4.2,0-7.7-3.4-7.7-7.7c0-4.2,3.4-7.7,7.7-7.6
			C240.1,151.2,243.5,154.6,243.5,158.9z M229.3,158.9c0,3.6,3,6.6,6.6,6.6c3.6,0,6.6-3,6.6-6.6c0-3.6-3-6.6-6.6-6.6
			C232.2,152.3,229.3,155.2,229.3,158.9z"/>
		<path class="st0" d="M201.2,86.3c0,4.2-3.4,7.7-7.7,7.7c-4.2,0-7.7-3.4-7.7-7.7c0-4.2,3.4-7.7,7.7-7.7
			C197.8,78.7,201.2,82.1,201.2,86.3z M187,86.3c0,3.6,3,6.6,6.6,6.6c3.6,0,6.6-3,6.6-6.6c0-3.6-3-6.6-6.6-6.6
			C189.9,79.7,187,82.7,187,86.3z"/>
		<path class="st0" d="M118.7,85.5c0,4.2-3.4,7.7-7.7,7.7c-4.2,0-7.7-3.4-7.7-7.7c0-4.2,3.4-7.7,7.7-7.7
			C115.3,77.9,118.7,81.3,118.7,85.5z M104.5,85.5c0,3.6,3,6.6,6.6,6.6c3.6,0,6.6-3,6.6-6.6c0-3.6-3-6.6-6.6-6.6
			S104.5,81.9,104.5,85.5z"/>
		<path class="st0" d="M117.9,231.8c0,4.2-3.4,7.7-7.7,7.7c-4.2,0-7.7-3.4-7.7-7.7c0-4.2,3.4-7.7,7.7-7.7
			C114.5,224.1,117.9,227.6,117.9,231.8z M103.7,231.8c0,3.6,3,6.6,6.6,6.6c3.6,0,6.6-3,6.6-6.6s-3-6.6-6.6-6.6
			C106.6,225.2,103.7,228.2,103.7,231.8z"/>
		<path class="st0" d="M202.1,231.2c0,4.2-3.4,7.7-7.7,7.7c-4.2,0-7.7-3.4-7.7-7.7c0-4.2,3.4-7.7,7.7-7.7
			C198.6,223.6,202.1,227,202.1,231.2z M187.8,231.2c0,3.6,3,6.6,6.6,6.6c3.6,0,6.6-3,6.6-6.6c0-3.6-3-6.6-6.6-6.6
			C190.8,224.6,187.8,227.6,187.8,231.2z"/>
	</g>
</g>
<g id="corna_lado">
	<g>
		<path class="st2" d="M248.6,448.3l-2.1-2.3l-28,0l-0.7,0l-132.3-0.1v0l-28.7,0l-2.1,2.2l-33,0l-3.9-2.6l-7,3.1l0,5.6l0,0.1l0,5.9
			l7,3.1l3.9-2.6l33,0l2.1,2.3l27.9,0l0.8,0l132.3,0.1v0l28.7,0l2.1-2.2l33,0l3.9,2.6l7-3.1l0-5.9l0-0.1l0-5.6l-7-3.1l-3.9,2.6
			L248.6,448.3z M246.1,447l2.1,2.3l3.8,0l10.6,10.6l-5.9,0L243.8,447L246.1,447z M281.1,456.8l0,3.1l-2.4,0l-10.6-10.6l5.6,0
			L281.1,456.8z M275.1,449.3l6,0l0,6L275.1,449.3z M277.2,459.9l-6,0l-10.6-10.6l6,0L277.2,459.9z M269.8,459.9l-5.7,0l-10.6-10.6
			l5.7,0L269.8,459.9z M242.4,447l12.9,12.9l-6,0L239,449.2l0-2.2L242.4,447z M238,447l0,2.4l-0.1,0.1l0.1,0.1l0,3.8l-8,0l0-6.4
			L238,447z M228.9,447l0,6.7l-0.2,0.2l-6.6-7L228.9,447z M220.8,447l7.4,7.9l-2.1,3.4l-7.3-7l0-4.2L220.8,447z M218.8,458.7l0-4.9
			l0-0.5l0-0.7l6.8,6.5l-1.8,2.9l0.2,0.1l-1.2,0L218.8,458.7z M221.2,462.1l-2.4,0l0-0.1l0-1.9L221.2,462.1z M229.7,454.4l8.6,0
			l4.7,7.7l-18,0L229.7,454.4z M64.4,446.9l0,2.2l-10.3,10.7l-6,0L61,446.9L64.4,446.9z M65.5,449.4L65.5,449.4l-0.1-2.5l8,0l0,6.4
			l-8,0L65.5,449.4L65.5,449.4z M74.4,446.9l6.8,0l-6.6,7l-0.2-0.2L74.4,446.9z M82.6,446.9l2,0l0,4.2l-7.3,7l-2.1-3.4L82.6,446.9z
			 M57.3,446.9l2.2,0l-12.9,12.8l-5.9,0l10.6-10.6l3.8,0L57.3,446.9z M29.7,449.2l5.6,0l-10.6,10.6l-2.4,0l0-3.1L29.7,449.2z
			 M22.3,455.2l0-6l6,0L22.3,455.2z M36.7,449.2l6,0l-10.6,10.6l-6,0L36.7,449.2z M44.2,449.2l5.7,0l-10.6,10.6l-5.7,0L44.2,449.2z
			 M17.7,462.2l-5.9-2.6l0-5.3l0-0.1l0-4.9l5.9-2.6l3.6,2.3l0,10.8L17.7,462.2z M57.3,462l-2-2.1l9.1-9.4l0,2.9l-5.2,8.6L57.3,462z
			 M60.4,462l4.7-7.7l8.6,0l4.8,7.7L60.4,462z M79.4,462l0.2-0.1l-1.8-2.9l6.8-6.5l0,0.7l0,0.5l0,4.9l-3.9,3.4L79.4,462z M82.1,462
			l2.4-2l0,2L82.1,462z M85.6,453.7l0-0.5l0-1.7l0,0l0,0l0-4.4l132.3,0.1l0,4.4l0,0l0,0l0,1.7l0,0.5l0,8.1l-132.3-0.1L85.6,453.7z
			 M246.1,462.1l-1.9,0l-5.2-8.6l0-2.9l9,9.4L246.1,462.1z M285.7,446.9l5.9,2.6l0,4.9l0,0.1l0,5.3l-5.9,2.6l-3.6-2.3l0-10.8
			L285.7,446.9z"/>
	</g>
</g>
<g id="A">
	<path class="st1" d="M236.2,159.1L236.2,159.1c0,0.7,0,1.4,0,2.1l-1.1,0c0-0.7,0-1.4,0-2.1L236.2,159.1z M236.2,157l-1.1,0
		c0-0.7,0-1.4-0.1-2.1l1.1-0.1C236.1,155.5,236.1,156.2,236.2,157z M236.1,163.4c0,0.7-0.1,1.4-0.1,2.1l-1.1-0.1
		c0.1-0.7,0.1-1.4,0.1-2.1L236.1,163.4z M236,152.7l-1.1,0.1c-0.1-0.7-0.1-1.4-0.2-2.1l1.1-0.1C235.8,151.3,235.9,152,236,152.7z
		 M235.8,167.6c-0.1,0.7-0.2,1.4-0.2,2.1l-1.1-0.1c0.1-0.7,0.2-1.4,0.2-2.1L235.8,167.6z M235.5,148.4l-1.1,0.1
		c-0.1-0.7-0.2-1.4-0.3-2.1l1.1-0.2C235.3,147,235.4,147.7,235.5,148.4z M235.2,171.9c-0.1,0.7-0.2,1.4-0.3,2.1l-1-0.2
		c0.1-0.7,0.2-1.4,0.3-2.1L235.2,171.9z M234.9,144.2l-1,0.2c-0.1-0.7-0.3-1.4-0.4-2.1l1-0.2C234.6,142.8,234.8,143.5,234.9,144.2z
		 M234.5,176.1c-0.1,0.7-0.3,1.4-0.5,2.1l-1-0.2c0.2-0.7,0.3-1.4,0.4-2.1L234.5,176.1z M234,140l-1,0.2c-0.2-0.7-0.3-1.4-0.5-2
		l1-0.3C233.7,138.6,233.9,139.3,234,140z M233.5,180.2c-0.2,0.7-0.4,1.4-0.6,2.1l-1-0.3c0.2-0.7,0.4-1.4,0.6-2L233.5,180.2z
		 M233,135.9l-1,0.3c-0.2-0.7-0.4-1.3-0.6-2l1-0.3C232.6,134.5,232.8,135.2,233,135.9z M232.3,184.3c-0.2,0.7-0.4,1.4-0.7,2l-1-0.3
		c0.2-0.7,0.4-1.3,0.7-2L232.3,184.3z M231.7,131.8l-1,0.3c-0.2-0.7-0.5-1.3-0.7-2l1-0.4C231.2,130.5,231.5,131.1,231.7,131.8z
		 M231,188.4c-0.2,0.7-0.5,1.3-0.8,2l-1-0.4c0.3-0.7,0.5-1.3,0.8-2L231,188.4z M230.2,127.8l-1,0.4c-0.3-0.7-0.5-1.3-0.8-1.9l1-0.4
		C229.7,126.5,229.9,127.2,230.2,127.8z M229.4,192.4c-0.3,0.7-0.6,1.3-0.9,2l-1-0.4c0.3-0.6,0.6-1.3,0.9-1.9L229.4,192.4z
		 M228.5,123.9l-1,0.4c-0.3-0.6-0.6-1.3-0.9-1.9l1-0.5C227.9,122.6,228.2,123.3,228.5,123.9z M227.6,196.3c-0.3,0.6-0.6,1.3-1,1.9
		l-0.9-0.5c0.3-0.6,0.6-1.3,1-1.9L227.6,196.3z M226.6,120.1l-0.9,0.5c-0.3-0.6-0.7-1.2-1-1.9l0.9-0.5
		C226,118.8,226.3,119.4,226.6,120.1z M225.6,200.1c-0.3,0.6-0.7,1.2-1.1,1.9l-0.9-0.5c0.4-0.6,0.7-1.2,1-1.8L225.6,200.1z
		 M224.6,116.3l-0.9,0.5c-0.4-0.6-0.7-1.2-1.1-1.8l0.9-0.6C223.8,115.1,224.2,115.7,224.6,116.3z M223.4,203.7
		c-0.4,0.6-0.8,1.2-1.2,1.8l-0.9-0.6c0.4-0.6,0.8-1.2,1.1-1.8L223.4,203.7z M222.3,112.7l-0.9,0.6c-0.4-0.6-0.8-1.2-1.2-1.7l0.9-0.6
		C221.5,111.5,221.9,112.1,222.3,112.7z M221,207.3c-0.4,0.6-0.8,1.2-1.2,1.7l-0.9-0.6c0.4-0.6,0.8-1.1,1.2-1.7L221,207.3z
		 M219.9,109.2l-0.9,0.6c-0.4-0.6-0.8-1.1-1.3-1.7l0.8-0.7C219,108.1,219.5,108.7,219.9,109.2z M218.5,210.7
		c-0.4,0.6-0.9,1.1-1.3,1.7l-0.8-0.7c0.4-0.5,0.9-1.1,1.3-1.7L218.5,210.7z M217.3,105.9l-0.8,0.7c-0.4-0.5-0.9-1.1-1.4-1.6l0.8-0.7
		C216.4,104.8,216.8,105.3,217.3,105.9z M215.8,214.1c-0.5,0.5-0.9,1.1-1.4,1.6l-0.8-0.7c0.5-0.5,0.9-1,1.4-1.6L215.8,214.1z
		 M214.5,102.6l-0.8,0.7c-0.5-0.5-0.9-1-1.4-1.5l0.8-0.7C213.5,101.6,214,102.1,214.5,102.6z M212.9,217.2c-0.5,0.5-1,1-1.5,1.5
		l-0.8-0.8c0.5-0.5,1-1,1.5-1.5L212.9,217.2z M211.6,99.5l-0.8,0.8c-0.5-0.5-1-1-1.5-1.5L210,98C210.5,98.5,211,99,211.6,99.5z
		 M209.9,220.2c-0.5,0.5-1,1-1.6,1.5l-0.7-0.8c0.5-0.5,1-0.9,1.5-1.4L209.9,220.2z M208.5,96.6l-0.7,0.8c-0.5-0.5-1-0.9-1.6-1.4
		l0.7-0.8C207.4,95.6,207.9,96.1,208.5,96.6z M206.7,223.1c-0.5,0.5-1.1,0.9-1.6,1.4l-0.7-0.8c0.5-0.4,1.1-0.9,1.6-1.4L206.7,223.1z
		 M205.2,93.8l-0.7,0.8c-0.5-0.4-1.1-0.9-1.6-1.3l0.7-0.8C204.1,92.9,204.7,93.3,205.2,93.8z M203.4,225.8c-0.6,0.4-1.1,0.9-1.7,1.3
		l-0.6-0.9c0.6-0.4,1.1-0.8,1.7-1.3L203.4,225.8z M201.8,91.2l-0.6,0.9c-0.6-0.4-1.1-0.8-1.7-1.2l0.6-0.9
		C200.7,90.3,201.3,90.7,201.8,91.2z M200,228.3c-0.6,0.4-1.2,0.8-1.8,1.2l-0.6-0.9c0.6-0.4,1.2-0.8,1.7-1.2L200,228.3z M198.3,88.7
		l-0.6,0.9c-0.6-0.4-1.2-0.8-1.8-1.1l0.6-0.9C197.1,87.9,197.7,88.3,198.3,88.7z M196.4,230.7c-0.6,0.4-1.2,0.7-1.8,1.1l-0.5-0.9
		c0.6-0.4,1.2-0.7,1.8-1.1L196.4,230.7z M194.7,86.4l-0.5,0.9c-0.6-0.4-1.2-0.7-1.8-1.1l0.5-0.9C193.5,85.7,194.1,86.1,194.7,86.4z
		 M192.8,232.8c-0.6,0.3-1.2,0.7-1.9,1l-0.5-0.9c0.6-0.3,1.2-0.7,1.9-1L192.8,232.8z M191,84.4l-0.5,0.9c-0.6-0.3-1.2-0.6-1.9-1
		l0.5-1C189.7,83.7,190.3,84,191,84.4z M189,234.8c-0.6,0.3-1.3,0.6-1.9,0.9l-0.4-1c0.6-0.3,1.3-0.6,1.9-0.9L189,234.8z M187.1,82.5
		l-0.4,1c-0.6-0.3-1.3-0.6-1.9-0.9l0.4-1C185.8,81.9,186.5,82.2,187.1,82.5z M185.1,236.6c-0.6,0.3-1.3,0.6-2,0.8l-0.4-1
		c0.7-0.3,1.3-0.5,1.9-0.8L185.1,236.6z M183.2,80.8l-0.4,1c-0.7-0.3-1.3-0.5-2-0.8l0.4-1C181.9,80.2,182.5,80.5,183.2,80.8z
		 M181.2,238.2c-0.7,0.2-1.3,0.5-2,0.7l-0.3-1c0.7-0.2,1.3-0.5,2-0.7L181.2,238.2z M179.2,79.3l-0.3,1c-0.7-0.2-1.3-0.4-2-0.7l0.3-1
		C177.8,78.8,178.5,79,179.2,79.3z M177.1,239.6c-0.7,0.2-1.4,0.4-2,0.6l-0.3-1c0.7-0.2,1.4-0.4,2-0.6L177.1,239.6z M175.1,78
		l-0.3,1c-0.7-0.2-1.4-0.4-2-0.6l0.3-1C173.7,77.6,174.4,77.8,175.1,78z M173,240.7c-0.7,0.2-1.4,0.3-2.1,0.5l-0.2-1
		c0.7-0.2,1.4-0.3,2-0.5L173,240.7z M171,76.9l-0.2,1c-0.7-0.2-1.4-0.3-2.1-0.5l0.2-1C169.6,76.6,170.3,76.8,171,76.9z M168.9,241.7
		c-0.7,0.1-1.4,0.3-2.1,0.4l-0.2-1c0.7-0.1,1.4-0.3,2.1-0.4L168.9,241.7z M166.8,76.1l-0.2,1c-0.7-0.1-1.4-0.2-2.1-0.3l0.2-1.1
		C165.4,75.8,166.1,75.9,166.8,76.1z M164.7,242.5c-0.7,0.1-1.4,0.2-2.1,0.3l-0.1-1.1c0.7-0.1,1.4-0.2,2.1-0.3L164.7,242.5z
		 M162.6,75.4l-0.1,1.1c-0.7-0.1-1.4-0.2-2.1-0.2l0.1-1.1C161.1,75.3,161.8,75.3,162.6,75.4z M160.4,243c-0.7,0.1-1.4,0.1-2.1,0.2
		l-0.1-1.1c0.7-0.1,1.4-0.1,2.1-0.2L160.4,243z M158.3,75l-0.1,1.1c-0.7-0.1-1.4-0.1-2.1-0.1l0.1-1.1
		C156.9,74.9,157.6,74.9,158.3,75z M156.2,243.3c-0.7,0-1.4,0.1-2.1,0.1l0-1.1c0.7,0,1.4,0,2.1-0.1L156.2,243.3z M154,74.8l0,1.1
		c-0.7,0-1.4,0-2.1,0l-0.1,0l0-1.1l0.1,0C152.6,74.8,153.3,74.8,154,74.8z M151.9,243.4L151.9,243.4c-0.8,0-1.4,0-2.1,0l0-1.1
		c0.7,0,1.4,0,2,0L151.9,243.4z M149.7,75.8c-0.7,0-1.4,0-2.1,0.1l-0.1-1.1c0.7,0,1.4-0.1,2.1-0.1L149.7,75.8z M147.7,242.2
		l-0.1,1.1c-0.7,0-1.4-0.1-2.1-0.1l0.1-1.1C146.3,242.2,147,242.2,147.7,242.2z M145.5,76.1c-0.7,0.1-1.4,0.1-2.1,0.2l-0.1-1.1
		c0.7-0.1,1.4-0.1,2.1-0.2L145.5,76.1z M143.5,241.9l-0.1,1.1c-0.7-0.1-1.4-0.2-2.1-0.2l0.1-1.1
		C142.1,241.8,142.8,241.9,143.5,241.9z M141.3,76.5c-0.7,0.1-1.4,0.2-2.1,0.3l-0.2-1.1c0.7-0.1,1.4-0.2,2.1-0.3L141.3,76.5z
		 M139.3,241.4l-0.2,1.1c-0.7-0.1-1.4-0.2-2.1-0.3l0.2-1C137.9,241.2,138.6,241.3,139.3,241.4z M137.1,77.1
		c-0.7,0.1-1.4,0.3-2.1,0.4l-0.2-1c0.7-0.1,1.4-0.3,2.1-0.4L137.1,77.1z M135.1,240.7l-0.2,1c-0.7-0.1-1.4-0.3-2.1-0.5l0.2-1
		C133.7,240.4,134.4,240.5,135.1,240.7z M133,78c-0.7,0.2-1.4,0.3-2,0.5l-0.3-1c0.7-0.2,1.4-0.3,2.1-0.5L133,78z M131,239.7l-0.3,1
		c-0.7-0.2-1.4-0.4-2.1-0.6l0.3-1C129.7,239.4,130.3,239.5,131,239.7z M128.9,79c-0.7,0.2-1.3,0.4-2,0.6l-0.3-1
		c0.7-0.2,1.4-0.4,2-0.6L128.9,79z M127,238.6l-0.3,1c-0.7-0.2-1.4-0.4-2-0.7l0.3-1C125.6,238.1,126.3,238.3,127,238.6z M124.8,80.3
		c-0.7,0.2-1.3,0.5-2,0.7l-0.4-1c0.7-0.2,1.3-0.5,2-0.7L124.8,80.3z M122.9,237.2l-0.4,1c-0.7-0.2-1.3-0.5-2-0.8l0.4-1
		C121.6,236.7,122.3,236.9,122.9,237.2z M120.9,81.8c-0.7,0.3-1.3,0.5-1.9,0.8l-0.4-1c0.7-0.3,1.3-0.6,2-0.8L120.9,81.8z M119,235.6
		l-0.4,1c-0.7-0.3-1.3-0.6-2-0.9l0.4-1C117.7,235.1,118.4,235.3,119,235.6z M117,83.4c-0.6,0.3-1.3,0.6-1.9,0.9l-0.5-1
		c0.6-0.3,1.3-0.6,1.9-0.9L117,83.4z M115.2,233.9l-0.5,1c-0.6-0.3-1.3-0.6-1.9-1l0.5-0.9C113.9,233.2,114.5,233.5,115.2,233.9z
		 M113.3,85.3c-0.6,0.3-1.2,0.7-1.9,1l-0.5-0.9c0.6-0.3,1.2-0.7,1.9-1L113.3,85.3z M111.4,231.9l-0.5,0.9c-0.6-0.3-1.2-0.7-1.9-1.1
		l0.5-0.9C110.2,231.2,110.8,231.6,111.4,231.9z M109.6,87.3c-0.6,0.4-1.2,0.7-1.8,1.1l-0.6-0.9c0.6-0.4,1.2-0.7,1.8-1.1L109.6,87.3
		z M107.8,229.7l-0.6,0.9c-0.6-0.4-1.2-0.8-1.8-1.2l0.6-0.9C106.6,229,107.2,229.4,107.8,229.7z M106,89.6c-0.6,0.4-1.2,0.8-1.7,1.2
		l-0.6-0.9c0.6-0.4,1.2-0.8,1.8-1.2L106,89.6z M104.3,227.4l-0.6,0.9c-0.6-0.4-1.2-0.8-1.7-1.2l0.6-0.9
		C103.1,226.6,103.7,227,104.3,227.4z M102.6,92c-0.6,0.4-1.1,0.8-1.7,1.3l-0.7-0.8c0.6-0.4,1.1-0.9,1.7-1.3L102.6,92z M100.9,224.9
		l-0.7,0.8c-0.6-0.4-1.1-0.9-1.7-1.3l0.7-0.8C99.8,224,100.3,224.5,100.9,224.9z M99.2,94.6c-0.5,0.4-1.1,0.9-1.6,1.4l-0.7-0.8
		c0.5-0.5,1.1-0.9,1.6-1.4L99.2,94.6z M97.6,222.2l-0.7,0.8c-0.5-0.5-1.1-0.9-1.6-1.4l0.7-0.8C96.5,221.3,97.1,221.8,97.6,222.2z
		 M96,97.3c-0.5,0.5-1,0.9-1.5,1.4L93.8,98c0.5-0.5,1-1,1.6-1.5L96,97.3z M94.5,219.4l-0.7,0.8c-0.5-0.5-1-1-1.5-1.5l0.8-0.8
		C93.5,218.4,94,218.9,94.5,219.4z M93,100.2c-0.5,0.5-1,1-1.5,1.5l-0.8-0.7c0.5-0.5,1-1,1.5-1.5L93,100.2z M91.5,216.4l-0.8,0.7
		c-0.5-0.5-1-1-1.5-1.6l0.8-0.7C90.5,215.4,91,215.9,91.5,216.4z M90.1,103.3c-0.5,0.5-0.9,1-1.4,1.6l-0.8-0.7
		c0.5-0.5,0.9-1.1,1.4-1.6L90.1,103.3z M88.7,213.3l-0.8,0.7c-0.5-0.5-0.9-1.1-1.4-1.6l0.8-0.7C87.8,212.2,88.2,212.8,88.7,213.3z
		 M87.3,106.5c-0.4,0.5-0.9,1.1-1.3,1.7l-0.8-0.7c0.4-0.6,0.9-1.1,1.3-1.7L87.3,106.5z M86,210l-0.8,0.7c-0.4-0.6-0.9-1.1-1.3-1.7
		l0.9-0.6C85.1,208.9,85.6,209.5,86,210z M84.7,109.8c-0.4,0.6-0.8,1.1-1.2,1.7l-0.9-0.6c0.4-0.6,0.8-1.2,1.2-1.7L84.7,109.8z
		 M83.5,206.6l-0.9,0.6c-0.4-0.6-0.8-1.2-1.2-1.8l0.9-0.6C82.7,205.5,83.1,206.1,83.5,206.6z M82.3,113.3c-0.4,0.6-0.8,1.2-1.1,1.8
		l-0.9-0.6c0.4-0.6,0.8-1.2,1.2-1.8L82.3,113.3z M81.2,203.1l-0.9,0.6c-0.4-0.6-0.7-1.2-1.1-1.8l0.9-0.5
		C80.5,201.9,80.8,202.5,81.2,203.1z M80.1,116.9c-0.4,0.6-0.7,1.2-1.1,1.8l-0.9-0.5c0.3-0.6,0.7-1.2,1.1-1.9L80.1,116.9z M79,199.5
		l-0.9,0.5c-0.3-0.6-0.7-1.2-1-1.9l0.9-0.5C78.4,198.3,78.7,198.9,79,199.5z M78,120.5c-0.3,0.6-0.6,1.3-1,1.9l-1-0.5
		c0.3-0.6,0.6-1.3,1-1.9L78,120.5z M77.1,195.8l-1,0.5c-0.3-0.6-0.6-1.3-0.9-1.9l1-0.4C76.5,194.5,76.8,195.2,77.1,195.8z
		 M76.2,124.3c-0.3,0.6-0.6,1.3-0.9,1.9l-1-0.4c0.3-0.7,0.6-1.3,0.9-2L76.2,124.3z M75.3,192l-1,0.4c-0.3-0.7-0.6-1.3-0.8-2l1-0.4
		C74.8,190.7,75.1,191.3,75.3,192z M74.5,128.2c-0.3,0.7-0.5,1.3-0.8,2l-1-0.4c0.2-0.7,0.5-1.3,0.8-2L74.5,128.2z M73.8,188.1
		l-1,0.4c-0.2-0.7-0.5-1.3-0.7-2l1-0.3C73.3,186.7,73.5,187.4,73.8,188.1z M73,132.2c-0.2,0.7-0.4,1.3-0.7,2l-1-0.3
		c0.2-0.7,0.4-1.4,0.7-2L73,132.2z M72.4,184.1l-1,0.3c-0.2-0.7-0.4-1.4-0.6-2l1-0.3C72,182.7,72.2,183.4,72.4,184.1z M71.8,136.2
		c-0.2,0.7-0.4,1.4-0.6,2l-1-0.3c0.2-0.7,0.4-1.4,0.6-2.1L71.8,136.2z M71.2,180l-1,0.3c-0.2-0.7-0.3-1.4-0.5-2.1l1-0.2
		C70.9,178.6,71.1,179.3,71.2,180z M70.7,140.3c-0.2,0.7-0.3,1.4-0.4,2.1l-1-0.2c0.1-0.7,0.3-1.4,0.5-2.1L70.7,140.3z M70.3,175.9
		l-1,0.2c-0.1-0.7-0.3-1.4-0.4-2.1l1-0.2C70,174.5,70.2,175.2,70.3,175.9z M69.9,144.4c-0.1,0.7-0.2,1.4-0.3,2.1l-1.1-0.2
		c0.1-0.7,0.2-1.4,0.3-2.1L69.9,144.4z M69.6,171.7l-1.1,0.2c-0.1-0.7-0.2-1.4-0.3-2.1l1.1-0.1C69.3,170.4,69.4,171.1,69.6,171.7z
		 M69.2,148.6c-0.1,0.7-0.2,1.4-0.2,2.1l-1.1-0.1c0.1-0.7,0.2-1.4,0.2-2.1L69.2,148.6z M69,167.6l-1.1,0.1c-0.1-0.7-0.1-1.4-0.2-2.1
		l1.1-0.1C68.9,166.2,68.9,166.9,69,167.6z M68.8,152.8c-0.1,0.7-0.1,1.4-0.1,2.1l-1.1-0.1c0-0.7,0.1-1.4,0.1-2.1L68.8,152.8z
		 M68.7,163.4l-1.1,0.1c0-0.7-0.1-1.4-0.1-2.1l1.1,0C68.6,161.9,68.7,162.7,68.7,163.4z M68.6,157c0,0.7,0,1.3,0,2l-1.1,0.1l0-0.1
		c0-0.7,0-1.4,0-2L68.6,157z"/>
</g>
<g id="B">
	<g>
		<rect x="68.9" y="467.1" class="st3" width="0.9" height="97.9"/>
		<rect x="233.1" y="467.2" class="st3" width="0.9" height="97.9"/>
		<polygon class="st3" points="227,560.6 231.7,557.3 227.1,554 227.1,556.9 75.1,556.9 75.1,553.8 70.5,557.2 75.2,560.5 
			75.1,557.8 227.1,557.8 		"/>
		<rect x="84.6" y="352.1" class="st3" width="0.9" height="88.5"/>
		<rect x="217.3" y="352.2" class="st3" width="0.9" height="88.5"/>
		<polygon class="st3" points="210.3,363.2 214.9,359.8 210.2,356.5 210.3,359.5 91.1,359.4 91.1,356.4 86.4,359.7 91.1,363 
			91.1,360.2 210.3,360.2 		"/>
	</g>
</g>
<g id="C">
	<g>
		<rect x="71.2" y="151.3" class="st4" width="1" height="1"/>
		<rect x="109.1" y="151.4" class="st4" width="1.9" height="1"/>
		<rect x="105.2" y="151.4" class="st4" width="1.9" height="1"/>
		<rect x="112.9" y="151.4" class="st4" width="1.9" height="1"/>
		<rect x="120.7" y="151.4" class="st4" width="1.9" height="1"/>
		<rect x="124.6" y="151.4" class="st4" width="1.9" height="1"/>
		<rect x="101.3" y="151.4" class="st4" width="1.9" height="1"/>
		<rect x="116.8" y="151.4" class="st4" width="1.9" height="1"/>
		<rect x="78" y="151.4" class="st4" width="1.9" height="1"/>
		<rect x="81.9" y="151.4" class="st4" width="1.9" height="1"/>
		<rect x="74.1" y="151.4" class="st4" width="1.9" height="1"/>
		<rect x="97.4" y="151.4" class="st4" width="1.9" height="1"/>
		<rect x="89.7" y="151.4" class="st4" width="1.9" height="1"/>
		<rect x="85.8" y="151.4" class="st4" width="1.9" height="1"/>
		<rect x="93.5" y="151.4" class="st4" width="1.9" height="1"/>
		<rect x="128.5" y="151.4" class="st4" width="1" height="1"/>
		<rect x="70.4" y="165.3" class="st4" width="1" height="1"/>
		<rect x="112.2" y="165.4" class="st4" width="1.9" height="1"/>
		<rect x="108.3" y="165.4" class="st4" width="1.9" height="1"/>
		<rect x="104.4" y="165.4" class="st4" width="1.9" height="1"/>
		<rect x="100.5" y="165.4" class="st4" width="1.9" height="1"/>
		<rect x="96.7" y="165.4" class="st4" width="1.9" height="1"/>
		<rect x="123.8" y="165.4" class="st4" width="1.9" height="1"/>
		<rect x="116.1" y="165.4" class="st4" width="1.9" height="1"/>
		<rect x="119.9" y="165.4" class="st4" width="1.9" height="1"/>
		<rect x="77.3" y="165.4" class="st4" width="1.9" height="1"/>
		<rect x="81.1" y="165.4" class="st4" width="1.9" height="1"/>
		<rect x="73.4" y="165.4" class="st4" width="1.9" height="1"/>
		<rect x="88.9" y="165.4" class="st4" width="1.9" height="1"/>
		<rect x="85" y="165.4" class="st4" width="1.9" height="1"/>
		<rect x="92.8" y="165.4" class="st4" width="1.9" height="1"/>
		<rect x="127.7" y="165.4" class="st4" width="1" height="1"/>
		<polygon class="st4" points="126,157.7 126,160.4 123.1,160.4 126.4,165.1 129.7,160.4 127,160.4 127,157.7 129.8,157.7 
			126.4,153.1 123.1,157.7 		"/>
	</g>
</g>
<g id="D">
	
		<rect x="148.2" y="599.4" transform="matrix(5.168210e-04 -1 1 5.168210e-04 -451.9323 757.1579)" class="st0" width="9.2" height="10.5"/>
</g>
</svg>
