<?xml version="1.0" encoding="utf-8"?>
<!-- Generator: Adobe Illustrator 23.0.0, SVG Export Plug-In . SVG Version: 6.00 Build 0)  -->
<svg version="1.1" xmlns="http://www.w3.org/2000/svg" xmlns:xlink="http://www.w3.org/1999/xlink" x="0px" y="0px"
	 viewBox="0 0 295.15 526.51" style="enable-background:new 0 0 295.15 526.51;" xml:space="preserve">
<style type="text/css">
	.st0{fill:#E30613;}
	.st1{fill:#E83C3F;}
	.st2{fill:#32A936;}
	.st3{fill:#D41116;}
	.st4{fill:#50B15E;}
</style>
<g id="Corona">
	<path class="st0" d="M288.69,140.34c0,0.69-0.38,1.31-1,1.62l-7.63,3.82c-1.21,0.61-1.94,1.78-1.94,3.13
		c0,1.36,0.72,2.53,1.94,3.13l7.63,3.82c0.62,0.31,1,0.93,1,1.62c0,0.78-0.47,1.45-1.21,1.71l-8.04,2.85
		c-1.42,0.5-2.33,1.8-2.33,3.32c0,1.19,0.57,2.25,1.56,2.91l7.11,4.73c0.51,0.34,0.81,0.89,0.81,1.5c0,0.86-0.58,1.59-1.42,1.78
		l-8.33,1.84c-1.62,0.36-2.75,1.77-2.75,3.44c0,1.02,0.43,1.96,1.22,2.64l6.47,5.56c0.41,0.35,0.63,0.84,0.63,1.37
		c0,0.95-0.71,1.73-1.64,1.81l-8.5,0.8c-2.07,0.2-3.18,1.95-3.18,3.51c0,0.87,0.32,1.68,0.92,2.33l5.74,6.32
		c0.64,0.71,0.59,1.87-0.08,2.53c-0.35,0.34-0.82,0.52-1.31,0.5l-8.53-0.25c-0.96-0.03-1.86,0.32-2.53,0.97
		c-1.21,1.17-1.43,3.15-0.44,4.55l4.92,6.97c0.53,0.76,0.38,1.83-0.31,2.43c-0.4,0.35-0.92,0.49-1.45,0.41l-8.43-1.29
		c-1.03-0.16-2.02,0.12-2.8,0.79c-1.23,1.06-1.6,2.86-0.82,4.33l4.03,7.53c0.42,0.78,0.19,1.78-0.51,2.31
		c-0.45,0.34-1.03,0.45-1.58,0.29l-8.21-2.32c-1.07-0.3-2.18-0.09-3.05,0.57c-1.23,0.93-1.73,2.6-1.17,4.07l3.07,7.96
		c0.31,0.79,0.01,1.7-0.69,2.17c-0.51,0.34-1.13,0.4-1.7,0.15l-7.86-3.31c-1.1-0.46-2.3-0.35-3.29,0.3
		c-1.24,0.82-1.83,2.32-1.47,3.78l2.07,8.28c0.2,0.78-0.16,1.61-0.86,2.01c-0.56,0.33-1.24,0.33-1.81,0l-7.4-4.25
		c-1.1-0.63-2.4-0.63-3.5,0c-1.23,0.71-1.91,2.01-1.73,3.46l1.03,8.47c0.1,0.79-0.3,1.5-0.99,1.84c-0.62,0.31-1.34,0.24-1.9-0.17
		l-6.82-5.13c-1.08-0.82-2.46-0.94-3.67-0.34c-1.21,0.6-1.94,1.78-1.94,3.13l-0.01,8.53c0,0.74-0.42,1.38-1.11,1.67
		c-0.68,0.29-1.44,0.15-1.97-0.37l-6.14-5.93c-0.97-0.94-2.32-1.24-3.6-0.78c-1.28,0.45-2.14,1.52-2.31,2.87l-1.06,8.47
		c-0.09,0.73-0.59,1.32-1.3,1.52c-0.71,0.2-1.44-0.03-1.91-0.61l-5.22-6.46c-0.88-1.09-2.22-1.56-3.59-1.26
		c-1.37,0.3-2.39,1.29-2.73,2.65l-2.04,8.05c-0.18,0.72-0.75,1.23-1.48,1.35c-0.73,0.11-1.43-0.21-1.82-0.83l-4.51-7.25
		c-0.71-1.15-1.95-1.76-3.3-1.64c-1.35,0.13-2.45,0.95-2.94,2.22l-3.1,7.95c-0.27,0.69-0.89,1.13-1.63,1.15
		c-0.74,0.02-1.39-0.38-1.7-1.05l-3.58-7.75c-0.57-1.23-1.72-1.99-3.07-2.03c-1.36-0.04-2.55,0.65-3.19,1.84l-4.05,7.51
		c-0.35,0.65-1.03,1.01-1.76,0.94c-0.74-0.07-1.33-0.55-1.56-1.25l-2.6-8.13c-0.41-1.29-1.46-2.19-2.8-2.39
		c-1.34-0.21-2.61,0.33-3.39,1.43l-4.94,6.96c-0.43,0.6-1.14,0.88-1.87,0.72c-0.72-0.16-1.26-0.71-1.39-1.43l-1.58-8.39
		c-0.25-1.33-1.18-2.35-2.48-2.72c-1.3-0.37-2.63,0-3.54,1.01l-5.76,6.3c-0.5,0.55-1.24,0.73-1.94,0.49
		c-0.7-0.25-1.16-0.86-1.21-1.59l-0.54-8.52c-0.09-1.35-0.88-2.48-2.13-3.01c-1.25-0.53-2.61-0.32-3.64,0.56L87,274.94
		c-0.54,0.46-1.29,0.57-1.93,0.27c-0.65-0.3-1.05-0.93-1.05-1.64l0-0.12l0.51-8.52c0.08-1.39-0.62-2.64-1.84-3.3
		c-1.15-0.62-2.49-0.56-3.59,0.16l-7.12,4.7c-0.57,0.37-1.26,0.41-1.85,0.09c-0.69-0.37-1.08-1.12-0.93-1.93l1.55-8.39
		c0.27-1.44-0.37-2.85-1.61-3.62c-1.05-0.65-2.29-0.71-3.4-0.16l-7.65,3.79c-0.57,0.28-1.22,0.25-1.76-0.08
		c-0.7-0.44-1.03-1.29-0.78-2.09l2.57-8.14c0.46-1.46-0.09-3.05-1.33-3.92c-0.93-0.66-2.09-0.82-3.17-0.44l-8.05,2.82
		c-0.56,0.2-1.16,0.11-1.64-0.23c-0.7-0.5-0.97-1.45-0.61-2.24l3.55-7.76c0.67-1.46,0.23-3.21-1-4.2c-0.83-0.67-1.87-0.91-2.93-0.68
		l-8.34,1.81c-0.54,0.12-1.09-0.01-1.52-0.35c-0.69-0.56-0.89-1.6-0.41-2.37l4.48-7.26c0.89-1.44,0.59-3.33-0.63-4.44
		c-0.72-0.66-1.67-0.98-2.67-0.88l-8.5,0.77c-0.52,0.05-1.01-0.12-1.38-0.46c-0.69-0.63-0.79-1.74-0.2-2.48l5.34-6.66
		c0.51-0.63,0.78-1.39,0.78-2.17c0-1.68-1.27-3.45-3.4-3.52l-8.53-0.28c-0.99-0.03-1.76-0.83-1.76-1.82c0-0.49,0.2-0.94,0.55-1.29
		l6.12-5.95c0.69-0.67,1.06-1.55,1.06-2.49c0-1.5-1.02-3.18-2.96-3.48l-8.43-1.32c-0.89-0.14-1.53-0.9-1.53-1.8
		c0-0.57,0.26-1.09,0.72-1.44l6.8-5.15c0.88-0.67,1.39-1.68,1.39-2.78c0-1.32-0.79-2.88-2.54-3.38l-8.2-2.35
		c-0.79-0.23-1.31-0.93-1.31-1.75c0-0.65,0.34-1.24,0.9-1.56l7.38-4.28c1.09-0.63,1.75-1.77,1.75-3.03c0-1.43-0.82-2.67-2.13-3.23
		l-7.85-3.34c-0.68-0.29-1.1-0.93-1.1-1.67c0-0.74,0.42-1.38,1.1-1.67l7.85-3.34c1.32-0.56,2.13-1.8,2.13-3.23
		c0-1.26-0.65-2.39-1.75-3.03l-7.38-4.28c-0.57-0.33-0.9-0.91-0.9-1.56c0-0.82,0.53-1.52,1.31-1.75l8.2-2.35
		c1.75-0.5,2.54-2.06,2.54-3.39c0-1.09-0.51-2.11-1.39-2.78l-6.8-5.16c-0.46-0.35-0.72-0.87-0.72-1.44c0-0.9,0.64-1.66,1.53-1.8
		l8.43-1.32c1.95-0.31,2.96-1.98,2.96-3.48c0-0.94-0.38-1.82-1.06-2.49l-6.12-5.95c-0.36-0.35-0.55-0.8-0.55-1.29
		c0-0.99,0.77-1.79,1.76-1.82l8.53-0.28c2.13-0.07,3.4-1.84,3.4-3.52c0-0.79-0.27-1.54-0.78-2.17l-5.34-6.66
		c-0.59-0.74-0.49-1.85,0.2-2.48c0.38-0.34,0.87-0.51,1.38-0.46l8.5,0.77c1,0.09,1.94-0.22,2.67-0.89c1.22-1.12,1.52-3,0.63-4.44
		l-4.48-7.26c-0.47-0.77-0.28-1.81,0.41-2.37c0.42-0.34,0.98-0.47,1.52-0.35l8.34,1.81c1.06,0.23,2.1-0.01,2.93-0.68
		c1.23-0.99,1.67-2.74,1-4.2l-3.55-7.76c-0.36-0.79-0.09-1.74,0.61-2.24c0.48-0.34,1.08-0.42,1.64-0.23l8.05,2.82
		c1.09,0.38,2.24,0.22,3.17-0.44c1.24-0.88,1.79-2.46,1.33-3.92l-2.57-8.14c-0.25-0.79,0.07-1.66,0.78-2.09
		c0.53-0.33,1.19-0.36,1.76-0.08l7.65,3.79c1.11,0.55,2.35,0.49,3.4-0.16c1.23-0.77,1.87-2.18,1.61-3.62l-1.55-8.39
		c-0.15-0.81,0.24-1.56,0.93-1.93c0.6-0.32,1.29-0.29,1.85,0.09l7.12,4.7c1.09,0.72,2.44,0.78,3.59,0.16
		c1.22-0.66,1.93-1.91,1.84-3.3l-0.51-8.63c0-0.71,0.4-1.34,1.05-1.64c0.65-0.3,1.39-0.2,1.94,0.27l6.49,5.54
		c1.03,0.88,2.39,1.09,3.64,0.56c1.25-0.53,2.05-1.65,2.13-3.01l0.54-8.52c0.05-0.74,0.51-1.35,1.21-1.6
		c0.7-0.25,1.44-0.06,1.94,0.49l5.76,6.3c0.92,1,2.24,1.38,3.54,1.01c1.3-0.37,2.23-1.39,2.48-2.72l1.58-8.39
		c0.14-0.73,0.67-1.28,1.39-1.43c0.72-0.16,1.44,0.12,1.87,0.72l4.94,6.96c0.79,1.11,2.05,1.64,3.39,1.43
		c1.34-0.21,2.39-1.1,2.8-2.4l2.6-8.13c0.23-0.7,0.82-1.18,1.56-1.25c0.74-0.07,1.41,0.29,1.76,0.94l4.05,7.51
		c0.64,1.19,1.84,1.88,3.19,1.84c1.36-0.04,2.5-0.8,3.07-2.03l3.58-7.75c0.31-0.67,0.96-1.07,1.7-1.05
		c0.74,0.02,1.36,0.47,1.63,1.15l3.1,7.95c0.49,1.26,1.59,2.09,2.94,2.22c1.35,0.13,2.58-0.49,3.3-1.64l4.51-7.25
		c0.39-0.63,1.09-0.95,1.82-0.84c0.73,0.11,1.3,0.63,1.48,1.35l2.1,8.27c0.33,1.32,1.32,2.27,2.65,2.56
		c1.32,0.29,2.62-0.17,3.47-1.22l5.36-6.64c0.46-0.58,1.2-0.81,1.91-0.6c0.71,0.2,1.21,0.78,1.3,1.52l1.06,8.47
		c0.17,1.35,1.03,2.42,2.31,2.87c1.28,0.45,2.63,0.16,3.6-0.79l6.14-5.93c0.53-0.51,1.29-0.65,1.97-0.37
		c0.68,0.29,1.11,0.93,1.11,1.67l0.01,8.53c0,1.36,0.73,2.53,1.94,3.13c1.21,0.6,2.59,0.48,3.67-0.34l6.82-5.13
		c0.55-0.42,1.28-0.48,1.9-0.17c0.69,0.34,1.09,1.05,0.99,1.84l-1.03,8.47c-0.18,1.44,0.5,2.75,1.73,3.46c1.09,0.63,2.4,0.63,3.5,0
		l7.4-4.25c0.57-0.33,1.24-0.33,1.81,0c0.69,0.4,1.05,1.22,0.86,2.01l-2.07,8.28c-0.36,1.45,0.23,2.95,1.47,3.78
		c0.99,0.66,2.19,0.77,3.29,0.3l7.86-3.31c0.57-0.24,1.19-0.18,1.7,0.16c0.7,0.47,1,1.37,0.69,2.17l-3.07,7.96
		c-0.56,1.47-0.07,3.13,1.17,4.07c0.88,0.66,1.99,0.87,3.05,0.57l8.21-2.32c0.55-0.16,1.13-0.05,1.58,0.29
		c0.7,0.53,0.93,1.52,0.51,2.31l-4.03,7.52c-0.78,1.46-0.41,3.27,0.82,4.33c0.78,0.67,1.77,0.95,2.8,0.79l8.43-1.3
		c0.53-0.08,1.05,0.06,1.45,0.41c0.69,0.59,0.84,1.67,0.31,2.43l-4.92,6.97c-0.99,1.41-0.77,3.38,0.43,4.55
		c0.67,0.65,1.57,1,2.53,0.97l8.53-0.25c0.5-0.01,0.96,0.16,1.31,0.5c0.67,0.66,0.73,1.82,0.08,2.53l-5.74,6.32
		c-0.6,0.66-0.92,1.47-0.92,2.33c0,1.56,1.11,3.31,3.18,3.51l8.5,0.8c0.94,0.09,1.64,0.87,1.64,1.81c0,0.53-0.22,1.01-0.63,1.37
		l-6.47,5.56c-0.79,0.68-1.22,1.62-1.22,2.64c0,1.67,1.13,3.08,2.75,3.44l8.33,1.84c0.84,0.19,1.42,0.92,1.42,1.78
		c0,0.61-0.3,1.16-0.81,1.5l-7.11,4.73c-0.99,0.66-1.56,1.72-1.56,2.91c0,1.51,0.92,2.81,2.33,3.31l8.04,2.85
		C288.21,138.89,288.69,139.56,288.69,140.34z M277.11,148.91c0-1.72,0.95-3.26,2.49-4.03l7.63-3.82c0.28-0.14,0.45-0.41,0.45-0.72
		c0-0.28-0.14-0.63-0.54-0.77l-8.04-2.85c-1.82-0.65-3-2.32-3-4.26c0-1.53,0.73-2.89,2.01-3.74l7.11-4.73
		c0.32-0.21,0.36-0.51,0.36-0.67c0-0.33-0.2-0.7-0.64-0.8l-8.33-1.84c-2.08-0.46-3.54-2.28-3.54-4.42c0-1.32,0.56-2.52,1.57-3.4
		l6.47-5.56c0.24-0.2,0.29-0.44,0.29-0.61c0-0.37-0.25-0.77-0.74-0.82l-8.5-0.8c-2.33-0.22-4.09-2.16-4.09-4.51
		c0-1.12,0.41-2.16,1.18-3.01l5.74-6.32c0.18-0.2,0.21-0.4,0.21-0.54c0-0.22-0.09-0.44-0.25-0.6c-0.11-0.11-0.3-0.23-0.58-0.22
		l-8.53,0.25c-1.23,0.04-2.39-0.41-3.26-1.25c-1.54-1.5-1.82-4.05-0.55-5.84l4.92-6.97c0.25-0.35,0.17-0.82-0.14-1.09
		c-0.13-0.11-0.34-0.23-0.65-0.18l-8.44,1.3c-1.32,0.2-2.6-0.16-3.6-1.02c-1.58-1.36-2.05-3.69-1.05-5.56l4.03-7.53
		c0.19-0.36,0.08-0.8-0.23-1.04c-0.12-0.09-0.37-0.22-0.71-0.13l-8.21,2.32c-1.37,0.39-2.8,0.12-3.93-0.73
		c-1.58-1.19-2.22-3.35-1.5-5.22l3.07-7.96c0.14-0.37,0-0.76-0.31-0.97c-0.13-0.09-0.41-0.21-0.76-0.07l-7.86,3.31
		c-1.42,0.6-2.96,0.45-4.23-0.39c-1.58-1.05-2.35-2.99-1.89-4.85l2.07-8.28c0.09-0.35-0.07-0.72-0.39-0.9
		c-0.26-0.15-0.55-0.15-0.81,0l-7.4,4.25c-1.41,0.81-3.09,0.81-4.5,0c-1.58-0.91-2.45-2.59-2.22-4.45l1.03-8.47
		c0.04-0.36-0.13-0.67-0.45-0.83c-0.28-0.14-0.6-0.11-0.85,0.08l-6.82,5.13c-1.37,1.03-3.18,1.2-4.72,0.43
		c-1.54-0.77-2.49-2.31-2.5-4.02l-0.01-8.53c0-0.34-0.19-0.62-0.5-0.75c-0.31-0.13-0.64-0.07-0.88,0.16l-6.14,5.93
		c-1.23,1.19-3.01,1.58-4.63,1.01c-1.62-0.57-2.76-1.98-2.97-3.69l-1.06-8.47c-0.04-0.33-0.26-0.59-0.58-0.68
		c-0.32-0.09-0.64,0.01-0.85,0.27L180,21.1c-1.08,1.33-2.79,1.94-4.47,1.57c-1.68-0.37-2.98-1.63-3.4-3.29l-2.1-8.27
		c-0.08-0.33-0.33-0.55-0.66-0.6c-0.33-0.05-0.64,0.09-0.82,0.38l-4.5,7.25c-0.91,1.46-2.53,2.27-4.24,2.11
		c-1.71-0.16-3.16-1.25-3.78-2.85l-3.1-7.95c-0.12-0.31-0.4-0.51-0.73-0.52c-0.34-0.01-0.62,0.17-0.76,0.47l-3.58,7.75
		c-0.72,1.56-2.23,2.56-3.95,2.61c-1.72,0.05-3.29-0.85-4.1-2.36l-4.05-7.51c-0.16-0.3-0.46-0.45-0.79-0.42
		c-0.34,0.03-0.6,0.24-0.7,0.56l-2.6,8.13c-0.52,1.64-1.9,2.82-3.6,3.08c-1.7,0.26-3.37-0.44-4.36-1.84l-4.94-6.96
		c-0.19-0.28-0.51-0.4-0.84-0.32c-0.33,0.07-0.56,0.31-0.62,0.64l-1.58,8.39c-0.32,1.69-1.54,3.03-3.19,3.5
		c-1.65,0.47-3.4-0.03-4.56-1.29l-5.76-6.3c-0.23-0.25-0.55-0.33-0.87-0.22c-0.32,0.11-0.52,0.38-0.54,0.72l-0.54,8.52
		c-0.11,1.71-1.16,3.19-2.74,3.86c-1.58,0.67-3.37,0.39-4.68-0.72l-6.49-5.54c-0.25-0.21-0.57-0.26-0.87-0.12
		c-0.3,0.14-0.47,0.41-0.47,0.73l0.51,8.57c0.11,1.83-0.79,3.39-2.36,4.24c-1.48,0.8-3.21,0.72-4.61-0.21l-7.12-4.7
		c-0.37-0.24-0.7-0.11-0.83-0.04c-0.31,0.17-0.49,0.5-0.42,0.87l1.55,8.39c0.34,1.84-0.48,3.67-2.06,4.65
		c-1.33,0.82-2.96,0.9-4.37,0.2l-7.65-3.79c-0.26-0.13-0.54-0.12-0.78,0.03c-0.32,0.2-0.47,0.58-0.35,0.94l2.57,8.14
		c0.59,1.87-0.12,3.92-1.7,5.04c-1.2,0.85-2.69,1.06-4.08,0.57l-8.05-2.82c-0.35-0.12-0.61,0.01-0.73,0.1
		c-0.32,0.23-0.44,0.64-0.27,1.01l3.55,7.76c0.85,1.86,0.29,4.13-1.28,5.4c-1.06,0.85-2.43,1.17-3.77,0.88l-8.34-1.81
		c-0.25-0.05-0.49,0-0.68,0.15c-0.31,0.25-0.41,0.71-0.19,1.07l4.48,7.26c1.13,1.83,0.75,4.28-0.81,5.71
		c-0.93,0.85-2.15,1.26-3.43,1.14l-8.5-0.77c-0.3-0.03-0.5,0.09-0.62,0.2c-0.3,0.28-0.36,0.78-0.09,1.12l5.34,6.66
		c0.65,0.81,1,1.78,1,2.8c0,2.15-1.63,4.43-4.36,4.52l-8.53,0.28c-0.49,0.02-0.79,0.43-0.79,0.82c0,0.15,0.04,0.37,0.25,0.57
		l6.12,5.95c0.88,0.86,1.37,2,1.37,3.21c0,2.24-1.6,4.13-3.81,4.47l-8.43,1.32c-0.47,0.07-0.69,0.47-0.69,0.81
		c0,0.15,0.04,0.43,0.32,0.64l6.8,5.16c1.13,0.86,1.78,2.16,1.78,3.57c0,2.04-1.31,3.79-3.27,4.35l-8.2,2.35
		c-0.44,0.13-0.59,0.5-0.59,0.79c0,0.29,0.15,0.55,0.41,0.7l7.38,4.28c1.41,0.82,2.25,2.27,2.25,3.89c0,1.84-1.05,3.43-2.74,4.15
		l-7.85,3.34c-0.62,0.26-0.62,1.23,0,1.5l7.85,3.34c1.69,0.72,2.74,2.31,2.74,4.15l0,0c0,1.62-0.84,3.08-2.25,3.89l-7.38,4.28
		c-0.26,0.15-0.41,0.4-0.41,0.7c0,0.29,0.15,0.66,0.59,0.79l8.2,2.35c1.95,0.56,3.27,2.31,3.27,4.35c0,1.41-0.65,2.71-1.78,3.57
		l-6.8,5.15c-0.28,0.21-0.32,0.49-0.32,0.64c0,0.34,0.22,0.74,0.69,0.81l8.43,1.32c2.21,0.35,3.81,2.23,3.81,4.47
		c0,1.21-0.49,2.35-1.37,3.21l-6.12,5.95c-0.21,0.2-0.25,0.42-0.25,0.57c0,0.39,0.29,0.81,0.79,0.82l8.53,0.28
		c2.73,0.09,4.36,2.37,4.36,4.52c0,1.02-0.34,1.99-1,2.8l-5.34,6.66c-0.27,0.34-0.22,0.83,0.09,1.12c0.12,0.11,0.32,0.23,0.62,0.2
		l8.5-0.77c1.28-0.12,2.5,0.29,3.43,1.14c1.56,1.42,1.94,3.88,0.81,5.71l-4.48,7.26c-0.22,0.36-0.13,0.81,0.19,1.07
		c0.19,0.15,0.43,0.21,0.68,0.15l8.34-1.81c1.34-0.29,2.71,0.03,3.77,0.88c1.58,1.27,2.14,3.53,1.28,5.4l-3.55,7.76
		c-0.17,0.37-0.04,0.78,0.27,1.01c0.13,0.09,0.39,0.22,0.73,0.1l8.05-2.82c1.4-0.49,2.89-0.28,4.08,0.57
		c1.58,1.12,2.29,3.17,1.7,5.04l-2.57,8.14c-0.12,0.37,0.03,0.74,0.35,0.94c0.24,0.15,0.53,0.16,0.79,0.03l7.65-3.79
		c1.41-0.7,3.04-0.62,4.37,0.2c1.58,0.98,2.4,2.81,2.06,4.65l-1.55,8.39c-0.07,0.36,0.1,0.7,0.42,0.87c0.13,0.07,0.46,0.2,0.83-0.04
		l7.12-4.7c1.41-0.93,3.13-1.01,4.61-0.21c1.57,0.85,2.48,2.44,2.36,4.24l-0.51,8.52c0,0,0,0,0,0.01c0,0.37,0.18,0.65,0.47,0.78
		c0.3,0.14,0.62,0.09,0.87-0.12l6.49-5.54c1.31-1.11,3.1-1.39,4.68-0.72c1.58,0.67,2.63,2.15,2.74,3.86l0.54,8.52
		c0.02,0.34,0.22,0.6,0.54,0.71c0.32,0.11,0.64,0.03,0.87-0.22l5.76-6.3c1.16-1.27,2.9-1.76,4.56-1.29c1.65,0.47,2.88,1.81,3.19,3.5
		l1.58,8.39c0.06,0.33,0.3,0.57,0.62,0.64c0.33,0.07,0.64-0.05,0.84-0.32l4.94-6.96c0.99-1.4,2.67-2.11,4.36-1.84
		c1.7,0.26,3.08,1.44,3.6,3.08l2.6,8.13c0.1,0.32,0.36,0.53,0.7,0.56c0.33,0.03,0.63-0.13,0.79-0.42l4.05-7.51
		c0.81-1.51,2.39-2.42,4.1-2.37c1.72,0.05,3.23,1.05,3.95,2.61l3.58,7.75c0.14,0.31,0.43,0.48,0.76,0.47
		c0.34-0.01,0.61-0.2,0.73-0.52l3.1-7.95c0.62-1.6,2.07-2.69,3.78-2.85c1.71-0.16,3.33,0.65,4.24,2.11l4.51,7.25
		c0.18,0.29,0.48,0.43,0.82,0.37c0.33-0.05,0.58-0.28,0.66-0.6l2.04-8.05c0.43-1.71,1.77-3,3.49-3.38c1.72-0.38,3.47,0.24,4.58,1.61
		l5.22,6.46c0.21,0.26,0.53,0.36,0.85,0.27c0.32-0.09,0.54-0.35,0.58-0.68l1.06-8.47c0.21-1.7,1.35-3.12,2.97-3.69
		c1.62-0.57,3.39-0.18,4.63,1.01l6.14,5.93c0.24,0.23,0.57,0.3,0.88,0.16c0.31-0.13,0.5-0.41,0.5-0.75l0.01-8.53
		c0-1.72,0.96-3.26,2.5-4.02s3.34-0.6,4.72,0.43l6.82,5.13c0.25,0.19,0.57,0.22,0.85,0.08c0.32-0.16,0.49-0.47,0.45-0.83l-1.03-8.47
		c-0.23-1.86,0.64-3.54,2.22-4.45c1.4-0.81,3.09-0.81,4.5,0l7.4,4.25c0.26,0.15,0.55,0.15,0.81,0c0.32-0.18,0.47-0.55,0.38-0.9
		l-2.07-8.28c-0.46-1.86,0.3-3.8,1.89-4.85c1.27-0.85,2.82-0.99,4.23-0.39l7.86,3.31c0.35,0.15,0.63,0.02,0.76-0.07
		c0.32-0.21,0.45-0.61,0.31-0.97l-3.07-7.96c-0.72-1.87-0.08-4.03,1.5-5.22c1.13-0.85,2.56-1.12,3.93-0.73l8.21,2.32
		c0.34,0.1,0.59-0.04,0.71-0.13c0.32-0.24,0.42-0.67,0.23-1.04l-4.03-7.53c-1-1.86-0.53-4.2,1.05-5.56c1-0.86,2.28-1.22,3.6-1.02
		l8.44,1.29c0.31,0.05,0.52-0.07,0.65-0.18c0.31-0.27,0.39-0.75,0.14-1.09l-4.92-6.97c-1.27-1.8-0.99-4.35,0.55-5.85
		c0.87-0.84,2.03-1.29,3.26-1.25l8.53,0.25c0.29,0.01,0.48-0.12,0.58-0.22c0.16-0.16,0.25-0.38,0.25-0.6c0-0.14-0.04-0.34-0.21-0.54
		l-5.74-6.32c-0.77-0.85-1.18-1.89-1.18-3.01c0-2.35,1.76-4.29,4.09-4.5l8.5-0.8c0.48-0.05,0.74-0.45,0.74-0.82
		c0-0.17-0.05-0.41-0.29-0.61l-6.47-5.56c-1.01-0.87-1.57-2.08-1.57-3.4c0-2.14,1.45-3.96,3.54-4.42l8.33-1.84
		c0.44-0.1,0.64-0.47,0.64-0.8c0-0.16-0.05-0.46-0.36-0.67l-7.11-4.73c-1.28-0.85-2.01-2.21-2.01-3.74c0-1.94,1.18-3.61,3-4.26
		l8.04-2.85c0.4-0.14,0.54-0.49,0.54-0.77c0-0.31-0.17-0.58-0.45-0.72l-7.63-3.82C278.07,152.17,277.11,150.62,277.11,148.91z"/>
	<path class="st1" d="M215.09,149.77c0,37.12-30.2,67.32-67.32,67.32c-37.12,0-67.32-30.2-67.32-67.32
		c0-37.12,30.2-67.32,67.32-67.32C184.89,82.45,215.09,112.65,215.09,149.77z M81.48,149.77c0,36.56,29.74,66.3,66.3,66.3
		c36.56,0,66.29-29.74,66.29-66.3c0-36.55-29.74-66.29-66.29-66.29C111.22,83.48,81.48,113.22,81.48,149.77z"/>
	<g>
		<path class="st0" d="M191.92,48.35c0,3.77-1.94,6.44-2.53,7.17c-1.26,1.55-13.58,11.63-18.82,14.48c-3.48,1.9-7.84,1.11-12.9,0.21
			c-2.88-0.52-6.15-1.11-9.64-1.26c-5.4-0.23-10.59,0.82-14.76,1.67c-3.22,0.65-5.54,1.13-6.85,0.77c-2.86-0.77-6.43-3.76-6.58-3.89
			c-0.41-0.25-11.36-7.06-14.35-11.8c-1.14-1.8-1.74-3.79-1.74-5.76c0-3.91,2.33-7.49,6.57-10.11c7.23-4.46,30.54-7.2,33.42-7.41
			c3.67-0.27,16.12,0.76,27.81,1.8c12.51,1.12,19.32,7.66,20.16,11.95C191.85,46.89,191.92,47.62,191.92,48.35z M104.75,49.93
			c0,1.78,0.55,3.59,1.59,5.23c2.87,4.54,13.98,11.46,14.09,11.53c0.09,0.07,3.6,3.01,6.25,3.73c1.08,0.29,3.43-0.18,6.39-0.79
			c4-0.81,9.48-1.93,15-1.69c3.56,0.15,6.86,0.75,9.78,1.27c5.06,0.91,9.07,1.63,12.24-0.1c5.25-2.87,17.49-12.97,18.52-14.24
			c0.54-0.66,2.3-3.09,2.3-6.53c0-0.66-0.07-1.33-0.2-1.99c-0.76-3.87-7.41-10.08-19.27-11.14c-11.65-1.04-24.05-2.06-27.65-1.8
			c-4.24,0.31-26.34,3.18-32.97,7.27C106.91,43.1,104.75,46.39,104.75,49.93z"/>
		<path class="st0" d="M89.74,89.9c0,3.96-2.76,7.41-5.96,11.42c-1.83,2.29-3.9,4.88-5.69,7.88c-2.77,4.64-4.31,9.71-5.55,13.78
			c-0.96,3.14-1.65,5.41-2.58,6.4c-2.04,2.15-6.37,3.86-6.55,3.93c-0.41,0.24-11.62,6.63-17.21,7.01c-2.94,0.2-5.67-0.68-7.71-2.47
			c-2.36-2.08-3.73-5.3-3.95-9.32c-0.49-8.47,8.23-30.37,9.38-32.92c1.51-3.37,8.34-13.82,14.81-23.61
			c6.93-10.47,15.92-13.35,20.1-12.05c4.74,1.48,6.65,5.34,7.12,6.49c0.76,1.84,3.77,17.48,3.79,23.44V89.9z M35.52,127.8
			c0,0.23,0.01,0.45,0.02,0.66c0.21,3.75,1.46,6.73,3.62,8.63c1.83,1.62,4.31,2.41,6.98,2.22c5.36-0.37,16.73-6.85,16.84-6.91
			c0.11-0.05,4.36-1.73,6.25-3.72c0.77-0.81,1.47-3.1,2.35-6c1.19-3.91,2.82-9.26,5.65-14c1.83-3.05,3.92-5.68,5.77-7.99
			c3.21-4.02,5.74-7.19,5.74-10.79h0.5l-0.5-0.03c-0.02-5.99-3.09-21.56-3.71-23.06c-0.43-1.05-2.17-4.56-6.49-5.91
			c-3.76-1.17-12.39,1.72-18.97,11.65c-6.08,9.18-13.24,20.14-14.74,23.46C43.72,98.47,35.52,119.03,35.52,127.8z"/>
		<path class="st0" d="M89.86,209.56c0,6.29-2.56,21.35-3.23,23.1c-0.44,1.16-2.26,5.06-6.97,6.65c-4.14,1.4-13.2-1.27-20.38-11.57
			c-6.71-9.63-13.78-19.92-15.37-23.25c-1.23-2.56-10.46-24.2-10.16-32.69c0.13-4.02,1.42-7.28,3.73-9.41
			c1.99-1.84,4.71-2.79,7.65-2.65c5.6,0.25,16.95,6.37,17.44,6.63c0.12,0.04,4.48,1.64,6.57,3.75c0.96,0.96,1.7,3.21,2.73,6.33
			c1.34,4.04,3,9.07,5.88,13.64c1.86,2.95,4,5.5,5.88,7.75c3.3,3.93,6.15,7.33,6.23,11.3L89.86,209.56z M34.74,172.21
			c0,8.57,8.87,29.37,10.07,31.86c1.56,3.26,8.6,13.51,15.29,23.11c6.81,9.77,15.5,12.45,19.24,11.19c4.29-1.45,5.95-5.01,6.35-6.07
			c0.55-1.42,3.17-16.41,3.17-22.74l0-0.4c-0.07-3.62-2.69-6.73-5.99-10.68c-1.9-2.27-4.06-4.84-5.96-7.85
			c-2.95-4.67-4.7-9.98-5.98-13.86c-0.95-2.88-1.7-5.15-2.49-5.94c-1.94-1.94-6.23-3.53-6.27-3.54c-0.18-0.09-11.7-6.3-17.07-6.54
			c-2.67-0.12-5.13,0.73-6.92,2.39c-2.11,1.95-3.29,4.96-3.41,8.71C34.75,171.97,34.74,172.09,34.74,172.21z"/>
		<path class="st0" d="M261.35,172.76c0,8.69-9.16,29.78-10.39,32.31c-1.61,3.31-8.76,13.55-15.54,23.14
			c-7.25,10.25-16.33,12.85-20.46,11.42c-4.69-1.62-6.48-5.54-6.92-6.7c-0.66-1.76-3.22-17.57-3.06-23.54
			c0.11-3.97,2.98-7.34,6.31-11.25c1.9-2.23,4.05-4.76,5.93-7.7c2.91-4.55,4.61-9.57,5.97-13.6c1.05-3.11,1.81-5.36,2.78-6.31
			c2.11-2.09,6.48-3.66,6.67-3.73c0.42-0.23,11.81-6.27,17.41-6.48c2.94-0.11,5.65,0.85,7.63,2.71c2.29,2.15,3.56,5.42,3.66,9.44
			L261.35,172.76z M205.98,209.98c0,6.57,2.48,21.19,3.01,22.6c0.4,1.06,2.03,4.63,6.31,6.11c3.73,1.29,12.44-1.33,19.32-11.06
			c6.75-9.55,13.87-19.75,15.45-23c1.22-2.5,10.29-23.36,10.29-31.87l0-0.28c-0.1-3.75-1.25-6.77-3.35-8.74
			c-1.78-1.67-4.23-2.54-6.91-2.44c-5.37,0.2-16.93,6.33-17.05,6.39c-0.11,0.04-4.41,1.6-6.37,3.53c-0.8,0.79-1.56,3.05-2.53,5.92
			c-1.31,3.87-3.1,9.17-6.08,13.82c-1.92,3-4.1,5.56-6.01,7.81c-3.33,3.92-5.97,7.02-6.07,10.63
			C205.98,209.6,205.98,209.78,205.98,209.98z"/>
		<path class="st0" d="M191.28,250.73c0,0.7-0.07,1.4-0.2,2.1c-0.81,4.3-7.57,10.89-20.07,12.1c-11.68,1.13-24.12,2.25-27.8,2.01
			c-2.88-0.19-26.21-2.76-33.47-7.16c-4.29-2.6-6.65-6.19-6.65-10.13c0-1.94,0.59-3.91,1.7-5.7c2.96-4.76,13.86-11.66,14.32-11.95
			c0.09-0.08,3.63-3.1,6.49-3.89c1.31-0.36,3.64,0.09,6.86,0.72c4.18,0.82,9.38,1.83,14.77,1.56c3.49-0.18,6.75-0.79,9.63-1.33
			c5.04-0.95,9.4-1.76,12.9,0.11c5.25,2.81,17.65,12.8,18.92,14.34C189.3,244.23,191.28,246.91,191.28,250.73z M104.1,249.65
			c0,3.57,2.19,6.87,6.17,9.27c6.65,4.03,28.78,6.74,33.02,7.02c3.6,0.24,15.99-0.88,27.63-2.01c11.85-1.15,18.45-7.41,19.18-11.29
			c0.12-0.64,0.18-1.28,0.18-1.92c0-3.48-1.8-5.93-2.35-6.59c-1.04-1.25-13.35-11.27-18.63-14.09c-3.19-1.71-7.18-0.96-12.24-0.01
			c-2.91,0.55-6.21,1.17-9.77,1.35c-5.52,0.28-11.01-0.79-15.02-1.58c-2.97-0.58-5.32-1.04-6.4-0.74c-2.64,0.74-6.13,3.7-6.16,3.73
			c-0.17,0.11-11.23,7.11-14.06,11.68C104.63,246.1,104.1,247.89,104.1,249.65z"/>
		<path class="st0" d="M261.12,127.55c0,0.17,0,0.33-0.01,0.49c-0.16,4.02-1.47,7.27-3.8,9.39c-2,1.83-4.73,2.75-7.67,2.6
			c-5.6-0.29-16.91-6.49-17.39-6.75c-0.12-0.04-4.47-1.68-6.55-3.79c-0.95-0.97-1.68-3.23-2.69-6.35
			c-1.31-4.05-2.93-9.09-5.78-13.68c-1.84-2.97-3.96-5.53-5.83-7.79c-3.27-3.96-6.09-7.37-6.14-11.34l0-0.26
			c0-6.05,2.71-21.48,3.4-23.24c0.45-1.16,2.3-5.05,7.01-6.6c4.15-1.37,13.19,1.36,20.3,11.71c6.64,9.68,13.64,20.02,15.2,23.36
			C252.37,97.78,261.12,118.74,261.12,127.55z M206.28,90.05l0,0.25c0.05,3.62,2.64,6.75,5.91,10.72c1.89,2.29,4.03,4.87,5.9,7.9
			c2.91,4.7,4.63,10.02,5.88,13.9c0.93,2.88,1.66,5.16,2.45,5.96c1.93,1.96,6.21,3.57,6.25,3.59c0.18,0.09,11.65,6.39,17.02,6.66
			c2.67,0.14,5.13-0.69,6.94-2.34c2.12-1.94,3.32-4.94,3.47-8.69c0.34-8.3-8.64-29.77-9.83-32.29c-1.54-3.27-8.51-13.57-15.12-23.22
			c-6.74-9.82-15.41-12.57-19.16-11.33c-4.3,1.42-5.98,4.97-6.39,6.02C209.04,68.64,206.28,83.77,206.28,90.05z"/>
	</g>
	<g>
		<path class="st0" d="M71.46,149.75c0,4.22-3.43,7.66-7.66,7.66c-4.22,0-7.65-3.44-7.65-7.66c0-4.22,3.43-7.65,7.65-7.65
			C68.02,142.1,71.46,145.54,71.46,149.75z M57.21,149.75c0,3.64,2.96,6.59,6.59,6.59c3.63,0,6.59-2.96,6.59-6.59
			c0-3.63-2.96-6.59-6.59-6.59C60.17,143.16,57.21,146.12,57.21,149.75z"/>
		<path class="st0" d="M239.4,149.53c0,4.22-3.43,7.66-7.65,7.66c-4.22,0-7.66-3.43-7.66-7.66c0-4.22,3.43-7.65,7.66-7.65
			C235.96,141.88,239.4,145.31,239.4,149.53z M225.15,149.53c0,3.64,2.96,6.59,6.59,6.59c3.63,0,6.59-2.96,6.59-6.59
			c0-3.63-2.96-6.59-6.59-6.59C228.11,142.94,225.15,145.9,225.15,149.53z"/>
		<path class="st0" d="M197.1,77.03c0,4.22-3.44,7.65-7.65,7.65c-4.22,0-7.66-3.43-7.66-7.65c0-4.22,3.43-7.66,7.66-7.66
			C193.66,69.38,197.1,72.81,197.1,77.03z M182.85,77.03c0,3.63,2.96,6.59,6.59,6.59c3.63,0,6.59-2.96,6.59-6.59
			c0-3.63-2.96-6.59-6.59-6.59C185.81,70.44,182.85,73.4,182.85,77.03z"/>
		<path class="st0" d="M114.57,76.27c0,4.22-3.43,7.66-7.66,7.66c-4.22,0-7.65-3.44-7.65-7.66c0-4.22,3.43-7.65,7.65-7.65
			C111.13,68.61,114.57,72.05,114.57,76.27z M100.32,76.27c0,3.63,2.96,6.59,6.59,6.59s6.59-2.96,6.59-6.59
			c0-3.63-2.96-6.59-6.59-6.59S100.32,72.63,100.32,76.27z"/>
		<path class="st0" d="M113.86,222.53c0,4.22-3.43,7.65-7.65,7.65c-4.22,0-7.65-3.43-7.65-7.65c0-4.22,3.43-7.65,7.65-7.65
			C110.42,214.88,113.86,218.31,113.86,222.53z M99.61,222.53c0,3.63,2.96,6.59,6.59,6.59c3.63,0,6.59-2.96,6.59-6.59
			c0-3.63-2.96-6.59-6.59-6.59C102.57,215.94,99.61,218.9,99.61,222.53z"/>
		<path class="st0" d="M198,221.91c0,4.22-3.43,7.65-7.65,7.65c-4.22,0-7.66-3.43-7.66-7.65c0-4.22,3.43-7.65,7.66-7.65
			C194.56,214.26,198,217.69,198,221.91z M183.75,221.91c0,3.63,2.96,6.59,6.59,6.59c3.63,0,6.59-2.96,6.59-6.59
			c0-3.63-2.96-6.59-6.59-6.59C186.71,215.32,183.75,218.28,183.75,221.91z"/>
	</g>
</g>
<g id="corna_lado">
	<g>
		<path class="st2" d="M17.82,397.93h33.02l2.11-2.25h28.69v5.57l0.04,0.04l-0.04,0.04v1.67v0.5v9.28H52.94l-2.11-2.25H17.82
			l-3.94,2.57l-7.02-3.06v-5.92v-0.13v-5.57l7.02-3.06L17.82,397.93z M51.28,398.93h-3.85l-10.58,10.59h5.89l12.88-12.84H53.4
			L51.28,398.93z M18.4,398.93v6.04l5.96-6.04H18.4z M25.78,398.93l-7.38,7.49v3.11h2.41l10.58-10.59H25.78z M60.48,398.85v-2.17
			h-3.42l-12.88,12.84h5.98L60.48,398.85z M61.57,399.18l-0.07,0.07v3.8h7.98v-6.38H61.5v2.44L61.57,399.18z M74.48,411.77
			l-4.78-7.72h-8.57l-4.68,7.72H74.48z M70.51,396.68v6.74l0.15,0.25l6.6-6.98H70.51z M40.27,398.93l-10.58,10.59h5.73l10.58-10.59
			H40.27z M32.82,398.93l-10.58,10.59h6.03l10.58-10.59H32.82z M78.66,396.68l-7.45,7.88l2.09,3.38l7.31-7.03v-4.22H78.66z
			 M80.62,402.99v-0.68l-6.77,6.51l1.77,2.86l-0.17,0.1h1.24l3.93-3.38v-4.91V402.99z M80.62,409.73l-2.38,2.04h2.38V409.73z
			 M53.4,411.77h1.87l5.21-8.59v-2.87l-9.05,9.37L53.4,411.77z M7.87,399.07v4.93v0.13v5.27l5.9,2.57l3.6-2.35v-10.77l-3.6-2.35
			L7.87,399.07z"/>
		<path class="st2" d="M277.72,397.93H244.7l-2.11-2.25h-28.04h-0.66H81.5v1.13h132.4v4.43l-0.04,0.04l0.04,0.04V403v0.5v8.14H80.81
			v1.13H213.9v0.01h28.69l2.11-2.25h33.02l3.94,2.57l7.02-3.06v-5.92V404v-5.57l-7.02-3.06L277.72,397.93z M242.14,396.68l2.11,2.25
			h3.85l10.58,10.59h-5.89l-12.88-12.84H242.14z M277.14,406.42v3.11h-2.41l-10.58-10.59h5.61L277.14,406.42z M271.18,398.93h5.96
			v6.04L271.18,398.93z M273.3,409.53h-6.03l-10.58-10.59h6.03L273.3,409.53z M265.84,409.53h-5.73l-10.58-10.59h5.73L265.84,409.53
			z M238.47,396.68l12.88,12.84h-5.98l-10.31-10.67v-2.17H238.47z M234.03,396.68v2.44l-0.07,0.06l0.07,0.07v3.8h-7.98v-6.38H234.03
			z M225.03,396.68v6.74l-0.15,0.25l-6.6-6.98H225.03z M214.92,400.91v-4.22h1.96l7.45,7.88l-2.09,3.38L214.92,400.91z
			 M221.05,411.78l4.78-7.72h8.57l4.68,7.72H221.05z M214.92,403.5V403v-0.68l6.77,6.51l-1.77,2.86l0.17,0.1h-1.24l-3.93-3.38V403.5
			z M214.92,409.73l2.38,2.04h-2.38v-0.14V409.73z M242.14,411.78h-1.87l-5.21-8.59v-2.87l9.05,9.37L242.14,411.78z M287.66,399.07
			V404v0.13v5.27l-5.9,2.57l-3.6-2.35v-10.77l3.6-2.35L287.66,399.07z"/>
	</g>
</g>
<g id="A">
	<path class="st1" d="M232.09,149.76v0.03c0,0.7-0.01,1.4-0.03,2.1l-1.06-0.03c0.02-0.69,0.02-1.38,0.02-2.08L232.09,149.76z
		 M232.06,147.63l-1.06,0.03c-0.02-0.7-0.04-1.41-0.08-2.11l1.07-0.05C232.02,146.2,232.05,146.92,232.06,147.63z M231.99,154.04
		c-0.04,0.71-0.08,1.42-0.13,2.13l-1.06-0.08c0.05-0.7,0.1-1.4,0.13-2.1L231.99,154.04z M231.85,143.36l-1.06,0.08
		c-0.05-0.7-0.12-1.41-0.18-2.1l1.06-0.11C231.73,141.94,231.79,142.65,231.85,143.36z M231.67,158.29
		c-0.07,0.71-0.15,1.42-0.24,2.12l-1.06-0.13c0.09-0.69,0.17-1.39,0.24-2.1L231.67,158.29z M231.42,139.11l-1.06,0.13
		c-0.09-0.7-0.18-1.39-0.29-2.09l1.05-0.16C231.23,137.7,231.33,138.41,231.42,139.11z M231.14,162.53
		c-0.11,0.71-0.22,1.41-0.35,2.11l-1.05-0.19c0.12-0.69,0.24-1.38,0.34-2.08L231.14,162.53z M230.78,134.89l-1.05,0.19
		c-0.12-0.69-0.26-1.38-0.4-2.07l1.04-0.22C230.52,133.49,230.65,134.19,230.78,134.89z M230.39,166.74
		c-0.14,0.7-0.29,1.39-0.45,2.09l-1.04-0.24c0.16-0.68,0.31-1.37,0.45-2.06L230.39,166.74z M229.92,130.7l-1.04,0.24
		c-0.16-0.68-0.33-1.37-0.5-2.05l1.03-0.27C229.59,129.32,229.76,130.01,229.92,130.7z M229.43,170.9
		c-0.18,0.69-0.37,1.38-0.56,2.06l-1.03-0.29c0.19-0.68,0.38-1.35,0.55-2.04L229.43,170.9z M228.85,126.57l-1.02,0.29
		c-0.19-0.68-0.4-1.35-0.61-2.02l1.02-0.32C228.45,125.2,228.66,125.88,228.85,126.57z M228.26,175.01
		c-0.21,0.68-0.44,1.36-0.67,2.04l-1.01-0.34c0.23-0.67,0.44-1.34,0.66-2.01L228.26,175.01z M227.57,122.49l-1.01,0.35
		c-0.23-0.67-0.46-1.33-0.71-1.99l1-0.37C227.1,121.15,227.34,121.82,227.57,122.49z M226.87,179.07c-0.25,0.67-0.51,1.34-0.77,2
		l-0.99-0.4c0.26-0.65,0.51-1.31,0.76-1.97L226.87,179.07z M226.09,118.49l-0.99,0.4c-0.26-0.65-0.53-1.3-0.81-1.94l0.98-0.42
		C225.55,117.17,225.83,117.83,226.09,118.49z M225.28,183.05c-0.28,0.66-0.57,1.31-0.87,1.96l-0.96-0.44
		c0.29-0.64,0.58-1.28,0.86-1.93L225.28,183.05z M224.4,114.58l-0.96,0.44c-0.29-0.64-0.6-1.27-0.91-1.9l0.96-0.47
		C223.8,113.29,224.11,113.93,224.4,114.58z M223.5,186.94c-0.32,0.64-0.64,1.28-0.97,1.91l-0.94-0.49
		c0.33-0.62,0.64-1.25,0.95-1.88L223.5,186.94z M222.53,110.75l-0.94,0.49c-0.33-0.62-0.66-1.24-1-1.85l0.93-0.52
		C221.86,109.5,222.2,110.12,222.53,110.75z M221.51,190.73c-0.35,0.62-0.7,1.24-1.06,1.86l-0.92-0.54
		c0.36-0.61,0.71-1.22,1.05-1.83L221.51,190.73z M220.45,107.03l-0.92,0.54c-0.36-0.6-0.72-1.2-1.09-1.8l0.9-0.57
		C219.73,105.81,220.09,106.41,220.45,107.03z M219.33,194.42c-0.38,0.61-0.76,1.2-1.16,1.8l-0.89-0.59
		c0.39-0.59,0.77-1.18,1.14-1.78L219.33,194.42z M218.2,103.41l-0.89,0.59c-0.39-0.59-0.78-1.17-1.18-1.74l0.87-0.61
		C217.41,102.23,217.81,102.81,218.2,103.41z M216.98,197.98c-0.41,0.58-0.82,1.16-1.24,1.74l-0.86-0.63
		c0.42-0.57,0.83-1.14,1.23-1.72L216.98,197.98z M215.76,99.91l-0.86,0.63c-0.42-0.57-0.84-1.13-1.27-1.68l0.84-0.65
		C214.91,98.77,215.34,99.33,215.76,99.91z M214.44,201.43c-0.44,0.56-0.88,1.12-1.33,1.67l-0.82-0.67c0.44-0.54,0.88-1.1,1.31-1.65
		L214.44,201.43z M213.14,96.53l-0.83,0.68c-0.44-0.55-0.89-1.08-1.35-1.62l0.81-0.69C212.24,95.44,212.7,95.98,213.14,96.53z
		 M211.74,204.74c-0.46,0.54-0.94,1.08-1.41,1.6l-0.79-0.71c0.47-0.52,0.94-1.05,1.4-1.58L211.74,204.74z M210.36,93.29l-0.79,0.72
		c-0.47-0.52-0.95-1.04-1.43-1.55l0.78-0.73C209.4,92.24,209.88,92.77,210.36,93.29z M208.87,207.91c-0.49,0.52-0.99,1.03-1.49,1.53
		l-0.75-0.75c0.5-0.5,0.99-1,1.48-1.51L208.87,207.91z M207.42,90.2l-0.75,0.75c-0.5-0.5-1-0.99-1.51-1.47l0.74-0.77
		C206.41,89.2,206.92,89.69,207.42,90.2z M205.85,210.93c-0.52,0.49-1.04,0.97-1.57,1.45l-0.71-0.79c0.52-0.47,1.04-0.95,1.54-1.43
		L205.85,210.93z M204.33,87.25l-0.72,0.79c-0.52-0.47-1.05-0.94-1.58-1.4l0.7-0.81C203.27,86.31,203.8,86.77,204.33,87.25z
		 M202.68,213.79c-0.54,0.46-1.08,0.92-1.63,1.37l-0.67-0.82c0.54-0.44,1.08-0.9,1.62-1.35L202.68,213.79z M201.09,84.47l-0.68,0.83
		c-0.54-0.45-1.09-0.88-1.65-1.31l0.65-0.84C199.98,83.57,200.54,84.02,201.09,84.47z M199.38,216.49
		c-0.56,0.44-1.13,0.86-1.71,1.28l-0.63-0.86c0.57-0.42,1.13-0.84,1.68-1.27L199.38,216.49z M197.71,81.85l-0.63,0.86
		c-0.57-0.42-1.14-0.83-1.72-1.23l0.61-0.87C196.56,81.01,197.14,81.43,197.71,81.85z M195.94,219.02c-0.58,0.41-1.17,0.81-1.76,1.2
		l-0.59-0.89c0.58-0.39,1.17-0.78,1.74-1.18L195.94,219.02z M194.21,79.4l-0.59,0.89c-0.59-0.39-1.18-0.77-1.77-1.14l0.56-0.9
		C193.01,78.62,193.61,79,194.21,79.4z M192.38,221.37c-0.6,0.38-1.21,0.75-1.82,1.11l-0.54-0.92c0.6-0.36,1.21-0.72,1.8-1.09
		L192.38,221.37z M190.58,77.13l-0.54,0.92c-0.61-0.36-1.22-0.71-1.83-1.05l0.52-0.93C189.34,76.41,189.96,76.77,190.58,77.13z
		 M188.71,223.54c-0.62,0.34-1.25,0.68-1.87,1.01l-0.5-0.94c0.62-0.33,1.24-0.66,1.85-1L188.71,223.54z M186.84,75.05l-0.5,0.95
		c-0.63-0.33-1.25-0.65-1.88-0.96l0.47-0.96C185.57,74.39,186.21,74.72,186.84,75.05z M184.94,225.51
		c-0.64,0.31-1.28,0.62-1.92,0.92l-0.45-0.97c0.64-0.29,1.27-0.6,1.9-0.9L184.94,225.51z M183,73.16l-0.45,0.97
		c-0.64-0.29-1.28-0.58-1.93-0.86l0.42-0.98C181.7,72.57,182.35,72.86,183,73.16z M181.07,227.3c-0.65,0.28-1.3,0.55-1.97,0.82
		l-0.39-0.99c0.65-0.26,1.3-0.53,1.94-0.81L181.07,227.3z M179.06,71.47l-0.4,0.99c-0.65-0.26-1.31-0.52-1.97-0.76l0.37-1
		C177.73,70.95,178.4,71.2,179.06,71.47z M177.11,228.88c-0.67,0.25-1.34,0.49-2.01,0.72l-0.35-1.01c0.67-0.23,1.33-0.46,1.99-0.71
		L177.11,228.88z M175.04,69.98l-0.35,1.01c-0.67-0.23-1.34-0.45-2.01-0.66l0.32-1.02C173.69,69.52,174.37,69.75,175.04,69.98z
		 M173.07,230.27c-0.68,0.21-1.36,0.42-2.05,0.61l-0.29-1.02c0.68-0.19,1.35-0.4,2.02-0.61L173.07,230.27z M170.96,68.7l-0.29,1.02
		c-0.67-0.19-1.35-0.38-2.04-0.55l0.27-1.03C169.59,68.32,170.28,68.5,170.96,68.7z M168.96,231.44c-0.69,0.18-1.38,0.35-2.08,0.51
		l-0.24-1.04c0.69-0.16,1.37-0.33,2.05-0.5L168.96,231.44z M166.82,67.63l-0.24,1.04c-0.69-0.16-1.37-0.31-2.06-0.45l0.21-1.04
		C165.43,67.32,166.13,67.47,166.82,67.63z M164.8,232.41c-0.7,0.14-1.4,0.28-2.1,0.4l-0.19-1.05c0.69-0.13,1.38-0.26,2.07-0.4
		L164.8,232.41z M162.64,66.78l-0.19,1.05c-0.69-0.12-1.38-0.24-2.08-0.34l0.16-1.05C161.23,66.53,161.94,66.65,162.64,66.78z
		 M160.59,233.16c-0.7,0.11-1.41,0.21-2.11,0.3l-0.14-1.06c0.7-0.09,1.4-0.19,2.09-0.29L160.59,233.16z M158.41,66.13l-0.13,1.06
		c-0.7-0.09-1.4-0.17-2.1-0.24l0.11-1.06C157,65.97,157.71,66.04,158.41,66.13z M156.36,233.7c-0.71,0.07-1.42,0.13-2.13,0.19
		l-0.08-1.06c0.7-0.05,1.4-0.12,2.1-0.19L156.36,233.7z M154.16,65.71l-0.08,1.06c-0.7-0.05-1.4-0.1-2.11-0.13l0.05-1.06
		C152.74,65.61,153.45,65.65,154.16,65.71z M152.1,234.02c-0.71,0.04-1.42,0.06-2.13,0.08l-0.03-1.07c0.71-0.02,1.41-0.04,2.11-0.08
		L152.1,234.02z M149.9,65.49l-0.03,1.06c-0.7-0.02-1.4-0.02-2.11-0.02h-0.13v-1.07h0.13C148.47,65.47,149.19,65.48,149.9,65.49z
		 M147.83,234.13h-0.07c-0.69,0-1.38-0.01-2.07-0.02l0.03-1.07c0.68,0.02,1.36,0.02,2.04,0.02L147.83,234.13z M145.52,66.56
		c-0.7,0.02-1.41,0.05-2.11,0.08l-0.05-1.07c0.71-0.04,1.42-0.06,2.13-0.08L145.52,66.56z M143.61,232.96l-0.05,1.06
		c-0.71-0.04-1.42-0.08-2.13-0.13l0.08-1.06C142.2,232.88,142.9,232.93,143.61,232.96z M141.31,66.78c-0.7,0.05-1.4,0.12-2.1,0.18
		l-0.11-1.06c0.71-0.07,1.42-0.14,2.13-0.19L141.31,66.78z M139.4,232.65l-0.1,1.06c-0.71-0.07-1.42-0.15-2.12-0.24l0.13-1.06
		C138,232.5,138.7,232.58,139.4,232.65z M137.11,67.21c-0.7,0.09-1.39,0.19-2.09,0.29l-0.16-1.05c0.7-0.11,1.41-0.21,2.12-0.3
		L137.11,67.21z M135.22,232.13l-0.16,1.05c-0.71-0.11-1.41-0.22-2.11-0.35l0.19-1.05C133.83,231.91,134.52,232.02,135.22,232.13z
		 M132.94,67.85c-0.69,0.13-1.38,0.26-2.07,0.4l-0.22-1.04c0.7-0.14,1.4-0.28,2.1-0.41L132.94,67.85z M131.06,231.39l-0.21,1.04
		c-0.7-0.14-1.39-0.29-2.09-0.45l0.24-1.04C129.69,231.1,130.37,231.25,131.06,231.39z M128.81,68.7c-0.69,0.16-1.37,0.33-2.05,0.5
		l-0.27-1.03c0.69-0.18,1.38-0.35,2.07-0.51L128.81,68.7z M126.95,230.44l-0.27,1.03c-0.69-0.18-1.38-0.36-2.06-0.56l0.29-1.03
		C125.59,230.08,126.27,230.27,126.95,230.44z M124.73,69.76c-0.68,0.2-1.35,0.4-2.02,0.61l-0.32-1.02
		c0.68-0.21,1.36-0.42,2.04-0.61L124.73,69.76z M122.9,229.29l-0.32,1.02c-0.68-0.21-1.36-0.44-2.04-0.66l0.34-1.01
		C121.55,228.86,122.22,229.08,122.9,229.29z M120.71,71.03c-0.67,0.23-1.33,0.46-1.99,0.71l-0.37-1c0.67-0.25,1.34-0.49,2.01-0.72
		L120.71,71.03z M118.89,227.92l-0.37,1c-0.67-0.25-1.34-0.5-2-0.77l0.39-0.99C117.57,227.42,118.23,227.68,118.89,227.92z
		 M116.75,72.5c-0.65,0.26-1.3,0.53-1.94,0.81l-0.42-0.98c0.65-0.28,1.31-0.55,1.97-0.82L116.75,72.5z M114.96,226.36l-0.42,0.98
		c-0.66-0.28-1.31-0.57-1.96-0.87l0.44-0.97C113.67,225.79,114.31,226.08,114.96,226.36z M112.89,74.16
		c-0.64,0.29-1.27,0.59-1.9,0.91l-0.47-0.96c0.64-0.31,1.28-0.62,1.92-0.92L112.89,74.16z M111.12,224.59l-0.47,0.96
		c-0.64-0.31-1.28-0.64-1.91-0.97l0.49-0.94C109.86,223.96,110.49,224.28,111.12,224.59z M109.12,76.02c-0.62,0.33-1.24,0.66-1.85,1
		l-0.52-0.93c0.62-0.34,1.25-0.68,1.87-1.01L109.12,76.02z M107.37,222.63l-0.52,0.93c-0.62-0.35-1.24-0.7-1.86-1.06l0.54-0.92
		C106.15,221.94,106.76,222.29,107.37,222.63z M105.44,78.07c-0.6,0.36-1.2,0.72-1.8,1.09l-0.56-0.9c0.6-0.38,1.21-0.75,1.82-1.11
		L105.44,78.07z M103.73,220.49l-0.56,0.9c-0.61-0.38-1.21-0.76-1.8-1.16l0.58-0.89C102.54,219.73,103.14,220.11,103.73,220.49z
		 M101.88,80.3c-0.59,0.39-1.17,0.78-1.74,1.18l-0.61-0.87c0.58-0.41,1.17-0.81,1.76-1.2L101.88,80.3z M100.21,218.16l-0.61,0.87
		c-0.59-0.41-1.17-0.82-1.74-1.24l0.63-0.86C99.06,217.35,99.63,217.76,100.21,218.16z M98.42,82.72c-0.57,0.42-1.13,0.84-1.68,1.27
		l-0.65-0.84c0.56-0.44,1.13-0.87,1.7-1.29L98.42,82.72z M96.81,215.66l-0.65,0.84c-0.56-0.44-1.12-0.88-1.67-1.33l0.67-0.83
		C95.7,214.79,96.25,215.23,96.81,215.66z M95.09,85.3c-0.54,0.44-1.08,0.9-1.62,1.35l-0.69-0.81c0.54-0.46,1.08-0.92,1.64-1.37
		L95.09,85.3z M93.54,212.99l-0.69,0.81c-0.54-0.46-1.07-0.94-1.6-1.41l0.71-0.79C92.48,212.07,93.01,212.53,93.54,212.99z
		 M91.9,88.05c-0.52,0.47-1.04,0.95-1.55,1.43l-0.73-0.77c0.52-0.49,1.04-0.98,1.57-1.45L91.9,88.05z M90.41,210.16l-0.73,0.77
		c-0.52-0.49-1.03-0.99-1.53-1.49l0.75-0.75C89.4,209.19,89.9,209.68,90.41,210.16z M88.85,90.96c-0.5,0.5-0.99,1-1.47,1.51
		l-0.77-0.73c0.49-0.52,0.99-1.03,1.49-1.53L88.85,90.96z M87.43,207.18l-0.77,0.73c-0.49-0.52-0.97-1.04-1.45-1.57l0.79-0.71
		C86.46,206.16,86.94,206.67,87.43,207.18z M85.94,94.02c-0.47,0.52-0.94,1.05-1.39,1.58l-0.81-0.7c0.46-0.54,0.93-1.07,1.41-1.6
		L85.94,94.02z M84.6,204.05l-0.81,0.69c-0.46-0.54-0.92-1.08-1.37-1.64l0.82-0.67C83.69,202.98,84.14,203.52,84.6,204.05z
		 M83.19,97.22c-0.44,0.54-0.88,1.1-1.31,1.65l-0.84-0.65c0.44-0.56,0.88-1.12,1.33-1.67L83.19,97.22z M81.93,200.79l-0.84,0.65
		c-0.44-0.56-0.87-1.13-1.29-1.7l0.86-0.63C81.08,199.68,81.5,200.24,81.93,200.79z M80.61,100.56c-0.42,0.57-0.83,1.14-1.23,1.72
		l-0.87-0.61c0.41-0.59,0.82-1.17,1.24-1.74L80.61,100.56z M79.43,197.4l-0.87,0.61c-0.41-0.58-0.81-1.17-1.2-1.76l0.89-0.59
		C78.64,196.24,79.03,196.82,79.43,197.4z M78.2,104.02c-0.39,0.59-0.77,1.18-1.14,1.78l-0.9-0.57c0.38-0.6,0.76-1.21,1.15-1.8
		L78.2,104.02z M77.11,193.88l-0.9,0.56c-0.38-0.6-0.75-1.21-1.11-1.82l0.92-0.54C76.37,192.69,76.74,193.29,77.11,193.88z
		 M75.96,107.61c-0.36,0.61-0.71,1.22-1.05,1.83l-0.93-0.52c0.35-0.62,0.7-1.24,1.06-1.86L75.96,107.61z M74.97,190.26l-0.93,0.52
		c-0.35-0.62-0.68-1.25-1.01-1.87l0.94-0.5C74.29,189.03,74.63,189.65,74.97,190.26z M73.91,111.3c-0.33,0.62-0.64,1.25-0.95,1.89
		L72,112.72c0.31-0.64,0.64-1.28,0.97-1.91L73.91,111.3z M73.02,186.53L72.06,187c-0.31-0.64-0.62-1.28-0.92-1.92l0.97-0.45
		C72.4,185.27,72.71,185.9,73.02,186.53z M72.05,115.1c-0.29,0.64-0.58,1.29-0.86,1.93l-0.98-0.42c0.28-0.66,0.57-1.31,0.87-1.96
		L72.05,115.1z M71.25,182.72l-0.98,0.42c-0.28-0.65-0.55-1.31-0.82-1.97l0.99-0.4C70.71,181.43,70.98,182.07,71.25,182.72z
		 M70.38,118.98c-0.26,0.66-0.51,1.31-0.76,1.97l-1-0.37c0.25-0.67,0.5-1.34,0.77-2L70.38,118.98z M69.69,178.81l-1,0.37
		c-0.25-0.67-0.49-1.34-0.72-2.01l1.01-0.35C69.21,177.49,69.44,178.15,69.69,178.81z M68.92,122.95c-0.23,0.67-0.45,1.34-0.66,2.01
		l-1.02-0.32c0.21-0.68,0.44-1.36,0.67-2.04L68.92,122.95z M68.32,174.82l-1.02,0.32c-0.21-0.68-0.42-1.36-0.61-2.04l1.02-0.29
		C67.91,173.47,68.11,174.15,68.32,174.82z M67.66,126.99c-0.19,0.68-0.37,1.36-0.55,2.04l-1.03-0.26c0.18-0.69,0.36-1.38,0.56-2.06
		L67.66,126.99z M67.16,170.76l-1.03,0.27c-0.18-0.69-0.35-1.38-0.51-2.08l1.04-0.24C66.81,169.4,66.98,170.08,67.16,170.76z
		 M66.61,131.07c-0.16,0.68-0.31,1.37-0.45,2.06l-1.04-0.21c0.14-0.7,0.29-1.4,0.45-2.09L66.61,131.07z M66.2,166.65l-1.04,0.21
		c-0.14-0.7-0.28-1.39-0.4-2.1l1.05-0.19C65.93,165.28,66.06,165.97,66.2,166.65z M65.77,135.21c-0.12,0.69-0.23,1.38-0.34,2.08
		l-1.05-0.16c0.11-0.71,0.22-1.41,0.35-2.11L65.77,135.21z M65.46,162.5l-1.05,0.16c-0.11-0.7-0.21-1.41-0.3-2.12l1.06-0.13
		C65.25,161.11,65.35,161.81,65.46,162.5z M65.14,139.38c-0.09,0.7-0.17,1.4-0.23,2.1l-1.06-0.11c0.07-0.71,0.15-1.42,0.24-2.12
		L65.14,139.38z M64.93,158.32l-1.06,0.11c-0.07-0.71-0.13-1.42-0.19-2.13l1.06-0.08C64.79,156.92,64.85,157.62,64.93,158.32z
		 M64.72,143.57c-0.05,0.7-0.09,1.4-0.13,2.1l-1.06-0.05c0.04-0.71,0.08-1.42,0.13-2.13L64.72,143.57z M64.6,154.11l-1.06,0.05
		c-0.04-0.71-0.06-1.42-0.08-2.13l1.07-0.03C64.54,152.71,64.57,153.41,64.6,154.11z M64.52,147.79c-0.02,0.67-0.02,1.34-0.02,2.01
		l-1.07,0.1v-0.1c0-0.68,0.01-1.36,0.02-2.04L64.52,147.79z"/>
</g>
<g id="B">
	<g>
		<rect x="65.02" y="416.86" class="st3" width="0.88" height="97.88"/>
		<rect x="229.23" y="416.86" class="st3" width="0.88" height="97.88"/>
		<polygon class="st3" points="223.18,510.31 227.85,506.99 223.21,503.63 223.2,506.61 71.27,506.61 71.26,503.58 66.62,506.95 
			71.29,510.27 71.28,507.51 223.19,507.51 		"/>
		<rect x="80.68" y="301.86" class="st3" width="0.88" height="88.54"/>
		<rect x="213.39" y="301.86" class="st3" width="0.88" height="88.54"/>
		<polygon class="st3" points="206.3,312.84 210.95,309.47 206.27,306.15 206.29,309.14 87.11,309.14 87.12,306.11 82.45,309.43 
			87.09,312.8 87.11,309.92 206.29,309.92 		"/>
	</g>
</g>
<g id="C">
	<g>
		<rect x="67.1" y="142.11" class="st4" width="1" height="1"/>
		<rect x="104.95" y="142.11" class="st4" width="1.94" height="1"/>
		<rect x="101.08" y="142.11" class="st4" width="1.94" height="1"/>
		<rect x="108.83" y="142.11" class="st4" width="1.94" height="1"/>
		<rect x="116.59" y="142.11" class="st4" width="1.94" height="1"/>
		<rect x="120.47" y="142.11" class="st4" width="1.94" height="1"/>
		<rect x="97.2" y="142.11" class="st4" width="1.94" height="1"/>
		<rect x="112.71" y="142.11" class="st4" width="1.94" height="1"/>
		<rect x="73.92" y="142.11" class="st4" width="1.94" height="1"/>
		<rect x="77.8" y="142.11" class="st4" width="1.94" height="1"/>
		<rect x="70.04" y="142.11" class="st4" width="1.94" height="1"/>
		<rect x="93.32" y="142.11" class="st4" width="1.94" height="1"/>
		<rect x="85.56" y="142.11" class="st4" width="1.94" height="1"/>
		<rect x="81.68" y="142.11" class="st4" width="1.94" height="1"/>
		<rect x="89.44" y="142.11" class="st4" width="1.94" height="1"/>
		<rect x="124.35" y="142.11" class="st4" width="1" height="1"/>
		<rect x="66.35" y="156.11" class="st4" width="1" height="1"/>
		<rect x="108.08" y="156.11" class="st4" width="1.94" height="1"/>
		<rect x="104.2" y="156.11" class="st4" width="1.94" height="1"/>
		<rect x="100.33" y="156.11" class="st4" width="1.94" height="1"/>
		<rect x="96.45" y="156.11" class="st4" width="1.94" height="1"/>
		<rect x="92.57" y="156.11" class="st4" width="1.94" height="1"/>
		<rect x="119.72" y="156.11" class="st4" width="1.94" height="1"/>
		<rect x="111.96" y="156.11" class="st4" width="1.94" height="1"/>
		<rect x="115.84" y="156.11" class="st4" width="1.94" height="1"/>
		<rect x="73.17" y="156.11" class="st4" width="1.94" height="1"/>
		<rect x="77.05" y="156.11" class="st4" width="1.94" height="1"/>
		<rect x="69.29" y="156.11" class="st4" width="1.94" height="1"/>
		<rect x="84.81" y="156.11" class="st4" width="1.94" height="1"/>
		<rect x="80.93" y="156.11" class="st4" width="1.94" height="1"/>
		<rect x="88.69" y="156.11" class="st4" width="1.94" height="1"/>
		<rect x="123.6" y="156.11" class="st4" width="1" height="1"/>
		<polygon class="st4" points="121.85,148.44 121.85,151.16 118.96,151.16 122.29,155.82 125.65,151.17 122.91,151.17 
			122.91,148.44 125.67,148.43 122.31,143.78 118.98,148.45 		"/>
	</g>
</g>
</svg>
