<?xml version="1.0" encoding="utf-8"?>
<!-- Generator: Adobe Illustrator 23.0.0, SVG Export Plug-In . SVG Version: 6.00 Build 0)  -->
<svg version="1.1" id="Layer_1" xmlns="http://www.w3.org/2000/svg" xmlns:xlink="http://www.w3.org/1999/xlink" x="0px" y="0px"
	 viewBox="0 0 225.3 299" style="enable-background:new 0 0 225.3 299;" xml:space="preserve">
<style type="text/css">
	.st0{fill:#32A936;}
	.st1{fill:#D41116;}
</style>
<path class="st0" d="M123.3,278.4v-33l2.3-2.1v-28v-0.7V82.3v-0.2V53.6l-2.3-2.1v-33l2.7-3.9l-3.1-7h-5.6h-0.1h-5.9l-3.1,7l2.6,3.9
	v33l-2.3,2.1v28.7h0.1v132.3v28.7l2.3,2.1v33l-2.6,3.9l3.1,7h5.9h0.1h5.6l3.1-7L123.3,278.4z M122.3,244.9v3.9l-10.6,10.6v-5.9
	l12.8-12.9v2.2h0.1L122.3,244.9z M114.8,277.8h-3.1v-2.4l10.6-10.6v5.6L114.8,277.8z M122.3,271.8v6h-6L122.3,271.8z M111.7,274v-6
	l10.6-10.6v6L111.7,274z M111.7,266.5v-5.7l10.6-10.6v5.7L111.7,266.5z M124.6,239.1L111.7,252v-6l10.7-10.3h2.2V239.1z
	 M124.6,234.7h-2.4l-0.1-0.1l-0.1,0.1h-3.8v-8h6.4V234.7z M124.6,225.7h-6.7l-0.3-0.1l7-6.6V225.7z M112.8,215.7h4.9v-0.1h0.5h0.7
	l-6.5,6.8l-2.9-1.8l-0.1,0.2v-1.2L112.8,215.7z M109.5,218v-2.4h0.1h1.9L109.5,218z M117.1,226.5v8.6l-7.7,4.7v-18.1L117.1,226.5z
	 M116.6,225l-3.4-2.1l7.1-7.3h4.2v2L116.6,225z M124.6,71.2V78l-7-6.6l0.3-0.2H124.6z M118.2,70.1v-8l3.9,0.1l2.5-0.1v8H118.2z
	 M124.6,79.3l-0.1,2h-4.2l-7-7.3l3.4-2.1L124.6,79.3z M124.6,61.1h-2.2l-10.6-10.3v-6l12.8,12.9V61.1z M124.5,54v2.3l-12.8-12.9
	v-5.9l10.6,10.6v3.8L124.5,54z M122.3,26.4V32l-10.6-10.6V19h3.1L122.3,26.4z M116.3,19h6v6L116.3,19z M122.3,33.5v6l-10.6-10.6v-6
	L122.3,33.5z M122.3,40.9v5.7L111.7,36v-5.7L122.3,40.9z M109.3,14.4l2.6-5.9h5.3h0.1h4.9l2.5,5.9l-2.3,3.6h-10.8L109.3,14.4z
	 M109.5,54l2.1-1.9l9.4,9h-2.9l-8.6-5.2V54z M109.5,57l7.7,4.7v8.6l-7.7,4.8V57z M109.4,76.1l0.1,0.2l2.9-1.8l6.5,6.8h-0.7v-0.1
	h-0.5h-4.9l-3.4-3.9V76.1z M109.5,81.3v-2.4l2,2.4H109.5z M117.8,82.3h0.5h1.7h4.5v132.2H120h-1.7h-0.5h-8.1V82.3H117.8z
	 M109.4,242.8v-1.9l8.6-5.2h2.9l-9.4,9.1L109.4,242.8z M122.2,288.3h-4.9h-0.1h-5.3l-2.6-5.9l2.3-3.6h10.8l2.3,3.6L122.2,288.3z"/>
<g id="B">
	<rect x="130.8" y="81.3" class="st1" width="88.5" height="0.9"/>
	<rect x="130.8" y="214" class="st1" width="88.5" height="0.9"/>
	<polygon class="st1" points="208.4,206.9 211.8,211.6 215.1,206.9 212.1,206.9 212.1,87.8 215.1,87.8 211.8,83.1 208.4,87.7 
		211.3,87.8 211.3,206.9 	"/>
</g>
<g id="A_1_">
	<rect x="6.5" y="65.7" class="st1" width="97.9" height="0.9"/>
	<rect x="6.5" y="229.9" class="st1" width="97.9" height="0.9"/>
	<polygon class="st1" points="10.9,223.8 14.2,228.5 17.6,223.9 14.6,223.8 14.6,71.9 17.6,71.9 14.3,67.3 11,71.9 13.7,71.9 
		13.7,223.8 	"/>
</g>
</svg>
