<?xml version="1.0" encoding="utf-8"?>
<!-- Generator: Adobe Illustrator 23.0.0, SVG Export Plug-In . SVG Version: 6.00 Build 0)  -->
<svg version="1.1" xmlns="http://www.w3.org/2000/svg" xmlns:xlink="http://www.w3.org/1999/xlink" x="0px" y="0px"
	 viewBox="0 0 428.9 218.4" style="enable-background:new 0 0 428.9 218.4;" xml:space="preserve">
<style type="text/css">
	.st0{fill:#D41116;}
	.st1{fill:#E94445;}
</style>
<g id="biela_frente">
	<rect x="12.4" y="110.9" class="st0" width="405.5" height="1"/>
	<rect x="86.07" y="42.07" class="st1" width="1" height="168"/>
	<rect x="346.4" y="42.07" class="st1" width="1" height="168"/>
	<path class="st1" d="M86.57,150.84c-21.38,0-38.77-17.39-38.77-38.77S65.19,73.3,86.57,73.3s38.77,17.39,38.77,38.77
		C125.33,130.71,110.51,150.84,86.57,150.84z M86.57,74.3c-20.83,0-37.77,16.94-37.77,37.77c0,20.82,16.94,37.77,37.77,37.77
		c23.33,0,37.77-19.6,37.77-37.77C124.33,91.25,107.39,74.3,86.57,74.3z"/>
	<path class="st1" d="M346.9,138.83c-15.13,0-27.43-12.31-27.43-27.43c0-15.13,12.3-27.43,27.43-27.43
		c15.12,0,27.43,12.31,27.43,27.43C374.33,124.6,363.84,138.83,346.9,138.83z M346.9,84.97c-14.57,0-26.43,11.86-26.43,26.43
		s11.86,26.43,26.43,26.43c16.32,0,26.43-13.72,26.43-26.43C373.33,96.83,361.47,84.97,346.9,84.97z"/>
	<path class="st1" d="M346.9,67.89c-13.92,0-26.32,6.58-34.29,16.77c-0.78,0.49-3.47,2.16-4.24,2.65
		c-2.66,1.7-13.47,2.84-16.46,2.84l-1.54,0c-27.09,0.04-116.17,0.09-125.08-0.99c-9.46-1.15-32.96-13.83-35.41-15.17
		c-10.58-12.01-26.06-19.62-43.29-19.62c-31.81,0-57.69,25.88-57.69,57.69c0,31.81,25.88,57.69,57.69,57.69
		c16.14,0,30.98-6.33,41.8-17.83c0.73-0.77,1.42-1.57,2.11-2.38c2.5-1.44,25.7-14.64,35.14-15.79c8.91-1.09,98-1.04,125.08-0.99
		l1.54,0c2.99,0,13.81,1.15,16.46,2.84c0.66,0.42,2.68,1.68,3.76,2.35c7.97,10.3,20.44,16.96,34.44,16.96
		c26.88,0,43.52-22.59,43.52-43.52C390.42,87.41,370.9,67.89,346.9,67.89z M86.57,167.76c-30.71,0-55.69-24.98-55.69-55.69
		c0-30.71,24.98-55.69,55.69-55.69s55.69,24.98,55.69,55.69C142.26,138.85,120.97,167.76,86.57,167.76z M292.23,130.77l-1.54,0
		c-34.76-0.05-116.55-0.06-125.33,1.01c-7.84,0.96-23.99,9.43-31.77,13.72c6.85-9.77,10.67-21.58,10.67-33.43
		c0-12.75-4.16-24.54-11.19-34.1c7.85,4.11,24.13,12.22,31.96,13.17c7.14,0.87,62.48,1.03,101.62,1.03c9.03,0,17.2-0.01,23.71-0.02
		l1.54,0c2.49,0,14.18-1.02,17.54-3.16c0.07-0.05,0.17-0.11,0.27-0.17c-4.01,6.59-6.33,14.32-6.33,22.58
		c0,8.21,2.29,15.89,6.25,22.44C306.11,131.76,294.69,130.77,292.23,130.77z M346.9,152.92c-13.31,0-25.17-6.3-32.78-16.08
		l0.09-0.15c0,0-0.16-0.1-0.4-0.25c-5.29-6.97-8.43-15.64-8.43-25.05c0-22.89,18.63-41.52,41.52-41.52
		c22.89,0,41.52,18.63,41.52,41.52C388.42,131.37,372.54,152.92,346.9,152.92z"/>
</g>
<g id="A">
	<polygon class="st0" points="125.11,25.06 120.45,21.71 120.45,24.65 52.94,24.65 52.94,21.75 48.28,25.1 52.94,28.44 52.94,25.65 
		120.45,25.65 120.45,28.4 	"/>
	<rect x="125.27" y="17.22" width="1" height="32.88"/>
	<rect x="46.86" y="17.22" width="1" height="32.88"/>
</g>
<g id="B">
	<polygon class="st0" points="373.92,25.06 369.26,21.71 369.26,24.65 324.5,24.65 324.5,21.75 319.85,25.1 324.5,28.44 
		324.5,25.65 369.26,25.65 369.26,28.4 	"/>
	<rect x="374.32" y="17.2" width="1" height="32.87"/>
	<rect x="318.48" y="17.23" width="1" height="32.88"/>
	<rect x="374.32" y="17.2" width="1" height="32.87"/>
	<rect x="318.48" y="17.23" width="1" height="32.88"/>
</g>
<g id="C">
	<polygon class="st0" points="345.25,200.06 340.6,196.71 340.6,199.65 93.67,199.65 93.67,196.75 89.01,200.1 93.67,203.44 
		93.67,200.65 340.6,200.65 340.6,203.4 	"/>
</g>
</svg>
