<?xml version="1.0" encoding="utf-8"?>
<!-- Generator: Adobe Illustrator 23.0.0, SVG Export Plug-In . SVG Version: 6.00 Build 0)  -->
<svg version="1.1" xmlns="http://www.w3.org/2000/svg" xmlns:xlink="http://www.w3.org/1999/xlink" x="0px" y="0px"
	 viewBox="0 0 296 119" style="enable-background:new 0 0 296 119;" xml:space="preserve">
<style type="text/css">
	.st0{fill:#E94445;}
	.st1{fill:#D41116;}
</style>
<g id="Capa_1">
	<path class="st0" d="M44.33,101c-15.99,0-29-13.01-29-29c0-15.99,13.01-29,29-29s29,13.01,29,29C73.33,87.99,60.32,101,44.33,101z
		 M44.33,45c-14.89,0-27,12.11-27,27s12.11,27,27,27s27-12.11,27-27S59.22,45,44.33,45z"/>
	<path class="st0" d="M277.25,100.75h-141V43h141V100.75z M138.25,98.75h137V45h-137V98.75z"/>
</g>
<g id="H">
	<polygon class="st1" points="71.67,26.56 67.01,23.21 67.01,26.15 22.25,26.15 22.25,23.25 17.6,26.6 22.25,29.94 22.25,27.15 
		67.01,27.15 67.01,29.9 	"/>
	<rect x="73.32" y="18.98" width="1" height="32.87"/>
	<rect x="14.31" y="18.73" width="1" height="32.88"/>
</g>
<g id="I">
	<rect x="277.57" y="18.88" width="1" height="19.89"/>
	<rect x="135.19" y="18.73" width="1" height="19.89"/>
	<polygon class="st1" points="276.81,26.87 272.15,23.52 272.15,26.4 142.1,26.4 142.1,23.57 137.45,26.92 142.1,30.26 142.1,27.4 
		272.15,27.4 272.15,30.21 	"/>
</g>
</svg>
