<?xml version="1.0" encoding="utf-8"?>
<!-- Generator: Adobe Illustrator 23.0.0, SVG Export Plug-In . SVG Version: 6.00 Build 0)  -->
<svg version="1.1" xmlns="http://www.w3.org/2000/svg" xmlns:xlink="http://www.w3.org/1999/xlink" x="0px" y="0px"
	 viewBox="0 0 469 144" style="enable-background:new 0 0 469 144;" xml:space="preserve">
<style type="text/css">
	.st0{fill:#E94445;}
	.st1{fill:#D41116;}
</style>
<g id="Capa_1">
</g>
<g id="biela_frente">
</g>
<g id="biela_de_lado">
	<path class="st0" d="M417.88,73.12L417.88,73.12l0-1.39V60.35v-1.39V54l-3.24-2.98l-0.73-0.67l-5.36-4.92l-0.74-0.67l-1.43-1.31
		h-43.83h-1.42h-11.57h-1.42H337.5l-17.33,18.75h-2.42h-1.42h-11.14h-1.42h-9.63h-1.42H280.9h-1.42h-11.72h-1.42h-9.95h-1.42h-10.98
		h-1.42h-11.14h-1.42h-10.05h-1.42h-10.77h-1.42h-9.9H195h-10.66h-1.42h-0.53l-5.8-5.49l-0.72-0.68l-6.14-5.82l-0.72-0.69
		l-5.24-4.96l-0.72-0.69l-0.45-0.43h-33.34h-1.17h-11.36h-1.42h-10.64h-1.42H91.83h-1.42H77.74h-1.42h-7.34L56,55.67v7.64v1.39
		v12.39v1.39v1.62h0v9.51v1.39v1.88l4.44,4.19l0.72,0.68l5.79,5.45l0.72,0.68l1.3,1.23h31.42h1.42h10.32h1.42h12.09h1.42h11.94h1.42
		h10.66h1.42h9.9h0.15l3.82-3.61l16.63-15.14h10.77h1.42h10.05h1.42h11.14h1.42h10.98h1.42h9.95h1.42h11.72h1.42h11.81h1.42h9.63
		h1.42h11.14h1.42h11.21h1.42h11.57h1.42h1.52l4.27,4.63l0.68,0.73l5.21,5.63l0.68,0.73l4.8,5.19l0.67,0.73l1.02,1.11h33.17h1.42
		h11.63h1.42h11.41h1.42h8.39l11.5-10.56v-8.89v-1.39L417.88,73.12L417.88,73.12z M415.89,54.88v6.01l-13.24,12.95V62.73
		l10.55-10.32L415.89,54.88z M344.94,103.44V45.77h56.72v57.67H344.94z M402.65,75.24l13.24-12.95v11.38l-13.24,12.95V75.24z
		 M407.11,46.81l5.36,4.92l-9.82,9.6V51.17L407.11,46.81z M406.38,46.14l-3.72,3.64v-4.34h2.96L406.38,46.14z M192.95,64.19
		L157.98,98.4V87.97l24.31-23.78H192.95z M78.28,67.83L57.98,87.68V76.54l20.29-19.85V67.83z M79.27,45.44h9.1l-0.02,0.02h1.42
		l0.02-0.02h11.39l-0.02,0.02h1.42l0.02-0.02h10.64l-0.02,0.02h1.42l0.02-0.02h11.36L126,45.46h1.42l0.02-0.02h29.54v57.5H79.27
		V45.44z M181.23,63.84l-23.25,22.74V74.89l17.18-16.8L181.23,63.84z M174.43,57.41L157.98,73.5V61.68l10.31-10.09L174.43,57.41z
		 M167.57,50.91l-9.59,9.38V50.2l4.35-4.25L167.57,50.91z M157.98,48.8v-3.37h3.44L157.98,48.8z M57.98,56.54l11.78-11.1h4.52
		L57.98,61.38V56.54z M57.98,62.77L75.7,45.44h2.58v9.87L57.98,75.15v-6.7h0V62.77z M57.98,92.02v-2.95l20.29-19.85v10.41
		L61.87,95.68L57.98,92.02z M68.38,101.82l-5.79-5.45l15.68-15.34v11.11L68.38,101.82z M69.1,102.5l9.17-8.97v9.59h-8.52L69.1,102.5
		z M181.6,84.37l-19.8,18.75h-3.82v-3.33l36.4-35.6h9.9l-20.63,20.18H181.6z M185.07,84.37l20.64-20.18h10.77l-20.64,20.18H185.07z
		 M197.26,84.37l20.64-20.18h10.05l-20.63,20.18H197.26z M208.74,84.37l20.64-20.18h11.14l-20.63,20.18H208.74z M221.3,84.37
		l20.63-20.18h10.98l-20.63,20.18H221.3z M233.7,84.37l20.63-20.18h9.96l-20.64,20.18H233.7z M245.07,84.37l20.64-20.18h11.72
		l-20.64,20.18H245.07z M258.22,84.37l20.64-20.18h11.81l-20.64,20.18H258.22z M271.45,84.37l20.64-20.18h9.63l-20.63,20.18H271.45z
		 M282.51,84.37l20.63-20.18h11.14l-20.64,20.18H282.51z M295.07,84.37l20.64-20.18h5.32l17.33-18.75h5.59v2.09l-37.67,36.84H295.07
		z M319.28,84.37h-11.57l36.24-35.45v11.32L319.28,84.37z M321.03,84.37h-0.33l23.25-22.74v10.29L325.87,89.6L321.03,84.37z
		 M326.55,90.33l17.4-17.02v10.73l-12.2,11.93L326.55,90.33z M337.22,101.89l-4.79-5.19l11.52-11.27v9.88L337.22,101.89z
		 M337.9,102.62l6.05-5.92v6.42h-5.59L337.9,102.62z M415.9,93.68l-10.28,9.44h-2.96v-2.56L415.9,87.6V93.68z M415.9,86.21
		l-13.25,12.96V88.01l13.24-12.95v0.38h0V86.21z"/>
</g>
<g id="D">
	<polygon class="st1" points="417.42,23.05 412.76,19.71 412.76,22.65 62,22.65 62,19.75 57.35,23.1 62,26.44 62,23.65 
		412.76,23.65 412.76,26.4 	"/>
	<rect x="55.04" y="11.96" width="1" height="30.14"/>
	<rect x="417.89" y="12.67" width="1" height="30.14"/>
</g>
<g id="E">
	<polygon class="st1" points="28.47,45.8 25.13,50.78 28.07,50.78 28.07,98.68 25.17,98.68 28.51,103.67 31.85,98.68 29.07,98.68 
		29.07,50.78 31.81,50.78 	"/>
	<rect x="19.59" y="42.4" width="32.88" height="1"/>
	<rect x="19.59" y="105.24" width="32.88" height="1"/>
</g>
<g id="F">
	<polygon class="st1" points="444.6,50.66 447.55,50.66 444.2,45.67 440.86,50.66 443.6,50.66 443.6,98.56 440.82,98.56 
		444.16,103.54 447.51,98.56 444.6,98.56 	"/>
	<rect x="420.21" y="42.28" width="32.88" height="1"/>
	<rect x="420.21" y="105.11" width="32.88" height="1"/>
</g>
<g id="G">
	<polygon class="st1" points="341.88,118.05 337.22,114.71 337.22,117.65 164.59,117.65 164.59,114.75 159.93,118.1 164.59,121.44 
		164.59,118.65 337.22,118.65 337.22,121.4 	"/>
	<rect x="157.38" y="106.96" width="1" height="30.14"/>
	<rect x="343.89" y="106.67" width="1" height="30.14"/>
</g>
</svg>
