<?xml version="1.0" encoding="utf-8"?>
<!-- Generator: Adobe Illustrator 23.0.0, SVG Export Plug-In . SVG Version: 6.00 Build 0)  -->
<svg version="1.1" id="Layer_1" xmlns="http://www.w3.org/2000/svg" xmlns:xlink="http://www.w3.org/1999/xlink" x="0px" y="0px"
	 viewBox="0 0 57 261" style="enable-background:new 0 0 57 261;" xml:space="preserve">
<style type="text/css">
	.st0{fill:#4EB162;}
	.st1{fill:#D41116;}
</style>
<g id="Capa_2">
	<path class="st0" d="M44.4,75.6V21.7l-4-9h-9.8l-4.4,8.6v34.8H15.4v12.5h6c0.2,0,4,0.1,4,3.5s-4.3,3.5-4.5,3.5h-5.7v7.3v1v67h0v8.3
		h5.7c0.2,0,4.5,0.1,4.5,3.5s-3.8,3.5-4,3.5h-6v12.5h10.8v34.8l4.4,8.6h9.8l4-9v-53.8h3.5v-7.3h0v-68v-1v-7.3L44.4,75.6L44.4,75.6z
		 M44.5,76.6h2.4v6.3h-9.2L44.5,76.6z M16.2,151.9L16.2,151.9L16.2,151.9L16.2,151.9z M28.9,82.9h-5.6l20.1-19.6v5.6L28.9,82.9z
		 M43.4,70.3v5.9l-7.1,6.7h-5.9L43.4,70.3z M46.3,83.9l-2,2.5h-24l-3.1-2.5H46.3z M44.1,87.4v60.5H20.4V87.4H44.1z M19.4,87v61.2
		l-3.2,2.1V84.5L19.4,87z M20.2,148.9h24.2l1.9,2H17.1L20.2,148.9z M45.1,87l1.8-2.3v65.5l-1.8-2V87z M27.2,21.5l4-7.8h8.5l3.7,8.1
		v0.2H27.2V21.5z M27.2,23.1H32l-4.8,4.7C27.2,27.8,27.2,23.1,27.2,23.1z M27.2,29.1L27.2,29.1l6.2-6h6L27.2,35.1V29.1z M27.2,36.5
		l13.7-13.5h2.5v3.3L27.2,42V36.5z M27.2,43.4l16.2-15.7v5.9L27.2,49.3V43.4z M27.2,50.7L43.4,35v5.7L27.2,56.6V50.7z M16.4,57.1
		h10.3L16.4,67.2V57.1z M21.4,67.6h-4l26-25.4v5.3l0,0L22.5,67.7C22.1,67.6,21.7,67.6,21.4,67.6z M23.6,68l19.8-19.3v6.3l-17,16.6
		C26.3,69.7,25,68.6,23.6,68z M26.3,73.3L26.3,73.3l17.2-16.8v5.4l-21.5,21h-5.6l7.3-6.8L23.6,76C24.8,75.6,25.9,74.7,26.3,73.3z
		 M16.2,76.6h4.7c0.3,0,0.5,0,0.8-0.1l-5.5,5.1L16.2,76.6L16.2,76.6z M16.2,82.9L16.2,82.9L16.2,82.9L16.2,82.9z M20.9,158.2h-4.7
		v-5l5.5,5.1C21.4,158.3,21.1,158.2,20.9,158.2z M16.4,177.7v-10.1l10.3,10.1H16.4z M43.4,213l-3.7,8.1h-8.5l-4-7.8v-0.6h16.2
		L43.4,213L43.4,213z M32,211.7h-4.8V207L32,211.7z M27.2,205.7v-6.1l12.2,12.1h-6L27.2,205.7L27.2,205.7z M43.4,211.7h-2.5
		l-13.7-13.5v-5.5l16.2,15.6L43.4,211.7L43.4,211.7z M43.4,207.1l-16.2-15.7v-5.9l16.2,15.6V207.1z M43.4,199.8l-16.2-15.6v-5.9
		l16.2,15.9V199.8z M43.4,192.7l-26-25.4h4c0.3,0,0.7,0,1.1-0.1l20.8,20.3l0,0L43.4,192.7L43.4,192.7z M43.4,186.1l-19.8-19.3
		c1.4-0.5,2.6-1.7,2.8-3.7l17,16.6L43.4,186.1L43.4,186.1z M43.4,178.3l-17.1-16.8l0,0c-0.4-1.4-1.5-2.3-2.7-2.8l0.1-0.1l-7.3-6.8
		h5.6l21.5,21L43.4,178.3L43.4,178.3z M43.4,171.5l-20.1-19.6h5.6l14.5,14L43.4,171.5L43.4,171.5z M43.4,164.5l-13.1-12.6h5.9
		l7.1,6.6L43.4,164.5L43.4,164.5z M46.9,158.2h-2.4l-6.8-6.3h9.2L46.9,158.2L46.9,158.2z"/>
</g>
<g id="D">
	<rect x="47.2" y="160.9" class="st1" width="1" height="89.5"/>
	<rect x="15.6" y="179.7" class="st1" width="1" height="71.5"/>
	<polygon class="st1" points="45.9,248 41.2,244.7 41.2,247.1 22.8,247.1 22.8,244.7 18.1,248 22.8,251.4 22.8,249 41.2,249 
		41.2,251.4 	"/>
</g>
</svg>
