<?xml version="1.0" encoding="utf-8"?>
<!-- Generator: Adobe Illustrator 23.0.0, SVG Export Plug-In . SVG Version: 6.00 Build 0)  -->
<svg version="1.1" id="Layer_1" xmlns="http://www.w3.org/2000/svg" xmlns:xlink="http://www.w3.org/1999/xlink" x="0px" y="0px"
	 viewBox="0 0 120.2 215.8" style="enable-background:new 0 0 120.2 215.8;" xml:space="preserve">
<style type="text/css">
	.st0{fill:#D41116;}
</style>
<g id="Capa_1">
	
		<image style="display:none;overflow:visible;enable-background:new    ;" width="164" height="296" xlink:href="C0BB6016.jpeg"  transform="matrix(0.9939 0 0 0.9939 -19.2188 -81.854)">
	</image>
	<path class="st0" d="M93.7,178.3c-1.7-1.3-6.6-2.7-12.2-4.2c-5-1.4-10.7-2.9-14.4-4.6c-7.1-3.3-7.5-8.4-7.5-8.6V22.2h-6.2h-0.8
		h-6.2v138.8c0,0.2-0.3,5.2-7.5,8.6c-3.6,1.7-9.3,3.2-14.4,4.6c-5.6,1.5-10.5,2.9-12.2,4.2C9,180.9,9,184,9,184.2v0.5h43.7h0.8h43.7
		v-0.5C97.2,184,97.1,180.9,93.7,178.3z M47.5,23.2h5.2h0.8h5.2v11.7h-5.2h-0.8h-5.2V23.2z M24.9,175c5.1-1.4,10.8-2.9,14.5-4.7
		c7.7-3.6,8-9.2,8-9.4v-125h5.2h0.8h5.2v125c0,0.2,0.3,5.8,8,9.4c3.7,1.7,9.4,3.3,14.5,4.7c3.7,1,7.2,2,9.6,2.9H53.5h-0.8H15.3
		C17.7,177,21.2,176,24.9,175z M53.5,183.7h-0.8H10c0.1-0.9,0.7-2.9,3-4.6c0.1-0.1,0.1-0.1,0.2-0.1h39.4h0.8h39.4
		c0.1,0.1,0.2,0.1,0.2,0.1c2.3,1.7,2.8,3.7,3,4.6H53.5z"/>
</g>
<g id="A">
	<rect x="59.7" y="5.1" class="st0" width="1" height="14.3"/>
	<rect x="45.3" y="4.8" class="st0" width="1" height="14.3"/>
	<polygon class="st0" points="54.5,11.1 59.2,7.8 54.5,4.5 54.5,7.1 51.4,7.1 51.4,4.5 46.7,7.8 51.4,11.1 51.4,8.4 54.5,8.4 	"/>
</g>
<g id="B">
	<rect x="60" y="20.7" class="st0" width="56" height="1"/>
	<rect x="99.9" y="184" class="st0" width="16.1" height="1"/>
	<polygon class="st0" points="107.8,27 110.8,27 107.4,22.3 104.1,27 107,27 107,178.4 104.1,178.4 107.4,183.1 110.8,178.4 
		107.8,178.4 	"/>
</g>
<g id="C">
	<rect x="97.2" y="186.8" class="st0" width="1" height="23.7"/>
	<rect x="8" y="187" class="st0" width="1" height="23.7"/>
	<polygon class="st0" points="96.8,204.2 92.2,200.9 92.2,203.8 13.9,203.8 13.9,200.9 9.2,204.2 13.9,207.6 13.9,204.7 92.2,204.7 
		92.2,207.6 	"/>
</g>
</svg>
